<svg width="45" height="45" viewBox="0 0 45 45" fill="none" xmlns="http://www.w3.org/2000/svg">
<g opacity="0.5">
<path d="M22.5 41.25C32.8313 41.25 41.25 32.8313 41.25 22.5C41.25 12.1687 32.8313 3.75 22.5 3.75C12.1687 3.75 3.75 12.1687 3.75 22.5C3.75 32.8313 12.1687 41.25 22.5 41.25ZM17.2687 21.5063L23.8875 14.8875C24.1687 14.6063 24.525 14.475 24.8813 14.475C25.2375 14.475 25.5938 14.6063 25.875 14.8875C26.4188 15.4313 26.4188 16.3312 25.875 16.875L20.25 22.5L25.875 28.125C26.4188 28.6687 26.4188 29.5688 25.875 30.1125C25.3313 30.6562 24.4312 30.6562 23.8875 30.1125L17.2687 23.4937C16.7062 22.95 16.7062 22.05 17.2687 21.5063Z" fill="#A6A6A6"/>
</g>
</svg>
