<svg width="25" height="25" viewBox="0 0 25 25" fill="none" xmlns="http://www.w3.org/2000/svg">
<path d="M22.4287 10.3285H21.6002V10.2858H12.3429V14.4002H18.156C17.3079 16.7952 15.0291 18.5145 12.3429 18.5145C8.93474 18.5145 6.17145 15.7512 6.17145 12.343C6.17145 8.9348 8.93474 6.17151 12.3429 6.17151C13.9162 6.17151 15.3474 6.76501 16.4372 7.73444L19.3466 4.8251C17.5095 3.11303 15.0522 2.05719 12.3429 2.05719C6.6626 2.05719 2.05713 6.66266 2.05713 12.343C2.05713 18.0233 6.6626 22.6288 12.3429 22.6288C18.0233 22.6288 22.6288 18.0233 22.6288 12.343C22.6288 11.6533 22.5578 10.9801 22.4287 10.3285Z" fill="#FFC107"/>
<path d="M3.24292 7.55547L6.62232 10.0338C7.53673 7.76993 9.75127 6.17152 12.3428 6.17152C13.916 6.17152 15.3473 6.76501 16.437 7.73444L19.3464 4.8251C17.5093 3.11303 15.0521 2.05719 12.3428 2.05719C8.392 2.05719 4.96579 4.28767 3.24292 7.55547Z" fill="#FF3D00"/>
<path d="M12.3425 22.6289C14.9993 22.6289 17.4134 21.6121 19.2386 19.9587L16.0552 17.2648C14.9878 18.0766 13.6835 18.5156 12.3425 18.5145C9.66715 18.5145 7.39553 16.8086 6.53975 14.428L3.18555 17.0123C4.88785 20.3433 8.34491 22.6289 12.3425 22.6289Z" fill="#4CAF50"/>
<path d="M22.4288 10.3285H21.6002V10.2858H12.343V14.4001H18.156C17.7504 15.54 17.0196 16.536 16.0541 17.2652L16.0557 17.2642L19.2391 19.958C19.0139 20.1627 22.6288 17.4858 22.6288 12.3429C22.6288 11.6533 22.5579 10.9801 22.4288 10.3285Z" fill="#1976D2"/>
</svg>
