<svg width="18" height="18" viewBox="0 0 18 18" fill="none" xmlns="http://www.w3.org/2000/svg">
<path d="M17.1262 0.873835C15.9611 -0.291278 14.0653 -0.291278 12.9001 0.873835L9.96385 3.81012C9.34327 3.31365 8.43269 3.35253 7.85788 3.92733C7.24103 4.54418 7.24107 5.54783 7.85788 6.16468L7.9822 6.28899L2.63623 11.6349C1.78555 12.4856 1.21321 13.6003 1.01563 14.7863L0.254145 15.8524C-0.133137 16.3946 -0.0722462 17.13 0.398883 17.6011C0.870012 18.0722 1.60545 18.1331 2.14763 17.7459L3.21367 16.9844C4.3997 16.7868 5.5144 16.2144 6.36508 15.3638L11.711 10.0178L11.8353 10.1422C12.4521 10.759 13.4558 10.759 14.0727 10.1422C14.6475 9.56735 14.6864 8.65676 14.1899 8.03619L17.1262 5.0999C18.2913 3.93479 18.2913 2.03898 17.1262 0.873835ZM5.61934 14.618C4.89797 15.3394 3.9445 15.8161 2.93453 15.9604C2.85089 15.9724 2.77137 16.0042 2.7026 16.0533L1.53461 16.8876C1.4137 16.974 1.24973 16.9604 1.14469 16.8553C1.03964 16.7503 1.02607 16.5863 1.11241 16.4654L1.94671 15.2974C1.99582 15.2287 2.02767 15.1491 2.03963 15.0655C2.18391 14.0555 2.66066 13.1021 3.38203 12.3807L4.09215 11.6706H8.56684L5.61934 14.618ZM9.6215 10.6159H5.14681L8.72793 7.03476L10.9653 9.27211L9.6215 10.6159ZM13.3269 9.39638C13.1213 9.60201 12.7867 9.60201 12.5811 9.39638L8.60365 5.41891C8.39802 5.21331 8.39802 4.87877 8.60365 4.67314C8.80928 4.46751 9.14383 4.46754 9.34942 4.67314L13.3269 8.65061C13.5325 8.85621 13.5325 9.19075 13.3269 9.39638ZM16.3804 4.35413L13.4512 7.28335L10.7167 4.54883L13.6459 1.61961C14.3998 0.865679 15.6265 0.865679 16.3804 1.61961C17.1343 2.37353 17.1343 3.60024 16.3804 4.35413Z" fill="black"/>
</svg>
