<svg width="22" height="22" viewBox="0 0 22 22" fill="none" xmlns="http://www.w3.org/2000/svg">
<path d="M2.90576 6.81982L10.9999 11.504L19.0391 6.8473" stroke="#292D32" stroke-width="1.5" stroke-linecap="round" stroke-linejoin="round"/>
<path d="M11 19.809V11.4949" stroke="#292D32" stroke-width="1.5" stroke-linecap="round" stroke-linejoin="round"/>
<path d="M9.10256 2.27325L4.20757 4.99578C3.0984 5.60995 2.19092 7.14993 2.19092 8.41493V13.5941C2.19092 14.8591 3.0984 16.3991 4.20757 17.0133L9.10256 19.7358C10.1476 20.3133 11.8617 20.3133 12.9067 19.7358L17.8017 17.0133C18.9109 16.3991 19.8184 14.8591 19.8184 13.5941V8.41493C19.8184 7.14993 18.9109 5.60995 17.8017 4.99578L12.9067 2.27325C11.8526 1.68659 10.1476 1.68659 9.10256 2.27325Z" stroke="#292D32" stroke-width="1.5" stroke-linecap="round" stroke-linejoin="round"/>
<path d="M15.5834 12.1366V8.78167L6.88428 3.7583" stroke="#292D32" stroke-width="1.5" stroke-linecap="round" stroke-linejoin="round"/>
</svg>
