<svg width="22" height="22" viewBox="0 0 22 22" fill="none" xmlns="http://www.w3.org/2000/svg">
<path d="M3.65649 13.4388L2.26316 12.0455C1.69483 11.4771 1.69483 10.5421 2.26316 9.97379L3.65649 8.58044C3.89482 8.3421 4.08732 7.8746 4.08732 7.5446V5.57374C4.08732 4.76707 4.74733 4.1071 5.55399 4.1071H7.52482C7.85482 4.1071 8.32233 3.91462 8.56066 3.67629L9.95398 2.28294C10.5223 1.71461 11.4573 1.71461 12.0257 2.28294L13.419 3.67629C13.6573 3.91462 14.1248 4.1071 14.4548 4.1071H16.4257C17.2323 4.1071 17.8923 4.76707 17.8923 5.57374V7.5446C17.8923 7.8746 18.0848 8.3421 18.3232 8.58044L19.7165 9.97379C20.2848 10.5421 20.2848 11.4771 19.7165 12.0455L18.3232 13.4388C18.0848 13.6771 17.8923 14.1447 17.8923 14.4747V16.4454C17.8923 17.2521 17.2323 17.9122 16.4257 17.9122H14.4548C14.1248 17.9122 13.6573 18.1046 13.419 18.343L12.0257 19.7363C11.4573 20.3046 10.5223 20.3046 9.95398 19.7363L8.56066 18.343C8.32233 18.1046 7.85482 17.9122 7.52482 17.9122H5.55399C4.74733 17.9122 4.08732 17.2521 4.08732 16.4454V14.4747C4.08732 14.1355 3.89482 13.668 3.65649 13.4388Z" stroke="#292D32" stroke-width="1.5" stroke-linecap="round" stroke-linejoin="round"/>
<path d="M8.25 13.75L13.75 8.25" stroke="#292D32" stroke-width="1.5" stroke-linecap="round" stroke-linejoin="round"/>
<path d="M13.2868 13.2916H13.295" stroke="#292D32" stroke-width="2" stroke-linecap="round" stroke-linejoin="round"/>
<path d="M8.7033 8.70833H8.71153" stroke="#292D32" stroke-width="2" stroke-linecap="round" stroke-linejoin="round"/>
</svg>
