<svg width="22" height="22" viewBox="0 0 22 22" fill="none" xmlns="http://www.w3.org/2000/svg">
<path d="M11.2285 7.79175H16.041" stroke="#292D32" stroke-width="1.5" stroke-linecap="round" stroke-linejoin="round"/>
<path d="M11.2285 14.2085H16.041" stroke="#292D32" stroke-width="1.5" stroke-linecap="round" stroke-linejoin="round"/>
<path d="M8.24968 20.1666H13.7497C18.333 20.1666 20.1663 18.3333 20.1663 13.7499V8.24992C20.1663 3.66659 18.333 1.83325 13.7497 1.83325H8.24968C3.66634 1.83325 1.83301 3.66659 1.83301 8.24992V13.7499C1.83301 18.3333 3.66634 20.1666 8.24968 20.1666Z" stroke="#292D32" stroke-width="1.5" stroke-linecap="round" stroke-linejoin="round"/>
<path d="M8 8C8 8.55228 7.55228 9 7 9C6.44772 9 6 8.55228 6 8C6 7.44772 6.44772 7 7 7C7.55228 7 8 7.44772 8 8Z" fill="#292D32"/>
<path d="M8 14C8 14.5523 7.55228 15 7 15C6.44772 15 6 14.5523 6 14C6 13.4477 6.44772 13 7 13C7.55228 13 8 13.4477 8 14Z" fill="#292D32"/>
</svg>
