<svg width="43" height="43" viewBox="0 0 43 43" fill="none" xmlns="http://www.w3.org/2000/svg">
<circle cx="21.5" cy="21.5" r="21.5" fill="#E6E6E6"/>
<path d="M22.3388 11.9709L30.5888 15.2709C30.9097 15.3992 31.1663 15.7842 31.1663 16.1234V19.1667C31.1663 19.6709 30.7538 20.0834 30.2497 20.0834H13.7497C13.2455 20.0834 12.833 19.6709 12.833 19.1667V16.1234C12.833 15.7842 13.0897 15.3992 13.4105 15.2709L21.6605 11.9709C21.8438 11.8976 22.1555 11.8976 22.3388 11.9709Z" stroke="#292D32" stroke-width="1.5" stroke-miterlimit="10" stroke-linecap="round" stroke-linejoin="round"/>
<path d="M31.1663 30.1667H12.833V27.4167C12.833 26.9125 13.2455 26.5 13.7497 26.5H30.2497C30.7538 26.5 31.1663 26.9125 31.1663 27.4167V30.1667Z" stroke="#292D32" stroke-width="1.5" stroke-miterlimit="10" stroke-linecap="round" stroke-linejoin="round"/>
<path d="M14.667 26.5V20.0834" stroke="#292D32" stroke-width="1.5" stroke-miterlimit="10" stroke-linecap="round" stroke-linejoin="round"/>
<path d="M18.333 26.5V20.0834" stroke="#292D32" stroke-width="1.5" stroke-miterlimit="10" stroke-linecap="round" stroke-linejoin="round"/>
<path d="M22 26.5V20.0834" stroke="#292D32" stroke-width="1.5" stroke-miterlimit="10" stroke-linecap="round" stroke-linejoin="round"/>
<path d="M25.667 26.5V20.0834" stroke="#292D32" stroke-width="1.5" stroke-miterlimit="10" stroke-linecap="round" stroke-linejoin="round"/>
<path d="M29.333 26.5V20.0834" stroke="#292D32" stroke-width="1.5" stroke-miterlimit="10" stroke-linecap="round" stroke-linejoin="round"/>
<path d="M11.917 30.1666H32.0837" stroke="#292D32" stroke-width="1.5" stroke-miterlimit="10" stroke-linecap="round" stroke-linejoin="round"/>
<path d="M22 17.7916C22.7594 17.7916 23.375 17.176 23.375 16.4166C23.375 15.6572 22.7594 15.0416 22 15.0416C21.2406 15.0416 20.625 15.6572 20.625 16.4166C20.625 17.176 21.2406 17.7916 22 17.7916Z" stroke="#292D32" stroke-width="1.5" stroke-miterlimit="10" stroke-linecap="round" stroke-linejoin="round"/>
</svg>
