<svg width="99" height="28" viewBox="0 0 99 28" fill="none" xmlns="http://www.w3.org/2000/svg">
<path d="M10.3418 20.9238L9.25195 21.2402C9.05273 20.7246 8.85352 20.0332 8.6543 19.166C8.4668 18.2988 8.37305 17.7598 8.37305 17.5488C7.49414 17.5488 6.60352 17.6777 5.70117 17.9355C4.81055 18.1934 4.0957 18.4688 3.55664 18.7617C3.0293 19.0547 2.57227 19.4766 2.18555 20.0273C1.81055 20.5664 1.62305 21.1992 1.62305 21.9258C1.62305 22.6406 1.80469 23.2734 2.16797 23.8242C2.54297 24.375 3.03516 24.791 3.64453 25.0723C4.81641 25.623 6.04102 25.8984 7.31836 25.8984C8.60742 25.8984 9.71484 25.7637 10.6406 25.4941C11.5664 25.2246 12.3457 24.8672 12.9785 24.4219C13.623 23.9766 14.209 23.4141 14.7363 22.7344C15.2637 22.0547 15.6914 21.3633 16.0195 20.6602C16.3477 19.9453 16.6699 19.1309 16.9863 18.2168C17.3027 17.3027 17.5664 16.4473 17.7773 15.6504C18.3516 13.5293 18.9258 11.7539 19.5 10.3242C20.0859 8.89453 20.9473 7.48828 22.084 6.10547C23.2207 4.71094 24.5098 3.56836 25.9512 2.67773C25.248 2.51367 24.3516 2.43164 23.2617 2.43164C22.1719 2.43164 20.9297 2.67188 19.5352 3.15234C18.1523 3.62109 16.8633 4.2832 15.668 5.13867C14.4727 5.98242 13.4004 6.94922 12.4512 8.03906C11.5137 9.12891 10.7754 10.3359 10.2363 11.6602C9.69727 12.9727 9.42773 14.291 9.42773 15.6152C12.0059 16.1426 13.8691 17.0977 15.0176 18.4805L14.2793 19.2539C13.0723 18.4688 12.1699 18.0059 11.5723 17.8652C10.9746 17.7246 10.6172 17.6426 10.5 17.6191C9.96094 17.5488 9.5918 17.5137 9.39258 17.5137C9.5332 18.3809 9.78516 19.3418 10.1484 20.3965L10.3418 20.9238ZM32.9824 0.128906L33.334 0.955078C32.2559 1.1543 31.2539 1.44727 30.3281 1.83398L29.8535 2.02734C30.6973 2.44922 31.3652 3.02344 31.8574 3.75C32.3613 4.47656 32.6133 5.14453 32.6133 5.75391C32.6133 6.35156 32.5605 6.85547 32.4551 7.26562C32.3496 7.67578 32.2207 8.04492 32.0684 8.37305C31.916 8.70117 31.7109 9.04688 31.4531 9.41016C31.207 9.76172 30.9785 10.0605 30.7676 10.3066C30.5566 10.541 30.293 10.8105 29.9766 11.1152C29.6719 11.4082 29.4316 11.6309 29.2559 11.7832C28.9395 12.041 28.5469 12.3574 28.0781 12.7324C29.7539 13.4238 31.0312 14.2441 31.9102 15.1934C32.7891 16.1309 33.2285 17.3086 33.2285 18.7266C33.2285 20.1328 32.8008 21.498 31.9453 22.8223C31.1016 24.1465 29.9766 25.2012 28.5703 25.9863C27.1758 26.7715 25.6934 27.1641 24.123 27.1641C22.3887 27.1641 21.0586 26.6777 20.1328 25.7051C19.6289 25.1777 19.377 24.5625 19.377 23.8594C19.377 23.1562 19.5879 22.5879 20.0098 22.1543C20.4434 21.7207 20.9648 21.5039 21.5742 21.5039C22.1836 21.5039 22.6641 21.6562 23.0156 21.9609C23.3672 22.2656 23.543 22.623 23.543 23.0332C23.543 23.4316 23.4727 23.748 23.332 23.9824C23.1914 24.2051 23.0215 24.3809 22.8223 24.5098C22.6348 24.6387 22.4355 24.7441 22.2246 24.8262C21.8613 24.9668 21.6152 25.0371 21.4863 25.0371C21.4863 25.5527 22.125 25.875 23.4023 26.0039C23.625 26.0273 23.8301 26.0391 24.0176 26.0391C25.6465 26.0391 27.0117 25.4238 28.1133 24.1934C29.2148 22.9629 29.7656 21.5273 29.7656 19.8867C29.7656 19.0664 29.584 18.3105 29.2207 17.6191C28.8574 16.916 28.4121 16.3535 27.8848 15.9316C27.3574 15.5098 26.8301 15.1523 26.3027 14.8594C25.7871 14.5547 25.3477 14.3203 24.9844 14.1562C24.6211 13.9922 24.4395 13.8867 24.4395 13.8398C24.4395 13.7812 24.6152 13.6348 24.9668 13.4004C25.3184 13.166 25.7461 12.8613 26.25 12.4863C26.7656 12.0996 27.2754 11.6602 27.7793 11.168C28.2832 10.6758 28.7109 10.0781 29.0625 9.375C29.4141 8.66016 29.5898 7.94531 29.5898 7.23047C29.5898 6.51562 29.3906 5.75391 28.9922 4.94531C28.5938 4.125 28.0137 3.55078 27.252 3.22266C25.0488 4.58203 23.4609 6.68555 22.4883 9.5332C22.0664 10.752 21.75 11.8477 21.5391 12.8203C21.0234 15.2695 20.6484 16.9688 20.4141 17.918C20.1797 18.8555 19.7109 19.8984 19.0078 21.0469C18.3164 22.1953 17.4551 23.2266 16.4238 24.1406C15.3926 25.0547 14.1387 25.7754 12.6621 26.3027C11.1855 26.8301 9.58008 27.0938 7.8457 27.0938C5.4668 27.0938 3.5332 26.5488 2.04492 25.459C0.873047 24.5918 0.287109 23.3848 0.287109 21.8379C0.287109 20.7949 0.539062 19.8574 1.04297 19.0254C1.54688 18.1934 2.20312 17.5371 3.01172 17.0566C4.65234 16.0723 6.43945 15.5801 8.37305 15.5801C8.37305 13.6816 8.81836 11.8418 9.70898 10.0605C10.5996 8.26758 11.7773 6.72656 13.2422 5.4375C14.7188 4.13672 16.4414 3.09375 18.4102 2.30859C20.3906 1.52344 22.4238 1.13086 24.5098 1.13086C25.2363 1.13086 26.4141 1.23047 28.043 1.42969C30.2578 0.632813 31.9043 0.199219 32.9824 0.128906ZM37.9219 26.7598C37.4297 26.7598 37.043 26.6074 36.7617 26.3027C36.4805 25.998 36.3398 25.582 36.3398 25.0547C36.3398 24.5156 36.4746 23.7891 36.7441 22.875C37.0254 21.9492 37.3008 21.1113 37.5703 20.3613C37.8516 19.6113 37.9922 19.1133 37.9922 18.8672C37.9922 18.6094 37.9102 18.4805 37.7461 18.4805C37.3359 18.4805 36.6738 19.2891 35.7598 20.9062L34.582 20.2207C36.3047 17.3145 37.8867 15.8613 39.3281 15.8613C40.3125 15.8613 40.8047 16.4824 40.8047 17.7246C40.8047 18.0879 40.6875 18.668 40.4531 19.4648L39.1875 23.0859C39.0586 23.4258 38.9941 23.7363 38.9941 24.0176C38.9941 24.2871 39.0996 24.4219 39.3105 24.4219C39.709 24.4219 40.4414 23.6836 41.5078 22.207L42.2461 22.8926C41.6133 24.0645 40.8574 25.002 39.9785 25.7051C39.1113 26.4082 38.4258 26.7598 37.9219 26.7598ZM42.9316 10.6758C42.9316 11.1445 42.7734 11.5723 42.457 11.959C42.1406 12.3457 41.7129 12.5391 41.1738 12.5391C40.6348 12.5391 40.2305 12.3809 39.9609 12.0645C39.6914 11.7363 39.5566 11.3262 39.5566 10.834C39.5566 10.3418 39.7207 9.9082 40.0488 9.5332C40.3887 9.14648 40.8223 8.95312 41.3496 8.95312C41.877 8.95312 42.2695 9.12305 42.5273 9.46289C42.7969 9.79102 42.9316 10.1953 42.9316 10.6758ZM49.8398 3.09961H52.6875C52.1836 3.9668 51.4102 5.89453 50.3672 8.88281C49.3242 11.8594 48.3691 14.8594 47.502 17.8828C46.6465 20.8945 46.2188 22.7402 46.2188 23.4199C46.2188 24.0879 46.3008 24.4219 46.4648 24.4219C46.957 24.4219 47.7246 23.6777 48.7676 22.1895L49.5059 22.8926C48.9902 23.7832 48.4336 24.5332 47.8359 25.1426C46.7812 26.2207 45.9258 26.7598 45.2695 26.7598C44.0742 26.7598 43.4766 26.0391 43.4766 24.5977C43.4766 22.4531 44.1855 19.0723 45.6035 14.4551C47.0332 9.83789 48.4453 6.05273 49.8398 3.09961ZM53.5664 26.7598C53.0742 26.7598 52.6875 26.6074 52.4062 26.3027C52.125 25.998 51.9844 25.582 51.9844 25.0547C51.9844 24.5156 52.1191 23.7891 52.3887 22.875C52.6699 21.9492 52.9453 21.1113 53.2148 20.3613C53.4961 19.6113 53.6367 19.1133 53.6367 18.8672C53.6367 18.6094 53.5547 18.4805 53.3906 18.4805C52.9805 18.4805 52.3184 19.2891 51.4043 20.9062L50.2266 20.2207C51.9492 17.3145 53.5312 15.8613 54.9727 15.8613C55.957 15.8613 56.4492 16.4824 56.4492 17.7246C56.4492 18.0879 56.332 18.668 56.0977 19.4648L54.832 23.0859C54.7031 23.4258 54.6387 23.7363 54.6387 24.0176C54.6387 24.2871 54.7441 24.4219 54.9551 24.4219C55.3535 24.4219 56.0859 23.6836 57.1523 22.207L57.8906 22.8926C57.2578 24.0645 56.502 25.002 55.623 25.7051C54.7559 26.4082 54.0703 26.7598 53.5664 26.7598ZM58.5762 10.6758C58.5762 11.1445 58.418 11.5723 58.1016 11.959C57.7852 12.3457 57.3574 12.5391 56.8184 12.5391C56.2793 12.5391 55.875 12.3809 55.6055 12.0645C55.3359 11.7363 55.2012 11.3262 55.2012 10.834C55.2012 10.3418 55.3652 9.9082 55.6934 9.5332C56.0332 9.14648 56.4668 8.95312 56.9941 8.95312C57.5215 8.95312 57.9141 9.12305 58.1719 9.46289C58.4414 9.79102 58.5762 10.1953 58.5762 10.6758ZM58.9277 22.2949C58.9277 21.416 59.1387 20.5723 59.5605 19.7637C59.9941 18.9434 60.5508 18.252 61.2305 17.6895C62.7305 16.4707 64.2598 15.8613 65.8184 15.8613C67.377 15.8613 68.6543 16.2773 69.6504 17.1094C70.6465 17.9414 71.1445 18.9844 71.1445 20.2383C71.1445 21.4805 70.7988 22.5996 70.1074 23.5957C69.4277 24.5918 68.5254 25.3711 67.4004 25.9336C66.2754 26.4844 65.0449 26.7598 63.709 26.7598C62.3848 26.7598 61.2539 26.3438 60.3164 25.5117C59.3906 24.668 58.9277 23.5957 58.9277 22.2949ZM64.6758 25.6699C65.2148 25.6699 65.7188 25.4941 66.1875 25.1426C66.668 24.791 67.0312 24.334 67.2773 23.7715C67.7578 22.6934 67.998 21.5801 67.998 20.4316C67.998 19.2832 67.7871 18.416 67.3652 17.8301C66.9434 17.2324 66.3457 16.9336 65.5723 16.9336C64.7988 16.9336 64.0312 17.4375 63.2695 18.4453C62.5195 19.4531 62.1445 20.7363 62.1445 22.2949C62.1445 24.5449 62.9883 25.6699 64.6758 25.6699ZM77.3672 21.5391C79.8164 17.7539 82.0137 15.8613 83.959 15.8613C84.6152 15.8613 85.1074 16.0605 85.4355 16.459C85.7637 16.8574 85.9277 17.3613 85.9277 17.9707C85.9277 18.5801 85.6523 19.6348 85.1016 21.1348C84.5625 22.6348 84.293 23.5664 84.293 23.9297C84.293 24.2812 84.3809 24.457 84.5566 24.457C84.791 24.457 85.1367 24.2168 85.5938 23.7363C86.0508 23.2441 86.4551 22.7285 86.8066 22.1895L87.5449 22.8926C86.8418 24.1699 86.0684 25.1367 85.2246 25.793C84.3926 26.4375 83.7129 26.7598 83.1855 26.7598C82.6699 26.7598 82.2656 26.5898 81.9727 26.25C81.6797 25.8984 81.5332 25.4238 81.5332 24.8262C81.5332 24.2285 81.7676 23.2559 82.2363 21.9082C82.7168 20.5488 82.957 19.5879 82.957 19.0254C82.957 18.4512 82.7637 18.1641 82.377 18.1641C81.9316 18.1641 81.4043 18.4512 80.7949 19.0254C80.1855 19.5879 79.5938 20.2793 79.0195 21.0996C78.1055 22.4121 77.1738 23.9238 76.2246 25.6348L75.75 26.4785H73.2715L73.8164 24.8262C74.8359 21.7793 75.3457 19.9746 75.3457 19.4121C75.3457 18.8379 75.252 18.5508 75.0645 18.5508C74.7246 18.5508 74.3203 18.9551 73.8516 19.7637C73.7461 19.9512 73.6582 20.1035 73.5879 20.2207C73.5176 20.3262 73.4355 20.4609 73.3418 20.625C73.2598 20.7773 73.207 20.8711 73.1836 20.9062L72.0059 20.2207C72.9199 18.7324 73.7578 17.6367 74.5195 16.9336C75.2812 16.2188 76.0605 15.8613 76.8574 15.8613C77.2207 15.8613 77.5312 16.0137 77.7891 16.3184C78.0586 16.623 78.1934 16.9922 78.1934 17.4258C78.1934 17.8594 78.1582 18.2871 78.0879 18.709C78.0176 19.1191 77.9414 19.4648 77.8594 19.7461C77.7891 20.0156 77.6895 20.3672 77.5605 20.8008C77.4434 21.2344 77.3789 21.4805 77.3672 21.5391ZM90.1113 26.3555C89.3496 26.0859 88.8047 25.7695 88.4766 25.4062C88.1484 25.0312 87.9844 24.6211 87.9844 24.1758C87.9844 23.7305 88.1074 23.3613 88.3535 23.0684C88.5996 22.7754 88.9219 22.6289 89.3203 22.6289C89.7305 22.6289 90.0879 22.752 90.3926 22.998C90.709 23.2324 90.8672 23.5723 90.8672 24.0176C90.8672 24.4512 90.5977 24.8145 90.0586 25.1074C90.5039 25.4941 91.1836 25.6875 92.0977 25.6875C94.0781 25.6875 95.0684 25.125 95.0684 24C95.0684 23.2969 94.4414 22.7344 93.1875 22.3125C92.6719 22.1367 92.1504 21.9492 91.623 21.75C91.1074 21.5508 90.6562 21.2578 90.2695 20.8711C89.8828 20.4844 89.6719 20.0156 89.6367 19.4648C89.6367 18.668 89.9004 17.9941 90.4277 17.4434C91.4238 16.3887 92.9121 15.8613 94.8926 15.8613C95.8652 15.8613 96.7266 16.0488 97.4766 16.4238C98.2266 16.7871 98.6016 17.2617 98.6016 17.8477C98.6016 18.4336 98.4492 18.8555 98.1445 19.1133C97.8516 19.3711 97.5059 19.5 97.1074 19.5C96.709 19.5 96.3691 19.3945 96.0879 19.1836C95.8184 18.9609 95.6836 18.6562 95.6836 18.2695C95.6836 17.8828 95.9121 17.5488 96.3691 17.2676C96.0879 17.0684 95.6016 16.9688 94.9102 16.9688C94.2188 16.9688 93.5977 17.0742 93.0469 17.2852C92.4961 17.4844 92.2207 17.7598 92.2207 18.1113C92.2207 18.4629 92.4199 18.7559 92.8184 18.9902C93.2285 19.2246 93.7207 19.4414 94.2949 19.6406C94.8691 19.8398 95.4434 20.0684 96.0176 20.3262C96.5918 20.584 97.0781 20.9531 97.4766 21.4336C97.8867 21.9141 98.0918 22.5059 98.0918 23.209C98.0918 23.9121 97.8047 24.5508 97.2305 25.125C96.1406 26.2148 94.6523 26.7598 92.7656 26.7598C91.7695 26.7598 90.8848 26.625 90.1113 26.3555Z" fill="black"/>
</svg>
