<svg width="86" height="88" viewBox="0 0 86 88" fill="none" xmlns="http://www.w3.org/2000/svg">
<circle cx="43" cy="43" r="43" fill="#181818"/>
<path d="M50.2978 58.4305C48.1218 59.3905 45.7538 59.9025 43.1938 59.9025C38.5218 59.9025 34.4258 58.3025 31.0978 54.9745C27.7698 51.6465 26.1698 47.5505 26.1698 42.8785C26.1698 38.2065 27.7698 34.1745 31.0978 30.8465C34.4897 27.4545 38.5218 25.8545 43.1938 25.8545C47.9298 25.8545 51.8978 27.5185 55.2257 30.8465L61.3698 24.8305C59.0018 22.4625 56.2498 20.6065 53.1778 19.2625C50.0418 17.9185 46.7138 17.2785 43.1938 17.2785C36.0898 17.2785 30.0738 19.7745 25.1458 24.8305C20.0898 29.8225 17.5938 35.8385 17.5938 42.8785C17.5938 49.9825 20.1538 55.9345 25.1458 60.9265C30.1378 65.9185 36.0898 68.4785 43.1938 68.4785C45.4338 68.4785 47.5458 68.2225 49.5938 67.6465C51.7058 67.1345 53.6258 66.3665 55.4178 65.3425C57.2738 64.3185 58.9378 63.1025 60.4738 61.6945C62.0738 60.2865 63.4178 58.6865 64.5698 56.9585L56.0578 54.1425C54.3938 55.9985 52.4738 57.4065 50.2978 58.4305ZM43.1938 47.1665H56.0578L64.5698 38.6545H43.1938V47.1665Z" fill="white"/>
</svg>
