<svg width="122" height="64" viewBox="0 0 122 64" fill="none" xmlns="http://www.w3.org/2000/svg">
<rect x="5" y="0.478516" width="111" height="38" fill="#181818"/>
<path d="M6.06836 16.584L11.4385 11.252C11.9717 10.7272 12.3018 10.3717 12.4287 10.1855C12.5641 9.99089 12.6318 9.7793 12.6318 9.55078C12.6318 9.13607 12.4287 8.82292 12.0225 8.61133C11.8109 8.50977 11.4554 8.43359 10.9561 8.38281V8.09082H16.4277V8.38281C16.0553 8.41667 15.7422 8.48014 15.4883 8.57324C15.2428 8.65788 14.972 8.80599 14.6758 9.01758C14.3457 9.25456 13.7786 9.75814 12.9746 10.5283L8.86133 14.4766L14.7139 21.9414L15.4375 22.8682C15.9707 23.5283 16.5251 24.0446 17.1006 24.417C17.4476 24.6455 17.7523 24.8105 18.0146 24.9121C18.277 25.0052 18.6071 25.0771 19.0049 25.1279V25.4199H10.6133V25.1279C11.248 25.0771 11.7051 24.9714 11.9844 24.8105C12.2637 24.6497 12.4033 24.4128 12.4033 24.0996C12.4033 23.7611 12.2298 23.3294 11.8828 22.8047C11.7135 22.5508 11.3962 22.1107 10.9307 21.4844C10.4652 20.8581 10.0716 20.3503 9.75 19.9609L6.89355 16.4189L6.06836 17.2314V21.4336C6.06836 22.2969 6.11491 22.9401 6.20801 23.3633C6.30957 23.778 6.49154 24.1208 6.75391 24.3916C6.98242 24.6286 7.24479 24.8063 7.54102 24.9248C7.8457 25.0348 8.24349 25.1025 8.73438 25.1279V25.4199H0.62207V25.1279C1.11296 25.1025 1.50651 25.0348 1.80273 24.9248C2.10742 24.8063 2.37402 24.6286 2.60254 24.3916C2.87337 24.1208 3.05534 23.778 3.14844 23.3633C3.24154 22.9486 3.28809 22.3053 3.28809 21.4336V12.0771C3.28809 11.2054 3.24154 10.5622 3.14844 10.1475C3.05534 9.73275 2.87337 9.38997 2.60254 9.11914C2.37402 8.8737 2.10742 8.69596 1.80273 8.58594C1.49805 8.47591 1.10449 8.4082 0.62207 8.38281V8.09082H8.73438V8.38281C8.25195 8.4082 7.8584 8.47591 7.55371 8.58594C7.25749 8.69596 6.99089 8.8737 6.75391 9.11914C6.49154 9.38997 6.30957 9.73698 6.20801 10.1602C6.11491 10.5749 6.06836 11.2139 6.06836 12.0771V16.584ZM18.8906 14.8701L22.5342 14.4131V21.751L22.5469 22.7158C22.5469 23.2913 22.5807 23.7145 22.6484 23.9854C22.7161 24.2477 22.8473 24.4678 23.042 24.6455C23.279 24.874 23.7148 25.0475 24.3496 25.166V25.4199H18.751V25.166C19.2588 25.0983 19.6227 25.0052 19.8428 24.8867C20.0628 24.7598 20.2406 24.5482 20.376 24.252C20.4691 24.0573 20.5326 23.7653 20.5664 23.376C20.6087 22.9782 20.6299 22.4069 20.6299 21.6621V18.5264C20.6299 17.6546 20.6087 17.0452 20.5664 16.6982C20.5241 16.3428 20.431 16.055 20.2871 15.835C20.1432 15.598 19.9697 15.4287 19.7666 15.3271C19.5635 15.2171 19.2715 15.1494 18.8906 15.124V14.8701ZM21.5312 9.88086C21.2012 9.88086 20.9261 9.77507 20.7061 9.56348C20.4945 9.35189 20.3887 9.08529 20.3887 8.76367C20.3887 8.45052 20.4987 8.18815 20.7188 7.97656C20.9388 7.75651 21.2096 7.64648 21.5312 7.64648C21.8529 7.64648 22.1237 7.75651 22.3438 7.97656C22.5638 8.18815 22.6738 8.45052 22.6738 8.76367C22.6738 9.08529 22.5638 9.35189 22.3438 9.56348C22.1322 9.77507 21.8613 9.88086 21.5312 9.88086ZM28.6533 14.4131C28.7718 14.904 28.8311 15.361 28.8311 15.7842V15.9873C29.8805 14.9548 31.1289 14.4385 32.5762 14.4385C33.6595 14.4385 34.5312 14.6924 35.1914 15.2002C35.8431 15.6995 36.1689 16.4105 36.1689 17.333V22.7158C36.1689 23.2913 36.2028 23.7145 36.2705 23.9854C36.3382 24.2477 36.4694 24.4678 36.6641 24.6455C36.901 24.874 37.3369 25.0475 37.9717 25.166V25.4199H32.373V25.166C32.8809 25.0983 33.2448 25.0052 33.4648 24.8867C33.6849 24.7598 33.8626 24.5482 33.998 24.252C34.0911 24.0573 34.1546 23.7653 34.1885 23.376C34.2308 22.9782 34.252 22.4111 34.252 21.6748V18.9834C34.252 18.0609 34.2181 17.3838 34.1504 16.9521C34.0911 16.5205 33.9727 16.1735 33.7949 15.9111C33.6003 15.6149 33.321 15.3864 32.957 15.2256C32.5931 15.0563 32.1911 14.9717 31.751 14.9717C31.277 14.9717 30.8327 15.0648 30.418 15.251C30.0117 15.4372 29.6901 15.6911 29.4531 16.0127C29.1992 16.3512 29.0299 16.7363 28.9453 17.168C28.8691 17.5911 28.8311 18.2979 28.8311 19.2881V21.7764L28.8438 22.7158C28.8438 23.2913 28.8776 23.7145 28.9453 23.9854C29.013 24.2477 29.1442 24.4678 29.3389 24.6455C29.5758 24.874 30.0117 25.0475 30.6465 25.166V25.4199H25.0479V25.166C25.5557 25.0983 25.9196 25.0052 26.1396 24.8867C26.3597 24.7598 26.5374 24.5482 26.6729 24.252C26.766 24.0573 26.8294 23.7653 26.8633 23.376C26.9056 22.9782 26.9268 22.4069 26.9268 21.6621V18.5264C26.9268 17.6546 26.9056 17.0452 26.8633 16.6982C26.821 16.3428 26.7279 16.055 26.584 15.835C26.4401 15.598 26.2666 15.4287 26.0635 15.3271C25.8604 15.2171 25.5684 15.1494 25.1875 15.124V14.8701L28.6533 14.4131ZM41.7549 26.499L41.5264 26.5625C41.3825 26.3255 41.2386 26.1605 41.0947 26.0674C40.9508 25.9743 40.7731 25.9277 40.5615 25.9277C40.2061 25.9277 39.9141 26.0632 39.6855 26.334C39.4655 26.6048 39.3555 26.9561 39.3555 27.3877C39.3555 28.0732 39.6982 28.6361 40.3838 29.0762C41.0693 29.5163 41.9453 29.7363 43.0117 29.7363C44.1458 29.7363 45.0599 29.4909 45.7539 29C46.4564 28.5176 46.8076 27.887 46.8076 27.1084C46.8076 26.4821 46.5749 25.9997 46.1094 25.6611C45.6439 25.3311 44.9795 25.166 44.1162 25.166H42.0977C41.2682 25.166 40.5996 24.9714 40.0918 24.582C39.5671 24.1758 39.3047 23.6891 39.3047 23.1221C39.3047 22.5212 39.584 22.0472 40.1426 21.7002C40.4303 21.5309 40.9551 21.349 41.7168 21.1543C40.9805 20.8158 40.4092 20.3714 40.0029 19.8213C39.5967 19.2627 39.3936 18.6491 39.3936 17.9805C39.3936 17.1257 39.7109 16.3639 40.3457 15.6953C40.7181 15.2975 41.1582 14.9886 41.666 14.7686C42.1738 14.5485 42.6943 14.4385 43.2275 14.4385C44.04 14.4385 44.8695 14.7262 45.7158 15.3018C46.1136 14.9886 46.4691 14.7686 46.7822 14.6416C47.1038 14.5062 47.4508 14.4385 47.8232 14.4385C48.238 14.4385 48.5723 14.5273 48.8262 14.7051C49.1309 14.9251 49.2832 15.196 49.2832 15.5176C49.2832 15.7122 49.224 15.8773 49.1055 16.0127C48.987 16.1396 48.8389 16.2031 48.6611 16.2031C48.3903 16.2031 48.1449 16.0592 47.9248 15.7715L47.6328 15.3906C47.472 15.1875 47.2435 15.0859 46.9473 15.0859C46.6341 15.0859 46.304 15.2425 45.957 15.5557C46.6426 16.3936 46.9854 17.2568 46.9854 18.1455C46.9854 19.2542 46.4945 20.1302 45.5127 20.7734C45.0218 21.0951 44.4928 21.3109 43.9258 21.4209C43.7565 21.4463 43.2191 21.4886 42.3135 21.5479C41.0693 21.624 40.4473 21.971 40.4473 22.5889C40.4473 23.1305 40.9762 23.4014 42.0342 23.4014H44.1289C44.8652 23.4014 45.4873 23.4691 45.9951 23.6045C46.5029 23.7314 46.9473 23.9346 47.3281 24.2139C48.0729 24.764 48.4453 25.5384 48.4453 26.5371C48.4453 27.6374 48.0137 28.4964 47.1504 29.1143C46.2617 29.749 44.9583 30.0664 43.2402 30.0664C41.3952 30.0664 40.0876 29.694 39.3174 28.9492C38.8265 28.4668 38.5811 27.8659 38.5811 27.1465C38.5811 26.5794 38.763 26.097 39.127 25.6992C39.4909 25.3099 39.9352 25.1152 40.46 25.1152C40.8408 25.1152 41.1497 25.2295 41.3867 25.458C41.6322 25.6865 41.7549 25.987 41.7549 26.3594V26.499ZM41.1963 18.0693C41.1963 18.9834 41.3867 19.7282 41.7676 20.3037C42.1569 20.8792 42.652 21.167 43.2529 21.167C43.8623 21.167 44.3363 20.8835 44.6748 20.3164C45.0133 19.7409 45.1826 18.9453 45.1826 17.9297C45.1826 16.8802 44.9626 16.0423 44.5225 15.416C44.2008 14.9505 43.7861 14.7178 43.2783 14.7178C42.6689 14.7178 42.1781 15.0225 41.8057 15.6318C41.6195 15.9365 41.4714 16.3089 41.3613 16.749C41.2513 17.1891 41.1963 17.6292 41.1963 18.0693Z" fill="white"/>
<path d="M51.1484 25.8555L51.1836 21.0156H51.4531C51.7812 22.25 52.1719 23.2227 52.625 23.9336C53.4766 25.2461 54.5469 25.9023 55.8359 25.9023C56.7344 25.9023 57.4766 25.6016 58.0625 25C58.6484 24.3984 58.9414 23.6367 58.9414 22.7148C58.9414 22.3164 58.875 21.9102 58.7422 21.4961C58.6172 21.082 58.4453 20.7266 58.2266 20.4297C58 20.125 57.6797 19.832 57.2656 19.5508C56.8594 19.2695 56.2344 18.9141 55.3906 18.4844C54.6484 18.1094 54.0781 17.793 53.6797 17.5352C53.2891 17.2773 52.9727 17.0156 52.7305 16.75C52.0586 16.0156 51.7227 15.1211 51.7227 14.0664C51.7227 13.418 51.8516 12.793 52.1094 12.1914C52.375 11.5898 52.7422 11.0742 53.2109 10.6445C54.0391 9.87891 55.0195 9.49609 56.1523 9.49609C56.5195 9.49609 56.8594 9.53516 57.1719 9.61328C57.4844 9.68359 57.9023 9.82812 58.4258 10.0469C58.8164 10.2031 59.082 10.3047 59.2227 10.3516C59.3633 10.3906 59.4883 10.4102 59.5977 10.4102C59.8711 10.4102 60.0547 10.2109 60.1484 9.8125H60.418L60.5 14.4648H60.2305C60.0195 13.7227 59.8359 13.1562 59.6797 12.7656C59.5312 12.3672 59.3516 12 59.1406 11.6641C58.7578 11.0547 58.3359 10.6055 57.875 10.3164C57.4141 10.0195 56.8828 9.87109 56.2812 9.87109C55.4062 9.87109 54.7148 10.168 54.207 10.7617C53.9961 11.0039 53.8281 11.2891 53.7031 11.6172C53.5859 11.9453 53.5273 12.2734 53.5273 12.6016C53.5273 13.9062 54.3672 14.957 56.0469 15.7539L57.6992 16.5508C58.9727 17.1523 59.8906 17.8164 60.4531 18.543C61.0938 19.3555 61.4141 20.3008 61.4141 21.3789C61.4141 22.0977 61.2695 22.7852 60.9805 23.4414C60.5742 24.3555 59.9648 25.0625 59.1523 25.5625C58.3398 26.0547 57.3828 26.3008 56.2812 26.3008C55.2734 26.3008 54.3047 26.1016 53.375 25.7031C52.8906 25.4922 52.6016 25.3711 52.5078 25.3398C52.4141 25.3086 52.3086 25.293 52.1914 25.293C51.8164 25.293 51.5586 25.4805 51.418 25.8555H51.1484ZM65.7617 15.9297H68.75V16.375H65.7617V23.1953C65.7617 24.0156 65.9023 24.6016 66.1836 24.9531C66.332 25.1484 66.5273 25.3008 66.7695 25.4102C67.0117 25.5195 67.2734 25.5742 67.5547 25.5742C67.9062 25.5742 68.1992 25.5039 68.4336 25.3633C68.668 25.2148 68.9258 24.9492 69.207 24.5664L69.3828 24.7188C69.125 25.1875 68.7617 25.5352 68.293 25.7617C67.832 25.9883 67.2539 26.1016 66.5586 26.1016C65.6367 26.1016 64.9648 25.9219 64.543 25.5625C64.3164 25.375 64.168 25.1523 64.0977 24.8945C64.0273 24.6289 63.9922 24.1562 63.9922 23.4766V16.375H62.7383V16.1875C63.2461 16.0234 63.7148 15.707 64.1445 15.2383C64.4023 14.9492 64.6094 14.6641 64.7656 14.3828C64.9219 14.0938 65.0703 13.7227 65.2109 13.2695L65.3281 12.8828H65.7617V15.9297ZM69.3711 20.9453C69.3711 19.6797 69.8398 18.5508 70.7773 17.5586C71.918 16.3555 73.2812 15.7539 74.8672 15.7539C76.4531 15.7539 77.8125 16.3555 78.9453 17.5586C79.8828 18.5586 80.3516 19.6914 80.3516 20.957C80.3516 22.207 79.9062 23.3203 79.0156 24.2969C77.9219 25.5 76.5391 26.1016 74.8672 26.1016C73.1953 26.1016 71.8086 25.5 70.707 24.2969C70.2773 23.8281 69.9453 23.3047 69.7109 22.7266C69.4844 22.1484 69.3711 21.5547 69.3711 20.9453ZM71.5039 20.8164C71.5039 22.1758 71.8086 23.3281 72.418 24.2734C73.1055 25.3281 73.9453 25.8555 74.9375 25.8555C75.3594 25.8555 75.7695 25.7383 76.168 25.5039C76.5664 25.2695 76.9102 24.9414 77.1992 24.5195C77.5039 24.082 77.75 23.5352 77.9375 22.8789C78.125 22.2148 78.2188 21.5742 78.2188 20.957C78.2188 20.3164 78.1172 19.6719 77.9141 19.0234C77.7188 18.3672 77.4531 17.8047 77.1172 17.3359C76.4766 16.4531 75.6914 16.0117 74.7617 16.0117C73.8789 16.0117 73.1172 16.4766 72.4766 17.4062C71.8281 18.3359 71.5039 19.4727 71.5039 20.8164ZM84.7227 15.7305C84.832 16.1836 84.8867 16.6055 84.8867 16.9961V17.1836C85.8555 16.2305 87.0078 15.7539 88.3438 15.7539C89.3438 15.7539 90.1484 15.9883 90.7578 16.457C91.3594 16.918 91.6602 17.5742 91.6602 18.4258V23.3945C91.6602 23.9258 91.6914 24.3164 91.7539 24.5664C91.8164 24.8086 91.9375 25.0117 92.1172 25.1758C92.3359 25.3867 92.7383 25.5469 93.3242 25.6562V25.8906H88.1562V25.6562C88.625 25.5938 88.9609 25.5078 89.1641 25.3984C89.3672 25.2812 89.5312 25.0859 89.6562 24.8125C89.7422 24.6328 89.8008 24.3633 89.832 24.0039C89.8711 23.6367 89.8906 23.1133 89.8906 22.4336V19.9492C89.8906 19.0977 89.8594 18.4727 89.7969 18.0742C89.7422 17.6758 89.6328 17.3555 89.4688 17.1133C89.2891 16.8398 89.0312 16.6289 88.6953 16.4805C88.3594 16.3242 87.9883 16.2461 87.582 16.2461C87.1445 16.2461 86.7344 16.332 86.3516 16.5039C85.9766 16.6758 85.6797 16.9102 85.4609 17.207C85.2266 17.5195 85.0703 17.875 84.9922 18.2734C84.9219 18.6641 84.8867 19.3164 84.8867 20.2305V22.5273L84.8984 23.3945C84.8984 23.9258 84.9297 24.3164 84.9922 24.5664C85.0547 24.8086 85.1758 25.0117 85.3555 25.1758C85.5742 25.3867 85.9766 25.5469 86.5625 25.6562V25.8906H81.3945V25.6562C81.8633 25.5938 82.1992 25.5078 82.4023 25.3984C82.6055 25.2812 82.7695 25.0859 82.8945 24.8125C82.9805 24.6328 83.0391 24.3633 83.0703 24.0039C83.1094 23.6367 83.1289 23.1094 83.1289 22.4219V19.5273C83.1289 18.7227 83.1094 18.1602 83.0703 17.8398C83.0312 17.5117 82.9453 17.2461 82.8125 17.043C82.6797 16.8242 82.5195 16.668 82.332 16.5742C82.1445 16.4727 81.875 16.4102 81.5234 16.3867V16.1523L84.7227 15.7305ZM96.3594 19.5156C96.3281 19.8984 96.3125 20.1758 96.3125 20.3477C96.3125 21.0273 96.4102 21.6914 96.6055 22.3398C96.8086 22.9883 97.082 23.5273 97.4258 23.957C97.7773 24.3945 98.2109 24.7383 98.7266 24.9883C99.25 25.2383 99.7969 25.3633 100.367 25.3633C100.789 25.3633 101.188 25.293 101.562 25.1523C101.945 25.0117 102.262 24.8164 102.512 24.5664C102.793 24.293 103.035 23.8555 103.238 23.2539L103.473 23.3359C103.27 24.25 102.832 24.9414 102.16 25.4102C101.496 25.8711 100.609 26.1016 99.5 26.1016C98.5391 26.1016 97.7148 25.9492 97.0273 25.6445C96.3398 25.3398 95.7578 24.8711 95.2812 24.2383C94.6172 23.3555 94.2852 22.2695 94.2852 20.9805C94.2852 19.2227 94.9141 17.8438 96.1719 16.8438C97.0859 16.1172 98.1289 15.7539 99.3008 15.7539C99.9258 15.7539 100.504 15.8672 101.035 16.0938C101.566 16.3125 102.016 16.6328 102.383 17.0547C102.953 17.7109 103.238 18.5312 103.238 19.5156H96.3594ZM101.492 19.0586C101.438 18.2773 101.293 17.6758 101.059 17.2539C100.848 16.8711 100.566 16.5703 100.215 16.3516C99.8633 16.125 99.4883 16.0117 99.0898 16.0117C98.418 16.0117 97.8281 16.3008 97.3203 16.8789C96.8203 17.457 96.5234 18.1836 96.4297 19.0586H101.492Z" fill="white"/>
<path d="M71.0527 55.4463L71.085 51.0098H71.332C71.6328 52.1413 71.9909 53.0329 72.4062 53.6846C73.1868 54.8877 74.168 55.4893 75.3496 55.4893C76.1732 55.4893 76.8535 55.2135 77.3906 54.6621C77.9277 54.1107 78.1963 53.4124 78.1963 52.5674C78.1963 52.2021 78.1354 51.8298 78.0137 51.4502C77.8991 51.0706 77.7415 50.7448 77.541 50.4727C77.3333 50.1934 77.0397 49.9248 76.6602 49.667C76.2878 49.4092 75.7148 49.0833 74.9414 48.6895C74.2611 48.3457 73.7383 48.0557 73.373 47.8193C73.015 47.583 72.7249 47.3431 72.5029 47.0996C71.887 46.4264 71.5791 45.6064 71.5791 44.6396C71.5791 44.0452 71.6973 43.4723 71.9336 42.9209C72.1771 42.3695 72.5137 41.8968 72.9434 41.5029C73.7025 40.8011 74.6012 40.4502 75.6396 40.4502C75.9762 40.4502 76.2878 40.486 76.5742 40.5576C76.8607 40.6221 77.2438 40.7546 77.7236 40.9551C78.0817 41.0983 78.3252 41.1914 78.4541 41.2344C78.583 41.2702 78.6976 41.2881 78.7979 41.2881C79.0485 41.2881 79.2168 41.1055 79.3027 40.7402H79.5498L79.625 45.0049H79.3779C79.1846 44.3245 79.0163 43.8053 78.873 43.4473C78.737 43.082 78.5723 42.7454 78.3789 42.4375C78.028 41.8789 77.6413 41.4671 77.2188 41.2021C76.7962 40.93 76.3092 40.7939 75.7578 40.7939C74.9557 40.7939 74.3219 41.0661 73.8564 41.6104C73.6631 41.8324 73.5091 42.0938 73.3945 42.3945C73.2871 42.6953 73.2334 42.9961 73.2334 43.2969C73.2334 44.4928 74.0033 45.4561 75.543 46.1865L77.0576 46.917C78.2249 47.4684 79.0664 48.0771 79.582 48.7432C80.1693 49.488 80.4629 50.3545 80.4629 51.3428C80.4629 52.0016 80.3304 52.6318 80.0654 53.2334C79.693 54.0713 79.1344 54.7194 78.3896 55.1777C77.6449 55.6289 76.7676 55.8545 75.7578 55.8545C74.834 55.8545 73.946 55.6719 73.0938 55.3066C72.6497 55.1133 72.3848 55.0023 72.2988 54.9736C72.2129 54.945 72.1162 54.9307 72.0088 54.9307C71.665 54.9307 71.4287 55.1025 71.2998 55.4463H71.0527ZM84.4482 46.3477H87.1875V46.7559H84.4482V53.0078C84.4482 53.7598 84.5771 54.2969 84.835 54.6191C84.971 54.7982 85.1501 54.9378 85.3721 55.0381C85.5941 55.1383 85.834 55.1885 86.0918 55.1885C86.4141 55.1885 86.6826 55.124 86.8975 54.9951C87.1123 54.859 87.3486 54.6156 87.6064 54.2646L87.7676 54.4043C87.5312 54.834 87.1982 55.1527 86.7686 55.3604C86.346 55.568 85.8161 55.6719 85.1787 55.6719C84.3337 55.6719 83.7178 55.5072 83.3311 55.1777C83.1234 55.0059 82.9873 54.8018 82.9229 54.5654C82.8584 54.3219 82.8262 53.8887 82.8262 53.2656V46.7559H81.6768V46.584C82.1423 46.4336 82.5719 46.1436 82.9658 45.7139C83.2021 45.4489 83.3919 45.1875 83.5352 44.9297C83.6784 44.6647 83.8145 44.3245 83.9434 43.9092L84.0508 43.5547H84.4482V46.3477ZM87.7568 50.9453C87.7568 49.7852 88.1865 48.7503 89.0459 47.8408C90.0915 46.738 91.3411 46.1865 92.7949 46.1865C94.2487 46.1865 95.4948 46.738 96.5332 47.8408C97.3926 48.7575 97.8223 49.7959 97.8223 50.9561C97.8223 52.1019 97.4141 53.1224 96.5977 54.0176C95.5951 55.1204 94.3275 55.6719 92.7949 55.6719C91.2624 55.6719 89.9912 55.1204 88.9814 54.0176C88.5876 53.5879 88.2832 53.1081 88.0684 52.5781C87.8607 52.0482 87.7568 51.5039 87.7568 50.9453ZM89.7119 50.8271C89.7119 52.0732 89.9912 53.1296 90.5498 53.9961C91.18 54.9629 91.9499 55.4463 92.8594 55.4463C93.2461 55.4463 93.6221 55.3389 93.9873 55.124C94.3525 54.9092 94.6676 54.6084 94.9326 54.2217C95.2119 53.8206 95.4375 53.3193 95.6094 52.7178C95.7812 52.109 95.8672 51.5218 95.8672 50.9561C95.8672 50.3688 95.7741 49.778 95.5879 49.1836C95.4089 48.582 95.1654 48.0664 94.8574 47.6367C94.2702 46.8275 93.5505 46.4229 92.6982 46.4229C91.889 46.4229 91.1908 46.849 90.6035 47.7012C90.0091 48.5534 89.7119 49.5954 89.7119 50.8271ZM101.84 47.8408C102.098 47.3896 102.388 47.0495 102.71 46.8203C103.304 46.3978 103.981 46.1865 104.74 46.1865C105.206 46.1865 105.56 46.2904 105.804 46.498C106.026 46.6842 106.137 46.9134 106.137 47.1855C106.137 47.3861 106.069 47.5508 105.933 47.6797C105.804 47.8086 105.635 47.873 105.428 47.873C105.184 47.873 104.973 47.7728 104.794 47.5723L104.461 47.207C104.196 46.9277 103.884 46.7881 103.526 46.7881C103.039 46.7881 102.66 47.1032 102.388 47.7334C102.116 48.3636 101.979 49.2409 101.979 50.3652V52.374L101.99 53.1904C101.99 53.6774 102.019 54.0355 102.076 54.2646C102.133 54.4867 102.244 54.6729 102.409 54.8232C102.61 55.0166 102.979 55.1634 103.516 55.2637V55.4785H98.7783V55.2637C99.208 55.2064 99.516 55.1276 99.7021 55.0273C99.8883 54.9199 100.039 54.7409 100.153 54.4902C100.232 54.3255 100.286 54.0785 100.314 53.749C100.35 53.4124 100.368 52.929 100.368 52.2988V49.6455C100.368 48.9079 100.35 48.3923 100.314 48.0986C100.279 47.7979 100.2 47.5544 100.078 47.3682C99.9564 47.1676 99.8096 47.0244 99.6377 46.9385C99.4658 46.8454 99.2188 46.7881 98.8965 46.7666V46.5518L101.657 46.165C101.779 46.8167 101.84 47.3753 101.84 47.8408ZM108.693 49.6348C108.665 49.9857 108.65 50.2399 108.65 50.3975C108.65 51.0205 108.74 51.6292 108.919 52.2236C109.105 52.818 109.356 53.3122 109.671 53.7061C109.993 54.1071 110.391 54.4222 110.863 54.6514C111.343 54.8805 111.844 54.9951 112.367 54.9951C112.754 54.9951 113.119 54.9307 113.463 54.8018C113.814 54.6729 114.104 54.4938 114.333 54.2646C114.591 54.014 114.813 53.613 114.999 53.0615L115.214 53.1367C115.028 53.9746 114.627 54.6084 114.011 55.0381C113.402 55.4606 112.589 55.6719 111.572 55.6719C110.691 55.6719 109.936 55.5322 109.306 55.2529C108.675 54.9736 108.142 54.5439 107.705 53.9639C107.096 53.1546 106.792 52.1592 106.792 50.9775C106.792 49.3662 107.368 48.1022 108.521 47.1855C109.359 46.5195 110.315 46.1865 111.39 46.1865C111.963 46.1865 112.493 46.2904 112.979 46.498C113.466 46.6986 113.878 46.9922 114.215 47.3789C114.738 47.9805 114.999 48.7324 114.999 49.6348H108.693ZM113.398 49.2158C113.348 48.4997 113.216 47.9482 113.001 47.5615C112.808 47.2106 112.55 46.9349 112.228 46.7344C111.905 46.5267 111.562 46.4229 111.196 46.4229C110.58 46.4229 110.04 46.6878 109.574 47.2178C109.116 47.7477 108.844 48.4137 108.758 49.2158H113.398Z" fill="black"/>
</svg>
