<svg width="38" height="38" viewBox="0 0 38 38" fill="none" xmlns="http://www.w3.org/2000/svg">
<path d="M25.6342 3.16675H12.3659C6.60258 3.16675 3.16675 6.60258 3.16675 12.3659V25.6184C3.16675 31.3976 6.60258 34.8334 12.3659 34.8334H25.6184C31.3817 34.8334 34.8176 31.3976 34.8176 25.6342V12.3659C34.8334 6.60258 31.3976 3.16675 25.6342 3.16675ZM27.3284 15.7701L23.6709 20.4884C23.2117 21.0742 22.5626 21.4542 21.8184 21.5334C21.0742 21.6284 20.3459 21.4226 19.7601 20.9634L16.8626 18.6834C16.7517 18.5884 16.6251 18.5884 16.5617 18.6042C16.4984 18.6042 16.3876 18.6359 16.2926 18.7626L12.5242 23.6551C12.2867 23.9559 11.9384 24.1142 11.5901 24.1142C11.3367 24.1142 11.0834 24.0351 10.8617 23.8609C10.3392 23.4651 10.2442 22.7209 10.6401 22.1984L14.4084 17.3059C14.8676 16.7201 15.5167 16.3401 16.2609 16.2451C16.9892 16.1501 17.7334 16.3559 18.3192 16.8151L21.2167 19.0951C21.3276 19.1901 21.4384 19.1901 21.5176 19.1742C21.5809 19.1742 21.6917 19.1426 21.7867 19.0159L25.4442 14.2976C25.8401 13.7751 26.6001 13.6801 27.1067 14.0917C27.6292 14.5192 27.7242 15.2634 27.3284 15.7701Z" fill="#292D32"/>
</svg>
