<svg width="14" height="23" viewBox="0 0 14 23" fill="none" xmlns="http://www.w3.org/2000/svg">
<path d="M11.0466 10.1148C11.9161 9.68893 12.6579 9.02476 13.1926 8.19346C13.7371 7.33149 14.0177 6.31783 13.9973 5.28635C13.9973 3.87142 13.4179 2.63709 12.2591 1.58334C11.1465 0.546936 9.70133 -0.0179866 8.20847 -7.50334e-05H0V8.0678H8.20847C9.00451 8.10826 9.79106 7.87361 10.4457 7.40036C11.009 6.95634 11.2934 6.23305 11.2934 5.23329C11.2941 4.8679 11.2127 4.50739 11.0558 4.18058C10.8988 3.85376 10.6706 3.56969 10.3893 3.35107C9.77226 2.83479 8.99994 2.56183 8.20847 2.5803H2.70665V6.74968H1.3654V1.31804H8.20847C9.34514 1.3094 10.4455 1.73461 11.3014 2.51328C12.1956 3.30638 12.6427 4.23726 12.6427 5.3059C12.6427 6.62215 12.2135 7.64611 11.3551 8.37778C10.4589 9.10613 9.34463 9.48192 8.20847 9.43897H0V22.9999C0.347498 23.012 0.685378 22.8799 0.939392 22.6328C1.19341 22.3856 1.34277 22.0436 1.35467 21.6818V10.7543H8.20847C8.47672 10.7543 8.6645 10.7543 8.79058 10.7375C10.0567 10.8399 11.0162 11.2356 11.6689 11.9244C11.9769 12.2282 12.2223 12.5941 12.3901 12.9998C12.558 13.4055 12.6448 13.8424 12.6453 14.2842C12.6453 15.6023 12.2161 16.6262 11.3577 17.356C10.4627 18.09 9.3472 18.4708 8.20847 18.4312H4.06132V17.1215H8.20847C8.99822 17.1606 9.7801 16.943 10.4457 16.4987C11.009 16.0826 11.2934 15.4068 11.2934 14.4685C11.2934 12.7929 10.2651 11.9551 8.20847 11.9551H2.70665V21.8577C3.05415 21.8698 3.39203 21.7377 3.64604 21.4906C3.90006 21.2434 4.04942 20.9014 4.06132 20.5396V19.7549H8.20847C9.7037 19.7946 11.1614 19.2643 12.3073 18.2636C13.4376 17.2695 14.0018 15.943 14 14.2842C14 12.1878 13.0155 10.798 11.0466 10.1148ZM4.06132 3.90959H8.20847C8.64779 3.89081 9.08184 4.01476 9.45047 4.26425C9.60498 4.37116 9.73085 4.51721 9.81625 4.68868C9.90165 4.86014 9.94378 5.05139 9.93869 5.24446C9.93869 6.25539 9.36195 6.76085 8.20847 6.76085H4.06132V3.90959ZM4.06132 13.29H8.20847C8.64941 13.2664 9.08972 13.3476 9.49607 13.5274C9.79115 13.6865 9.93869 14.0049 9.93869 14.4796C9.93869 15.3696 9.36195 15.8145 8.20847 15.8145H4.06132V13.29Z" fill="white"/>
</svg>
