<svg width="38" height="38" viewBox="0 0 38 38" fill="none" xmlns="http://www.w3.org/2000/svg">
<path d="M25.6342 3.16675H12.3659C6.60258 3.16675 3.16675 6.60258 3.16675 12.3659V25.6184C3.16675 31.3976 6.60258 34.8334 12.3659 34.8334H25.6184C31.3817 34.8334 34.8176 31.3976 34.8176 25.6342V12.3659C34.8334 6.60258 31.3976 3.16675 25.6342 3.16675ZM15.6909 25.6342C15.6909 26.6476 14.8676 27.4709 13.8384 27.4709C12.8251 27.4709 12.0017 26.6476 12.0017 25.6342V20.4726C12.0017 19.4592 12.8251 18.6359 13.8384 18.6359C14.8676 18.6359 15.6909 19.4592 15.6909 20.4726V25.6342ZM25.9984 25.6342C25.9984 26.6476 25.1751 27.4709 24.1617 27.4709C23.1326 27.4709 22.3092 26.6476 22.3092 25.6342V12.3659C22.3092 11.3526 23.1326 10.5292 24.1617 10.5292C25.1751 10.5292 25.9984 11.3526 25.9984 12.3659V25.6342Z" fill="#292D32"/>
</svg>
