<svg width="38" height="38" viewBox="0 0 38 38" fill="none" xmlns="http://www.w3.org/2000/svg">
<path d="M34.7067 26.5209C34.1842 30.7325 30.7326 34.1842 26.5209 34.7067C23.9717 35.0234 21.5967 34.3267 19.7442 32.965C18.6834 32.1892 18.9367 30.5425 20.2034 30.1625C24.9692 28.7217 28.7217 24.9534 30.1784 20.1875C30.5584 18.9367 32.2051 18.6834 32.9809 19.7284C34.3267 21.5967 35.0234 23.9717 34.7067 26.5209Z" fill="#292D32"/>
<path d="M15.8175 3.16675C8.83496 3.16675 3.16663 8.83508 3.16663 15.8176C3.16663 22.8001 8.83496 28.4684 15.8175 28.4684C22.8 28.4684 28.4683 22.8001 28.4683 15.8176C28.4525 8.83508 22.8 3.16675 15.8175 3.16675ZM14.3291 14.0442L18.145 15.3742C19.5225 15.8651 20.1875 16.8309 20.1875 18.3192C20.1875 20.0292 18.8258 21.4384 17.1633 21.4384H17.0208V21.5176C17.0208 22.1667 16.4825 22.7051 15.8333 22.7051C15.1841 22.7051 14.6458 22.1667 14.6458 21.5176V21.4226C12.8883 21.3434 11.4791 19.8709 11.4791 18.0342C11.4791 17.3851 12.0175 16.8467 12.6666 16.8467C13.3158 16.8467 13.8541 17.3851 13.8541 18.0342C13.8541 18.6042 14.2658 19.0634 14.7725 19.0634H17.1475C17.5116 19.0634 17.7966 18.7309 17.7966 18.3192C17.7966 17.7651 17.7016 17.7334 17.3375 17.6067L13.5216 16.2767C12.16 15.8017 11.4791 14.8359 11.4791 13.3317C11.4791 11.6217 12.8408 10.2126 14.5033 10.2126H14.6458V10.1492C14.6458 9.50008 15.1841 8.96175 15.8333 8.96175C16.4825 8.96175 17.0208 9.50008 17.0208 10.1492V10.2442C18.7783 10.3234 20.1875 11.7959 20.1875 13.6326C20.1875 14.2817 19.6491 14.8201 19 14.8201C18.3508 14.8201 17.8125 14.2817 17.8125 13.6326C17.8125 13.0626 17.4008 12.6034 16.8941 12.6034H14.5191C14.155 12.6034 13.87 12.9359 13.87 13.3476C13.8541 13.8859 13.9491 13.9176 14.3291 14.0442Z" fill="#292D32"/>
</svg>
