<svg width="38" height="38" viewBox="0 0 38 38" fill="none" xmlns="http://www.w3.org/2000/svg">
<path d="M17.8125 12.7932V17.3215L16.2134 16.7674C15.4059 16.4824 14.915 16.2132 14.915 14.8357C14.915 13.7115 15.7542 12.7932 16.7834 12.7932H17.8125Z" fill="#292D32"/>
<path d="M23.085 23.1641C23.085 24.2882 22.2458 25.2066 21.2167 25.2066H20.1875V20.6782L21.7867 21.2324C22.5942 21.5174 23.085 21.7866 23.085 23.1641Z" fill="#292D32"/>
<path d="M25.6341 3.16675H12.3658C6.60246 3.16675 3.16663 6.60258 3.16663 12.3659V25.6342C3.16663 31.3976 6.60246 34.8334 12.3658 34.8334H25.6341C31.3975 34.8334 34.8333 31.3976 34.8333 25.6342V12.3659C34.8333 6.60258 31.3975 3.16675 25.6341 3.16675ZM22.5783 19.0001C23.8133 19.4276 25.46 20.3301 25.46 23.1642C25.46 25.6026 23.56 27.5817 21.2166 27.5817H20.1875V28.5001C20.1875 29.1492 19.6491 29.6876 19 29.6876C18.3508 29.6876 17.8125 29.1492 17.8125 28.5001V27.5817H17.2425C14.6458 27.5817 12.54 25.3809 12.54 22.6892C12.54 22.0401 13.0625 21.5017 13.7275 21.5017C14.3766 21.5017 14.915 22.0401 14.915 22.6892C14.915 24.0826 15.96 25.2067 17.2425 25.2067H17.8125V19.8392L15.4216 19.0001C14.1866 18.5726 12.54 17.6701 12.54 14.8359C12.54 12.3976 14.44 10.4184 16.7833 10.4184H17.8125V9.50008C17.8125 8.85091 18.3508 8.31258 19 8.31258C19.6491 8.31258 20.1875 8.85091 20.1875 9.50008V10.4184H20.7575C23.3541 10.4184 25.46 12.6192 25.46 15.3109C25.46 15.9601 24.9375 16.4984 24.2725 16.4984C23.6233 16.4984 23.085 15.9601 23.085 15.3109C23.085 13.9176 22.04 12.7934 20.7575 12.7934H20.1875V18.1609L22.5783 19.0001Z" fill="#292D32"/>
</svg>
