<svg width="24" height="24" viewBox="0 0 24 24" fill="none" xmlns="http://www.w3.org/2000/svg">
<path d="M22.2 0H1.8C0.8 0 0 0.803347 0 1.70711V22.2929C0 23.1967 0.8 24 1.8 24H22.2C23.2 24 24 23.1967 24 22.2929V1.70711C24 0.803347 23.2 0 22.2 0ZM7.1 20.4854H3.6V9.03766H7.1V20.4854ZM5.4 7.43096C4.3 7.43096 3.3 6.5272 3.3 5.32218C3.3 4.11715 4.2 3.21339 5.4 3.21339C6.5 3.21339 7.5 4.11715 7.5 5.32218C7.5 6.5272 6.5 7.43096 5.4 7.43096ZM20.5 20.3849H17V14.7615C17 13.4561 17 11.6485 15.1 11.6485C13.2 11.6485 13 13.1548 13 14.5607V20.2845H9.5V9.03766H12.8V10.5439H12.9C13.4 9.64017 14.6 8.63598 16.3 8.63598C19.9 8.63598 20.6 11.046 20.6 14.159V20.3849H20.5Z" fill="white"/>
</svg>
