<svg width="128" height="20" viewBox="0 0 128 20" fill="none" xmlns="http://www.w3.org/2000/svg">
<path d="M7.62842 15.1426L6.87158 15.3623C6.73324 15.0042 6.59489 14.5241 6.45654 13.9219C6.32633 13.3197 6.26123 12.9453 6.26123 12.7988C5.65088 12.7988 5.03239 12.8883 4.40576 13.0674C3.78727 13.2464 3.29085 13.4377 2.9165 13.6411C2.55029 13.8446 2.23291 14.1375 1.96436 14.52C1.70394 14.8944 1.57373 15.3338 1.57373 15.8384C1.57373 16.3348 1.69987 16.7743 1.95215 17.1567C2.21257 17.5392 2.55436 17.8281 2.97754 18.0234C3.79134 18.4059 4.64176 18.5972 5.52881 18.5972C6.42399 18.5972 7.19303 18.5036 7.83594 18.3164C8.47884 18.1292 9.02002 17.881 9.45947 17.5718C9.90706 17.2625 10.314 16.8719 10.6802 16.3999C11.0464 15.9279 11.3434 15.4478 11.5713 14.9595C11.7992 14.4631 12.0229 13.8975 12.2427 13.2627C12.4624 12.6279 12.6455 12.0339 12.792 11.4805C13.1908 10.0075 13.5895 8.77458 13.9883 7.78174C14.3952 6.7889 14.9933 5.81234 15.7827 4.85205C16.5721 3.88363 17.4673 3.09017 18.4683 2.47168C17.98 2.35775 17.3574 2.30078 16.6006 2.30078C15.8438 2.30078 14.9811 2.46761 14.0127 2.80127C13.0524 3.12679 12.1572 3.58659 11.3271 4.18066C10.4971 4.7666 9.75244 5.43799 9.09326 6.19482C8.44222 6.95166 7.92952 7.78988 7.55518 8.70947C7.18083 9.62093 6.99365 10.5365 6.99365 11.4561C8.78402 11.8223 10.078 12.4855 10.8755 13.4458L10.3628 13.9829C9.52458 13.4377 8.89795 13.1162 8.48291 13.0186C8.06787 12.9209 7.81966 12.8639 7.73828 12.8477C7.36393 12.7988 7.10758 12.7744 6.96924 12.7744C7.06689 13.3766 7.24186 14.0439 7.49414 14.7764L7.62842 15.1426ZM23.3511 0.70166L23.5952 1.27539C22.8465 1.41374 22.1507 1.61719 21.5078 1.88574L21.1782 2.02002C21.7642 2.31299 22.228 2.71175 22.5698 3.21631C22.9198 3.72087 23.0947 4.18473 23.0947 4.60791C23.0947 5.02295 23.0581 5.37288 22.9849 5.65771C22.9116 5.94255 22.8221 6.19889 22.7163 6.42676C22.6105 6.65462 22.4681 6.89469 22.2891 7.14697C22.1182 7.39111 21.9595 7.59863 21.813 7.76953C21.6665 7.93229 21.4834 8.11947 21.2637 8.33105C21.0521 8.53451 20.8853 8.68913 20.7632 8.79492C20.5435 8.97396 20.2708 9.19368 19.9453 9.4541C21.109 9.93424 21.9961 10.5039 22.6064 11.1631C23.2168 11.8141 23.522 12.632 23.522 13.6167C23.522 14.5933 23.2249 15.5413 22.6309 16.4609C22.0449 17.3805 21.2637 18.113 20.2871 18.6582C19.3187 19.2035 18.2892 19.4761 17.1987 19.4761C15.9943 19.4761 15.0706 19.1383 14.4277 18.4629C14.0778 18.0967 13.9028 17.6694 13.9028 17.1812C13.9028 16.6929 14.0493 16.2982 14.3423 15.9971C14.6434 15.696 15.0055 15.5454 15.4287 15.5454C15.8519 15.5454 16.1855 15.6512 16.4297 15.8628C16.6738 16.0744 16.7959 16.3226 16.7959 16.6074C16.7959 16.8841 16.7471 17.1038 16.6494 17.2666C16.5518 17.4212 16.4338 17.5433 16.2954 17.6328C16.1652 17.7223 16.0269 17.7956 15.8804 17.8525C15.6281 17.9502 15.4572 17.999 15.3677 17.999C15.3677 18.3571 15.8112 18.5809 16.6982 18.6704C16.8529 18.6867 16.9953 18.6948 17.1255 18.6948C18.2567 18.6948 19.2048 18.2676 19.9697 17.4131C20.7347 16.5586 21.1172 15.5617 21.1172 14.4224C21.1172 13.8527 20.991 13.3278 20.7388 12.8477C20.4865 12.3594 20.1772 11.9688 19.811 11.6758C19.4448 11.3828 19.0786 11.1346 18.7124 10.9312C18.3543 10.7196 18.0492 10.5568 17.7969 10.4429C17.5446 10.3289 17.4185 10.2557 17.4185 10.2231C17.4185 10.1825 17.5405 10.0807 17.7847 9.91797C18.0288 9.75521 18.3258 9.54362 18.6758 9.2832C19.0339 9.01465 19.3879 8.70947 19.7378 8.36768C20.0877 8.02588 20.3848 7.61084 20.6289 7.12256C20.873 6.62614 20.9951 6.12972 20.9951 5.6333C20.9951 5.13688 20.8568 4.60791 20.5801 4.04639C20.3034 3.47673 19.9006 3.07796 19.3716 2.8501C17.8416 3.79411 16.7389 5.25488 16.0635 7.23242C15.7705 8.07878 15.5508 8.83968 15.4043 9.51514C15.0462 11.216 14.7858 12.396 14.623 13.0552C14.4603 13.7062 14.1348 14.4305 13.6465 15.228C13.1663 16.0256 12.5682 16.7417 11.8521 17.3765C11.1359 18.0112 10.2651 18.5117 9.23975 18.8779C8.21436 19.2441 7.09945 19.4272 5.89502 19.4272C4.243 19.4272 2.90023 19.0488 1.8667 18.292C1.0529 17.6898 0.645996 16.8516 0.645996 15.7773C0.645996 15.0531 0.820964 14.402 1.1709 13.8242C1.52083 13.2464 1.97656 12.7907 2.53809 12.457C3.67741 11.7734 4.91846 11.4316 6.26123 11.4316C6.26123 10.1133 6.57048 8.83561 7.18896 7.59863C7.80745 6.35352 8.62533 5.28337 9.64258 4.38818C10.668 3.48486 11.8643 2.76058 13.2314 2.21533C14.6068 1.67008 16.0187 1.39746 17.4673 1.39746C17.9718 1.39746 18.7897 1.46663 19.9209 1.60498C21.459 1.0516 22.6024 0.750488 23.3511 0.70166ZM26.7812 19.1953C26.4395 19.1953 26.1709 19.0895 25.9756 18.8779C25.7803 18.6663 25.6826 18.3774 25.6826 18.0112C25.6826 17.6369 25.7762 17.1323 25.9634 16.4976C26.1587 15.8547 26.3499 15.2728 26.5371 14.752C26.7324 14.2311 26.8301 13.8853 26.8301 13.7144C26.8301 13.5353 26.7731 13.4458 26.6592 13.4458C26.3743 13.4458 25.9146 14.0073 25.2798 15.1304L24.4619 14.6543C25.6582 12.6361 26.7568 11.627 27.7578 11.627C28.4414 11.627 28.7832 12.0583 28.7832 12.9209C28.7832 13.1732 28.7018 13.576 28.5391 14.1294L27.6602 16.644C27.5706 16.88 27.5259 17.0957 27.5259 17.291C27.5259 17.4782 27.5991 17.5718 27.7456 17.5718C28.0223 17.5718 28.5309 17.0591 29.2715 16.0337L29.7842 16.5098C29.3447 17.3236 28.8198 17.9746 28.2095 18.4629C27.6073 18.9512 27.1312 19.1953 26.7812 19.1953ZM30.2603 8.02588C30.2603 8.3514 30.1504 8.64844 29.9307 8.91699C29.7109 9.18555 29.4139 9.31982 29.0396 9.31982C28.6652 9.31982 28.3844 9.20996 28.1973 8.99023C28.0101 8.76237 27.9165 8.47754 27.9165 8.13574C27.9165 7.79395 28.0304 7.49284 28.2583 7.23242C28.4943 6.96387 28.7954 6.82959 29.1616 6.82959C29.5278 6.82959 29.8005 6.94759 29.9795 7.18359C30.1667 7.41146 30.2603 7.69222 30.2603 8.02588ZM35.0576 2.76465H37.0352C36.6852 3.36686 36.1481 4.70557 35.4238 6.78076C34.6995 8.84782 34.0363 10.9312 33.4341 13.0308C32.84 15.1222 32.543 16.404 32.543 16.876C32.543 17.3398 32.5999 17.5718 32.7139 17.5718C33.0557 17.5718 33.5887 17.055 34.313 16.0215L34.8257 16.5098C34.4676 17.1283 34.0811 17.6491 33.666 18.0723C32.9336 18.821 32.3395 19.1953 31.8838 19.1953C31.0537 19.1953 30.6387 18.6948 30.6387 17.6938C30.6387 16.2046 31.131 13.8568 32.1157 10.6504C33.1086 7.44401 34.0892 4.81543 35.0576 2.76465ZM37.6455 19.1953C37.3037 19.1953 37.0352 19.0895 36.8398 18.8779C36.6445 18.6663 36.5469 18.3774 36.5469 18.0112C36.5469 17.6369 36.6405 17.1323 36.8276 16.4976C37.0229 15.8547 37.2142 15.2728 37.4014 14.752C37.5967 14.2311 37.6943 13.8853 37.6943 13.7144C37.6943 13.5353 37.6374 13.4458 37.5234 13.4458C37.2386 13.4458 36.7788 14.0073 36.144 15.1304L35.3262 14.6543C36.5225 12.6361 37.6211 11.627 38.6221 11.627C39.3057 11.627 39.6475 12.0583 39.6475 12.9209C39.6475 13.1732 39.5661 13.576 39.4033 14.1294L38.5244 16.644C38.4349 16.88 38.3901 17.0957 38.3901 17.291C38.3901 17.4782 38.4634 17.5718 38.6099 17.5718C38.8866 17.5718 39.3952 17.0591 40.1357 16.0337L40.6484 16.5098C40.209 17.3236 39.6841 17.9746 39.0737 18.4629C38.4715 18.9512 37.9954 19.1953 37.6455 19.1953ZM41.1245 8.02588C41.1245 8.3514 41.0146 8.64844 40.7949 8.91699C40.5752 9.18555 40.2782 9.31982 39.9038 9.31982C39.5295 9.31982 39.2487 9.20996 39.0615 8.99023C38.8743 8.76237 38.7808 8.47754 38.7808 8.13574C38.7808 7.79395 38.8947 7.49284 39.1226 7.23242C39.3586 6.96387 39.6597 6.82959 40.0259 6.82959C40.3921 6.82959 40.6647 6.94759 40.8438 7.18359C41.0309 7.41146 41.1245 7.69222 41.1245 8.02588ZM41.3687 16.0947C41.3687 15.4844 41.5151 14.8984 41.8081 14.3369C42.1092 13.7673 42.4958 13.2871 42.9678 12.8965C44.0094 12.0501 45.0715 11.627 46.1538 11.627C47.2362 11.627 48.1232 11.9159 48.8149 12.4937C49.5067 13.0715 49.8525 13.7957 49.8525 14.6665C49.8525 15.5291 49.6125 16.3063 49.1323 16.998C48.6603 17.6898 48.0337 18.231 47.2524 18.6216C46.4712 19.0041 45.6167 19.1953 44.689 19.1953C43.7694 19.1953 42.984 18.9064 42.333 18.3286C41.6901 17.7427 41.3687 16.998 41.3687 16.0947ZM45.3604 18.4385C45.7347 18.4385 46.0846 18.3164 46.4102 18.0723C46.7438 17.8281 46.9961 17.5107 47.167 17.1201C47.5007 16.3714 47.6675 15.5983 47.6675 14.8008C47.6675 14.0033 47.521 13.401 47.228 12.9941C46.9351 12.5791 46.52 12.3716 45.9829 12.3716C45.4458 12.3716 44.9128 12.7215 44.3838 13.4214C43.863 14.1213 43.6025 15.0124 43.6025 16.0947C43.6025 17.6572 44.1885 18.4385 45.3604 18.4385ZM54.1738 15.5698C55.8747 12.9412 57.4006 11.627 58.7515 11.627C59.2072 11.627 59.549 11.7653 59.7769 12.042C60.0047 12.3187 60.1187 12.6686 60.1187 13.0918C60.1187 13.515 59.9274 14.2474 59.5449 15.2891C59.1706 16.3307 58.9834 16.9777 58.9834 17.23C58.9834 17.4741 59.0444 17.5962 59.1665 17.5962C59.3293 17.5962 59.5693 17.4294 59.8867 17.0957C60.2041 16.7539 60.4849 16.3958 60.729 16.0215L61.2417 16.5098C60.7534 17.3968 60.2163 18.0682 59.6304 18.5239C59.0526 18.9715 58.5806 19.1953 58.2144 19.1953C57.8563 19.1953 57.5755 19.0773 57.3721 18.8413C57.1686 18.5972 57.0669 18.2676 57.0669 17.8525C57.0669 17.4375 57.2297 16.762 57.5552 15.8262C57.8888 14.8822 58.0557 14.2148 58.0557 13.8242C58.0557 13.4255 57.9214 13.2261 57.6528 13.2261C57.3436 13.2261 56.9774 13.4255 56.5542 13.8242C56.131 14.2148 55.7201 14.695 55.3213 15.2646C54.6865 16.1761 54.0396 17.2259 53.3804 18.4141L53.0508 19H51.3296L51.708 17.8525C52.416 15.7367 52.77 14.4834 52.77 14.0928C52.77 13.694 52.7049 13.4946 52.5747 13.4946C52.3387 13.4946 52.0579 13.7754 51.7324 14.3369C51.6592 14.4671 51.5981 14.5729 51.5493 14.6543C51.5005 14.7275 51.4435 14.8211 51.3784 14.9351C51.3215 15.0409 51.2848 15.106 51.2686 15.1304L50.4507 14.6543C51.0854 13.6208 51.6673 12.8599 52.1963 12.3716C52.7253 11.8752 53.2664 11.627 53.8198 11.627C54.0721 11.627 54.2878 11.7327 54.4668 11.9443C54.654 12.1559 54.7476 12.4123 54.7476 12.7134C54.7476 13.0145 54.7231 13.3115 54.6743 13.6045C54.6255 13.8893 54.5726 14.1294 54.5156 14.3247C54.4668 14.5119 54.3976 14.756 54.3081 15.0571C54.2267 15.3582 54.182 15.5291 54.1738 15.5698ZM63.0239 18.9146C62.495 18.7274 62.1165 18.5076 61.8887 18.2554C61.6608 17.995 61.5469 17.7101 61.5469 17.4009C61.5469 17.0916 61.6323 16.8353 61.8032 16.6318C61.9741 16.4284 62.1979 16.3267 62.4746 16.3267C62.7594 16.3267 63.0076 16.4121 63.2192 16.583C63.439 16.7458 63.5488 16.9818 63.5488 17.291C63.5488 17.5921 63.3617 17.8444 62.9873 18.0479C63.2965 18.3164 63.7686 18.4507 64.4033 18.4507C65.7786 18.4507 66.4663 18.0601 66.4663 17.2788C66.4663 16.7905 66.0309 16.3999 65.1602 16.1069C64.8021 15.9849 64.4399 15.8547 64.0737 15.7163C63.7157 15.578 63.4023 15.3745 63.1338 15.106C62.8652 14.8374 62.7188 14.5119 62.6943 14.1294C62.6943 13.576 62.8774 13.1081 63.2437 12.7256C63.9354 11.9932 64.9689 11.627 66.3442 11.627C67.0197 11.627 67.6178 11.7572 68.1387 12.0176C68.6595 12.2699 68.9199 12.5994 68.9199 13.0063C68.9199 13.4132 68.8141 13.7062 68.6025 13.8853C68.3991 14.0643 68.159 14.1538 67.8823 14.1538C67.6056 14.1538 67.3696 14.0806 67.1743 13.9341C66.9871 13.7795 66.8936 13.5679 66.8936 13.2993C66.8936 13.0308 67.0522 12.7988 67.3696 12.6035C67.1743 12.4652 66.8366 12.396 66.3564 12.396C65.8763 12.396 65.445 12.4692 65.0625 12.6157C64.68 12.7541 64.4888 12.9453 64.4888 13.1895C64.4888 13.4336 64.6271 13.637 64.9038 13.7998C65.1886 13.9626 65.5304 14.1131 65.9292 14.2515C66.328 14.3898 66.7267 14.5485 67.1255 14.7275C67.5243 14.9066 67.862 15.1629 68.1387 15.4966C68.4235 15.8302 68.5659 16.2412 68.5659 16.7295C68.5659 17.2178 68.3665 17.6613 67.9678 18.0601C67.2109 18.8169 66.1774 19.1953 64.8672 19.1953C64.1755 19.1953 63.561 19.1017 63.0239 18.9146ZM74.6572 17.6816C74.2015 17.1201 73.9736 16.5098 73.9736 15.8506C73.9736 15.1914 74.0835 14.6217 74.3032 14.1416C74.5311 13.6615 74.8322 13.2586 75.2065 12.9331C75.5809 12.6076 76.0122 12.3309 76.5005 12.103C77.4038 11.6799 78.4251 11.4601 79.5645 11.4438C79.6377 10.1011 79.9429 8.8234 80.48 7.61084C81.0252 6.39014 81.7373 5.32406 82.6162 4.4126C83.4951 3.493 84.5653 2.76058 85.8267 2.21533C87.0962 1.67008 88.4471 1.39746 89.8794 1.39746C91.2222 1.39746 92.4551 1.72705 93.5781 2.38623C94.1396 2.71175 94.5913 3.15527 94.9331 3.7168C95.283 4.27018 95.458 4.96191 95.458 5.79199C95.458 6.62207 95.2505 7.47249 94.8354 8.34326C94.4285 9.20589 93.8874 9.94238 93.2119 10.5527C91.7796 11.8304 90.152 12.571 88.3291 12.7744C87.613 14.8659 86.4167 16.4894 84.7402 17.645C83.0638 18.8006 81.0659 19.3784 78.7466 19.3784C76.9399 19.3784 75.5768 18.8128 74.6572 17.6816ZM76.5493 13.4824C76.0448 13.7184 75.6297 14.0521 75.3042 14.4834C74.9787 14.9066 74.8159 15.3664 74.8159 15.8628C74.8159 16.3592 74.9502 16.7905 75.2188 17.1567C75.4954 17.5148 75.8454 17.7956 76.2686 17.999C77.1312 18.4141 78.0223 18.6216 78.9419 18.6216C80.4149 18.6216 81.7576 18.1577 82.9702 17.23C84.1909 16.2941 85.1105 15.11 85.729 13.6777C85.9731 13.1081 86.2336 12.2332 86.5103 11.0532C86.7869 9.86507 87.0026 9.0472 87.1572 8.59961C88.0768 5.84896 89.3586 3.94873 91.0024 2.89893C90.8966 2.79313 90.6403 2.69954 90.2334 2.61816C89.8265 2.53678 89.3748 2.49609 88.8784 2.49609C87.8042 2.49609 86.7422 2.75651 85.6924 3.27734C84.6507 3.79818 83.7393 4.47363 82.958 5.30371C82.1768 6.13379 81.5461 7.09814 81.0659 8.19678C80.5858 9.28727 80.3457 10.3778 80.3457 11.4683C81.5501 11.6554 82.7261 12.1315 83.8735 12.8965L83.3486 13.7021C82.25 13.0755 81.2856 12.7622 80.4556 12.7622C80.4556 12.9412 80.5207 13.3075 80.6509 13.8608C80.7811 14.4142 80.9316 14.9229 81.1025 15.3867L80.3823 15.6064C80.187 15.2972 80.0161 14.8333 79.8696 14.2148C79.7313 13.5882 79.6418 13.104 79.6011 12.7622C78.592 12.7622 77.5747 13.0023 76.5493 13.4824ZM91.9058 3.35059C91.0187 4.26204 90.2863 5.48275 89.7085 7.0127C89.1388 8.53451 88.736 10.215 88.5 12.0542C89.1348 12.0542 89.7655 11.8711 90.3921 11.5049C91.0187 11.1305 91.5558 10.6626 92.0034 10.1011C92.451 9.53141 92.8132 8.90479 93.0898 8.22119C93.3665 7.5376 93.5049 6.98421 93.5049 6.56104C93.5049 6.12972 93.4845 5.79199 93.4438 5.54785C93.4032 5.30371 93.334 5.03516 93.2363 4.74219C93.0085 4.07487 92.5649 3.611 91.9058 3.35059ZM99.9746 12.5303C99.055 12.5303 98.3185 12.1925 97.7651 11.5171C97.2199 10.8335 96.9473 10.0075 96.9473 9.03906C96.9473 8.07064 97.1507 7.12663 97.5576 6.20703C97.9727 5.2793 98.5138 4.46549 99.1812 3.76562C99.8485 3.05762 100.638 2.48796 101.549 2.05664C102.461 1.61719 103.368 1.39746 104.271 1.39746C105.175 1.39746 106.009 1.53581 106.774 1.8125C107.539 2.08105 108.214 2.46761 108.8 2.97217C109.394 3.47673 109.866 4.11963 110.216 4.90088C110.566 5.67399 110.741 6.58952 110.741 7.64746C110.741 8.7054 110.55 9.81624 110.167 10.98C109.793 12.1356 109.252 13.2098 108.544 14.2026C107.844 15.1873 107.026 16.0622 106.09 16.8271C105.154 17.5921 104.088 18.1943 102.892 18.6338C101.696 19.0651 100.463 19.2808 99.1934 19.2808C97.1426 19.2808 95.5597 18.7559 94.4448 17.7061C93.3299 16.6481 92.7725 15.1466 92.7725 13.2017C92.7725 11.0614 93.4072 9.07975 94.6768 7.25684C95.3197 6.33724 96.0765 5.5804 96.9473 4.98633L97.3135 5.43799C96.5973 6.30062 96.0317 7.37891 95.6167 8.67285C95.2017 9.9668 94.9941 11.1427 94.9941 12.2007C94.9941 13.2505 95.0837 14.1294 95.2627 14.8374C95.4499 15.5373 95.7266 16.168 96.0928 16.7295C96.8903 17.9421 98.0907 18.5483 99.6938 18.5483C101.981 18.5483 103.974 17.3276 105.675 14.8862C106.636 13.5028 107.315 11.9118 107.714 10.1133C107.901 9.25879 107.995 8.44499 107.995 7.67188C107.995 6.89876 107.913 6.19889 107.75 5.57227C107.596 4.9375 107.356 4.37191 107.03 3.87549C106.355 2.82568 105.301 2.30078 103.869 2.30078C102.794 2.30078 101.814 2.63444 100.927 3.30176C100.04 3.96908 99.3561 4.8195 98.876 5.85303C98.404 6.87842 98.168 7.89567 98.168 8.90479C98.168 9.9139 98.3389 10.6382 98.6807 11.0776C99.0225 11.509 99.466 11.7246 100.011 11.7246C100.565 11.7246 101.122 11.5496 101.684 11.1997C102.253 10.8416 102.737 10.3534 103.136 9.73486C103.535 9.11637 103.747 8.4694 103.771 7.79395L104.943 7.59863C104.943 8.44499 104.719 9.25065 104.271 10.0156C103.832 10.7725 103.234 11.3828 102.477 11.8467C101.728 12.3024 100.894 12.5303 99.9746 12.5303ZM121.19 18.4385C120.401 18.7803 119.595 19.0244 118.773 19.1709C117.96 19.3255 117.187 19.4028 116.454 19.4028C115.73 19.4028 115.075 19.3621 114.489 19.2808C113.911 19.2075 113.333 19.0773 112.755 18.8901C112.186 18.6948 111.693 18.4466 111.278 18.1455C110.351 17.4863 109.887 16.5545 109.887 15.3501C109.887 14.634 110.054 13.9666 110.387 13.3481C110.721 12.7215 111.156 12.2048 111.693 11.7979C112.833 10.9189 114.078 10.4795 115.429 10.4795C117.048 10.4795 118.253 10.9556 119.042 11.9077C119.433 12.3879 119.628 12.9697 119.628 13.6533C119.628 14.3369 119.302 14.931 118.651 15.4355C118.008 15.932 117.329 16.1802 116.613 16.1802C116.442 16.1802 116.356 16.0947 116.356 15.9238C116.356 15.7448 116.438 15.6187 116.601 15.5454C116.763 15.464 116.959 15.3908 117.187 15.3257C117.414 15.2524 117.642 15.167 117.87 15.0693C118.432 14.8171 118.712 14.4102 118.712 13.8486C118.712 13.279 118.452 12.8517 117.931 12.5669C117.418 12.2739 116.523 12.1274 115.246 12.1274C113.968 12.1274 112.979 12.453 112.279 13.104C111.579 13.7469 111.229 14.516 111.229 15.4111C111.229 16.5911 111.754 17.4294 112.804 17.9258C113.74 18.3734 114.859 18.5972 116.161 18.5972C118.399 18.5972 120.21 17.9583 121.593 16.6807C122.57 15.7855 123.058 14.6584 123.058 13.2993C123.058 12.4855 122.769 11.6961 122.191 10.9312C121.939 10.5894 121.658 10.2516 121.349 9.91797C121.04 9.58431 120.731 9.25065 120.421 8.91699C120.112 8.58333 119.831 8.24967 119.579 7.91602C119.001 7.18359 118.712 6.5 118.712 5.86523C118.712 5.23047 118.814 4.68522 119.018 4.22949C119.229 3.76562 119.506 3.36686 119.848 3.0332C120.198 2.69141 120.596 2.39844 121.044 2.1543C121.947 1.64974 122.903 1.39746 123.913 1.39746C124.792 1.39746 125.609 1.60905 126.366 2.03223C127.196 2.48796 127.611 3.18376 127.611 4.11963C127.611 4.48584 127.481 4.80729 127.221 5.08398C126.96 5.36068 126.667 5.49902 126.342 5.49902C126.016 5.49902 125.748 5.40544 125.536 5.21826C125.333 5.03109 125.231 4.82357 125.231 4.5957C125.231 4.3597 125.329 4.11149 125.524 3.85107C125.727 3.58252 125.829 3.36279 125.829 3.19189C125.829 3.01286 125.756 2.8501 125.609 2.70361C125.463 2.55713 125.276 2.44727 125.048 2.37402C124.592 2.23568 124.177 2.1665 123.803 2.1665C122.94 2.1665 122.2 2.42285 121.581 2.93555C120.963 3.44824 120.653 4.16032 120.653 5.07178C120.653 5.5682 120.963 6.15007 121.581 6.81738C121.858 7.11035 122.159 7.42367 122.484 7.75732C122.818 8.08285 123.152 8.43278 123.485 8.80713C123.819 9.18148 124.124 9.56803 124.401 9.9668C125.019 10.8457 125.329 11.7572 125.329 12.7012C125.329 13.6452 125.141 14.4997 124.767 15.2646C124.393 16.0296 123.9 16.6644 123.29 17.1689C122.688 17.6654 121.988 18.0885 121.19 18.4385Z" fill="black"/>
</svg>
