<svg width="279" height="279" viewBox="0 0 279 279" fill="none" xmlns="http://www.w3.org/2000/svg">
<g clip-path="url(#clip0)">
<path d="M14.3908 240.566H50.166V244.382C50.166 249.126 48.2814 253.676 44.927 257.031C41.5723 260.385 37.0227 262.27 32.2784 262.27C27.5344 262.27 22.9848 260.385 19.6301 257.031C16.2754 253.676 14.3908 249.126 14.3908 244.382V240.566Z" fill="#CDCDCD"/>
<path d="M168.978 69.5869L169.037 34.1265C169.036 29.3827 167.152 24.8332 163.798 21.478C160.445 18.1227 155.896 16.2364 151.152 16.2334H32.2839" stroke="#BDBDBD" stroke-width="1.24227" stroke-miterlimit="10"/>
<path d="M50.1682 244.112V240.563V66.6512V34.1265" stroke="#BDBDBD" stroke-width="1.24227" stroke-miterlimit="10"/>
<path d="M50.166 62.5037H14.3908V34.1264C14.3908 29.3824 16.2754 24.8325 19.6301 21.4779C22.9848 18.1233 27.5344 16.2388 32.2784 16.2388C37.0227 16.2388 41.5723 18.1233 44.927 21.4779C48.2814 24.8325 50.166 29.3824 50.166 34.1264V66.6511" fill="#CDCDCD"/>
<path d="M50.166 62.5037H14.3908V34.1264C14.3908 29.3824 16.2754 24.8325 19.6301 21.4779C22.9848 18.1233 27.5344 16.2388 32.2784 16.2388C37.0227 16.2388 41.5723 18.1233 44.927 21.4779C48.2814 24.8325 50.166 29.3824 50.166 34.1264V66.6511" stroke="#BDBDBD" stroke-width="1.24227" stroke-miterlimit="10"/>
<path d="M50.1716 240.566V244.115C50.1708 248.859 48.2857 253.409 44.9307 256.764C41.5757 260.118 37.0256 262.003 32.2812 262.003" stroke="#BDBDBD" stroke-width="1.24227" stroke-miterlimit="10"/>
<path d="M142.818 262.005H151.141" stroke="#BDBDBD" stroke-width="1.24227" stroke-miterlimit="10"/>
<path d="M50.1654 240.563H14.3902V244.112C14.3916 248.857 16.2773 253.407 19.6325 256.763C22.9878 260.118 27.5382 262.004 32.2834 262.005H118.649" stroke="#BDBDBD" stroke-width="1.24227" stroke-miterlimit="10"/>
<path d="M70.1865 94.8975H99.0874" stroke="#BDBDBD" stroke-width="1.24227" stroke-miterlimit="10"/>
<path d="M70.1865 106.103H99.0874" stroke="#BDBDBD" stroke-width="1.24227" stroke-miterlimit="10"/>
<path d="M70.1865 117.311H99.0874" stroke="#BDBDBD" stroke-width="1.24227" stroke-miterlimit="10"/>
<path d="M70.1865 128.517H99.0874" stroke="#BDBDBD" stroke-width="1.24227" stroke-miterlimit="10"/>
<path d="M70.1865 139.725H99.0874" stroke="#BDBDBD" stroke-width="1.24227" stroke-miterlimit="10"/>
<path d="M70.1865 150.931H99.0874" stroke="#BDBDBD" stroke-width="1.24227" stroke-miterlimit="10"/>
<path d="M70.1865 188.369H99.0874" stroke="#BDBDBD" stroke-width="1.24227" stroke-miterlimit="10"/>
<path d="M70.1865 193.594H99.0874" stroke="#BDBDBD" stroke-width="1.24227" stroke-miterlimit="10"/>
<path d="M70.1865 198.819H99.0874" stroke="#BDBDBD" stroke-width="1.24227" stroke-miterlimit="10"/>
<path d="M70.1865 204.045H99.0874" stroke="#BDBDBD" stroke-width="1.24227" stroke-miterlimit="10"/>
<path d="M63.3935 80.2046H106.369C109.492 80.2046 112.023 82.7362 112.023 85.8589V213.562C112.023 216.685 109.492 219.217 106.369 219.217H63.3935C60.2706 219.217 57.7392 216.685 57.7392 213.562V85.8589C57.7392 82.7362 60.2706 80.2046 63.3935 80.2046Z" stroke="#BDBDBD" stroke-width="1.24227" stroke-miterlimit="10"/>
<path d="M99.0884 69.0325H121.953" stroke="#BDBDBD" stroke-width="1.24227" stroke-miterlimit="10"/>
<path d="M99.0884 55.8689H118.263" stroke="#BDBDBD" stroke-width="1.24227" stroke-miterlimit="10"/>
<path d="M99.0877 62.4507H120.942" stroke="#BDBDBD" stroke-width="1.24227" stroke-miterlimit="10"/>
<path d="M99.0875 49.2842H124.955" stroke="#BDBDBD" stroke-width="1.24227" stroke-miterlimit="10"/>
<path d="M78.2528 57.2559C76.2977 57.2559 74.7126 55.6708 74.7126 53.7157C74.7126 51.7604 76.2977 50.1755 78.2528 50.1755C80.2081 50.1755 81.793 51.7604 81.793 53.7157C81.793 55.6708 80.2081 57.2559 78.2528 57.2559Z" fill="#CDCDCD"/>
<path d="M87.2223 68.144C87.1811 65.7923 86.2176 63.551 84.54 61.9026C82.8621 60.2542 80.6043 59.3306 78.2523 59.3306C75.9001 59.3306 73.6423 60.2542 71.9643 61.9026C70.2867 63.551 69.3233 65.7923 69.2818 68.144H87.2223Z" fill="#CDCDCD"/>
<path d="M68.7577 47.1089H87.7455C89.1577 47.1089 90.3025 48.2537 90.3025 49.6658V68.6537C90.3025 70.0658 89.1577 71.2106 87.7455 71.2106H68.7577C67.3455 71.2106 66.2007 70.0658 66.2007 68.6537V49.6658C66.2007 48.2537 67.3455 47.1089 68.7577 47.1089Z" stroke="#BDBDBD" stroke-width="1.24227" stroke-miterlimit="10"/>
<path d="M77.3785 228.957L74.7546 234.269C74.6845 234.41 74.5814 234.533 74.4538 234.626C74.3263 234.719 74.1781 234.78 74.0221 234.803L68.1478 235.656C67.9659 235.68 67.7949 235.756 67.6542 235.874C67.5135 235.992 67.4091 236.147 67.3525 236.322C67.2963 236.496 67.2901 236.683 67.3353 236.861C67.3804 237.039 67.4746 237.2 67.6074 237.327L71.8495 241.463C71.9626 241.573 72.047 241.71 72.0957 241.86C72.1442 242.011 72.1553 242.171 72.1281 242.327L71.1281 248.176C71.0972 248.355 71.1172 248.54 71.1858 248.708C71.2543 248.877 71.3688 249.023 71.5158 249.13C71.6632 249.237 71.8375 249.3 72.0189 249.313C72.2005 249.326 72.3821 249.288 72.5431 249.204L77.7879 246.449C77.9277 246.375 78.0837 246.336 78.2419 246.336C78.4001 246.336 78.5561 246.375 78.6959 246.449L83.938 249.204C84.0993 249.288 84.2809 249.326 84.4622 249.313C84.6438 249.299 84.8179 249.236 84.9652 249.129C85.1126 249.022 85.2273 248.876 85.2961 248.708C85.3652 248.54 85.3858 248.355 85.3557 248.176L84.353 242.327C84.326 242.171 84.3371 242.011 84.3856 241.86C84.4341 241.71 84.5185 241.574 84.6316 241.463L88.8876 237.313C89.0202 237.186 89.1146 237.025 89.1597 236.847C89.2048 236.669 89.1987 236.482 89.1422 236.308C89.0859 236.133 88.9812 235.978 88.8405 235.86C88.6998 235.742 88.5288 235.667 88.3472 235.642L82.498 234.789C82.3414 234.766 82.1927 234.705 82.0648 234.612C81.9367 234.519 81.8331 234.396 81.7626 234.255L79.1277 228.957C79.0472 228.793 78.9227 228.656 78.7681 228.56C78.6135 228.464 78.4349 228.413 78.2531 228.413C78.0709 228.413 77.8926 228.464 77.738 228.56C77.5835 228.656 77.459 228.793 77.3785 228.957Z" fill="#CDCDCD"/>
<path d="M151.506 242.307H101.653" stroke="#BDBDBD" stroke-width="1.24227" stroke-miterlimit="10"/>
<path d="M151.506 249.299H101.653" stroke="#BDBDBD" stroke-width="1.24227" stroke-miterlimit="10"/>
<path d="M168.7 71.1941C170.204 78.9095 173.535 113.03 176.524 145.647C176.622 145.722 176.725 145.791 176.833 145.853C177.05 145.989 177.267 146.132 177.493 146.251C177.493 146.251 177.51 146.251 177.521 146.271C177.526 146.269 177.532 146.269 177.538 146.271L177.944 146.496L178.109 146.58C178.281 146.669 178.443 146.75 178.616 146.822L178.668 146.85C178.805 146.914 178.947 146.978 179.095 147.031L179.312 147.131C179.485 147.196 179.666 147.268 179.838 147.329L180.301 147.494C180.378 147.513 180.453 147.537 180.526 147.566C180.671 147.611 180.805 147.655 180.961 147.691C181.014 147.711 181.069 147.719 181.122 147.739C181.315 147.792 181.512 147.839 181.713 147.884C181.913 147.928 182.075 147.964 182.27 148C182.296 148.011 182.323 148.017 182.351 148.02C182.369 148.024 182.388 148.024 182.406 148.02C182.604 148.056 182.805 148.092 182.994 148.12C183.03 148.12 183.067 148.12 183.111 148.137C183.348 148.173 183.582 148.201 183.819 148.218C184.055 148.234 184.309 148.265 184.562 148.273C184.816 148.282 185.069 148.29 185.323 148.29C186.515 148.295 187.703 148.166 188.866 147.903C191.71 147.247 194.32 145.827 196.416 143.796C198.512 141.764 200.012 139.199 200.756 136.377C200.818 136.099 200.882 135.82 200.937 135.542C201.156 134.49 201.265 133.418 201.263 132.344C201.262 133.282 201.343 134.219 201.506 135.143C201.578 135.558 201.67 135.959 201.784 136.366C202.674 139.782 204.672 142.806 207.465 144.964C210.258 147.123 213.688 148.294 217.218 148.294C220.748 148.294 224.178 147.123 226.971 144.964C229.764 142.806 231.762 139.782 232.652 136.366C232.817 135.735 232.94 135.094 233.022 134.447C233.114 133.75 233.159 133.047 233.159 132.344C233.162 133.065 233.21 133.785 233.303 134.5C233.391 135.128 233.514 135.752 233.674 136.366C234.54 139.667 236.441 142.604 239.097 144.747C241.754 146.89 245.026 148.126 248.436 148.273C248.662 148.273 248.887 148.29 249.113 148.29C253.336 148.286 257.385 146.606 260.37 143.619C263.356 140.633 265.034 136.584 265.037 132.361V132.336H265.073V117.05C265.074 115.302 264.731 113.572 264.063 111.957C263.395 110.343 262.415 108.876 261.179 107.64C259.944 106.405 258.477 105.425 256.862 104.757C255.248 104.089 253.518 103.746 251.77 103.747H188.122C187.31 103.747 186.53 103.424 185.956 102.849C185.381 102.275 185.058 101.495 185.058 100.683C185.058 99.87 185.381 99.0906 185.956 98.516C186.53 97.9417 187.31 97.6188 188.122 97.6188H214.304C215.744 97.618 217.125 97.047 218.144 96.0306C219.164 95.0142 219.739 93.6352 219.744 92.1957V76.62C219.741 75.1816 219.169 73.8034 218.152 72.7865C217.135 71.7695 215.756 71.1969 214.318 71.1941H168.7Z" stroke="#BDBDBD" stroke-width="1.24227" stroke-miterlimit="10"/>
<path d="M89.0937 261.944L249.361 262.275C250.797 262.272 252.174 261.699 253.19 260.684C254.206 259.668 254.779 258.292 254.784 256.855V147.257C252.968 147.951 251.04 148.306 249.096 148.304C248.87 148.304 248.648 148.304 248.422 148.287C244.269 148.122 240.347 146.335 237.498 143.31" stroke="#BDBDBD" stroke-width="1.24227" stroke-miterlimit="10"/>
<path d="M198.885 140.733C197.772 142.534 196.313 144.095 194.591 145.327C192.87 146.559 190.921 147.436 188.858 147.908" stroke="#BDBDBD" stroke-width="1.24227" stroke-miterlimit="10"/>
<path d="M179.245 240.034H210.55" stroke="#BDBDBD" stroke-width="1.24227" stroke-miterlimit="10"/>
<path d="M244.314 239.867C245.486 239.572 246.526 238.894 247.27 237.941C248.014 236.988 248.418 235.815 248.42 234.606V148.293C244.268 148.119 240.349 146.33 237.499 143.307" stroke="#BDBDBD" stroke-width="1.24227" stroke-miterlimit="10"/>
<path d="M198.885 140.733C197.772 142.534 196.313 144.095 194.591 145.327C192.87 146.559 190.921 147.436 188.858 147.908" stroke="#BDBDBD" stroke-width="1.24227" stroke-miterlimit="10"/>
<path d="M229.421 204.348C230.558 203.332 231.469 202.088 232.093 200.696C232.717 199.304 233.04 197.796 233.042 196.271V169.81C233.032 166.932 231.884 164.174 229.849 162.139C227.814 160.104 225.057 158.957 222.179 158.947H197.16C194.282 158.957 191.525 160.104 189.49 162.139C187.455 164.174 186.307 166.932 186.298 169.81V196.271C186.307 199.149 187.455 201.906 189.49 203.942C191.525 205.977 194.282 207.124 197.16 207.134H212.254" stroke="#BDBDBD" stroke-width="1.24227" stroke-miterlimit="10"/>
<path d="M118.794 173.292C118.003 171.389 117.24 169.885 116.789 169.038C116.678 168.832 116.652 168.59 116.718 168.365C116.784 168.14 116.935 167.95 117.139 167.835L121.925 165.819C122.111 165.714 122.321 165.659 122.535 165.66C122.748 165.662 122.958 165.719 123.143 165.827C123.327 165.934 123.48 166.088 123.586 166.274C123.693 166.459 123.749 166.669 123.749 166.883C123.749 171.061 124.947 174.996 129.125 174.996C133.303 174.996 134.503 171.061 134.503 166.883V166.701C134.503 166.496 134.554 166.293 134.652 166.112C134.751 165.931 134.893 165.778 135.066 165.667C135.24 165.556 135.438 165.49 135.644 165.476C135.849 165.462 136.055 165.5 136.242 165.587L141.124 167.401C141.245 167.456 141.352 167.538 141.437 167.639C141.522 167.741 141.584 167.86 141.618 167.989C141.651 168.117 141.656 168.252 141.631 168.382C141.607 168.513 141.553 168.636 141.475 168.743L141.408 168.835C138.788 172.494 137.181 176.78 136.749 181.26C136.318 185.74 137.076 190.254 138.949 194.346L140.673 198.134C140.795 198.402 140.847 198.696 140.826 198.99C140.804 199.283 140.71 199.566 140.55 199.814C140.391 200.061 140.172 200.264 139.913 200.405C139.655 200.546 139.366 200.619 139.071 200.619H117.833C117.534 200.619 117.24 200.542 116.979 200.397C116.718 200.251 116.498 200.042 116.341 199.788C116.183 199.534 116.093 199.244 116.079 198.945C116.065 198.647 116.127 198.349 116.259 198.081L118.061 194.444C119.688 191.175 120.594 187.596 120.721 183.947C120.847 180.299 120.19 176.665 118.794 173.292Z" stroke="#BDBDBD" stroke-width="1.24227" stroke-miterlimit="10"/>
<path d="M136.688 185.358H120.624" stroke="#BDBDBD" stroke-width="1.24227" stroke-miterlimit="10"/>
<path d="M133.067 185.36C132.991 188.096 133.039 195.137 135.295 200.607" stroke="#BDBDBD" stroke-width="1.24227" stroke-miterlimit="10"/>
<path d="M122.037 200.607C124.29 195.137 124.335 188.096 124.265 185.36" stroke="#BDBDBD" stroke-width="1.24227" stroke-miterlimit="10"/>
<path d="M128.655 200.607V185.36" stroke="#BDBDBD" stroke-width="1.24227" stroke-miterlimit="10"/>
<path d="M194.498 178.322L199.693 181.327L201.127 179.556L199.954 198.148C199.937 198.464 199.984 198.781 200.093 199.078C200.202 199.375 200.371 199.647 200.588 199.877C200.806 200.107 201.068 200.29 201.359 200.415C201.65 200.54 201.964 200.605 202.28 200.605H217.845C218.163 200.604 218.478 200.539 218.77 200.413C219.062 200.286 219.326 200.101 219.543 199.868C219.761 199.636 219.929 199.361 220.036 199.062C220.144 198.762 220.188 198.443 220.168 198.126L218.775 179.001L220.196 180.77L224.839 177.765C224.839 177.729 224.839 177.695 224.839 177.662C224.641 173.617 220.6 168.286 216.55 168.286H213.672C213.589 168.448 213.516 168.614 213.452 168.785C212.174 172.25 206.767 172.127 205.681 168.654C205.642 168.526 205.6 168.4 205.556 168.286H203.737C199.2 168.286 195.247 173.715 194.523 178.191C194.509 178.241 194.503 178.283 194.498 178.322Z" stroke="#BDBDBD" stroke-width="1.24227" stroke-miterlimit="10"/>
<path d="M206.42 89.0843C208.743 89.0843 210.021 87.3407 210.021 85.2628C210.021 83.0846 208.598 81.3494 206.297 81.3494C203.885 81.3494 202.662 83.1404 202.662 85.1402C202.662 87.5524 204.108 89.0843 206.408 89.0843H206.42ZM206.319 87.4967C205.353 87.4967 204.787 86.5608 204.787 85.2071C204.787 83.9175 205.364 82.9398 206.342 82.9398C207.319 82.9398 207.899 83.9175 207.899 85.2182C207.899 86.519 207.308 87.4967 206.342 87.4967H206.319Z" fill="#CDCDCD"/>
<path d="M201.597 88.1234V82.9426C201.597 82.7493 201.559 82.5577 201.485 82.3791C201.411 82.2006 201.303 82.0382 201.166 81.9017C201.029 81.7652 200.866 81.6569 200.688 81.5831C200.509 81.5092 200.317 81.4716 200.124 81.4719C199.854 81.4716 199.589 81.546 199.359 81.6867C199.128 81.8271 198.941 82.0284 198.817 82.2685L198.04 83.7726C197.589 84.6197 197.195 85.4962 196.862 86.3964H196.832C196.941 85.3511 196.993 84.3002 196.985 83.249V82.3103C196.985 82.0886 196.897 81.8761 196.74 81.7195C196.583 81.5627 196.371 81.4747 196.149 81.4747H195.996C195.774 81.4747 195.562 81.5627 195.405 81.7195C195.248 81.8761 195.16 82.0886 195.16 82.3103V88.1234C195.16 88.3451 195.248 88.5576 195.405 88.7142C195.562 88.871 195.774 88.959 195.996 88.959H196.748C196.903 88.9593 197.054 88.9166 197.186 88.8361C197.318 88.7554 197.425 88.6398 197.494 88.5022L198.539 86.4689C198.951 85.6778 199.439 84.6667 199.795 83.7671H199.84C199.784 84.7781 199.762 85.9007 199.762 87.1095V88.115C199.762 88.3367 199.85 88.5493 200.007 88.7058C200.163 88.8626 200.376 88.9506 200.597 88.9506H200.753C200.863 88.9517 200.972 88.9311 201.074 88.8902C201.176 88.8492 201.268 88.7885 201.347 88.7119C201.425 88.635 201.488 88.5434 201.531 88.4426C201.574 88.3415 201.596 88.2331 201.597 88.1234Z" fill="#CDCDCD"/>
<path d="M192.932 81.4719H192.601C192.379 81.4719 192.167 81.5599 192.01 81.7168C191.853 81.8733 191.765 82.0858 191.765 82.3075V86.4438C191.765 86.6655 191.677 86.878 191.52 87.0346C191.364 87.1914 191.151 87.2794 190.93 87.2794H189.729C189.507 87.2794 189.295 87.3674 189.138 87.5242C188.982 87.6808 188.894 87.8933 188.894 88.115C188.894 88.3367 188.982 88.5493 189.138 88.7058C189.295 88.8626 189.507 88.9506 189.729 88.9506H192.932C193.154 88.9506 193.367 88.8626 193.523 88.7058C193.68 88.5493 193.768 88.3367 193.768 88.115V82.3103C193.768 82.2003 193.747 82.0914 193.705 81.9897C193.663 81.8881 193.602 81.7956 193.524 81.7176C193.447 81.6399 193.354 81.578 193.253 81.5357C193.151 81.4937 193.042 81.4719 192.932 81.4719Z" fill="#CDCDCD"/>
<path d="M185.88 82.4774V87.9563C185.88 88.2236 185.986 88.4802 186.175 88.6693C186.364 88.8584 186.621 88.9646 186.888 88.9646C187.155 88.9637 187.411 88.8573 187.599 88.6682C187.788 88.4793 187.894 88.2231 187.894 87.9563V82.4774C187.894 82.3454 187.868 82.2148 187.817 82.0928C187.767 81.9708 187.693 81.8599 187.599 81.7663C187.506 81.673 187.395 81.5989 187.273 81.5485C187.151 81.4978 187.02 81.4719 186.888 81.4719C186.621 81.4719 186.365 81.5778 186.176 81.7663C185.987 81.9546 185.881 82.2106 185.88 82.4774Z" fill="#CDCDCD"/>
<path d="M184.503 88.0454V82.7839C184.503 82.6109 184.469 82.4396 184.403 82.28C184.336 82.1201 184.239 81.9753 184.116 81.8533C183.994 81.7313 183.848 81.6349 183.688 81.5694C183.528 81.504 183.356 81.4708 183.183 81.472H182.924C182.684 81.472 182.447 81.5382 182.242 81.6636C182.037 81.7889 181.87 81.9683 181.76 82.1822L180.938 83.7727C180.488 84.6202 180.094 85.4968 179.76 86.3965H179.726C179.837 85.3511 179.889 84.3002 179.882 83.249V82.3883C179.882 82.2677 179.859 82.1485 179.812 82.0371C179.766 81.9257 179.699 81.8246 179.613 81.7393C179.528 81.6544 179.426 81.5867 179.315 81.541C179.203 81.4951 179.084 81.4717 178.963 81.472C178.843 81.472 178.724 81.4956 178.613 81.5419C178.501 81.5878 178.4 81.6552 178.315 81.7405C178.23 81.8254 178.163 81.9265 178.117 82.0377C178.07 82.1488 178.047 82.268 178.047 82.3883V87.6527C178.047 88.0006 178.185 88.3342 178.431 88.5805C178.677 88.8264 179.011 88.9646 179.359 88.9646C179.6 88.9646 179.837 88.898 180.043 88.7721C180.248 88.6465 180.416 88.4663 180.526 88.2515L181.437 86.4745C181.849 85.6834 182.339 84.6723 182.693 83.7727H182.737C182.682 84.7838 182.659 85.9063 182.659 87.1151V88.0426C182.659 88.2863 182.756 88.5203 182.929 88.6927C183.101 88.8649 183.335 88.9618 183.579 88.9618C183.7 88.9626 183.819 88.9395 183.931 88.8938C184.043 88.8481 184.145 88.7807 184.231 88.6955C184.317 88.6106 184.385 88.5092 184.432 88.3978C184.479 88.2861 184.503 88.1663 184.503 88.0454Z" fill="#CDCDCD"/>
<path d="M172.777 85.9397H173.966C174.057 85.9397 174.147 85.9576 174.23 85.9924C174.314 86.0269 174.39 86.0779 174.454 86.1422C174.518 86.2063 174.569 86.2823 174.603 86.3662C174.637 86.45 174.655 86.5397 174.654 86.6305C174.654 86.8129 174.582 86.9879 174.453 87.1168C174.324 87.2458 174.149 87.3185 173.966 87.3185H172.454C172.239 87.3185 172.033 87.4037 171.881 87.5558C171.729 87.7079 171.643 87.914 171.643 88.129V88.1513C171.643 88.258 171.664 88.3636 171.704 88.4622C171.745 88.5608 171.805 88.6504 171.88 88.7262C171.955 88.8017 172.045 88.8616 172.143 88.9025C172.242 88.9435 172.347 88.9646 172.454 88.9646H175.977C176.068 88.9646 176.158 88.9465 176.242 88.912C176.326 88.8772 176.402 88.8265 176.466 88.7621C176.53 88.6981 176.581 88.622 176.616 88.5382C176.65 88.4544 176.668 88.3644 176.668 88.2739V82.0514C176.668 81.8681 176.596 81.6923 176.466 81.5628C176.336 81.4333 176.161 81.3606 175.977 81.3606H172.599C172.492 81.3606 172.387 81.3815 172.289 81.4222C172.19 81.4628 172.101 81.5227 172.026 81.5979C171.95 81.6731 171.891 81.7625 171.85 81.8608C171.809 81.9592 171.788 82.0645 171.788 82.1711V82.1962C171.789 82.4107 171.875 82.616 172.027 82.7675C172.179 82.9187 172.384 83.004 172.599 83.004H173.991C174.165 83.004 174.332 83.0728 174.454 83.1956C174.577 83.3184 174.646 83.4847 174.646 83.6585C174.646 83.832 174.577 83.9986 174.454 84.1212C174.332 84.244 174.165 84.3131 173.991 84.3131H172.769C172.662 84.3131 172.556 84.334 172.458 84.3749C172.36 84.4159 172.27 84.4757 172.195 84.5512C172.119 84.627 172.06 84.7167 172.019 84.8153C171.978 84.9139 171.958 85.0197 171.958 85.1264C171.958 85.2336 171.979 85.34 172.02 85.4392C172.061 85.5384 172.121 85.6286 172.198 85.7041C172.274 85.7799 172.364 85.8397 172.464 85.8801C172.563 85.9205 172.67 85.9408 172.777 85.9397Z" fill="#CDCDCD"/>
<path d="M168.421 87.8838C168.395 87.7741 168.346 87.6707 168.279 87.5802C168.212 87.4897 168.126 87.4136 168.029 87.3568C167.931 87.3003 167.823 87.2638 167.711 87.2501C167.599 87.2362 167.485 87.2451 167.377 87.2766C167.014 87.376 166.639 87.4276 166.263 87.4298C165.572 87.4298 165.241 87.1958 165.241 86.817C165.241 86.4382 165.572 86.2599 166.419 85.9619C167.683 85.5079 168.53 84.8171 168.53 83.7058C168.53 82.3827 167.416 81.3605 165.516 81.3605C165.106 81.3577 164.697 81.3989 164.296 81.483C164.189 81.5081 164.088 81.5543 163.999 81.6195C163.91 81.6844 163.835 81.7669 163.779 81.8616C163.723 81.9563 163.686 82.0613 163.672 82.1707C163.657 82.2799 163.665 82.3908 163.695 82.4969C163.746 82.7039 163.877 82.8824 164.059 82.9938C164.241 83.1052 164.459 83.1409 164.667 83.093C164.953 83.0272 165.245 82.9947 165.539 82.9955C166.151 82.9955 166.483 83.2155 166.483 83.5526C166.483 83.9314 166.084 84.0762 165.14 84.43C163.795 84.9313 163.19 85.6444 163.19 86.6889C163.19 87.9757 164.193 89.0759 166.383 89.0759C166.875 89.0737 167.365 89.011 167.842 88.8893C168.045 88.8294 168.218 88.6946 168.326 88.5119C168.433 88.3295 168.467 88.113 168.421 87.9061V87.8838Z" fill="#CDCDCD"/>
<path d="M161.485 83.1627H161.708C161.93 83.1627 162.142 83.0746 162.299 82.9181C162.455 82.7613 162.543 82.5488 162.543 82.3271C162.543 82.1056 162.455 81.8931 162.299 81.7363C162.142 81.5795 161.93 81.4915 161.708 81.4915H157.53C157.308 81.4915 157.096 81.5795 156.939 81.7363C156.782 81.8931 156.694 82.1056 156.694 82.3271C156.694 82.5488 156.782 82.7613 156.939 82.9181C157.096 83.0746 157.308 83.1627 157.53 83.1627H157.786C158.008 83.1627 158.22 83.2507 158.377 83.4075C158.534 83.5643 158.622 83.7768 158.622 83.9983V88.1095C158.622 88.3312 158.71 88.5437 158.866 88.7005C159.023 88.8571 159.236 88.9451 159.457 88.9451H159.786C160.008 88.9451 160.22 88.8571 160.377 88.7005C160.534 88.5437 160.622 88.3312 160.622 88.1095V84.0066C160.62 83.8938 160.642 83.7821 160.685 83.6777C160.729 83.5735 160.793 83.4791 160.873 83.4003C160.954 83.3214 161.05 83.2599 161.155 83.2189C161.26 83.178 161.372 83.1591 161.485 83.1627Z" fill="#CDCDCD"/>
<path d="M152.807 89.0843C155.13 89.0843 156.408 87.3407 156.408 85.2628C156.408 83.0846 154.985 81.3494 152.684 81.3494C150.272 81.3494 149.049 83.1404 149.049 85.1402C149.049 87.5524 150.495 89.0843 152.795 89.0843H152.807ZM152.706 87.4967C151.74 87.4967 151.172 86.5608 151.172 85.2071C151.172 83.9175 151.751 82.9398 152.729 82.9398C153.706 82.9398 154.286 83.9175 154.286 85.2182C154.286 86.519 153.695 87.4967 152.729 87.4967H152.706Z" fill="#CDCDCD"/>
<path d="M147.983 82.224C147.984 82.0449 147.918 81.872 147.798 81.7388C147.679 81.6054 147.514 81.5213 147.336 81.5026C146.838 81.4525 146.222 81.4163 145.559 81.4163C144.414 81.4163 143.593 81.5722 143.025 82.004C142.781 82.1959 142.587 82.4435 142.46 82.7262C142.332 83.0089 142.275 83.3181 142.292 83.6278C142.304 84.022 142.432 84.4041 142.659 84.7264C142.886 85.0487 143.203 85.2971 143.571 85.4411V85.4745C143.08 85.6946 142.802 86.1737 142.615 86.8171C142.534 87.0956 142.451 87.4104 142.373 87.7168C142.334 87.8638 142.33 88.0179 142.36 88.1669C142.39 88.3162 142.454 88.4563 142.547 88.5769C142.639 88.6975 142.759 88.795 142.895 88.8624C143.032 88.9295 143.182 88.9643 143.334 88.9646H143.353C143.567 88.9654 143.776 88.8972 143.947 88.7696C144.119 88.6421 144.245 88.4621 144.306 88.2571C144.389 87.9786 144.481 87.6416 144.584 87.2293C144.785 86.3408 145.063 86.1514 145.685 86.1514H146.008V87.9674C146.007 88.2268 146.107 88.4763 146.288 88.6627C146.469 88.849 146.715 88.9574 146.974 88.9646C147.105 88.9646 147.235 88.9387 147.356 88.8886C147.476 88.8384 147.586 88.7649 147.678 88.6724C147.771 88.5797 147.844 88.4696 147.894 88.3488C147.944 88.2279 147.969 88.0981 147.969 87.9674L147.983 82.224ZM145.994 84.7058H145.47C144.715 84.7058 144.281 84.3409 144.281 83.7838C144.281 83.2267 144.648 82.9064 145.314 82.9064C145.542 82.8989 145.769 82.914 145.994 82.951V84.7058Z" fill="#CDCDCD"/>
<path d="M137.225 85.9397H138.423C138.514 85.9397 138.603 85.9575 138.687 85.9923C138.771 86.0269 138.847 86.0779 138.911 86.1419C138.975 86.2063 139.026 86.2823 139.061 86.3661C139.096 86.45 139.114 86.5397 139.114 86.6305C139.113 86.8132 139.04 86.9881 138.91 87.1171C138.781 87.246 138.606 87.3185 138.423 87.3185H136.913C136.7 87.3207 136.496 87.407 136.345 87.5588C136.195 87.7106 136.111 87.9154 136.111 88.129V88.1513C136.111 88.258 136.132 88.3638 136.173 88.4624C136.214 88.5613 136.274 88.651 136.349 88.7265C136.425 88.8019 136.514 88.8618 136.613 88.9028C136.712 88.9434 136.818 88.9646 136.924 88.9646H140.437C140.527 88.9646 140.617 88.9468 140.701 88.912C140.784 88.8771 140.86 88.8262 140.924 88.7621C140.988 88.698 141.039 88.6217 141.073 88.5379C141.107 88.4541 141.125 88.3644 141.125 88.2738V82.2602C141.125 82.1477 141.103 82.0363 141.06 81.9321C141.017 81.8279 140.955 81.7335 140.875 81.6539C140.796 81.5742 140.701 81.511 140.597 81.4678C140.493 81.4246 140.382 81.4023 140.27 81.4023H137.069C136.854 81.4023 136.647 81.4881 136.494 81.6405C136.342 81.7931 136.256 82.0001 136.256 82.2157V82.238C136.256 82.3446 136.277 82.4502 136.318 82.5488C136.359 82.6474 136.419 82.7368 136.494 82.812C136.57 82.8875 136.659 82.9471 136.758 82.9875C136.857 83.0282 136.962 83.0488 137.069 83.0485H138.479C138.647 83.0485 138.809 83.1153 138.928 83.2346C139.047 83.3535 139.114 83.515 139.114 83.6836C139.114 83.7668 139.097 83.8493 139.065 83.9262C139.033 84.003 138.986 84.073 138.928 84.1317C138.868 84.1905 138.798 84.237 138.721 84.2685C138.644 84.3002 138.562 84.3161 138.479 84.3158H137.225C137.01 84.3167 136.804 84.4025 136.652 84.5551C136.5 84.7075 136.415 84.9139 136.415 85.1292C136.415 85.3442 136.5 85.5503 136.652 85.7024C136.804 85.8542 137.01 85.9397 137.225 85.9397Z" fill="#CDCDCD"/>
<path d="M227.58 217.713C226.708 217.005 225.694 216.353 224.992 215.571C223.025 213.37 223.783 210.557 222.521 208.15C220.987 205.206 216.157 203.151 211.413 203.415C211.863 204.804 212.171 206.235 212.332 207.685C212.472 208.975 212.135 210.412 212.505 211.66C213.11 213.671 216.332 214.888 216.725 216.952C217.07 218.777 214.937 220.481 215.291 222.336C215.664 224.328 218.725 225.428 219.85 227.188C220.769 228.62 220.338 230.252 220.814 231.781C221.39 233.62 223.39 235.246 226.011 236.01L226.27 236.085C227.234 235.26 228.06 234.288 228.719 233.205" stroke="#BDBDBD" stroke-width="1.24227" stroke-miterlimit="10"/>
<path d="M214.31 205.733C221.385 212.95 224.713 228.166 226.009 236.015C226.114 236.678 226.209 237.285 226.287 237.831" stroke="#BDBDBD" stroke-width="1.24227" stroke-miterlimit="10"/>
<path d="M213.659 242.254L216.915 260.454C217.005 260.965 217.273 261.428 217.671 261.761C218.069 262.094 218.571 262.276 219.09 262.276H236.106C236.63 262.276 237.136 262.09 237.536 261.751C237.935 261.412 238.201 260.943 238.287 260.426L241.287 242.254H213.659Z" stroke="#BDBDBD" stroke-width="1.24227" stroke-miterlimit="10"/>
<path d="M210.564 240.224C210.609 240.777 210.861 241.293 211.269 241.669C211.677 242.045 212.212 242.254 212.767 242.254H242.116C242.666 242.254 243.196 242.049 243.603 241.679C244.009 241.31 244.264 240.802 244.317 240.254C244.346 239.948 244.311 239.639 244.213 239.346C244.116 239.054 243.959 238.786 243.752 238.558C243.544 238.33 243.292 238.148 243.01 238.023C242.729 237.899 242.424 237.834 242.116 237.834H212.767C212.462 237.834 212.16 237.897 211.88 238.02C211.6 238.143 211.349 238.322 211.142 238.546C210.935 238.771 210.777 239.036 210.677 239.325C210.578 239.613 210.539 239.919 210.564 240.224Z" stroke="#BDBDBD" stroke-width="1.24227" stroke-miterlimit="10"/>
<path d="M235.74 213.476C233.142 221.35 231.646 230.102 230.883 235.672C230.803 235.705 230.721 235.733 230.637 235.756C229.887 234.993 229.24 234.133 228.716 233.199C228.069 232.118 227.543 230.969 227.147 229.773C226.59 227.99 227.571 226.152 227.805 224.342C228.083 222.144 227.248 219.832 227.571 217.698C227.571 217.634 227.593 217.562 227.613 217.487C227.613 217.456 227.613 217.412 227.635 217.37C227.743 216.825 227.947 216.304 228.239 215.832C229.119 214.389 230.83 213.359 231.86 211.98C233.749 209.434 233.027 206.178 234.236 203.387C234.597 202.567 235.109 201.822 235.743 201.19C237.865 199.006 241.408 197.658 244.91 197.9C244.473 199.52 244.174 201.174 244.018 202.844C243.893 204.343 244.211 206.008 243.86 207.451C243.277 209.785 240.177 211.195 239.807 213.579C239.467 215.69 241.514 217.676 241.186 219.818C240.815 222.13 237.888 223.406 236.804 225.442C235.924 227.096 236.336 229.007 235.871 230.767C235.837 230.908 235.795 231.047 235.743 231.182C235.743 231.182 234.882 234.48 230.885 235.67" stroke="#BDBDBD" stroke-width="1.24227" stroke-miterlimit="10"/>
<path d="M230.607 237.826C230.68 237.179 230.774 236.469 230.886 235.684C231.649 230.113 233.145 221.361 235.743 213.487C237.39 208.49 239.479 203.844 242.119 200.596" stroke="#BDBDBD" stroke-width="1.24227" stroke-miterlimit="10"/>
<path d="M231.854 211.989C231.854 211.989 231.389 204.724 227.47 202.518C223.551 200.312 223.635 212.693 223.635 212.693" stroke="#BDBDBD" stroke-width="1.24227" stroke-miterlimit="10"/>
<path d="M227.58 217.713C227.58 217.713 228.382 213.557 226.978 209.471" stroke="#BDBDBD" stroke-width="1.24227" stroke-miterlimit="10"/>
<path d="M183.562 111.189H250.466C252.851 111.189 254.784 113.122 254.784 115.506V117.175C254.784 119.559 252.851 121.492 250.466 121.492H183.562C181.178 121.492 179.245 119.559 179.245 117.175V115.506C179.245 113.122 181.178 111.189 183.562 111.189Z" stroke="#BDBDBD" stroke-width="1.24227" stroke-miterlimit="10"/>
<path d="M140.537 56.9971C140.537 56.9971 151.456 57.1141 158.433 67.6009C165.41 78.0878 168.054 90.7529 167.608 106.123L168.385 138.327C168.385 138.327 156.806 139.845 152.901 134.558C152.901 134.558 152.032 130.18 145.517 126.439L140.537 56.9971Z" fill="#C0C0C0"/>
<path d="M148.196 205.513L144.372 208.855V210.774L145.486 211.156C145.486 211.156 150.778 211.699 150.358 210.738C149.937 209.777 148.196 205.513 148.196 205.513Z" fill="#181818"/>
<path d="M162.645 238.578L172.95 261.944H199.133C199.624 261.957 200.113 261.872 200.571 261.694C201.028 261.515 201.446 261.247 201.798 260.904C202.15 260.561 202.43 260.152 202.621 259.699C202.812 259.246 202.911 258.76 202.911 258.269C202.911 257.777 202.812 257.291 202.621 256.838C202.43 256.386 202.15 255.976 201.798 255.633C201.446 255.291 201.028 255.022 200.571 254.844C200.113 254.665 199.624 254.58 199.133 254.593C195.276 254.595 191.539 253.254 188.564 250.8C185.588 248.347 183.559 244.935 182.825 241.148L182.323 238.578C182.293 238.427 162.645 238.578 162.645 238.578Z" fill="black"/>
<path d="M91.7118 237.592L104.995 260.139C105.228 260.578 105.548 260.964 105.935 261.276C106.322 261.587 106.767 261.817 107.245 261.952C107.723 262.086 108.224 262.123 108.716 262.059C109.209 261.995 109.683 261.831 110.111 261.579C110.539 261.326 110.91 260.99 111.205 260.589C111.498 260.189 111.708 259.733 111.822 259.25C111.935 258.766 111.949 258.265 111.862 257.776C111.776 257.286 111.592 256.82 111.321 256.404C109.363 253.083 108.62 249.184 109.22 245.376C109.82 241.567 111.726 238.086 114.61 235.528C115.532 234.712 116.281 234.049 116.705 233.678L102.976 221.871L91.7118 237.592Z" fill="black"/>
<path d="M88.9965 219.172H144.425V143.001H144.439C145.119 131.447 149.809 129.909 149.809 129.909L147.303 127.929C154.419 94.967 148.138 70.829 141.453 56.9969C139.493 52.8818 137.128 48.9714 134.395 45.3235C134.365 45.2817 134.331 45.2482 134.306 45.2093C134.044 44.8661 133.682 44.6135 133.269 44.4867C132.856 44.36 132.414 44.3658 132.005 44.5032C131.596 44.6405 131.24 44.9026 130.987 45.2524C130.734 45.6025 130.598 46.0226 130.596 46.4543L130.562 55.5346C119.195 55.0639 112.524 68.0019 109.784 77.3329C106.873 87.2599 106.945 98.12 109.073 108.106C109.895 112.012 111.187 115.805 112.923 119.4L88.9965 219.172Z" fill="#181818"/>
<path d="M152.901 46.3318L165.248 61.3393L160.639 61.3143L168.215 69.5868C170.34 70.2581 182.314 211.15 182.314 211.15H176.986L162.87 138.505C164.707 138.73 166.567 138.667 168.385 138.318L167.585 98.4348C167.028 85.636 161.886 65.3252 149.054 58.9606L149.007 58.9356C148.698 52.6768 147.074 48.5768 147.074 48.5768C150.386 49.3149 152.901 46.3318 152.901 46.3318Z" fill="#181818"/>
<path d="M162.87 138.505L182.315 238.578L182.816 241.149C183.552 244.932 185.582 248.343 188.558 250.793C191.534 253.245 195.269 254.584 199.124 254.582C199.615 254.569 200.104 254.654 200.562 254.832C201.02 255.011 201.437 255.28 201.789 255.622C202.141 255.965 202.421 256.374 202.612 256.827C202.803 257.28 202.902 257.766 202.902 258.258C202.902 258.749 202.803 259.235 202.612 259.688C202.421 260.141 202.141 260.55 201.789 260.893C201.437 261.235 201.02 261.504 200.562 261.683C200.104 261.861 199.615 261.946 199.124 261.933H172.942L162.636 238.567L144.436 197.324" stroke="black" stroke-width="1.24227" stroke-miterlimit="10"/>
<path d="M144.439 143.003V219.169H88.9932L112.925 119.417" stroke="black" stroke-width="1.24227" stroke-miterlimit="10"/>
<path d="M130.571 55.5346C119.201 55.0639 112.53 68.0019 109.789 77.3329C106.879 87.2599 106.954 98.12 109.079 108.106C110.38 114.192 112.759 120.152 116.357 125.261C119.719 130.015 124.173 133.823 128.418 137.778C129.922 139.171 131.482 140.502 133.092 141.781L144.445 150.585M130.571 55.5346L141.322 65.0048L130.571 64.7792L130.262 102.969C130.238 106.22 130.925 109.436 132.276 112.393C133.626 115.35 135.608 117.975 138.08 120.085L146.893 127.606C157.057 81.7644 141.76 54.9831 134.312 45.2065C134.05 44.8625 133.688 44.6093 133.275 44.4823C132.862 44.3553 132.42 44.3611 132.01 44.499C131.601 44.6369 131.245 44.8998 130.993 45.2505C130.74 45.6012 130.605 46.0223 130.604 46.4543L130.571 55.5346Z" stroke="black" stroke-width="1.24227" stroke-miterlimit="10"/>
<path d="M133.125 39.0564C133.555 39.6633 134.124 40.1575 134.786 40.4967C135.447 40.8362 136.181 41.0109 136.924 41.0062C137.567 41.0151 138.21 40.9797 138.849 40.9003C139.592 40.8028 139.996 40.5995 139.487 40.229C139.326 40.1087 139.175 39.9756 139.035 39.8307C138.136 38.9029 137.507 37.7473 137.217 36.4883C136.899 35.0817 137.217 33.7029 138.314 32.9481C138.577 32.7684 138.866 32.6322 139.172 32.5442C139.666 32.3921 140.177 32.2985 140.693 32.2657C140.952 32.249 141.219 32.2406 141.484 32.2406C141.762 30.5443 142.397 28.1573 143.692 27.1629C144.009 26.92 144.385 26.7675 144.781 26.7219C145.177 26.6762 145.577 26.7391 145.94 26.9039C147.89 27.6475 150.784 28.2213 152.327 27.9233C152.423 27.8261 152.485 27.7014 152.505 27.5668C152.29 27.0291 152.042 26.5054 151.762 25.9986C151.462 25.478 151.127 24.9783 150.759 24.5029C147.993 20.9794 143.158 19.3221 138.782 20.1466C138.084 20.2745 137.4 20.4742 136.743 20.7426C134.732 21.8178 133.323 23.528 132.409 25.5947C129.899 32.5164 131.573 36.8337 133.125 39.0564Z" fill="#C0C0C0"/>
<path d="M133.108 219.172L116.719 233.692C116.29 234.063 115.546 234.726 114.624 235.542C111.741 238.097 109.835 241.575 109.232 245.381C108.63 249.186 109.368 253.083 111.321 256.404C111.565 256.82 111.726 257.281 111.793 257.759C111.859 258.237 111.831 258.724 111.71 259.191C111.589 259.658 111.377 260.097 111.086 260.483C110.795 260.868 110.431 261.193 110.015 261.437C109.598 261.682 109.138 261.842 108.66 261.909C108.182 261.976 107.695 261.948 107.227 261.827C106.76 261.705 106.321 261.493 105.936 261.202C105.55 260.911 105.226 260.547 104.981 260.131L91.712 237.592L102.99 221.88L104.94 219.18" stroke="black" stroke-width="1.24227" stroke-miterlimit="10"/>
<path d="M144.445 209.148L148.197 205.822" stroke="black" stroke-width="1.24227" stroke-miterlimit="10"/>
<path d="M152.898 46.3291L165.251 61.3422L160.641 61.3144L168.212 69.5841C168.337 69.6203 168.49 70.1802 168.699 71.194C170.203 78.9095 173.535 113.03 176.523 145.647C179.601 179.194 182.32 211.15 182.32 211.15H176.986" stroke="black" stroke-width="1.24227" stroke-miterlimit="10"/>
<path d="M144.445 211.15H150.539" stroke="black" stroke-width="1.24227" stroke-miterlimit="10"/>
<path d="M144.444 143.001C149.035 142.895 151.21 140.978 152.182 138.781C153.547 135.667 152.48 132.012 149.812 129.909L146.884 127.606" stroke="black" stroke-width="1.24227" stroke-miterlimit="10"/>
<path d="M152.901 135.182C152.901 135.182 160.639 139.873 168.385 138.319L167.586 98.4349C166.915 83.355 159.915 57.8466 141.448 56.9971" stroke="black" stroke-width="1.24227" stroke-miterlimit="10"/>
<path d="M143.515 47.1897C143.515 47.1897 154.325 53.9665 154.935 38.4019C155.119 33.6389 154.91 27.9958 151.821 24.074C149.055 20.5477 144.22 18.8904 139.844 19.7149C136.223 20.4029 133.917 22.6256 132.616 25.5642" stroke="black" stroke-width="1.24227" stroke-miterlimit="10"/>
<path d="M144.445 143.115C144.441 143.077 144.441 143.039 144.445 143.001C145.122 131.447 149.812 129.909 149.812 129.909" stroke="black" stroke-width="0.827253" stroke-miterlimit="10"/>
<path d="M147.456 48.6604L149.072 58.9607" stroke="black" stroke-width="1.24227" stroke-miterlimit="10"/>
<path d="M152.823 25.5698C155.734 28.9346 149.5 28.1658 146.138 26.8789C143.236 25.7648 142.097 29.7674 141.682 32.2492" stroke="black" stroke-width="1.24227" stroke-miterlimit="10"/>
<path d="M134.4 40.1289V45.3236" stroke="black" stroke-width="1.24227" stroke-miterlimit="10"/>
<path d="M151.283 39.4129C150.341 39.4129 149.578 37.6707 149.578 35.5218C149.578 33.3726 150.341 31.6306 151.283 31.6306C152.224 31.6306 152.987 33.3726 152.987 35.5218C152.987 37.6707 152.224 39.4129 151.283 39.4129Z" stroke="black" stroke-width="0.827253" stroke-miterlimit="10"/>
<path d="M156.149 39.4129C155.207 39.4129 154.444 37.6707 154.444 35.5218C154.444 33.3726 155.207 31.6306 156.149 31.6306C157.09 31.6306 157.853 33.3726 157.853 35.5218C157.853 37.6707 157.09 39.4129 156.149 39.4129Z" stroke="black" stroke-width="0.827253" stroke-miterlimit="10"/>
<path d="M151.283 39.4129C150.341 39.4129 149.578 37.6707 149.578 35.5218C149.578 33.3726 150.341 31.6306 151.283 31.6306C152.224 31.6306 152.987 33.3726 152.987 35.5218C152.987 37.6707 152.224 39.4129 151.283 39.4129Z" fill="black"/>
<path d="M156.149 39.4129C155.207 39.4129 154.444 37.6707 154.444 35.5218C154.444 33.3726 155.207 31.6306 156.149 31.6306C157.09 31.6306 157.853 33.3726 157.853 35.5218C157.853 37.6707 157.09 39.4129 156.149 39.4129Z" fill="black"/>
<path d="M149.745 33.8451C148.05 33.2841 146.318 32.8438 144.561 32.5276C142.89 32.2491 141.018 32.0068 139.375 32.5109C137.587 33.068 137.03 34.7392 137.425 36.4578C137.71 37.7257 138.335 38.8916 139.233 39.8308C139.374 39.9779 139.527 40.113 139.69 40.2347C140.57 40.8809 138.734 41.0118 137.127 41.0118C136.384 41.0166 135.65 40.8417 134.988 40.5021C134.326 40.1629 133.756 39.6687 133.325 39.0621C131.774 36.8338 130.1 32.5221 132.615 25.5754" stroke="black" stroke-width="1.24227" stroke-miterlimit="10"/>
<path d="M140.042 32.3494C140.572 32.6106 141.013 33.0254 141.305 33.5401C141.598 34.0546 141.729 34.6451 141.682 35.235" stroke="black" stroke-width="1.24227" stroke-miterlimit="10"/>
<path d="M30.8498 262.303H244.908" stroke="black" stroke-width="1.24227" stroke-miterlimit="10"/>
<path d="M25.3428 -102.395C27.9889 -98.1952 31.3425 -94.5268 35.6487 -91.9615C38.1797 -90.4566 40.9643 -89.4266 43.8655 -88.9227C50.4222 -87.7723 57.3272 -89.2235 63.3965 -92.2651C65.388 -93.2603 67.2901 -94.4252 69.0814 -95.7468C70.4563 -96.7677 71.7704 -97.8679 73.0171 -99.0419C73.5742 -99.5739 74.1173 -100.12 74.641 -100.688C76.142 -102.299 77.4723 -104.062 78.6101 -105.947C80.1961 -108.532 81.3153 -111.375 81.9164 -114.347L25.3428 -102.395ZM15.6776 -18.1049V-137.917H234.886V-18.6425L163.129 -18.2943L158.174 -18.2721L126.421 -18.1105L15.6776 -18.1049ZM234.88 21.8929H234.382L234.88 21.2885V21.8929Z" stroke="#BDBDBD" stroke-width="1.60715" stroke-miterlimit="10"/>
</g>
<defs>
<clipPath id="clip0">
<rect width="278.536" height="278.536" fill="white" transform="matrix(-1 0 0 1 279 0)"/>
</clipPath>
</defs>
</svg>
