<svg width="279" height="279" viewBox="0 0 279 279" fill="none" xmlns="http://www.w3.org/2000/svg">
<path d="M64.0636 118.149C64.0636 118.149 49.0699 73.7842 101.368 79.199C153.666 84.6137 128.678 64.9769 148.441 52.7909C168.203 40.605 226.431 78.5166 202.07 115.083C177.709 151.649 241.001 118.2 254.204 173.188C262.351 207.122 242.137 232.099 225.461 246.257" stroke="#C5C5C5" stroke-width="1.52359" stroke-miterlimit="10"/>
<path d="M230.562 203.861C226.632 181.102 212.716 160.735 190.107 153.446C184.323 151.592 178.41 150.172 172.415 149.198V149.229C172.102 151.118 171.362 152.911 170.25 154.471C167.894 157.699 164.646 160.351 160.886 161.732C157.048 163.153 152.293 163.337 148.731 161.103C146.586 159.76 144.505 157.395 144.129 154.844C143.7 151.97 145.165 149.248 147.227 147.349C129.757 147.491 113.323 150.365 100.154 153.638C100.61 155.549 101.242 157.414 102.042 159.209C103.162 161.711 104.744 163.979 106.705 165.894C109.151 163.47 111.293 160.758 113.084 157.816C114.796 158.376 116.306 159.428 117.426 160.84C118.545 162.252 119.225 163.962 119.381 165.757V165.849C120.072 172.37 113.794 177.269 108.518 180.283C102.424 183.787 95.6305 186.411 88.9567 188.592C86.2048 189.494 82.6284 190.263 79.7233 189.321C79.4102 189.222 79.1049 189.1 78.8097 188.956C75.9129 187.536 73.9743 184.558 72.4618 181.837C68.1529 174.108 65.3508 165.682 63.4512 157.033C50.2681 158.718 48.7584 149.791 47.9757 147.602L36.6978 179.13C36.1061 181.396 36.0421 183.768 36.5106 186.062C36.9791 188.357 37.9676 190.514 39.3998 192.367C40.8324 194.22 42.6707 195.72 44.7734 196.752C46.876 197.784 49.1876 198.319 51.5298 198.318H98.2181L119.426 252.716L125.437 268.155H159.769C156.984 268.155 155.46 267.476 154.354 266.367C153.212 265.225 152.569 263.676 152.566 262.061C152.566 258.719 155.31 255.978 159.769 255.978H160.084C159.747 255.978 159.424 255.947 159.087 255.917C159.295 255.894 159.503 255.859 159.708 255.813C159.487 255.808 159.267 255.791 159.048 255.763C161.059 255.526 162.923 254.589 164.313 253.116C165.704 251.644 166.532 249.73 166.654 247.708C166.66 247.603 166.66 247.498 166.654 247.393V247.232C166.606 245.159 165.814 243.173 164.423 241.636C163.031 240.099 161.133 239.115 159.075 238.862C159.309 238.842 159.532 238.823 159.758 238.823C159.555 238.773 159.329 238.742 159.117 238.711C159.452 238.681 159.789 238.658 160.112 238.658L185.23 238.792L189.851 238.812H195.335C195.589 238.812 195.845 238.812 196.087 238.842L204.235 238.884L209.677 238.915C211.952 238.934 214.126 239.853 215.725 241.471C217.324 243.089 218.217 245.274 218.209 247.549C218.206 248.836 217.908 250.104 217.337 251.257C219.672 250.958 221.838 249.878 223.481 248.193C227.4 244.19 229.088 238.199 230.255 232.873C232.319 223.386 232.197 213.39 230.562 203.861ZM167.1 204.502C162.368 211.785 154.31 211.131 154.31 211.131C154.31 211.131 153.641 211.782 152.081 209.008C150.522 206.234 146.079 204.337 146.079 204.337C145.725 207.123 144.993 211.356 137.723 205.869C130.453 200.382 132.645 192.382 133.266 188.157C133.887 183.932 136.364 182.531 136.364 182.531L139.288 180.987C139.288 180.987 130.829 178.812 130.422 178.731C130.016 178.651 122.481 172.342 130.127 170.676C137.773 169.01 149.692 175.634 151.995 176.943C154.299 178.252 167.76 189.639 167.76 189.639C167.76 189.639 171.858 197.229 167.1 204.502Z" fill="#181818"/>
<path d="M63.4399 157.039C63.4399 157.039 69.8156 156.264 72.2027 151.713L70.122 163.387C70.122 163.387 95.4855 154.752 100.137 153.638C100.137 153.638 101.636 163.3 107.602 165.893L113.758 158.067C113.758 158.067 121.476 160.016 119.364 170.534C117.253 181.051 88.0514 189.842 83.099 189.639C78.1467 189.435 72.8155 186.388 67.3562 170.013L63.4399 157.039Z" fill="#181818"/>
<path d="M73.8259 131.035C75.4415 133.664 77.0653 136.288 78.7421 138.878C79.7755 140.474 81.6584 142.75 79.6557 144.418C79.0039 144.918 78.2168 145.209 77.3968 145.254C76.1099 145.368 74.759 145.059 73.9764 143.953L70.0768 137.491C69.2995 136.202 68.0655 135.254 66.6205 134.833C65.1752 134.413 63.6248 134.553 62.2778 135.224" stroke="black" stroke-width="1.52359" stroke-miterlimit="10"/>
<path d="M88.5752 139.547C89.5946 141.97 88.9038 143.533 87.7117 144.318C85.7619 145.597 83.152 144.984 81.7705 143.118L73.8406 131.049" stroke="black" stroke-width="1.52359" stroke-miterlimit="10"/>
<path d="M80.5394 127.525C83.425 131.035 87.0655 137.552 89.0793 140.274C91.0931 142.995 94.2072 141.354 94.2072 141.354C96.7363 139.992 96.3073 137.733 95.2015 134.99C92.4774 128.255 88.5891 123.776 84.2523 120.84C70.8129 111.749 57.0253 118.456 52.9225 134.149L36.6978 179.13C36.1061 181.396 36.0421 183.768 36.5106 186.063C36.9791 188.357 37.9676 190.514 39.3998 192.368C40.8324 194.221 42.6707 195.721 44.7734 196.752C46.876 197.784 49.1876 198.319 51.5298 198.318H98.2181L125.445 268.158" stroke="black" stroke-width="1.52359" stroke-miterlimit="10"/>
<path d="M97.2098 131.901C100.552 130.742 100.399 125.411 95.6556 123.612C90.4163 121.623 81.1132 118.81 78.7763 118.108C78.7618 118.097 78.7442 118.09 78.7261 118.088C78.5618 118.038 78.4476 117.996 78.3585 117.977L78.2275 117.935" stroke="black" stroke-width="1.52359" stroke-miterlimit="10"/>
<path d="M146.593 185.204C143.669 181.689 135.664 179.698 130.438 178.734C129.56 178.569 128.759 178.123 128.156 177.464C127.554 176.804 127.181 175.966 127.096 175.077C127.035 174.477 127.105 173.871 127.299 173.3C127.611 172.423 128.208 171.677 128.994 171.18C129.78 170.683 130.711 170.464 131.636 170.559C140.549 171.461 149.741 174.266 156.54 180.308C156.54 180.308 189.499 205.46 193.435 207.908C195.059 208.894 196.574 207.73 195.474 206.181L195.128 205.59C193.191 202.266 190.898 199.162 188.29 196.332" stroke="black" stroke-width="1.52359" stroke-miterlimit="10"/>
<path d="M147.204 147.346C105.752 147.691 70.1215 163.384 70.1215 163.384L73.6784 143.446" stroke="black" stroke-width="1.52359" stroke-miterlimit="10"/>
<path d="M211.584 255.855C211.584 255.855 207.069 254.833 205.869 258.448C204.668 262.064 203.415 267.815 212.047 268.155C220.679 268.495 215.609 266.799 215.111 264.005C214.612 261.211 211.584 255.855 211.584 255.855Z" fill="#181818"/>
<path d="M142.61 189.792C142.61 189.792 137.739 186.098 133.352 189.842C133.167 190.005 133.006 190.192 132.873 190.399" stroke="black" stroke-width="1.52359" stroke-miterlimit="10"/>
<g opacity="0.77">
<path opacity="0.77" d="M81.7538 143.104C83.1465 144.973 85.7536 145.583 87.695 144.301C88.8732 143.522 89.564 141.967 88.5696 139.566C88.7506 139.831 88.915 140.065 89.0765 140.279C91.0876 143.012 94.2044 141.366 94.2044 141.366C96.7335 140.004 96.3073 137.745 95.2015 134.998C94.1194 132.278 92.6997 129.705 90.9761 127.339C92.1042 126.283 93.444 125.216 94.8562 125.684C96.3797 126.191 96.8059 128.102 96.9786 129.695C97.0594 130.436 97.1401 131.168 97.2209 131.909L98.4409 142.817C98.8476 146.438 99.2542 150.112 100.137 153.646C100.593 155.557 101.226 157.422 102.026 159.217C103.145 161.719 104.727 163.987 106.688 165.902C109.134 163.478 111.276 160.766 113.067 157.824C114.779 158.385 116.289 159.437 117.409 160.848C118.529 162.26 119.209 163.97 119.365 165.765V165.857C120.055 172.378 113.777 177.277 108.502 180.291C102.407 183.795 95.6138 186.419 88.94 188.6C86.1881 189.502 82.6117 190.271 79.7066 189.33C79.3935 189.23 79.0882 189.108 78.793 188.965C75.8962 187.544 73.9576 184.567 72.4451 181.845C65.2032 168.824 62.195 153.872 60.6101 139.065C63.7799 138.628 66.9385 138.14 70.0581 137.469C70.0581 137.469 70.0581 137.491 70.0776 137.5L73.6735 143.463L73.9687 143.959C74.7486 145.073 76.0995 145.371 77.3891 145.26C78.2089 145.219 78.9966 144.927 79.6453 144.424C81.6452 142.753 79.7678 140.485 78.7317 138.889" fill="white"/>
<path opacity="0.77" d="M81.7538 143.104C83.1465 144.973 85.7536 145.583 87.695 144.301C88.8732 143.522 89.564 141.967 88.5696 139.566C88.7506 139.831 88.915 140.065 89.0765 140.279C91.0876 143.012 94.2044 141.366 94.2044 141.366C96.7335 140.004 96.3073 137.745 95.2015 134.998C94.1194 132.278 92.6997 129.705 90.9761 127.339C92.1042 126.283 93.444 125.216 94.8562 125.684C96.3797 126.191 96.8059 128.102 96.9786 129.695C97.0594 130.436 97.1401 131.168 97.2209 131.909L98.4409 142.817C98.8476 146.438 99.2542 150.112 100.137 153.646C100.593 155.557 101.226 157.422 102.026 159.217C103.145 161.719 104.727 163.987 106.688 165.902C109.134 163.478 111.276 160.766 113.067 157.824C114.779 158.385 116.289 159.437 117.409 160.848C118.529 162.26 119.209 163.97 119.365 165.765V165.857C120.055 172.378 113.777 177.277 108.502 180.291C102.407 183.795 95.6138 186.419 88.94 188.6C86.1881 189.502 82.6117 190.271 79.7066 189.33C79.3935 189.23 79.0882 189.108 78.793 188.965C75.8962 187.544 73.9576 184.567 72.4451 181.845C65.2032 168.824 62.195 153.872 60.6101 139.065C63.7799 138.628 66.9385 138.14 70.0581 137.469C70.0581 137.469 70.0581 137.491 70.0776 137.5L73.6735 143.463L73.9687 143.959C74.7486 145.073 76.0995 145.371 77.3891 145.26C78.2089 145.219 78.9966 144.927 79.6453 144.424C81.6452 142.753 79.7678 140.485 78.7317 138.889" fill="#C0C0C0"/>
<path opacity="0.77" d="M82.6089 143.987C83.8428 145.658 85.9513 145.446 87.6949 144.301C88.7478 143.605 89.6113 143.808 88.7227 141.661C88.8871 141.895 88.9093 141.104 89.0542 141.279C90.8507 143.719 89.0765 140.271 89.0765 140.271C91.5833 143.438 97.0398 140.455 96.0399 138.006C94.9814 135.369 93.8673 131.469 92.4551 129.519C93.5693 128.467 93.3548 128.623 94.7725 129.461C95.1536 129.706 95.4722 130.036 95.704 130.425C95.9354 130.814 96.0733 131.251 96.1067 131.703C96.2209 132.764 96.3351 133.781 96.4493 134.817L97.5356 144.566C97.9005 147.805 98.2626 151.078 99.0509 154.231C99.4584 155.936 100.024 157.6 100.739 159.2C101.736 161.404 104.939 165.072 106.688 166.751C108.864 164.593 111.471 160.624 113.067 157.986C116.131 158.927 115.997 161.858 116.214 165.058V165.141C116.833 170.96 111.228 175.33 106.532 178.024C101.09 181.152 95.026 183.491 89.0681 185.441C86.6114 186.249 83.4194 186.945 80.8262 186.093C80.5466 186.005 80.2739 185.896 80.0101 185.767C77.4253 184.497 75.6928 181.843 74.3419 179.411C68.4286 168.79 65.685 156.732 64.1753 144.644C64.0647 143.739 64.3093 142.827 64.858 142.1C65.4067 141.372 66.2167 140.886 67.1167 140.744C68.8129 140.466 70.5037 140.187 72.1832 139.814L72.2306 139.836L75.4393 145.159C76.1385 146.148 76.2527 145.374 77.403 145.273C78.13 145.209 79.5394 145.067 80.102 144.597C81.8874 143.109 80.8791 142.494 79.9544 141.07" fill="#C0C0C0"/>
</g>
<path d="M142.023 195.168C142.023 195.168 132.773 192.126 132.633 197.24" stroke="black" stroke-width="1.52359" stroke-miterlimit="10"/>
<path opacity="0.54" d="M59.2221 247.262L41.0811 200.786C40.8563 199.886 40.8396 198.948 41.032 198.041C41.2245 197.134 41.6209 196.283 42.1916 195.552C42.762 194.822 43.4918 194.231 44.3249 193.824C45.1583 193.418 46.073 193.207 47 193.207H119.057C120.675 193.207 122.247 193.751 123.517 194.752C124.788 195.754 125.685 197.154 126.062 198.727L145.922 245.193C146.137 246.089 146.146 247.023 145.948 247.923C145.75 248.823 145.351 249.667 144.78 250.39C144.209 251.114 143.482 251.699 142.653 252.102C141.823 252.504 140.914 252.713 139.992 252.713H66.2106C64.6048 252.714 63.0448 252.178 61.7785 251.191C60.512 250.203 59.6124 248.82 59.2221 247.262Z" fill="white"/>
<path d="M145.034 203.009C145.034 203.009 146.536 204.384 145.965 206.351C145.541 207.808 144.093 208.727 142.659 208.228C138.091 206.649 133.977 203.967 132.974 199.407C132.5 197.099 132.398 194.729 132.67 192.388C132.89 190.218 133.211 187.876 133.94 185.812C135.054 182.642 138.467 180.433 141.778 181.96" stroke="black" stroke-width="1.52359" stroke-miterlimit="10"/>
<path d="M59.2221 247.262L41.0811 200.786C40.8563 199.886 40.8396 198.948 41.032 198.041C41.2245 197.134 41.6209 196.283 42.1916 195.552C42.762 194.822 43.4918 194.231 44.3249 193.824C45.1583 193.418 46.073 193.207 47 193.207H119.057C120.675 193.207 122.247 193.751 123.517 194.752C124.788 195.754 125.685 197.154 126.062 198.727L145.922 245.193C146.137 246.089 146.146 247.023 145.948 247.923C145.75 248.823 145.351 249.667 144.78 250.39C144.209 251.114 143.482 251.699 142.653 252.102C141.823 252.504 140.914 252.713 139.992 252.713H66.2106C64.6048 252.714 63.0448 252.178 61.7785 251.191C60.512 250.203 59.6124 248.82 59.2221 247.262Z" fill="#C0C0C0"/>
<path d="M59.2221 247.262L41.0811 200.786C40.8563 199.886 40.8396 198.948 41.032 198.041C41.2245 197.134 41.6209 196.283 42.1916 195.552C42.762 194.822 43.4918 194.231 44.3249 193.824C45.1583 193.418 46.073 193.207 47 193.207H119.057C120.675 193.207 122.247 193.751 123.517 194.752C124.788 195.754 125.685 197.154 126.062 198.727L145.922 245.193C146.137 246.089 146.146 247.023 145.948 247.923C145.75 248.823 145.351 249.667 144.78 250.39C144.209 251.114 143.482 251.699 142.653 252.102C141.823 252.504 140.914 252.713 139.992 252.713H66.2106C64.6048 252.714 63.0448 252.178 61.7785 251.191C60.512 250.203 59.6124 248.82 59.2221 247.262Z" stroke="black" stroke-width="1.52359" stroke-linecap="square" stroke-linejoin="round"/>
<path d="M61.8772 245.39L45.1399 202.496C44.9333 201.666 44.9179 200.8 45.0956 199.964C45.2736 199.127 45.6396 198.342 46.1661 197.668C46.6925 196.995 47.3657 196.449 48.1345 196.075C48.903 195.7 49.7469 195.505 50.602 195.505H117.078C118.57 195.504 120.019 196.006 121.192 196.93C122.364 197.854 123.191 199.145 123.54 200.596L141.864 243.466C142.063 244.293 142.07 245.154 141.887 245.985C141.705 246.815 141.336 247.594 140.809 248.261C140.283 248.929 139.611 249.469 138.846 249.84C138.081 250.211 137.242 250.404 136.391 250.404H68.3225C66.8435 250.406 65.4062 249.913 64.2386 249.005C63.0713 248.096 62.2401 246.825 61.8772 245.39Z" fill="#C0C0C0"/>
<path d="M204.146 238.661L216.891 268.155" stroke="black" stroke-width="1.52359" stroke-miterlimit="10"/>
<path d="M264.61 268.155H13.9269" stroke="black" stroke-width="1.52359" stroke-miterlimit="10"/>
<path d="M146.056 135.037C143.989 137.079 140.903 137.076 139.145 135.188" stroke="black" stroke-width="1.52359" stroke-miterlimit="10"/>
<path d="M90.9758 127.33C92.1039 126.275 93.4437 125.208 94.8558 125.676C96.3794 126.183 96.8056 128.093 96.9783 129.687C97.4666 134.065 97.954 138.439 98.4406 142.809C99.059 148.379 99.7107 154.084 102.025 159.203C103.145 161.705 104.727 163.973 106.688 165.888" stroke="black" stroke-width="1.52359" stroke-miterlimit="10"/>
<path d="M119.364 165.855V165.763C119.209 163.967 118.529 162.258 117.409 160.846C116.289 159.434 114.779 158.382 113.067 157.822C111.276 160.763 109.134 163.476 106.688 165.899C100.274 172.277 92.0351 176.5 83.1127 177.985C83.5417 179.692 84.4247 181.246 85.0346 182.89C85.6446 184.533 85.9483 186.436 85.2073 188.02C84.2715 190.043 81.5864 189.778 79.7202 189.33C79.7007 189.33 79.6895 189.33 79.67 189.33" stroke="black" stroke-width="1.52359" stroke-miterlimit="10"/>
<path d="M70.0632 137.466C66.9436 138.137 63.785 138.625 60.6152 139.062C62.2001 153.869 65.1972 168.821 72.4502 181.842C73.9627 184.564 75.9013 187.541 78.7981 188.962C79.0936 189.105 79.3989 189.227 79.7117 189.327C82.6168 190.282 86.1932 189.499 88.9452 188.597C95.63 186.413 102.412 183.792 108.507 180.288C113.768 177.272 120.047 172.375 119.37 165.854C119.304 165.136 119.157 164.428 118.932 163.743" stroke="black" stroke-width="1.52359" stroke-miterlimit="10"/>
<path d="M122.227 107.93C122.695 109.879 123.762 111.632 125.278 112.943C126.795 114.253 128.685 115.054 130.681 115.233C130.847 114.429 131.206 113.678 131.728 113.044C133.957 110.417 134.906 115.345 142.034 111.807C151.911 106.894 155.66 109.713 155.66 109.713C155.989 109.958 155.939 112.219 155.994 112.632C156.273 114.98 156.524 117.317 156.799 119.662C156.966 121.094 157.131 122.514 157.287 123.935C157.421 123.693 157.57 123.46 157.732 123.236C158.632 120.052 160.239 116.292 163.704 117.91C164.406 118.252 165.017 118.755 165.487 119.378C167.785 122.397 166.044 125.313 163.64 127.472C163.038 128.142 162.364 128.744 161.632 129.269C162.027 130.088 163.643 133.338 163.643 133.349C163.81 133.678 169.456 127.288 169.877 126.592C170.505 124.886 170.842 123.087 170.874 121.269C170.966 113.796 167.924 105.097 161.872 100.811C160.37 99.7494 160.849 98.7272 160.757 97.2843C160.751 97.2064 160.721 97.1323 160.672 97.0716C160.622 97.0108 160.556 96.9665 160.48 96.9445C160.405 96.9225 160.325 96.9239 160.251 96.9482C160.177 96.9727 160.111 97.0189 160.064 97.081C158.167 99.2647 153.471 99.0475 153.471 99.0475C137.171 94.9641 131.692 102.212 128.403 103.504C127.061 104.013 125.583 104.037 124.225 103.574C124.145 104.024 123.943 104.443 123.642 104.786C123.342 105.13 122.952 105.385 122.517 105.523L122.601 106.278C122.672 106.856 122.54 107.44 122.227 107.93Z" fill="#C0C0C0"/>
<path d="M130.692 115.244C128.696 115.065 126.806 114.264 125.29 112.954C123.773 111.643 122.706 109.89 122.239 107.941C122.056 107.194 121.94 106.431 121.893 105.663L122.021 105.649C122.197 105.636 122.369 105.598 122.534 105.537C122.969 105.399 123.358 105.144 123.659 104.8C123.96 104.457 124.161 104.037 124.241 103.588C124.292 103.338 124.303 103.082 124.272 102.83L123.854 99.1422C123.854 99.1422 126.801 101.334 130.071 100.053C133.341 98.7717 138.831 91.5242 155.139 95.5964C155.139 95.5964 158.822 95.8137 160.71 93.6299C160.758 93.5675 160.823 93.5213 160.897 93.4971C160.972 93.4726 161.052 93.4715 161.127 93.4935C161.202 93.5155 161.269 93.5597 161.318 93.6202C161.367 93.6809 161.397 93.7553 161.404 93.8333C161.501 95.2789 162.036 96.3011 163.54 97.3595C169.593 101.649 172.634 110.345 172.54 117.818C172.512 120.918 171.481 123.979 169.891 126.606C169.47 127.302 163.824 133.692 163.657 133.363C163.657 133.363 162.042 130.101 161.646 129.283L161.551 129.102L161.732 128.982C162.405 128.525 163.047 128.026 163.654 127.486C166.055 125.327 167.799 122.411 165.501 119.392C165.031 118.769 164.42 118.266 163.718 117.924C160.242 116.306 158.646 120.066 157.747 123.249C157.572 123.858 157.464 124.484 157.426 125.116C157.384 124.726 157.343 124.35 157.301 123.96C157.145 122.539 156.981 121.119 156.813 119.687C156.535 117.342 156.273 115.005 156.008 112.657C155.967 112.256 156.008 109.983 155.674 109.738C155.674 109.738 151.922 106.919 142.048 111.832C134.92 115.37 133.971 110.44 131.742 113.069C131.22 113.703 130.861 114.454 130.695 115.258C130.644 115.516 130.611 115.778 130.598 116.041C130.592 116.075 130.592 116.11 130.598 116.144C130.564 116.721 130.553 117.294 130.539 117.857C130.486 123.286 131.082 128.957 133.213 133.998C135.803 140.109 142.658 146.137 149.786 143.287C152.014 142.393 154.011 140.953 155.839 139.424" stroke="black" stroke-width="1.52359" stroke-miterlimit="10"/>
<path d="M135.57 128.485C136.279 128.247 136.621 127.36 136.334 126.502C136.047 125.644 135.24 125.141 134.531 125.378C133.822 125.615 133.48 126.503 133.767 127.361C134.054 128.219 134.861 128.722 135.57 128.485Z" fill="black"/>
<path d="M146.175 128.146C146.884 127.909 147.226 127.021 146.939 126.163C146.652 125.305 145.845 124.802 145.136 125.039C144.427 125.277 144.085 126.164 144.372 127.022C144.659 127.88 145.466 128.383 146.175 128.146Z" fill="black"/>
<path d="M142.121 129.982C142.121 129.982 138.592 131.984 138.377 129.907C138.31 129.266 137.447 122.991 137.447 122.991C137.447 122.991 134.595 119.968 130.224 122.202" stroke="black" stroke-width="1.52359" stroke-miterlimit="10"/>
<path d="M141.327 121.233C141.327 121.233 147.026 118.386 150.797 122.489" stroke="black" stroke-width="1.52359" stroke-miterlimit="10"/>
<path d="M146.552 143.987L147.206 147.346C145.142 149.248 143.683 151.975 144.109 154.847C144.488 157.393 146.571 159.763 148.708 161.097C152.279 163.325 157.028 163.15 160.871 161.732C164.629 160.339 167.879 157.696 170.236 154.471C171.346 152.911 172.085 151.12 172.397 149.231V149.198" stroke="black" stroke-width="1.52359" stroke-miterlimit="10"/>
<path d="M147.206 147.346L148.482 153.412" stroke="black" stroke-width="1.52359" stroke-miterlimit="10"/>
<path d="M165.248 131.901L167.175 144.7C167.365 145.952 167.999 147.096 168.96 147.921C169.921 148.746 171.147 149.2 172.415 149.198C178.413 150.17 184.331 151.589 190.118 153.443C212.727 160.735 226.643 181.102 230.573 203.858C232.208 213.387 232.331 223.381 230.278 232.856C229.111 238.19 227.423 244.182 223.504 248.176C218.415 253.385 210.605 251.24 204.591 248.886C185.921 241.625 170.392 228.706 156.984 213.916C149.814 206.005 140.55 199.666 140.55 199.666" stroke="black" stroke-width="1.52359" stroke-miterlimit="10"/>
<path d="M68.0469 235.789C65.9524 235.77 64.1279 234.079 63.6572 231.726C62.7269 227.096 62.4818 219.938 69.2697 218.375C77.7512 216.426 84.2745 225.662 87.4721 231.5C88.5472 233.45 87.33 235.957 85.3273 235.957L68.0469 235.789Z" fill="#353535"/>
<path d="M70.8465 214.445C72.6473 213.247 72.6749 210.123 70.9081 207.469C69.1416 204.814 66.2499 203.633 64.4491 204.831C62.6484 206.029 62.6208 209.153 64.3876 211.808C66.154 214.463 69.0458 215.644 70.8465 214.445Z" fill="#353535"/>
<path d="M210.231 256.008C210.1 256.028 209.953 256.047 209.824 256.078H209.774L189.962 255.975L160.234 255.822C160.12 255.822 160.008 255.822 159.897 255.822C159.676 255.816 159.456 255.8 159.237 255.771C161.251 255.538 163.118 254.601 164.509 253.126C165.901 251.651 166.727 249.732 166.844 247.708C166.849 247.603 166.849 247.498 166.844 247.393V247.232C166.835 245.251 166.145 243.333 164.889 241.802C163.633 240.27 161.888 239.218 159.947 238.823C159.744 238.772 159.521 238.742 159.306 238.711C159.643 238.68 159.978 238.658 160.303 238.658L185.419 238.792L190.043 238.811L196.279 238.842C198.415 239.037 200.4 240.021 201.849 241.603C203.297 243.184 204.103 245.249 204.109 247.393C204.109 247.798 204.079 248.202 204.017 248.602C203.72 250.643 202.701 252.51 201.144 253.863C199.587 255.216 197.596 255.966 195.533 255.975H210.624C209.755 255.975 209.997 255.975 210.231 256.008Z" fill="white"/>
<path d="M170.044 266.367C170.609 266.936 171.283 267.387 172.024 267.694C172.766 268.001 173.561 268.158 174.364 268.155H159.774C156.989 268.155 155.468 267.476 154.359 266.367C153.22 265.223 152.578 263.675 152.574 262.061C152.574 258.719 155.315 255.978 159.774 255.978H174.364C173.159 255.976 171.981 256.332 170.979 257C169.977 257.668 169.196 258.619 168.735 259.732C168.273 260.844 168.153 262.069 168.388 263.25C168.624 264.432 169.205 265.516 170.057 266.367H170.044Z" fill="#353535"/>
<path d="M218.227 247.546C218.224 248.833 217.925 250.101 217.353 251.254C216.945 252.125 216.384 252.916 215.698 253.591C214.567 254.711 213.147 255.495 211.595 255.855C210.956 256.003 210.302 256.078 209.646 256.078C209.779 256.047 209.924 256.028 210.052 256.008C209.818 255.986 209.576 255.978 210.448 255.978H195.354C197.418 255.97 199.411 255.221 200.969 253.867C202.527 252.513 203.547 250.645 203.844 248.602C203.905 248.202 203.936 247.798 203.936 247.393C203.929 245.249 203.123 243.183 201.674 241.602C200.226 240.021 198.239 239.036 196.103 238.842L204.25 238.884L209.693 238.914C211.967 238.934 214.142 239.852 215.741 241.47C217.34 243.087 218.234 245.272 218.227 247.546Z" fill="#C0C0C0"/>
<path d="M218.228 247.544C218.211 249.82 217.293 251.996 215.674 253.596C214.056 255.196 211.869 256.09 209.593 256.081L160.036 255.825C159.704 255.825 159.373 255.8 159.039 255.766C161.128 255.529 163.057 254.535 164.462 252.97C165.866 251.406 166.648 249.381 166.659 247.278C166.67 245.176 165.91 243.143 164.521 241.564C163.133 239.985 161.214 238.97 159.128 238.711C159.459 238.677 159.792 238.66 160.125 238.661L209.682 238.917C211.958 238.933 214.135 239.849 215.736 241.466C217.338 243.083 218.234 245.268 218.228 247.544Z" stroke="black" stroke-width="1.52359" stroke-linecap="square" stroke-linejoin="round"/>
<path d="M203.93 247.39C203.926 249.666 203.02 251.847 201.411 253.456C199.802 255.065 197.621 255.97 195.346 255.975H160.086C159.753 255.973 159.42 255.954 159.089 255.919C161.176 255.671 163.101 254.666 164.497 253.095C165.893 251.523 166.664 249.494 166.664 247.392C166.664 245.29 165.893 243.261 164.497 241.689C163.101 240.117 161.176 239.112 159.089 238.864C159.42 238.834 159.754 238.812 160.086 238.812H195.346C197.62 238.817 199.8 239.722 201.408 241.329C203.017 242.937 203.924 245.116 203.93 247.39Z" stroke="black" stroke-width="1.52359" stroke-linecap="square" stroke-linejoin="round"/>
<path d="M152.574 262.064C152.574 262.863 152.731 263.654 153.037 264.392C153.343 265.13 153.791 265.8 154.356 266.364C155.47 267.479 156.983 268.155 159.771 268.155H210.445C209.573 268.155 209.81 268.139 210.047 268.116C208.564 267.942 207.197 267.229 206.205 266.113C205.213 264.998 204.665 263.557 204.665 262.064C204.665 260.571 205.213 259.13 206.205 258.014C207.197 256.899 208.564 256.186 210.047 256.011C209.81 255.989 209.573 255.972 210.445 255.972H159.771C155.309 255.975 152.574 258.716 152.574 262.064Z" stroke="black" stroke-width="1.52359" stroke-linecap="square" stroke-linejoin="round"/>
<path d="M168.255 262.064C168.259 263.678 168.902 265.225 170.044 266.367C171.185 267.509 172.733 268.152 174.347 268.155H209.34C209.574 268.155 209.81 268.139 210.047 268.116C208.564 267.942 207.197 267.229 206.205 266.113C205.213 264.998 204.665 263.557 204.665 262.064C204.665 260.571 205.213 259.13 206.205 258.014C207.197 256.899 208.564 256.186 210.047 256.011C209.81 255.989 209.574 255.972 209.34 255.972H174.347C172.733 255.977 171.186 256.62 170.045 257.761C168.903 258.903 168.26 260.45 168.255 262.064Z" stroke="black" stroke-width="1.52359" stroke-linecap="square" stroke-linejoin="round"/>
<path d="M111.531 215.587H95.8997C95.1847 215.586 94.4853 215.377 93.887 214.985C93.2884 214.593 92.8169 214.036 92.5294 213.381C92.4186 213.137 92.3712 212.87 92.3916 212.602C92.4122 212.335 92.4999 212.078 92.6464 211.854C92.7932 211.63 92.9943 211.446 93.2311 211.321C93.4678 211.195 93.7324 211.132 94.0001 211.136H110.618C109.835 212.454 110.233 214.284 111.531 215.587Z" fill="#353535"/>
<path d="M121.639 213.977C121.639 214.403 121.469 214.812 121.168 215.113C120.867 215.414 120.458 215.584 120.032 215.584H111.531C110.233 214.284 109.835 212.454 110.618 211.128H118.124C118.839 211.128 119.538 211.335 120.136 211.725C120.735 212.115 121.208 212.67 121.497 213.323C121.587 213.529 121.635 213.752 121.639 213.977Z" fill="#C0C0C0"/>
<path d="M117.729 215.587C117.685 215.672 117.633 215.753 117.576 215.829C116.461 217.353 114.041 217.501 112.161 216.125C111.939 215.961 111.728 215.781 111.531 215.587C110.233 214.286 109.835 212.456 110.618 211.131C110.662 211.046 110.713 210.965 110.771 210.888C111.885 209.353 114.294 209.217 116.174 210.582C116.401 210.751 116.614 210.938 116.812 211.139C118.099 212.434 118.5 214.253 117.729 215.587Z" fill="white"/>
<path d="M125.57 223.79C125.566 224.216 125.395 224.624 125.092 224.925C124.79 225.226 124.38 225.394 123.954 225.394H107.551C108.342 224.063 107.947 222.247 106.646 220.938H122.054C122.77 220.938 123.47 221.146 124.069 221.537C124.668 221.929 125.14 222.486 125.427 223.141C125.519 223.345 125.568 223.566 125.57 223.79Z" fill="#C0C0C0"/>
<path d="M107.551 225.395H99.8332C99.1188 225.395 98.4194 225.188 97.8205 224.798C97.2217 224.408 96.749 223.853 96.4602 223.2C96.3691 222.995 96.3206 222.775 96.3181 222.551C96.3176 222.34 96.3591 222.131 96.4396 221.936C96.5201 221.742 96.6382 221.565 96.7872 221.415C96.9362 221.266 97.1133 221.148 97.308 221.068C97.5027 220.987 97.7116 220.946 97.9225 220.946H106.646C107.947 222.247 108.351 224.063 107.551 225.395Z" fill="#353535"/>
<path d="M107.552 225.395C107.515 225.482 107.468 225.564 107.41 225.64C106.296 227.172 103.883 227.311 102.006 225.943C101.779 225.774 101.565 225.588 101.365 225.386C100.076 224.085 99.6803 222.269 100.452 220.93C100.496 220.844 100.547 220.762 100.605 220.684C101.719 219.161 104.14 219.013 106.017 220.392C106.24 220.554 106.451 220.734 106.647 220.93C107.947 222.247 108.351 224.063 107.552 225.395Z" fill="white"/>
<path d="M113.016 235.135H103.195C102.481 235.134 101.782 234.926 101.183 234.537C100.585 234.147 100.112 233.593 99.8218 232.94C99.7112 232.695 99.6642 232.427 99.6848 232.16C99.7057 231.892 99.7934 231.634 99.9402 231.409C100.087 231.185 100.288 231.001 100.525 230.874C100.762 230.748 101.027 230.684 101.295 230.687H112.102C111.328 232.021 111.726 233.834 113.016 235.135Z" fill="#C0C0C0"/>
<path d="M128.932 233.542C128.929 233.965 128.76 234.371 128.459 234.67C128.158 234.968 127.751 235.135 127.327 235.135H113.016C111.726 233.834 111.328 232.018 112.103 230.678H125.417C126.132 230.678 126.832 230.887 127.431 231.278C128.03 231.669 128.502 232.226 128.79 232.881C128.882 233.09 128.93 233.314 128.932 233.542Z" fill="#353535"/>
<path d="M119.214 235.135C119.17 235.22 119.118 235.302 119.061 235.38C117.947 236.912 115.538 237.051 113.657 235.684C113.431 235.513 113.218 235.327 113.02 235.127C111.73 233.826 111.332 232.01 112.106 230.67C112.149 230.584 112.199 230.502 112.256 230.425C113.37 228.901 115.791 228.77 117.671 230.132C117.894 230.295 118.105 230.474 118.301 230.67C119.599 231.987 119.994 233.815 119.214 235.135Z" fill="white"/>
<path d="M45.014 146.335L45.2591 146.404L45.1672 146.761C45.109 146.622 45.058 146.479 45.014 146.335Z" fill="#181818"/>
<path d="M88.6039 168.619C92.2702 167.542 94.1969 163.107 92.907 158.713C91.617 154.319 87.5992 151.63 83.9325 152.706C80.2661 153.782 78.3395 158.217 79.6294 162.611C80.9193 167.005 84.9375 169.695 88.6039 168.619Z" fill="#353535"/>
</svg>
