<svg width="246" height="246" viewBox="0 0 246 246" fill="none" xmlns="http://www.w3.org/2000/svg">
<path d="M184.967 59.9429C183.944 57.104 182.805 54.2849 181.558 51.5444C179.073 46.0906 178.502 40.9222 175.012 36.3613" stroke="#C6C6C6" stroke-width="1.88812" stroke-miterlimit="10"/>
<path d="M166.921 31.1337C163.918 28.0784 161.108 24.7943 156.004 22.3416C145.217 17.1756 131.423 16.6516 113.817 23.9578" stroke="#C6C6C6" stroke-width="1.88812" stroke-miterlimit="10"/>
<path d="M39.7983 231.358C22.7382 207.243 17.2204 179.979 20.0716 152.094" stroke="#C6C6C6" stroke-width="1.88812" stroke-miterlimit="10"/>
<path d="M194.566 112.641V112.939C194.399 118.351 199.4 140.786 213.585 147.912C227.769 155.039 237.882 186.32 205.902 198.593C173.922 210.866 175.664 231.358 175.664 231.358" stroke="#C6C6C6" stroke-width="1.88812" stroke-miterlimit="10"/>
<path d="M113.814 47.1212V20.6171C113.81 18.7963 113.084 17.0513 111.797 15.7638C110.509 14.4762 108.764 13.7509 106.944 13.7463H19.1707C17.3499 13.7509 15.6049 14.4762 14.3173 15.7638C13.0298 17.0513 12.3045 18.7963 12.2999 20.6171V145.241C12.3032 147.061 13.0286 148.805 14.3168 150.09C15.6051 151.376 17.3508 152.098 19.1707 152.097H106.944C107.795 152.102 108.639 151.94 109.428 151.62" stroke="black" stroke-width="1.88812" stroke-linecap="round" stroke-linejoin="round"/>
<path d="M104.595 17.9458H21.5204C18.1306 17.9458 15.3827 20.6937 15.3827 24.0835V141.772C15.3827 145.162 18.1306 147.91 21.5204 147.91H104.595C107.984 147.91 110.732 145.162 110.732 141.772V24.0835C110.732 20.6937 107.984 17.9458 104.595 17.9458Z" fill="#A6A6A6"/>
<path d="M103.092 28.0022H24.0665C22.371 28.0022 20.9965 29.3768 20.9965 31.0723V49.2664C20.9965 50.9621 22.371 52.3365 24.0665 52.3365H103.092C104.787 52.3365 106.162 50.9621 106.162 49.2664V31.0723C106.162 29.3768 104.787 28.0022 103.092 28.0022Z" fill="#A6A6A6"/>
<path d="M63.0577 38.2504C64.4474 38.2504 65.5743 37.1238 65.5743 35.7339C65.5743 34.344 64.4474 33.2173 63.0577 33.2173C61.6678 33.2173 60.5411 34.344 60.5411 35.7339C60.5411 37.1238 61.6678 38.2504 63.0577 38.2504Z" fill="#C9C9C9"/>
<path d="M56.0236 47.1213C56.0236 45.2559 56.7645 43.4669 58.0836 42.1481C59.4026 40.8291 61.1915 40.0881 63.0567 40.0881C64.9221 40.0881 66.711 40.8291 68.0298 42.1481C69.3489 43.4669 70.0898 45.2559 70.0898 47.1213H56.0236Z" fill="#C9C9C9"/>
<path d="M63.5688 78.4099C60.8859 78.4084 58.2628 79.2028 56.0314 80.6926C53.7999 82.1821 52.0607 84.3001 51.0332 86.7786C50.0059 89.257 49.7367 91.9844 50.2597 94.6159C50.7827 97.2474 52.0745 99.6646 53.9716 101.562C55.8688 103.459 58.286 104.751 60.9174 105.274C63.5489 105.797 66.2763 105.527 68.7547 104.5C71.2332 103.473 73.3512 101.733 74.8408 99.502C76.3306 97.2705 77.1249 94.6474 77.1234 91.9645C77.1215 88.3702 75.6927 84.9237 73.1513 82.3821C70.6096 79.8407 67.1631 78.4119 63.5688 78.4099ZM63.5688 102.25C63.0439 102.25 62.5405 102.041 62.1693 101.67C61.7984 101.299 61.5897 100.796 61.5897 100.271C61.5897 99.746 61.7984 99.2424 62.1693 98.8715C62.5405 98.5002 63.0439 98.2916 63.5688 98.2916C64.0938 98.2916 64.5971 98.5002 64.9683 98.8715C65.3393 99.2424 65.5479 99.746 65.5479 100.271C65.5479 100.796 65.3393 101.299 64.9683 101.67C64.5971 102.041 64.0938 102.25 63.5688 102.25ZM66.0805 86.9978C65.6549 89.935 65.2957 93.0322 64.4323 95.8882C64.2207 96.5672 62.9317 96.5672 62.7103 95.8882C62.0913 93.7387 61.6166 91.55 61.2884 89.3372C61.0227 87.7284 60.0805 85.1257 60.9834 83.5562C61.7681 82.1614 63.9993 81.9892 65.2884 82.7198C66.8898 83.6399 66.265 85.5464 66.0805 87.0076V86.9978Z" fill="#C9C9C9"/>
<path d="M29.5123 63.1997H95.7331" stroke="white" stroke-width="1.88812" stroke-miterlimit="10"/>
<path d="M29.5123 69.7163H95.7331" stroke="white" stroke-width="1.88812" stroke-miterlimit="10"/>
<path d="M29.5123 111.691H95.7331" stroke="white" stroke-width="1.88812" stroke-miterlimit="10"/>
<path d="M44.895 117.856H80.351" stroke="white" stroke-width="1.88812" stroke-miterlimit="10"/>
<path d="M36.5483 158.227C36.5483 158.227 48.3317 111.404 85.0325 99.9671L99.9499 96.4075C99.9499 96.4075 102.309 85.8713 101.441 84.7643C100.572 83.6573 98.7888 81.3892 95.5219 81.8812C92.255 82.3732 83.8098 82.5306 81.6475 72.206C79.4852 61.8814 87.4752 37.3405 108.24 33.6701C129.005 29.9998 129.49 45.2469 129.49 45.2469L114.238 80.5897L116.604 109.101L116.902 151.573L36.5483 158.227Z" fill="white"/>
<path d="M163.374 122.055C163.128 122.127 159.989 123.039 158.754 125.214C158.519 124.716 158.147 124.296 157.682 124.001C157.217 123.707 156.677 123.551 156.127 123.551H119.264C118.608 123.55 117.971 123.772 117.457 124.18C116.944 124.588 116.584 125.158 116.437 125.797L109.178 156.923C108.686 156.828 108.194 156.768 107.682 156.719L90.5505 152.444C89.8157 152.259 89.0383 152.355 88.3707 152.714C87.7028 153.072 87.1926 153.666 86.9392 154.38C86.825 154.7 86.7685 155.038 86.7719 155.379C86.7719 156.151 87.0649 156.895 87.5918 157.46C88.1185 158.025 88.84 158.37 89.6107 158.424L97.7115 158.946C89.9084 162.618 80.4153 169.615 72.4916 176.043C64.782 163.971 72.0168 151.903 77.4584 145.403C76.7573 138.24 73.205 121.608 55.4807 122.06C61.5864 114.23 69.2001 107.519 78.6342 103.027C110.949 138.845 147.918 109.561 148.702 108.931C154.231 112.538 159.178 116.965 163.374 122.06" fill="#181818"/>
<path d="M160.016 224.805V230.994H53.2983V222.226C57.4557 222.472 61.8296 221.488 65.8074 219.695C70.8431 217.402 75.1923 213.84 78.9119 209.776C82.7372 205.57 84.838 199.737 87.2759 194.665C90.9363 187.026 95.785 181.585 103.48 179.28L102.988 181.395C102.889 181.821 102.888 182.264 102.984 182.691C103.08 183.117 103.271 183.516 103.542 183.859C103.814 184.201 104.159 184.478 104.552 184.669C104.946 184.86 105.377 184.959 105.814 184.96H142.862C142.124 191.356 139.012 226.288 160.016 224.812" fill="#181818"/>
<path d="M142.879 62.0238C142.849 65.3332 142.418 68.6264 141.595 71.8318C141.219 73.3516 140.413 74.7304 139.274 75.8035C138.134 76.8765 136.709 77.5978 135.169 77.8809C135.108 75.6473 134.158 73.6866 132.709 72.4689C132.842 70.5779 132.823 68.6793 132.653 66.7913C132.557 65.5441 132.407 64.3805 132.249 63.335C132.156 62.7399 132.02 62.1522 131.843 61.5761C131.349 61.045 130.766 60.6029 130.121 60.2698C127.841 58.9857 123.147 57.6204 114.451 59.6278C113.031 59.953 111.696 60.5721 110.53 61.4457C110.504 61.4619 110.481 61.4819 110.461 61.5047C109.676 62.228 108.678 63.1431 107.644 63.6179C106.574 64.1099 105.457 64.1296 104.52 62.966C104.496 62.9414 104.483 62.9192 104.461 62.8946C103.969 62.2526 103.499 61.4186 102.631 61.2538C100.801 60.9094 99.9102 62.7298 99.679 64.2599C99.4772 65.6744 99.893 66.9216 100.501 68.1098C101.01 69.0759 101.675 69.9511 102.469 70.7002C102.673 70.8975 102.859 71.1113 103.027 71.3398C102.951 71.3533 102.876 71.374 102.803 71.4013C102.635 71.4579 102.471 71.5253 102.311 71.603C100.097 72.5993 98.5203 75.0962 98.4859 78.0187C98.4859 78.1097 94.7737 78.0556 94.3039 78.0187C92.4933 77.8514 90.7098 77.3299 89.4355 75.9646C85.8193 72.0901 85.8365 66.3411 87.3224 61.8442C88.7295 57.5761 90.5204 53.4089 92.8672 49.5688C97.952 41.2589 105.841 35.1286 115.829 34.5776C118.224 34.4573 120.625 34.5975 122.99 34.9958C124.109 35.1722 125.216 35.4187 126.304 35.7338C136.485 40.1765 142.948 50.2478 142.889 62.0238" fill="#181818"/>
<path d="M136.983 156.759C135.78 159.846 132.916 161.612 130.587 160.695C128.257 159.777 127.342 156.549 128.542 153.462C129.743 150.375 132.609 148.606 134.938 149.526C137.268 150.446 138.186 153.674 136.983 156.761" fill="#A6A6A6"/>
<path d="M143.173 184.33C143.173 184.33 136.639 229.877 162.774 224.829C188.766 219.803 198.604 114.06 123.367 98.8525" stroke="black" stroke-width="1.88812" stroke-miterlimit="10"/>
<path d="M81.9822 140.481C81.9822 140.481 60.895 158.264 72.2578 176.05" stroke="black" stroke-width="1.88812" stroke-miterlimit="10"/>
<path d="M143.647 171.678C143.285 171.701 142.769 171.46 142.417 171.364C141.971 171.246 141.529 171.119 141.091 170.985C138.522 170.185 136.105 168.961 133.94 167.364C133.448 167.012 132.572 166.786 131.972 167.017C131.638 167.139 131.343 167.349 131.117 167.625C130.893 167.901 130.746 168.232 130.693 168.584C130.508 169.853 131.404 171.095 132.38 171.91C133.539 172.879 134.742 173.772 136.146 174.353C137.502 174.897 138.901 175.327 140.328 175.639C140.975 175.789 141.632 175.885 142.274 176.05" stroke="black" stroke-width="1.88812" stroke-miterlimit="10"/>
<path d="M151.74 159.356C152.006 160.759 152.2 162.215 152.067 163.639C151.957 164.845 151.524 166.252 150.183 166.545C149.928 166.612 149.664 166.636 149.401 166.616C144.353 166.318 140.193 164.574 135.443 161.14C130.692 157.706 129.02 165.615 133.359 167.017" stroke="black" stroke-width="1.88812" stroke-miterlimit="10"/>
<path d="M133.542 172.864C133.425 172.768 133.314 172.666 133.209 172.557C130.845 170.084 130.417 175.051 132.9 176.512L133.219 176.702C133.387 176.773 133.566 176.857 133.743 176.948C133.827 176.97 133.92 177.007 134.007 177.032C136.25 178.016 138.639 178.645 140.99 179.287C138.663 178.527 136.344 177.779 134.007 177.032C133.805 176.948 133.613 176.864 133.411 176.768C133.349 176.742 133.285 176.723 133.219 176.709C133.177 176.69 133.131 176.682 133.085 176.687C133.04 176.691 132.996 176.707 132.959 176.734C132.902 176.78 132.861 176.842 132.84 176.911C132.459 177.826 132.769 178.98 133.256 179.799C133.768 180.665 134.646 181.332 135.512 181.806C137.842 183.113 140.55 183.885 143.165 184.348C143.65 184.448 144.147 184.48 144.641 184.444" stroke="black" stroke-width="1.88812" stroke-miterlimit="10"/>
<path d="M165.736 190.079C165.736 190.079 157.719 176.416 156.826 164.537C156.28 157.184 154.12 155.627 152.575 155.521" stroke="black" stroke-width="1.88812" stroke-miterlimit="10"/>
<path d="M150.183 166.542L151.743 159.356L152.574 155.519L158.739 127.066C158.83 126.643 158.826 126.204 158.725 125.782C158.625 125.36 158.432 124.967 158.16 124.629C157.887 124.292 157.543 124.02 157.152 123.833C156.761 123.646 156.333 123.549 155.9 123.548H119.034C118.379 123.548 117.742 123.769 117.229 124.178C116.715 124.585 116.355 125.155 116.208 125.794L108.948 156.923L103.65 179.636L103.158 181.764C103.06 182.19 103.059 182.633 103.155 183.059C103.252 183.485 103.443 183.884 103.715 184.226C103.987 184.568 104.332 184.845 104.725 185.035C105.118 185.226 105.549 185.325 105.987 185.326H143.032" stroke="black" stroke-width="1.88812" stroke-miterlimit="10"/>
<path d="M104.476 62.1469C104.476 62.1469 106.427 53.8739 117.443 52.7767C128.458 51.6796 131.219 59.9107 131.219 59.9107L130.872 60.7397C130.872 60.7397 116.39 54.9292 108.392 63.2219C108.392 63.2219 105.512 64.5281 104.476 62.1518" fill="#A6A6A6"/>
<path d="M107.448 156.719L90.314 152.439C89.9054 152.337 89.4801 152.322 89.0653 152.394C88.6506 152.466 88.2553 152.624 87.9045 152.857C87.5539 153.09 87.2555 153.393 87.0284 153.748C86.8011 154.102 86.6503 154.5 86.5854 154.916C86.5202 155.332 86.5424 155.757 86.6503 156.164C86.7583 156.571 86.9497 156.951 87.2127 157.28C87.4754 157.609 87.8036 157.88 88.1768 158.075C88.5497 158.27 88.9593 158.386 89.3792 158.414L97.48 158.948" stroke="black" stroke-width="1.88812" stroke-miterlimit="10"/>
<path d="M148.481 108.919C148.481 108.919 111.057 139.236 78.4028 103.027" stroke="black" stroke-width="1.88812" stroke-miterlimit="10"/>
<path d="M77.2294 145.398C76.5283 138.235 72.9786 121.59 55.2395 122.055" stroke="black" stroke-width="1.88812" stroke-miterlimit="10"/>
<path d="M163.15 122.051C163.15 122.051 159.806 122.971 158.525 125.219" stroke="black" stroke-width="1.88812" stroke-miterlimit="10"/>
<path d="M27.3357 231.363H186.23" stroke="black" stroke-width="1.88812" stroke-miterlimit="10"/>
<path d="M132.71 72.479C134.208 73.7385 135.17 75.7951 135.17 78.1222C135.17 81.9844 132.486 85.1086 129.17 85.1086C128.795 85.1067 128.421 85.0629 128.056 84.9783C131.918 82.0263 132.7 72.479 132.7 72.479" fill="#A6A6A6"/>
<path d="M110.863 88.068C112.725 88.9945 114.762 89.515 116.84 89.5952C118.918 89.6754 120.989 89.3133 122.917 88.533C133.785 83.9943 133.369 70.6168 132.24 63.345C132.15 62.7551 132.022 62.1716 131.856 61.5984V61.5861C130.609 57.4287 127.355 54.0413 123.067 53.0795C114.762 51.2025 107.168 55.9109 104.017 62.2503" stroke="black" stroke-width="1.88812" stroke-miterlimit="10"/>
<path d="M131.959 61.7289C131.959 61.7289 131.925 61.6797 131.853 61.5985V61.5862C131.115 60.7547 126.842 56.7867 114.473 59.6379C113.054 59.9623 111.719 60.5818 110.555 61.4558C110.527 61.4715 110.502 61.4915 110.481 61.5148" stroke="black" stroke-width="1.88812" stroke-miterlimit="10"/>
<path d="M98.9908 81.8811H92.8728C88.4571 81.8811 84.9565 77.8368 83.4338 74.041C81.2936 68.7028 82.6638 63.2392 84.59 58.051C86.2037 53.7091 88.2554 49.4902 90.954 45.7141C96.9958 37.264 106.117 32.4769 116.602 33.3625C117.532 33.4412 118.458 33.5558 119.379 33.7069C133.458 35.9898 142.951 47.7609 142.88 62.0166C142.85 65.3282 142.419 68.6241 141.596 71.832C141.217 73.3505 140.41 74.7281 139.27 75.8007C138.13 76.8732 136.706 77.5953 135.168 77.8811" stroke="black" stroke-width="1.88812" stroke-miterlimit="10"/>
<path d="M103.032 71.3399C102.864 71.1111 102.677 70.8964 102.474 70.6978C101.679 69.95 101.014 69.0755 100.506 68.1099C99.8983 66.9217 99.4825 65.6745 99.6843 64.26C99.9106 62.7397 100.801 60.9095 102.636 61.2539C103.505 61.4212 103.967 62.2527 104.467 62.8947C106.366 65.3547 108.981 62.8824 110.585 61.3966" stroke="black" stroke-width="1.88812" stroke-miterlimit="10"/>
<path d="M132.71 72.479C134.208 73.7385 135.17 75.7951 135.17 78.1222C135.17 81.9844 132.486 85.1086 129.17 85.1086C128.795 85.1067 128.421 85.0629 128.056 84.9783" stroke="black" stroke-width="1.88812" stroke-miterlimit="10"/>
<path d="M119.871 77.2195C121.214 78.1223 124.459 78.8627 123.807 76.1863C123.025 73.0153 121.972 66.2405 128.42 65.7239C128.42 65.7239 131.259 65.8444 132.661 66.8087" stroke="black" stroke-width="1.88812" stroke-miterlimit="10"/>
<path d="M122.299 82.5207C122.299 82.5207 119.052 84.2427 117.443 80.811" stroke="black" stroke-width="1.88812" stroke-miterlimit="10"/>
<path d="M115.714 70.3557C115.588 71.4455 116.014 72.3877 116.666 72.4639C117.318 72.5402 117.948 71.7259 118.076 70.6288C118.203 69.5316 117.773 68.5993 117.124 68.523C116.474 68.4468 115.839 69.261 115.714 70.3557Z" fill="black"/>
<path d="M126.287 70.998C126.162 72.0853 126.587 73.03 127.239 73.1062C127.891 73.1825 128.521 72.3682 128.646 71.2711C128.772 70.1739 128.346 69.2391 127.697 69.1653C127.047 69.0915 126.413 69.9033 126.287 70.998Z" fill="black"/>
<path d="M119.871 66.4199C119.871 66.4199 117.883 63.3548 113.379 66.2625" stroke="black" stroke-width="1.88812" stroke-miterlimit="10"/>
<path d="M123.364 88.3313V105.335" stroke="black" stroke-width="1.88812" stroke-miterlimit="10"/>
<path d="M56.1428 190.079C56.1428 190.079 63.1514 183.437 72.2534 176.057C80.177 169.629 89.68 162.621 97.4856 158.95C98.4843 158.485 99.4536 158.07 100.396 157.72C102.644 156.864 105.057 156.527 107.453 156.736C107.955 156.778 108.454 156.845 108.949 156.938" stroke="black" stroke-width="1.88812" stroke-miterlimit="10"/>
<path d="M103.65 179.636C95.9528 181.941 91.1042 187.383 87.4461 195.021C85.0132 200.094 82.9074 205.926 79.0821 210.133C75.3651 214.194 71.0158 217.759 65.9802 220.052C56.8437 224.209 45.5942 223.889 39.6582 214.849C35.6435 208.718 34.0642 201.102 33.2622 193.939C31.8846 181.489 36.2339 146.394 55.2398 122.053C61.3455 114.222 68.9617 107.512 78.3933 103.02C85.0132 99.8758 92.4965 97.8192 100.979 97.2362L103.355 84.978" stroke="black" stroke-width="1.88812" stroke-miterlimit="10"/>
<path d="M160.185 225.218V231.363" stroke="black" stroke-width="1.88812" stroke-miterlimit="10"/>
<path d="M53.4686 223.024V231.363" stroke="black" stroke-width="1.88812" stroke-miterlimit="10"/>
<path d="M110.469 78.1221C110.492 79.9664 109.838 81.7548 108.629 83.1479C107.951 83.4613 107.213 83.6234 106.467 83.6227C103.153 83.6227 100.467 80.4985 100.467 76.6363C100.443 74.7923 101.099 73.0041 102.309 71.613C102.986 71.2979 103.724 71.135 104.472 71.1357C107.785 71.1357 110.469 74.2624 110.469 78.1221Z" fill="#A6A6A6"/>
<path d="M104.476 85.1085C107.786 85.1085 110.469 81.9806 110.469 78.1221C110.469 74.2636 107.786 71.1357 104.476 71.1357C101.167 71.1357 98.4836 74.2636 98.4836 78.1221C98.4836 81.9806 101.167 85.1085 104.476 85.1085Z" stroke="black" stroke-width="1.88812" stroke-miterlimit="10"/>
<path d="M175.723 17.0674C172.031 15.9668 168.095 15.9857 164.414 17.1217C160.733 18.2578 157.471 20.4599 155.042 23.4495C152.612 26.4393 151.124 30.0823 150.765 33.9179C150.405 37.7535 151.192 41.6096 153.024 44.9985C154.856 48.3871 157.653 51.1566 161.059 52.9561C164.465 54.7558 168.328 55.5049 172.161 55.1091C175.993 54.713 179.621 53.1895 182.587 50.7313C185.553 48.273 187.724 44.9904 188.825 41.2984C190.3 36.3476 189.749 31.0136 187.292 26.4693C184.835 21.9252 180.673 18.5432 175.723 17.0674ZM165.937 49.8936C165.578 49.7866 165.245 49.6102 164.955 49.3743C164.665 49.1384 164.424 48.8476 164.246 48.5187C164.068 48.1898 163.957 47.8292 163.919 47.4572C163.881 47.0853 163.916 46.7094 164.023 46.3512C164.13 45.9931 164.306 45.6592 164.542 45.3692C164.778 45.0792 165.069 44.8383 165.398 44.6607C166.062 44.3018 166.842 44.2214 167.565 44.4374C168.289 44.6533 168.897 45.1478 169.256 45.8122C169.615 46.4764 169.695 47.2563 169.479 47.9797C169.263 48.7032 168.769 49.3113 168.104 49.6703C167.44 50.0292 166.66 50.1096 165.937 49.8936ZM175.777 29.9824C175.736 30.0808 175.696 30.1767 175.659 30.2702C174.062 34.1969 172.077 37.954 169.733 41.4854C169.164 42.3464 167.383 41.815 167.378 40.7818C167.412 37.571 167.658 34.3659 168.116 31.1878C168.402 28.8656 168.18 24.8902 170.057 23.1042C171.723 21.5052 174.864 22.1915 176.345 23.7266C177.981 25.4314 176.564 28.1103 175.769 29.9824H175.777Z" fill="#C9C9C9"/>
<path d="M189.199 128.756C187.847 130.13 186.933 131.874 186.573 133.768C186.213 135.661 186.422 137.619 187.175 139.394C187.928 141.168 189.19 142.679 190.801 143.736C192.413 144.793 194.302 145.349 196.229 145.332C198.157 145.316 200.036 144.728 201.629 143.644C203.222 142.559 204.458 141.026 205.18 139.239C205.902 137.452 206.078 135.491 205.685 133.604C205.293 131.717 204.349 129.989 202.975 128.638C201.132 126.828 198.645 125.823 196.062 125.845C193.479 125.867 191.01 126.914 189.199 128.756ZM201.42 140.768C201.155 141.038 200.794 141.191 200.416 141.194C200.038 141.197 199.675 141.05 199.405 140.785C199.136 140.521 198.982 140.16 198.979 139.782C198.976 139.404 199.123 139.04 199.388 138.771C199.519 138.637 199.675 138.531 199.847 138.458C200.02 138.385 200.205 138.347 200.392 138.345C200.579 138.343 200.765 138.379 200.938 138.449C201.111 138.519 201.269 138.622 201.403 138.753C201.536 138.885 201.642 139.041 201.716 139.213C201.789 139.385 201.827 139.57 201.829 139.757C201.83 139.945 201.795 140.13 201.725 140.303C201.655 140.477 201.551 140.635 201.42 140.768ZM194.866 131.802C196.163 133.499 197.572 135.245 198.591 137.125C198.837 137.578 198.185 138.242 197.727 138.001C196.314 137.235 194.954 136.376 193.656 135.428C192.697 134.759 190.886 133.925 190.537 132.677C190.219 131.566 191.258 130.338 192.283 130.043C193.543 129.684 194.212 130.97 194.866 131.802Z" fill="#A6A6A6"/>
<path d="M227.403 50.7129C228.373 49.5188 228.968 48.0634 229.112 46.5313C229.255 44.9993 228.941 43.4588 228.21 42.1051C227.478 40.7513 226.361 39.6451 225.001 38.9258C223.64 38.2067 222.097 37.9071 220.566 38.065C219.036 38.2229 217.586 38.8313 216.401 39.8128C215.216 40.7946 214.349 42.1056 213.909 43.5803C213.468 45.0549 213.476 46.6268 213.929 48.0974C214.382 49.568 215.262 50.871 216.456 51.842C217.248 52.4868 218.161 52.9689 219.14 53.2612C220.119 53.5534 221.147 53.6499 222.163 53.5448C223.18 53.44 224.165 53.136 225.065 52.6501C225.964 52.164 226.758 51.506 227.403 50.7129ZM216.783 42.0807C216.877 41.9646 216.993 41.8684 217.124 41.7973C217.256 41.7262 217.4 41.6817 217.549 41.6662C217.697 41.6507 217.847 41.6647 217.99 41.7075C218.134 41.7501 218.267 41.8204 218.383 41.9147C218.499 42.0089 218.595 42.125 218.666 42.2564C218.738 42.3877 218.782 42.5319 218.798 42.6805C218.813 42.829 218.799 42.9791 218.756 43.1223C218.714 43.2655 218.643 43.3988 218.549 43.5149C218.359 43.7491 218.083 43.8982 217.783 43.9294C217.483 43.9604 217.183 43.8711 216.949 43.6809C216.715 43.4908 216.566 43.2153 216.534 42.9151C216.503 42.615 216.593 42.3149 216.783 42.0807ZM222.67 48.7227C221.511 47.4706 220.264 46.1963 219.307 44.7695C219.076 44.4276 219.553 43.8519 219.927 44.0094C221.111 44.5144 222.261 45.0979 223.368 45.756C224.18 46.216 225.683 46.74 226.055 47.7092C226.389 48.5677 225.656 49.6231 224.861 49.9232C223.88 50.302 223.25 49.3303 222.67 48.708V48.7227Z" fill="#A6A6A6"/>
<path d="M150.06 102.014C152.805 106.688 152.68 110.016 151.966 115.411C151.681 117.465 153.893 118.855 155.686 117.822C171.531 108.72 186.32 115.918 205.213 111.455C212.15 109.827 220.799 106.452 226.728 101.025C228.696 98.1039 229.746 94.6623 229.747 91.1406C229.747 76.3806 209.575 64.3979 184.697 64.3979C168.754 64.3979 154.746 69.318 146.739 76.7299C146.739 76.7299 146.739 76.7299 146.717 76.7521C144.685 79.7951 143.568 83.121 143.568 86.5921C143.555 91.8885 147.494 97.6301 150.06 102.014Z" fill="#C9C9C9"/>
<path d="M143.628 86.5919C143.628 86.7149 143.628 86.8379 143.628 86.9658C143.716 92.1318 146.309 96.946 149.379 101.111C151.436 103.896 153.876 106.99 153.298 110.405C153.052 111.91 152.203 113.275 151.992 114.786C151.78 116.296 152.584 118.181 154.11 118.259C155.079 118.309 155.903 117.62 156.67 117.029C161.209 113.512 167.108 112.196 172.845 111.964C178.582 111.733 184.311 112.491 190.05 112.653C198.326 112.899 206.731 111.856 214.375 108.683C221.223 105.844 227.499 101.185 231.619 94.9608C235.668 88.8501 233.275 79.9769 228.955 74.6633C224.906 69.6769 219.039 66.4863 213.022 64.2379C196.837 58.1961 178.365 58.3339 162.405 64.9537C157.667 66.9217 153.084 69.4801 149.532 73.1824C146.07 76.7888 143.664 81.5956 143.628 86.5919Z" stroke="black" stroke-width="1.88812" stroke-miterlimit="10"/>
<path d="M210.033 92.4714C213.465 92.4714 216.247 89.6894 216.247 86.2574C216.247 82.8255 213.465 80.0435 210.033 80.0435C206.601 80.0435 203.819 82.8255 203.819 86.2574C203.819 89.6894 206.601 92.4714 210.033 92.4714Z" fill="white"/>
<path d="M189.934 92.4714C193.366 92.4714 196.148 89.6894 196.148 86.2574C196.148 82.8255 193.366 80.0435 189.934 80.0435C186.502 80.0435 183.72 82.8255 183.72 86.2574C183.72 89.6894 186.502 92.4714 189.934 92.4714Z" fill="white"/>
<path d="M169.445 92.4714C172.876 92.4714 175.659 89.6894 175.659 86.2574C175.659 82.8255 172.876 80.0435 169.445 80.0435C166.013 80.0435 163.231 82.8255 163.231 86.2574C163.231 89.6894 166.013 92.4714 169.445 92.4714Z" fill="white"/>
</svg>
