<svg width="17" height="17" viewBox="0 0 17 17" fill="none" xmlns="http://www.w3.org/2000/svg">
<path d="M15.5835 4.60413H11.3335" stroke="#292D32" stroke-width="1.5" stroke-miterlimit="10" stroke-linecap="round" stroke-linejoin="round"/>
<path d="M4.24984 4.60413H1.4165" stroke="#292D32" stroke-width="1.5" stroke-miterlimit="10" stroke-linecap="round" stroke-linejoin="round"/>
<path d="M7.08317 7.08333C8.45238 7.08333 9.56234 5.97337 9.56234 4.60417C9.56234 3.23496 8.45238 2.125 7.08317 2.125C5.71396 2.125 4.604 3.23496 4.604 4.60417C4.604 5.97337 5.71396 7.08333 7.08317 7.08333Z" stroke="#292D32" stroke-width="1.5" stroke-miterlimit="10" stroke-linecap="round" stroke-linejoin="round"/>
<path d="M15.5833 12.3959H12.75" stroke="#292D32" stroke-width="1.5" stroke-miterlimit="10" stroke-linecap="round" stroke-linejoin="round"/>
<path d="M5.6665 12.3959H1.4165" stroke="#292D32" stroke-width="1.5" stroke-miterlimit="10" stroke-linecap="round" stroke-linejoin="round"/>
<path d="M9.91667 14.875C11.2859 14.875 12.3958 13.765 12.3958 12.3958C12.3958 11.0266 11.2859 9.91663 9.91667 9.91663C8.54746 9.91663 7.4375 11.0266 7.4375 12.3958C7.4375 13.765 8.54746 14.875 9.91667 14.875Z" stroke="#292D32" stroke-width="1.5" stroke-miterlimit="10" stroke-linecap="round" stroke-linejoin="round"/>
</svg>
