<svg xmlns="http://www.w3.org/2000/svg" xmlns:xlink="http://www.w3.org/1999/xlink" width="120.557" height="100.125" viewBox="0 0 120.557 100.125">
  <defs>
    <linearGradient id="linear-gradient" x1="0.5" y1="1" x2="0.5" gradientUnits="objectBoundingBox">
      <stop offset="0" stop-color="gray" stop-opacity="0.251"/>
      <stop offset="0.54" stop-color="gray" stop-opacity="0.122"/>
      <stop offset="1" stop-color="gray" stop-opacity="0.102"/>
    </linearGradient>
  </defs>
  <g id="Group_19" data-name="Group 19" transform="translate(0.007 0.002)">
    <path id="Path_183" data-name="Path 183" d="M126,72.231a8.883,8.883,0,0,0-1.134,3.162,41.158,41.158,0,0,1-13.58,21.495c-2.574,2.2-5.707,5.148-5.144,9.091.3,2.117,1.633,3.676,2.622,5.4a18.475,18.475,0,0,1,1.758,12.842c-1.124,4.918-4.265,9.508-3.293,14.481.6,3.061,2.635,5.24,4.592,7.112q4.58,4.379,9.451,8.2c2.177,1.709,4.493,3.372,7.03,3.589,2.234.191,4.423-.759,6.544-1.7a14.668,14.668,0,0,0,5.25-3.316,30.636,30.636,0,0,1,2.84-3.334c2.549-2.061,5.822-.755,8.745.128a27.5,27.5,0,0,0,20.838-2.135c10.066-5.293,17.738-16.409,27.584-22.374,4.233-2.565,8.838-4.157,12.758-7.46a25.779,25.779,0,0,0,5.608-6.791,32.111,32.111,0,0,0,4.1-18.024c-.463-6.385-3.056-12.538-7.128-16.143-4.36-3.858-9.866-4.579-14.827-6.9-5.122-2.393-9.679-6.505-14.753-9.073a27.3,27.3,0,0,0-26.019.649c-5.521,3.125-11.118,10.416-17.267,10.969C138.2,72.494,129.424,67.586,126,72.231Z" transform="translate(-102.103 -57.51)" fill="#3445c6" opacity="0.1"/>
    <path id="Path_207" data-name="Path 207" d="M887.211,610.282Z" transform="translate(-794.183 -538.528)" opacity="0.2"/>
    <path id="Path_208" data-name="Path 208" d="M117.974,645.66s.955,1.4-.441,3.508-2.547,3.892-2.081,5.209c0,0,2.106-3.92,3.821-3.974S119.859,648.017,117.974,645.66Z" transform="translate(-110.315 -570.643)" fill="#3445c6"/>
    <path id="Path_209" data-name="Path 209" d="M118.394,645.66a1.819,1.819,0,0,1,.195.439c1.673,2.2,2.563,4.251.956,4.3-1.5.048-3.294,3.045-3.725,3.8a1.764,1.764,0,0,0,.051.172s2.106-3.92,3.821-3.974S120.279,648.017,118.394,645.66Z" transform="translate(-110.734 -570.643)" opacity="0.1"/>
    <path id="Path_210" data-name="Path 210" d="M152.228,657.481c0,.492-.049.893-.114.893s-.114-.4-.114-.893.062-.255.122-.255S152.228,656.99,152.228,657.481Z" transform="translate(-142.791 -580.683)" fill="#ffd037"/>
    <path id="Path_211" data-name="Path 211" d="M153.466,661.926c-.386.236-.723.383-.751.318s.26-.3.646-.534.234-.064.263,0S153.852,661.69,153.466,661.926Z" transform="translate(-143.422 -584.54)" fill="#ffd037"/>
    <path id="Path_212" data-name="Path 212" d="M77.468,645.66s-.955,1.4.441,3.508,2.547,3.892,2.081,5.208c0,0-2.106-3.92-3.821-3.975S75.583,648.017,77.468,645.66Z" transform="translate(-74.855 -570.643)" fill="#3445c6"/>
    <path id="Path_213" data-name="Path 213" d="M77.449,645.66a1.819,1.819,0,0,0-.195.439c-1.672,2.2-2.563,4.251-.96,4.3,1.5.048,3.294,3.045,3.725,3.8a1.776,1.776,0,0,1-.051.172s-2.106-3.92-3.821-3.975S75.564,648.017,77.449,645.66Z" transform="translate(-74.836 -570.643)" opacity="0.1"/>
    <path id="Path_214" data-name="Path 214" d="M78.56,657.481c0,.492.049.893.114.893s.114-.4.114-.893-.062-.255-.122-.255S78.56,656.99,78.56,657.481Z" transform="translate(-77.721 -580.683)" fill="#ffd037"/>
    <path id="Path_215" data-name="Path 215" d="M71.379,661.926c.386.236.723.383.751.318s-.26-.3-.646-.534-.234-.064-.263,0S70.992,661.69,71.379,661.926Z" transform="translate(-71.15 -584.54)" fill="#ffd037"/>
    <path id="Path_216" data-name="Path 216" d="M81.22,701.509s2.671-.092,3.475-.733,4.1-1.4,4.307-.383,4.013,5.116,1,5.143-7.005-.526-7.808-1.069S81.22,701.509,81.22,701.509Z" transform="translate(-80.078 -617.96)" fill="#a8a8a8"/>
    <path id="Path_217" data-name="Path 217" d="M90.065,716.206c-3.015.027-7.005-.526-7.809-1.073-.612-.417-.856-1.913-.937-2.6H81.23s.169,2.411.972,2.958,4.794,1.1,7.809,1.073c.871-.008,1.171-.355,1.155-.867C91.045,716.007,90.712,716.2,90.065,716.206Z" transform="translate(-80.087 -628.984)" opacity="0.2"/>
    <path id="Path_218" data-name="Path 218" d="M258.315,174.478a12.505,12.505,0,0,0-3.5.5l-4.2-14.515-.055-.189.358-.117a1.656,1.656,0,0,0-1.405-2.386l-.189.071a23.965,23.965,0,0,0-5.386-.68v-2.9a14.91,14.91,0,0,1,.758-4.654c.06-.182.114-.353.155-.517.009-.033.018-.066.026-.1l.015-.06c.01-.042.022-.085.031-.128s.014-.059.019-.089.014-.06.019-.089l.008-.042c.009-.043.017-.085.025-.128a.291.291,0,0,1,.009-.054c0-.018.013-.071.018-.107s.007-.048.01-.073.008-.054.011-.079a.252.252,0,0,1,.006-.05.732.732,0,0,0,.011-.093v-.024c0-.037.008-.074.01-.11a.313.313,0,0,0,0-.048v-.585a9.7,9.7,0,0,1-.018-1.485l.16-2.235a3.742,3.742,0,0,0,1.29-.765s.1-3.333.407-5.971a10.454,10.454,0,0,0-3.058-8.829c-.205-.19-.418-.372-.641-.542a4.919,4.919,0,0,0,.1-.548,3.31,3.31,0,0,1,.362-.583,5.433,5.433,0,0,1,.675-.51,2.936,2.936,0,0,0,.821-1.672,6.762,6.762,0,0,0-.114-3.876,3.166,3.166,0,0,0-2.888-2.142c-.385.019-.761.128-1.14.177a16.868,16.868,0,0,1-3-.323,1.555,1.555,0,0,0-.858.128,1.633,1.633,0,0,0-.516.51,5.759,5.759,0,0,0-.921,2.267c-.123.621-.123,1.184-.81,1.276-.774.108-3.258-.473-2.736,1.358.25.866,1.448.893,2.062,1.531.319.332.466.821.817,1.117l.014.01c-1.6.027-4.23.733-5.782,4.686-2.341,5.964-3.747,7.908-5.62,9.466-1.783,1.481-2.611,6.25-2.688,6.707-.494,1.394-.763,3.954.814,8.2,1.336,3.6,2.5,6.056,3.318,7.9l-.161-.017a8.272,8.272,0,0,1-1.019-.152c-1.321-.281-4.65-.867-5.546.128-1.125,1.245-.75,3.425,2.249,3.736a15.248,15.248,0,0,0,2.062.054V172.3l-.065.045h0c-.587.392-1.152.742-1.533.973l-.139.084a3.769,3.769,0,0,1-.274-.638l-3.1,2.278,1.536,1.427-1.563,1.807-.146-.147a12.97,12.97,0,0,0-9-3.709c-7.608,0-13.775,6.83-13.775,15.255s6.168,15.255,13.775,15.255c6.814,0,12.472-5.485,13.579-12.676a30.726,30.726,0,0,0,6.659.023v1.758h7.025v-2.125l.176-.013c3.161-.255,1.522-1.815,1.522-1.815a4.028,4.028,0,0,1-2.084-.846c-.2-.139-.4-.265-.608-.383a3.648,3.648,0,0,0-.163-2.276l16.022-18.495,2.448,7.577-.163.075a15.383,15.383,0,0,0-8.289,14c0,8.426,6.168,15.255,13.775,15.255s13.776-6.835,13.776-15.254S265.92,174.478,258.315,174.478Zm.734,26.691-.57-9.846a1.373,1.373,0,0,0,.309-.087l4.707,8.4a9.635,9.635,0,0,1-4.446,1.528Zm-9.188-4.7,7.209-5.787.014.02-2.957,9.552A10.709,10.709,0,0,1,249.861,196.465Zm13.29-16.955-3.956,8.754a1.459,1.459,0,0,0-.655-.4l-.1-.33.272-9.362a9.58,9.58,0,0,1,4.435,1.335Zm-4.916,7.3-2.41-8.32a9.469,9.469,0,0,1,2.442-.32h.219Zm-4.283-7.606c.054-.027.114-.051.162-.078l2.973,9.214a1.674,1.674,0,0,0-.285.459l-7.621-4.732a11.675,11.675,0,0,1,.981-1.594l.85-1.034A10.457,10.457,0,0,1,253.952,179.2Zm-4.873,5.091,7.653,4.753a1.824,1.824,0,0,0-.052.431v.065l-8.806-.173a12.437,12.437,0,0,1,1.2-5.074Zm10.684,5.213,8.437-3.256a12.617,12.617,0,0,1-1.146,9.6l-7.509-5.3a1.782,1.782,0,0,0,.228-.869q0-.089-.015-.177Zm8.369-3.5-8.413,3.247a3.625,3.625,0,0,0-.342-.777l3.989-8.838A11.361,11.361,0,0,1,268.126,186Zm-19.809-24.783.592,1.829-10.2,3.518L238.6,164.2l5.813-1.913a1.6,1.6,0,0,1-.024.436,3.849,3.849,0,0,0,.4-.559l3.467-1.14Zm-39.173,39.9-.57-9.821a1.36,1.36,0,0,0,.342-.05l4.673,8.351A9.633,9.633,0,0,1,209.149,201.114Zm-9.188-4.7,7.209-5.781.014.02-2.957,9.546A10.71,10.71,0,0,1,199.961,196.413Zm-1.991-7.1a12.436,12.436,0,0,1,1.2-5.074l7.783,4.833a1.8,1.8,0,0,0-.079.412Zm15.282-9.856-3.605,7.986-.552.638a1.366,1.366,0,0,0-.539-.112h-.022l.282-9.847A9.576,9.576,0,0,1,213.251,179.457Zm3.449,3.278a11.935,11.935,0,0,1,1.525,3.213l-7.579,2.925Zm-6.491,6.582L218.3,186.2q.114.422.21.858c.014.066.026.128.039.2-3.637.846-7.029,1.779-8.448,2.179Zm-1.91-1.344a1.382,1.382,0,0,0-.646.2l-3.065-9.272a9.492,9.492,0,0,1,3.78-.784h.219Zm-.851.344a1.631,1.631,0,0,0-.4.517l-7.76-4.823a11.679,11.679,0,0,1,.98-1.6l.853-1.038a10.4,10.4,0,0,1,3.251-2.383Zm11.115,3.591a12.179,12.179,0,0,1-1.411,3.889l-7.37-5.2C211.285,190.863,214.823,191.463,218.563,191.908Zm3.291-5.587A15.935,15.935,0,0,0,219.2,180.2l.361-.366,3.141,3.432v3.1q-.4.078-.813.161c-.013-.068-.024-.134-.038-.2Zm.851-6.519-.068-.074.068.063Zm2.437-4.494.008-.006.172-.128.076-.057.084-.062.1-.07.089-.064.108-.078.09-.064.132-.092.081-.056.141-.1a6.761,6.761,0,0,0,.383,1.684l.044,4.57a8.914,8.914,0,0,1-1.506-2.846ZM238.2,155.283c.277.275.456.446.456.446s.587.592,1.255,1.357c-.594,0-1.146,0-1.63.014Zm.2,4.547c.952.037,2.19.074,3.507.084.009.032.018.064.024.093a5.836,5.836,0,0,1,.788.339l-4.224,1.6Zm1.074-8.38a33.357,33.357,0,0,0-1.931-4.48,7.02,7.02,0,0,1,3.551-4.634l-.014.175-.007.094c-.062.8-.132,1.786-.193,2.793v.059q-.01.18-.022.361v.063l-.008.148-.008.145-.007.128-.014.255v.073q0,.11-.01.219v.085q-.006.128-.011.263v.015q-.007.147-.011.291v.043q0,.128-.009.265v.02q-.01.292-.016.57v.02c0,.185-.007.364-.009.536v.511h0v.236c0,.143.008.277.015.4v.023c.007.12.016.231.026.329v.023q.007.063.015.119v.02c.007.041.013.08.021.115v.014c.006.029.013.056.019.08l.006.022a.64.64,0,0,0,.026.073,12.691,12.691,0,0,1,.331,3.162c-1-1.452-1.74-2.639-1.74-2.639Zm-14.341,34.279v-3.677l1.532,1.421h0l.022,2.259c-.49.054-1.011.128-1.555.207Zm0-19.1c.4-.056.786-.128,1.164-.2a4.4,4.4,0,0,1,.064.959v1.945h.079a15.5,15.5,0,0,0-1.306,1.037v-3.744Zm-9.91,14.348-5.039,5.825,3.262-7.226a10.472,10.472,0,0,1,1.629,1.255C215.135,180.882,215.183,180.938,215.232,180.98Zm-17.266,8.649v-.057l8.911.176a1.786,1.786,0,0,0,.17.659l-7.218,5.795A12.338,12.338,0,0,1,197.966,189.63Zm10.4,11.519a9.5,9.5,0,0,1-3.924-.849l2.921-9.439a1.415,1.415,0,0,0,.98.427l.57,9.843C208.734,201.142,208.551,201.149,208.368,201.149Zm5.428-1.694-4.649-8.3a1.506,1.506,0,0,0,.478-.362l7.4,5.222A11.022,11.022,0,0,1,213.8,199.455Zm18.827-14.677a2.727,2.727,0,0,0-.829-.128h-.187a2.753,2.753,0,0,0-1.364.361,10.446,10.446,0,0,1,.145-4.458,15.819,15.819,0,0,0,.593-2.5l.952-6.023,17.709-6.724.217.671Zm15.243,4.9v-.057l8.837.175a5.2,5.2,0,0,0,.239.661l-7.218,5.795A12.34,12.34,0,0,1,247.866,189.682Zm10.4,11.519a9.5,9.5,0,0,1-3.924-.849l2.921-9.439a1.415,1.415,0,0,0,.98.427l.57,9.844Q258.543,201.2,258.268,201.2Zm5.429-1.693L259,191.128a1.55,1.55,0,0,0,.4-.367l7.523,5.307A11.022,11.022,0,0,1,263.7,199.508Z" transform="translate(-180.57 -110.215)" fill="url(#linear-gradient)"/>
    <path id="Path_219" data-name="Path 219" d="M657.438,596.022l-.714-12.487-.015-.027-.72.281-3.316,10.818-5.272-4.184,8.4-6.812.008-.027.048-.019.541-.44-8.8-5.524-2.158,2.653.342,2.487,10.122.2v.255l-10.313-.207-.388-2.82,2.951-3.629,4.413-5.761.079.238.935-1.148,3.481.7v-.154l.228.008v.193l5.17,1.036-4.825,10.8-.7.57v.135l11.148-4.347-1.323,11.634-9.461-6.744-.333-.209,5.578,10.063Zm-.456-12.033.667,11.656,4.565-2.217Zm-9.184,6.434,4.763,3.779,3.116-10.171Zm9.383-7.1.238.149L666.578,590l1.231-10.825Zm-.809-.918.286.517.05-.041.342-12.057-3.39-.681-.93,1.148Zm-8.593-4.981,8.53,5.357-.148-.272-3.6-11-4.24,5.214Zm9.5-6.555-.342,11.823.515-.418,4.663-10.436Z" transform="translate(-579.775 -504.52)" fill="#535461"/>
    <path id="Path_220" data-name="Path 220" d="M231.239,595.6l-.715-12.492-.015-.027-.72.281-3.315,10.823-5.272-4.182,8.4-6.812.008-.027.048-.019.541-.44-8.8-5.524-2.157,2.653.342,2.487,10.124.207v.255l-10.313-.207-.39-2.824,2.952-3.63,4.417-5.765.079.239.935-1.148,3.472.7v-.154l.228.008v.193l5.17,1.036-4.82,10.792-.7.57v.135l11.147-4.347-1.323,11.634-9.46-6.744-.333-.209,5.578,10.061Zm-.456-12.033.667,11.656,4.565-2.217ZM221.6,590l4.763,3.779,3.116-10.171Zm9.383-7.1.238.149,9.158,6.531,1.231-10.825Zm-.809-.918.286.517.05-.041.342-12.057-3.39-.679-.93,1.148Zm-8.6-4.982,8.53,5.357-.148-.272-3.6-11L222.12,576.3Zm9.506-6.555-.342,11.827.515-.418,4.663-10.436Z" transform="translate(-202.154 -504.153)" fill="#535461"/>
    <path id="Path_265" data-name="Path 265" d="M0,0,7.241.407l.129,2.3L.129,2.3Z" transform="translate(39.237 65.324) rotate(44.62)" fill="#6c63ff"/>
    <path id="Path_266" data-name="Path 266" d="M0,0,7.241.407l.129,2.3L.129,2.3Z" transform="translate(39.237 65.324) rotate(44.62)" opacity="0.1"/>
    <path id="Path_221" data-name="Path 221" d="M425.63,498.06a28.419,28.419,0,0,0,3.918-2.742,15.068,15.068,0,0,1,2.112-1.726l3.545-2.415,7.409-.638.342,1.4s.57,2.041-5.129,3.827a22.511,22.511,0,0,0-8.549,4.592S425.63,501.759,425.63,498.06Z" transform="translate(-385.232 -435.309)" fill="#db8b8b"/>
    <path id="Path_222" data-name="Path 222" d="M429.579,549.614c-.2.172-.3.272-.3.272s-3.647,1.4-3.647-2.3c0,0,.177-.1.456-.279a3.1,3.1,0,0,0,2.688,1.682h.386Z" transform="translate(-385.232 -484.837)" opacity="0.1"/>
    <path id="Path_223" data-name="Path 223" d="M442.848,492.612c-.317.751-1.41,1.986-5.022,3.117a23.733,23.733,0,0,0-8.247,4.32c-.2.172-.3.272-.3.272s-3.647,1.4-3.647-2.3c0,0,.177-.1.456-.279a23.787,23.787,0,0,0,3.458-2.468,15.019,15.019,0,0,1,2.112-1.726l3.545-2.415,1.32-.114,6.089-.524.342,1.4A1.148,1.148,0,0,1,442.848,492.612Z" transform="translate(-385.232 -435.274)" opacity="0.05"/>
    <path id="Path_224" data-name="Path 224" d="M402.651,543l-3.021,2.232,8.845,8.291s1.3-.893.616-1.913a8.423,8.423,0,0,1-2.394-5.23l-.684-1.02h-.386A3.2,3.2,0,0,1,402.65,543Z" transform="translate(-362.195 -481.074)" fill="#abb1d1"/>
    <path id="Path_225" data-name="Path 225" d="M527.534,492.612c-1.824-.986-6.276-1.092-6.276-1.092l-.048-.5,6.089-.524.342,1.4A1.17,1.17,0,0,1,527.534,492.612Z" transform="translate(-469.917 -435.274)" opacity="0.1"/>
    <path id="Path_226" data-name="Path 226" d="M511,400.531s5.357.128,6.725,1.4l-.684-15.434H509.63Z" transform="translate(-459.657 -344.539)" fill="#abb1d1"/>
    <path id="Path_227" data-name="Path 227" d="M511,400.031s5.357.128,6.725,1.4L517.039,386H509.63Z" transform="translate(-459.657 -344.103)" opacity="0.05"/>
    <path id="Path_228" data-name="Path 228" d="M643.126,556.12a12.063,12.063,0,0,0-3.58.541,12.262,12.262,0,0,0-1.762.7c-6.311,3.061-9.53,10.968-7.454,18.306s8.776,11.73,15.512,10.168,11.324-8.571,10.624-16.229S650,556.123,643.125,556.12Zm-.046,26.287c-4.763,0-8.881-3.717-9.893-8.926s1.355-10.5,5.687-12.717a9.33,9.33,0,0,1,1.66-.659,9.514,9.514,0,0,1,10.336,3.729,12.427,12.427,0,0,1,1.377,12.054,10.115,10.115,0,0,1-9.165,6.519Z" transform="translate(-566.043 -492.524)" fill="#535461"/>
    <path id="Path_229" data-name="Path 229" d="M557.018,422.045s13.41-.51,13.683,1.43-13.41,1.122-13.41,1.122A2.225,2.225,0,0,1,557.018,422.045Z" transform="translate(-501.373 -375.498)" fill="#535461"/>
    <path id="Path_230" data-name="Path 230" d="M557.018,422.045s13.41-.51,13.683,1.43-13.41,1.122-13.41,1.122A2.225,2.225,0,0,1,557.018,422.045Z" transform="translate(-501.373 -375.498)" opacity="0.05"/>
    <circle id="Ellipse_28" data-name="Ellipse 28" transform="translate(46.705 87.893)" fill="none" stroke="#c1272d" stroke-miterlimit="10" stroke-width="1"/>
    <path id="Path_300" data-name="Path 300" d="M0,0H2.372V23.071H0Z" transform="translate(42.417 54.307)" fill="#3445c6"/>
    <path id="Path_231" data-name="Path 231" d="M445.712,483.28v1.777a22.2,22.2,0,0,1-2.372.216V483.28Z" transform="translate(-400.923 -428.975)" opacity="0.1"/>
    <path id="Path_232" data-name="Path 232" d="M408.5,464.387a7.974,7.974,0,0,1-.992-.149c-1.286-.276-4.527-.853-5.4.128-1.094,1.224-.729,3.369,2.19,3.675s7.937-.51,8.941-1.736A8.567,8.567,0,0,0,408.5,464.387Z" transform="translate(-363.89 -411.994)" fill="#535461"/>
    <path id="Path_233" data-name="Path 233" d="M387.4,416.047l24.9-8.677.821,2.144-25.543,9.8Z" transform="translate(-343.25 -355.411)" fill="#3445c6"/>
    <path id="Path_234" data-name="Path 234" d="M452.23,447.185l17.971-19.8,1,1.633-17.151,20.009Z" transform="translate(-400.69 -372.869)" fill="#3445c6"/>
    <path id="Path_235" data-name="Path 235" d="M703.359,563.8a9.325,9.325,0,0,0-1.66.659l-1.09-3.407a12.261,12.261,0,0,1,1.762-.7Z" transform="translate(-628.869 -496.214)" opacity="0.1"/>
    <path id="Path_236" data-name="Path 236" d="M598.072,405.756l-1.277.816-8.907-27.848-.4-1.246,2.1-1.328.525,1.834Z" transform="translate(-520.533 -328.174)" fill="#3445c6"/>
    <path id="Path_237" data-name="Path 237" d="M590.114,377.984l-2.225.74-.4-1.246,2.1-1.328Z" transform="translate(-520.533 -328.174)" opacity="0.1"/>
    <path id="Path_238" data-name="Path 238" d="M561.581,432.058l12.5-4.8a1.626,1.626,0,0,1,1.368,2.348l-12.588,4.185S560.944,434,561.581,432.058Z" transform="translate(-505.572 -380.1)" fill="#535461"/>
    <path id="Path_239" data-name="Path 239" d="M230.137,567.422a15.739,15.739,0,0,0-2.7-6.2,14.521,14.521,0,0,0-1.615-1.857,12.31,12.31,0,0,0-16.389-.985c-5.026,3.888-7.068,11.086-4.966,17.505s7.815,10.439,13.9,9.774,10.991-5.845,11.942-12.6a16.969,16.969,0,0,0,.162-2.337A16.712,16.712,0,0,0,230.137,567.422Zm-13.13,14.585c-4.257,0-8.056-2.992-9.5-7.473a12.2,12.2,0,0,1,3.039-12.545,9.267,9.267,0,0,1,11.575-1.079,11.845,11.845,0,0,1,4.851,11.809C226.087,578.1,221.9,582.009,217.007,582.008Z" transform="translate(-188.549 -492.176)" fill="#535461"/>
    <path id="Path_240" data-name="Path 240" d="M411.075,650.782a16.956,16.956,0,0,1-.161,2.334c-1.095-.086-2.225-.213-3.333-.341a12.76,12.76,0,0,0-.09-4.577c1.079-.255,2.182-.5,3.258-.719A16.709,16.709,0,0,1,411.075,650.782Z" transform="translate(-369.159 -572.231)" opacity="0.1"/>
    <path id="Path_241" data-name="Path 241" d="M445.712,642.89V645.6H443.34v-2.3C444.161,643.148,444.959,643.006,445.712,642.89Z" transform="translate(-400.923 -568.226)" opacity="0.1"/>
    <path id="Path_242" data-name="Path 242" d="M326.881,645.928s19.158-5.612,20.708-3.471,3.193,5-1.638,6.022-19.432-1.736-19.432-1.736Z" transform="translate(-297.419 -567.424)" fill="#3445c6"/>
    <path id="Path_243" data-name="Path 243" d="M382.129,586.177l-2.435,2.494a10.907,10.907,0,0,0-1.454-1.694l2.273-2.657A14.524,14.524,0,0,1,382.129,586.177Z" transform="translate(-343.243 -517.127)" opacity="0.1"/>
    <path id="Path_244" data-name="Path 244" d="M252.94,492.142,267.262,475.4l.457,3.879-14.049,14.394Z" transform="translate(-224.115 -414.764)" fill="#3445c6"/>
    <ellipse id="Ellipse_29" data-name="Ellipse 29" cx="1.46" cy="1.634" rx="1.46" ry="1.634" transform="translate(27.182 76.867)" opacity="0.1"/>
    <ellipse id="Ellipse_30" data-name="Ellipse 30" cx="1.46" cy="1.634" rx="1.46" ry="1.634" transform="translate(26.999 76.867)" fill="#535461"/>
    <ellipse id="Ellipse_31" data-name="Ellipse 31" cx="1.46" cy="1.634" rx="1.46" ry="1.634" transform="translate(75.486 76.714)" opacity="0.1"/>
    <ellipse id="Ellipse_32" data-name="Ellipse 32" cx="1.46" cy="1.634" rx="1.46" ry="1.634" transform="translate(75.578 76.918)" fill="#535461"/>
    <ellipse id="Ellipse_33" data-name="Ellipse 33" cx="2.919" cy="3.267" rx="2.919" ry="3.267" transform="translate(48.164 73.601)" opacity="0.1"/>
    <ellipse id="Ellipse_34" data-name="Ellipse 34" cx="2.919" cy="3.267" rx="2.919" ry="3.267" transform="translate(48.347 73.601)" fill="#535461"/>
    <path id="Path_267" data-name="Path 267" d="M1.275.052h0a.722.722,0,0,1,.764.79L1.819,5.006a.937.937,0,0,1-.852.879h0A.722.722,0,0,1,.2,5.094L.422.93A.937.937,0,0,1,1.275.052Z" transform="matrix(0.801, -0.599, 0.599, 0.801, 49.434, 77.346)" fill="#6c63ff"/>
    <path id="Path_245" data-name="Path 245" d="M601.867,296.648l-.271,3.841a9.649,9.649,0,0,0,.017,1.46,6.042,6.042,0,0,1-.376,2.33,14.807,14.807,0,0,0-.737,4.579v4.371l-2.622-.51s.114-6.122-.342-7.143.342-10.077.342-10.077Z" transform="translate(-537.419 -265.146)" fill="#db8b8b"/>
    <path id="Path_246" data-name="Path 246" d="M601.743,298.551l-.137,1.938a9.632,9.632,0,0,0,.018,1.459,6.051,6.051,0,0,1-.376,2.332,14.809,14.809,0,0,0-.737,4.579v4.371l-2.622-.51s.114-6.122-.342-7.143c-.323-.723-.017-5.477.189-8.19.086-1.116.153-1.886.153-1.886l3.989,1.148Z" transform="translate(-537.429 -265.146)" opacity="0.05"/>
    <path id="Path_247" data-name="Path 247" d="M478.52,484.633l-.986,6.275a15.7,15.7,0,0,1-.57,2.462,12.227,12.227,0,0,0,.072,5.6c.124.6.228.974.228.974l-2.964,1.786-.912-.765v-.51l-.114-11.352a8.92,8.92,0,0,1,0-5.485,4.724,4.724,0,0,0,.271-1.048,31.717,31.717,0,0,0,.3-3.288s1.824-3.444,3.989-1.148a4.7,4.7,0,0,1,1.165,3.01A10.021,10.021,0,0,1,478.52,484.633Z" transform="translate(-427.064 -423.794)" fill="#db8b8b"/>
    <path id="Path_248" data-name="Path 248" d="M484.463,481.112c-1.581,1.051-4.331,1.348-5.453,1.426a31.708,31.708,0,0,0,.3-3.288s1.824-3.444,3.989-1.148A4.7,4.7,0,0,1,484.463,481.112Z" transform="translate(-432.527 -423.768)" opacity="0.1"/>
    <path id="Path_249" data-name="Path 249" d="M440.818,352.505a20.857,20.857,0,0,0-3.419,2.551c-1.824,1.658-6.383,1.786-6.383,1.786v-1.913c.114-2.3-1.824-4.847-4.445-11.99-1.674-4.561-1.211-7.143-.657-8.418a3.051,3.051,0,0,1,.657-1.02l14.248,3.061.509,1.709,1.086,3.648s-3.989.255-4.673.638-.228,3.827-.228,3.827C436.829,349.954,440.818,352.505,440.818,352.505Z" transform="translate(-385.032 -298.299)" fill="#abb1d1"/>
    <path id="Path_250" data-name="Path 250" d="M604.432,296.648l-.134,1.9c-1.983.638-3.4-1.393-3.4-1.393a4.851,4.851,0,0,0-.609.228c.086-1.116.153-1.886.153-1.886Z" transform="translate(-539.984 -265.146)" opacity="0.1"/>
    <path id="Path_251" data-name="Path 251" d="M444.185,338.27c-.054.6-.054.969-.054.969s-2.622,2.423-7.067-1.276-8.435-2.679-8.435-2.679.047-.3.141-.765a3.051,3.051,0,0,1,.656-1.02l14.248,3.061Z" transform="translate(-387.89 -298.299)" opacity="0.1"/>
    <path id="Path_252" data-name="Path 252" d="M453.875,191.292c-.3,2.6-.4,5.867-.4,5.867-2.622,2.3-4.673-.638-4.673-.638-2.476.744-3.639,3.168-4.188,5.284a15.685,15.685,0,0,0-.486,3.517,3.594,3.594,0,0,1-1.97.765c-1.207.114-2.937-.239-5.1-2.041-4.445-3.7-8.435-2.679-8.435-2.679s.8-5.1,2.622-6.633,3.192-3.444,5.471-9.311,6.953-4.464,6.953-4.464.228-1.148,4.445,0a6.665,6.665,0,0,1,2.778,1.647A10.358,10.358,0,0,1,453.875,191.292Z" transform="translate(-387.89 -164.771)" fill="#fff"/>
    <path id="Path_253" data-name="Path 253" d="M565.74,196.878c-.006.17-.018.358-.039.569-.228,2.3-.456,2.041-2.964,2.551-1.559.318-2.37-1.14-2.76-2.288a7.912,7.912,0,0,1-.318-1.283l5.471-1.02S565.787,195.2,565.74,196.878Z" transform="translate(-503.985 -177.812)" fill="#db8b8b"/>
    <path id="Path_254" data-name="Path 254" d="M503.98,277.786a15.689,15.689,0,0,0-.486,3.517,3.594,3.594,0,0,1-1.97.765,1.283,1.283,0,0,1-.082-.255,11.082,11.082,0,0,0-1.938-3.189,6.169,6.169,0,0,1-1.368-3.189l-1.881-6.186-.627-.574s2.622-2.3,4.9-.383,1.6,5.995,1.6,5.995l.456,1.4A8.251,8.251,0,0,1,503.98,277.786Z" transform="translate(-447.253 -240.745)" opacity="0.05"/>
    <path id="Path_255" data-name="Path 255" d="M498.63,267.675l2.508,6.76a6.169,6.169,0,0,0,1.368,3.189,11.081,11.081,0,0,1,1.938,3.189c.228,1.148,3.419,4.209,3.419,4.209s2.964,3.061,3.192,4.209c0,0,2.736.893,2.394,2.679a3.3,3.3,0,0,0,0-4.464,52.445,52.445,0,0,1-4.787-6.633s-1.6-4.719-3.078-6.122l-.456-1.4s.684-4.082-1.6-5.995S498.63,267.675,498.63,267.675Z" transform="translate(-449.911 -239.872)" fill="#db8b8b"/>
    <path id="Path_256" data-name="Path 256" d="M481.505,647.878l-2.964,1.786-.912-.765v-.51a6.38,6.38,0,0,0,2.912-.983c.274-.173.531-.344.737-.495C481.4,647.5,481.505,647.878,481.505,647.878Z" transform="translate(-431.305 -571.733)" opacity="0.1"/>
    <path id="Path_257" data-name="Path 257" d="M484.925,221.962l1.6,7.015s-4.9.893-5.927,0a6.727,6.727,0,0,0-2.964-1.148s2.052-6.633,3.191-7.4S484.925,221.962,484.925,221.962Z" transform="translate(-431.305 -199.517)" opacity="0.1"/>
    <path id="Path_258" data-name="Path 258" d="M484.925,219.962l1.6,7.015s-4.9.893-5.927,0a6.727,6.727,0,0,0-2.964-1.148s2.052-6.633,3.191-7.4S484.925,219.962,484.925,219.962Z" transform="translate(-431.305 -197.772)" fill="#fff"/>
    <path id="Path_259" data-name="Path 259" d="M565.74,195.878a3.937,3.937,0,0,1-2.72,1.809,3.7,3.7,0,0,1-3.041-.977,7.911,7.911,0,0,1-.318-1.283l5.471-1.02S565.787,194.2,565.74,195.878Z" transform="translate(-503.985 -176.939)" opacity="0.1"/>
    <path id="Path_260" data-name="Path 260" d="M557.609,153.2a4.015,4.015,0,1,1-7.979,0v-.222a4.22,4.22,0,0,1,4.089-4.353A4.277,4.277,0,0,1,557.609,153.2Z" transform="translate(-495.098 -137)" fill="#db8b8b"/>
    <path id="Path_261" data-name="Path 261" d="M557.653,153.2a4.95,4.95,0,0,1-.151,1.217,1.384,1.384,0,0,1-.921-.094c-.426-.187-.792-.51-1.2-.742a5.7,5.7,0,0,0-3.8-.309,2.139,2.139,0,0,1-1.851-.245.6.6,0,0,1-.049-.048,4.22,4.22,0,0,1,4.089-4.353,4.277,4.277,0,0,1,3.89,4.575Z" transform="translate(-495.142 -137)" opacity="0.1"/>
    <path id="Path_262" data-name="Path 262" d="M523.757,125.4c.243.852,1.409.879,2.007,1.506.311.327.456.809.8,1.1a2.148,2.148,0,0,0,1.767.219,5.735,5.735,0,0,1,3.626.278c.39.208.74.5,1.147.668a1.179,1.179,0,0,0,1.242-.111c.264-.241.361-.638.6-.9a6.365,6.365,0,0,1,.657-.51,2.894,2.894,0,0,0,.8-1.645,6.684,6.684,0,0,0-.114-3.814,3.087,3.087,0,0,0-2.812-2.106c-.375.019-.741.128-1.115.173a16.693,16.693,0,0,1-2.916-.318,1.5,1.5,0,0,0-.836.128,1.6,1.6,0,0,0-.5.5,5.7,5.7,0,0,0-.9,2.23c-.114.611-.12,1.165-.789,1.259C525.66,124.169,523.243,123.6,523.757,125.4Z" transform="translate(-472.111 -111.964)" fill="#472727"/>
    <path id="Path_263" data-name="Path 263" d="M456.13,292s2.964.893,3.875,3.189a4.728,4.728,0,0,0,3.378,2.716" transform="translate(-412.255 -262.092)" opacity="0.05"/>
    <rect id="Rectangle_54" data-name="Rectangle 54" width="6.839" height="2.423" transform="translate(48.206 80.418)" fill="#6c63ff"/>
    <path id="Path_301" data-name="Path 301" d="M0,0H6.839V2.423H0Z" transform="translate(48.206 80.418)" opacity="0.1"/>
    <path id="Path_264" data-name="Path 264" d="M469.905,646.423a4.187,4.187,0,0,0,1.2-.923,10.177,10.177,0,0,0,2.92,2.39,6.621,6.621,0,0,1,1.321.735,3.938,3.938,0,0,0,2.028.833s1.6,1.531-1.482,1.786-10.258-.638-10.258-.638l.456-3.189h0A6.338,6.338,0,0,0,469.905,646.423Z" transform="translate(-420.673 -570.503)" fill="#abb1d1"/>
  </g>
</svg>
