<svg id="Group_20" data-name="Group 20" xmlns="http://www.w3.org/2000/svg" width="118.715" height="94.001" viewBox="0 0 118.715 94.001">
  <path id="Path_268" data-name="Path 268" d="M182.527,124.069a26.023,26.023,0,0,1-9.783,10.939,42.051,42.051,0,0,1-5.25,2.924q-1.775.836-3.6,1.526a53.02,53.02,0,0,1-18.8,3.415q-1.567,0-3.134-.088-.45-.025-.9-.058-2.369-.171-4.722-.548l-.094-.016a55.471,55.471,0,0,1-9.672-2.466q-.917-.324-1.824-.68c-.163-.062-.326-.128-.488-.193q-1.022-.412-2.028-.864-.846-.379-1.683-.788t-1.635-.836q-1.329-.709-2.629-1.485-1-.6-1.98-1.254a54.788,54.788,0,0,1-4.682-3.487q-.8-.662-1.571-1.357c-.358-.321-.713-.65-1.073-.969a13.553,13.553,0,0,0-2.415-1.79,8.325,8.325,0,0,0-.809-.388,9.412,9.412,0,0,0-3.212-.68,16.84,16.84,0,0,0-5.615.86c-.861.265-1.711.57-2.562.881l-1.047.386c-.721.267-1.441.529-2.169.767-.242.079-.485.157-.728.23a19.911,19.911,0,0,1-2.965.686,14.58,14.58,0,0,1-6.666-.632l-.184-.062c-.309-.106-.614-.221-.918-.346l-.184-.077q-.44-.185-.863-.4l-.184-.091c-.271-.138-.537-.282-.8-.434l-.065-.037c-.1-.058-.2-.12-.3-.179a18.44,18.44,0,0,1-4.315-3.656c-.036-.04-.071-.08-.11-.12-.175-.206-.347-.416-.514-.631-.062-.079-.123-.158-.184-.24q-.3-.394-.572-.8c-.028-.04-.054-.08-.08-.12a17.89,17.89,0,0,1-1.859-3.657c-.015-.04-.03-.08-.043-.12q-.22-.617-.4-1.255c-.05-.177-.1-.36-.139-.537-.014-.053-.028-.107-.04-.159a35.492,35.492,0,0,1-.668-8.005v-.941a99.524,99.524,0,0,1,.67-13.082.783.783,0,0,1,.012-.089q.3-2.169.806-4.295A33.811,33.811,0,0,1,69.21,84.42a41.11,41.11,0,0,1,5.528-9.574c5.521-7.375,12.768-13.575,21.251-15.887a29.344,29.344,0,0,1,26.672,6.283c2.174,1.882,4.135,4.1,6.544,5.594q.122.077.248.151a11,11,0,0,0,.976.513,9.535,9.535,0,0,0,1.357.51,7.079,7.079,0,0,0,4.455-.065c.119-.044.238-.091.356-.143.25-.108.489-.209.72-.3a9.648,9.648,0,0,1,4.691-.834,42.181,42.181,0,0,1,13.263,3.02c.172.068.344.139.515.21a48.148,48.148,0,0,1,25.6,25.594q.2.468.382.942C184.721,107.939,185.787,116.748,182.527,124.069Z" transform="translate(-65.811 -57.987)" fill="#f2f2f2" style="isolation: isolate"/>
  <path id="Path_269" data-name="Path 269" d="M63.475,512.617v.048l-.017.022Z" transform="translate(-56.465 -451.156)" fill="#cacaca"/>
  <path id="Path_270" data-name="Path 270" d="M293.832,630.833l-1.047.386v-.386Z" transform="translate(-267.281 -562.152)" fill="#fff"/>
  <rect id="Rectangle_56" data-name="Rectangle 56" width="2.581" height="7.02" transform="translate(63.394 7.046)" fill="#e4e4e4"/>
  <path id="Path_271" data-name="Path 271" d="M523.334,170.693v70.665a55.475,55.475,0,0,1-9.672-2.466q-.917-.324-1.824-.68c-.163-.062-.326-.128-.488-.193q-1.022-.412-2.028-.864-.846-.379-1.683-.788t-1.635-.836q-1.329-.709-2.629-1.485-1-.6-1.98-1.254v-62.1Z" transform="translate(-452.904 -157.18)" fill="#e4e4e4"/>
  <path id="Path_272" data-name="Path 272" d="M709.334,170.693v71.374q-1.567,0-3.134-.088-.45-.025-.9-.058-2.369-.171-4.722-.548l-.094-.016V170.693Z" transform="translate(-630.055 -157.18)" fill="#cacaca"/>
  <rect id="Rectangle_57" data-name="Rectangle 57" width="3.318" height="3.611" transform="translate(52.456 20.533)" fill="#fff"/>
  <rect id="Rectangle_58" data-name="Rectangle 58" width="3.318" height="3.611" transform="translate(57.802 20.533)" fill="#fff"/>
  <rect id="Rectangle_59" data-name="Rectangle 59" width="3.318" height="3.611" transform="translate(63.148 20.533)" fill="#fff"/>
  <rect id="Rectangle_60" data-name="Rectangle 60" width="3.318" height="3.611" transform="translate(52.548 28.757)" fill="#fff"/>
  <rect id="Rectangle_61" data-name="Rectangle 61" width="3.318" height="3.611" transform="translate(57.894 28.757)" fill="#fff"/>
  <rect id="Rectangle_62" data-name="Rectangle 62" width="3.318" height="3.611" transform="translate(63.24 28.757)" fill="#fff"/>
  <rect id="Rectangle_63" data-name="Rectangle 63" width="3.318" height="3.611" transform="translate(52.64 36.981)" fill="#fff"/>
  <rect id="Rectangle_64" data-name="Rectangle 64" width="3.318" height="3.611" transform="translate(57.986 36.981)" fill="#fff"/>
  <rect id="Rectangle_65" data-name="Rectangle 65" width="3.318" height="3.611" transform="translate(63.332 36.981)" fill="#fff"/>
  <rect id="Rectangle_66" data-name="Rectangle 66" width="3.318" height="3.611" transform="translate(52.732 45.205)" fill="#fff"/>
  <rect id="Rectangle_67" data-name="Rectangle 67" width="3.318" height="3.611" transform="translate(58.078 45.205)" fill="#fff"/>
  <rect id="Rectangle_68" data-name="Rectangle 68" width="3.318" height="3.611" transform="translate(63.425 45.205)" fill="#fff"/>
  <rect id="Rectangle_69" data-name="Rectangle 69" width="3.318" height="3.611" transform="translate(52.824 53.429)" fill="#fff"/>
  <rect id="Rectangle_70" data-name="Rectangle 70" width="3.318" height="3.611" transform="translate(58.171 53.429)" fill="#fff"/>
  <rect id="Rectangle_71" data-name="Rectangle 71" width="3.318" height="3.611" transform="translate(63.517 53.429)" fill="#fff"/>
  <rect id="Rectangle_72" data-name="Rectangle 72" width="3.318" height="3.611" transform="translate(52.916 61.653)" fill="#fff"/>
  <rect id="Rectangle_73" data-name="Rectangle 73" width="3.318" height="3.611" transform="translate(58.263 61.653)" fill="#fff"/>
  <rect id="Rectangle_74" data-name="Rectangle 74" width="3.318" height="3.611" transform="translate(63.609 61.653)" fill="#fff"/>
  <rect id="Rectangle_75" data-name="Rectangle 75" width="3.318" height="3.611" transform="translate(53.009 69.877)" fill="#fff"/>
  <rect id="Rectangle_76" data-name="Rectangle 76" width="3.318" height="3.611" transform="translate(58.355 69.877)" fill="#fff"/>
  <rect id="Rectangle_77" data-name="Rectangle 77" width="3.318" height="3.611" transform="translate(63.701 69.877)" fill="#fff"/>
  <path id="Path_273" data-name="Path 273" d="M546.544,709.393v1.874q-.846-.379-1.683-.788t-1.635-.836v-.251Z" transform="translate(-490.125 -631.293)" fill="#fff"/>
  <path id="Path_274" data-name="Path 274" d="M595.055,709.393V713h-1.007q-.917-.324-1.824-.68c-.163-.062-.326-.128-.488-.193v-2.738Z" transform="translate(-533.289 -631.293)" fill="#fff"/>
  <rect id="Rectangle_78" data-name="Rectangle 78" width="3.318" height="3.611" transform="translate(63.793 78.101)" fill="#fff"/>
  <rect id="Rectangle_79" data-name="Rectangle 79" width="2.581" height="4.161" transform="translate(93.474 42.798)" fill="#e4e4e4"/>
  <path id="Path_275" data-name="Path 275" d="M774.284,446.673v34.87a53.019,53.019,0,0,1-18.8,3.415q-1.567,0-3.134-.088v-38.2Z" transform="translate(-676.201 -400.072)" fill="#e4e4e4"/>
  <path id="Path_276" data-name="Path 276" d="M960.284,446.673v30.42a42.053,42.053,0,0,1-5.25,2.924q-1.775.836-3.6,1.526v-34.87Z" transform="translate(-853.352 -400.072)" fill="#cacaca"/>
  <rect id="Rectangle_80" data-name="Rectangle 80" width="3.318" height="3.611" transform="translate(80.477 53.429)" fill="#fff"/>
  <rect id="Rectangle_81" data-name="Rectangle 81" width="3.318" height="3.611" transform="translate(85.824 53.429)" fill="#fff"/>
  <rect id="Rectangle_82" data-name="Rectangle 82" width="3.318" height="3.611" transform="translate(91.17 53.429)" fill="#fff"/>
  <rect id="Rectangle_83" data-name="Rectangle 83" width="3.318" height="3.611" transform="translate(80.57 61.653)" fill="#fff"/>
  <rect id="Rectangle_84" data-name="Rectangle 84" width="3.318" height="3.611" transform="translate(85.916 61.653)" fill="#fff"/>
  <rect id="Rectangle_85" data-name="Rectangle 85" width="3.318" height="3.611" transform="translate(91.262 61.653)" fill="#fff"/>
  <rect id="Rectangle_86" data-name="Rectangle 86" width="3.318" height="3.611" transform="translate(80.662 69.877)" fill="#fff"/>
  <rect id="Rectangle_87" data-name="Rectangle 87" width="3.318" height="3.611" transform="translate(86.008 69.877)" fill="#fff"/>
  <rect id="Rectangle_88" data-name="Rectangle 88" width="3.318" height="3.611" transform="translate(91.354 69.877)" fill="#fff"/>
  <rect id="Rectangle_89" data-name="Rectangle 89" width="3.318" height="3.611" transform="translate(80.754 78.101)" fill="#fff"/>
  <rect id="Rectangle_90" data-name="Rectangle 90" width="3.318" height="3.611" transform="translate(86.1 78.101)" fill="#fff"/>
  <rect id="Rectangle_91" data-name="Rectangle 91" width="3.318" height="3.611" transform="translate(91.446 78.101)" fill="#fff"/>
  <path id="Path_277" data-name="Path 277" d="M775.912,774.557a6.012,6.012,0,0,0,6.124,4.36,8.7,8.7,0,0,0,7.081-4.443Z" transform="translate(-697.17 -688.57)" fill="#3f3d56"/>
  <path id="Path_278" data-name="Path 278" d="M84.925,552.743l-1.412,2.815.229,5.283,33.847,10.943,14.739,1.972-2.881-19.125-10.083-1.943-15.126.47-12.824-2.575Z" transform="translate(-74.31 -484.571)" fill="#2f2e41"/>
  <path id="Path_279" data-name="Path 279" d="M152.782,658.652h-.874a4.413,4.413,0,0,1-4.025-2.778,18.92,18.92,0,0,1-.942-7.687c.305-3.824,2.231-6.319,4.794-6.206,2.828.124,5.24,10.768,5.342,11.221a4.3,4.3,0,0,1-.127,2.3A4.44,4.44,0,0,1,152.782,658.652Z" transform="translate(-137.456 -571.959)" fill="#3f3d56"/>
  <path id="Path_280" data-name="Path 280" d="M465.327,690.169a2.831,2.831,0,0,1-.446-.047,7.017,7.017,0,0,1-5.217-4.321c-.354-.838-.7-1.7-1.013-2.551-1.277-3.432-.206-9.43,1.532-11.752,1.535-2.049,3.079-2.033,5.418-2.009.24,0,.489.005.747.005,2.6,0,5.341,10.4,6.243,13.811.072.272.131.5.177.665a3.69,3.69,0,0,1-.05,1.845,5.341,5.341,0,0,1-4.513,4.1C466.661,690.085,465.693,690.169,465.327,690.169Z" transform="translate(-414.37 -596.167)" fill="#3f3d56"/>
  <path id="Path_281" data-name="Path 281" d="M144.315,605.72s-.992-4.817.5-8.1l1.5-3.945,5.669,5.731,1.294,8.967,22.184,3.657s-1.374-14.7,7.252-15.282,12.718,15.282,12.718,15.282l4.3,3.405,30-2.409s.53,1.578-.231,2.409-37.172,3.405-37.172,3.405-1.832-19.684-9.084-17.856-5.083,15.677-5.083,15.677L152.253,611.7s-.84-13.372-5.114-13.372S144.315,605.72,144.315,605.72Z" transform="translate(-134.883 -529.45)" fill="#3f3d56"/>
  <path id="Path_282" data-name="Path 282" d="M128.3,425.516l4.887-8.335,20.839-1.329,23.129.332,10.763,10.88-33.281,2.076-26.793-1.578Z" transform="translate(-113.761 -365.993)" fill="#3f3d56"/>
  <path id="Path_283" data-name="Path 283" d="M156.05,554.445s-4.158.094-4.616,8.649c0,0,4.427-8.721,8.244,10.714l22.785,4.028s-.84-16.2,7.786-14.95S200.935,579,200.935,579s1.679,3.654,10.916,3.073,23.052-1.495,24.5-3.571c0,0,3.359-12.375-7.1-20.348l-13.587-2.159-30.762.664Z" transform="translate(-141.506 -494.922)" fill="#3445c6"/>
  <path id="Path_284" data-name="Path 284" d="M262.626,594.493h-2.6a.583.583,0,0,1,0-1.163h2.6a.583.583,0,0,1,0,1.163Z" transform="translate(-237.661 -529.145)" fill="#cacaca"/>
  <ellipse id="Ellipse_35" data-name="Ellipse 35" cx="1.679" cy="1.827" rx="1.679" ry="1.827" transform="translate(62.788 79.758)" fill="#fff"/>
  <path id="Path_285" data-name="Path 285" d="M588.626,601.29a6.113,6.113,0,0,1-3.751-1.564c-2.168-1.817-3.079-4.5-2.03-5.981s3.665-1.207,5.833.61a7.237,7.237,0,0,1,2.221,3.108,3.147,3.147,0,0,1-.191,2.873A2.439,2.439,0,0,1,588.626,601.29Z" transform="translate(-524.99 -528.671)" fill="#fff"/>
  <path id="Path_286" data-name="Path 286" d="M857.825,591.275c-.846,0-2.365-.932-3.87-2.444a12.232,12.232,0,0,1-2.1-2.736c-.462-.871-.567-1.527-.3-1.846s.88-.257,1.715.176a11.45,11.45,0,0,1,2.673,2.065c1.9,1.913,2.957,3.926,2.4,4.582A.645.645,0,0,1,857.825,591.275Z" transform="translate(-764.348 -520.976)" fill="#fff"/>
  <path id="Path_287" data-name="Path 287" d="M216.5,499.318l-.055,0-5.52-.558a.6.6,0,0,1-.477-.356.7.7,0,0,1,.027-.628l3.112-5.46a.587.587,0,0,1,.478-.3l4.117-.2a.576.576,0,0,1,.494.248.691.691,0,0,1,.1.582l-1.71,6.216A.6.6,0,0,1,216.5,499.318Z" transform="translate(-193.963 -439.796)" fill="#fff"/>
  <path id="Path_288" data-name="Path 288" d="M307.341,488.611a1.567,1.567,0,0,1-.165-.009l-9.542-1.022a1.647,1.647,0,0,1-1.209-.775,1.946,1.946,0,0,1-.235-1.505l1.373-5.48a1.693,1.693,0,0,1,1.549-1.335l7.7-.293a1.727,1.727,0,0,1,1.713,1.6l.635,5.965a1.964,1.964,0,0,1-.027.6l-.167.831A1.705,1.705,0,0,1,307.341,488.611Z" transform="translate(-270.259 -427.81)" fill="#fff"/>
  <path id="Path_289" data-name="Path 289" d="M441.861,489.641a1.269,1.269,0,0,1-1.2-1.042l-1.683-7.917a1.437,1.437,0,0,1,.237-1.14,1.2,1.2,0,0,1,.968-.508h19.962a1.2,1.2,0,0,1,.888.409l6.52,7.314a1.434,1.434,0,0,1,.256,1.447,1.243,1.243,0,0,1-1.116.835l-24.8.6Z" transform="translate(-397.331 -428.552)" fill="#fff"/>
  <path id="Path_290" data-name="Path 290" d="M236.13,458.091l.17-.291s.992-2.99,14.656-3.488,26.411-.249,29.312,2.492l-23.587-.083-19.923,1.495Z" transform="translate(-216.869 -406.613)" fill="#3445c6"/>
  <path id="Path_291" data-name="Path 291" d="M156.454,665.026c-1.433,0-2.6,2.6-2.6,5.814s1.162,5.814,2.6,5.814,2.6-2.6,2.6-5.814S157.887,665.026,156.454,665.026Zm.115,1.246c.316,0,.572.669.572,1.495s-.256,1.495-.572,1.495-.572-.669-.572-1.495S156.252,666.272,156.568,666.272Zm.344,4.568a.4.4,0,1,1-.382-.5A.452.452,0,0,1,156.912,670.84Zm-1.994.32c-.491.041-.9-.106-.917-.328s.369-.436.86-.478.9.106.917.328-.369.436-.86.478Zm1.651,4.248c-.316,0-.572-.669-.572-1.495s.256-1.495.572-1.495.572.669.572,1.495-.256,1.495-.572,1.495Zm1.479-4.248c-.491.041-.9-.106-.917-.328s.369-.436.86-.478.9.106.917.328S158.538,671.118,158.047,671.16Z" transform="translate(-143.663 -592.245)" fill="#e4e4e4"/>
  <path id="Path_292" data-name="Path 292" d="M473.163,697.583c-2.276,0-4.122,3.328-4.122,7.433s1.845,7.433,4.122,7.433,4.122-3.328,4.122-7.433S475.44,697.583,473.163,697.583Zm-2.462,7.991c-.665.056-1.221-.143-1.243-.445s.5-.591,1.165-.647,1.221.143,1.243.445S471.365,705.519,470.7,705.575Zm2.465,5.671c-.428,0-.775-.907-.775-2.025s.347-2.025.775-2.025.775.907.775,2.025S473.594,711.246,473.166,711.246Zm-.613-6.187a.633.633,0,1,1,.611.8A.723.723,0,0,1,472.552,705.058Zm.613-2.138c-.428,0-.775-.907-.775-2.025s.347-2.025.775-2.025.775.907.775,2.025S473.594,702.921,473.166,702.921Zm2.614,2.488c-.665.056-1.221-.143-1.242-.445s.5-.591,1.165-.647,1.221.143,1.242.445S476.444,705.353,475.78,705.408Z" transform="translate(-424.115 -620.898)" fill="#e4e4e4"/>
  <path id="Path_293" data-name="Path 293" d="M375.525,563.015l.916,2.326s1.527.664,2.519-1.578l-2.011-2.188Z" transform="translate(-340.904 -501.197)" fill="#cacaca"/>
  <path id="Path_294" data-name="Path 294" d="M340.057,546.389c-1.642,0-2.977-.969-2.977-2.159s1.335-2.159,2.977-2.159,2.977.969,2.977,2.159S341.7,546.389,340.057,546.389Z" transform="translate(-306.695 -484.031)" fill="#cacaca"/>
  <path id="Path_295" data-name="Path 295" d="M713.969,641.474l-17.067.543s-3.735,1.14-4.116,4.4c0,0,.534,2.66,1.906,2.66s22.41-1.194,22.41-1.194,1.372-2.28.229-3.908A8.422,8.422,0,0,0,713.969,641.474Z" transform="translate(-623.204 -571.516)" fill="#3f3d56"/>
  <rect id="Rectangle_92" data-name="Rectangle 92" width="20.026" height="0.191" transform="matrix(0.999, -0.033, 0.033, 0.999, 72.227, 71.715)" fill="#e4e4e4"/>
  <path id="Path_297" data-name="Path 297" d="M0,0,21.793-.024V.162L0,.186Z" transform="translate(71.203 72.858) rotate(-2.594)" fill="#e4e4e4"/>
  <path id="Path_296" data-name="Path 296" d="M0,0,23.382-.03V.139L0,.169Z" transform="translate(70.389 74.221) rotate(-3.074)" fill="#e4e4e4"/>
  <g id="Group_142" data-name="Group 142" transform="translate(0 41.727)">
    <path id="Path_2185" data-name="Path 2185" d="M174.542,584.47a1.207,1.207,0,0,1-.2-.932,1.123,1.123,0,0,1,.531-.761l-.217-2.571,1.4-.524.259,3.635a1.189,1.189,0,0,1-.42,1.438.989.989,0,0,1-1.362-.285Z" transform="translate(-161.872 -558.859)" fill="#ffb8b8"/>
    <path id="Path_2186" data-name="Path 2186" d="M175.856,484.879s.963-2.2,1.819-1.426-1.173,7.277-1.173,7.277l-.309,6.314-1.627-.177-.46-6.151Z" transform="translate(-161.68 -474.023)" fill="#e6e6e6"/>
    <path id="Path_2187" data-name="Path 2187" d="M72.732,730.766l1.208,1.064,4.345-4.562L76.5,725.7Z" transform="translate(-71.476 -687.369)" fill="#ffb8b8"/>
    <path id="Path_2188" data-name="Path 2188" d="M62.6,762.125l2.378,2.094h0a2.251,2.251,0,0,1,.289,2.984l-.04.054-3.893-3.429Z" transform="translate(-61.337 -719.429)" fill="#2f2e41"/>
    <path id="Path_2189" data-name="Path 2189" d="M225.026,744.726h1.554l.739-6.521h-2.293Z" transform="translate(-206.988 -698.377)" fill="#ffb8b8"/>
    <path id="Path_2190" data-name="Path 2190" d="M221.431,787.987h3.06a2.041,2.041,0,0,1,1.95,2.121v.069h-5.009Z" transform="translate(-203.789 -742.19)" fill="#2f2e41"/>
    <path id="Path_2191" data-name="Path 2191" d="M105.485,537.647s2.915,3.86,2.281,7.721-1.141,6.756-1.141,6.756l-1.013,8.686s.38,2.366-.127,2.975c0,0,.76,1.437-.634,1.988a1.992,1.992,0,0,1-2.147-.19s-1.022-1.6-.388-2.015l.267-17.048L92.432,560.948s-.187,1.755-1.487,1.774l-1.554,1.26-1.774-1.1.887-1.241s-.507-1.379.634-1.655l6.59-9.376,1.647-4.826s.887-3.723,3.295-5.239v-1.614Z" transform="translate(-84.721 -521.864)" fill="#2f2e41"/>
    <path id="Path_2192" data-name="Path 2192" d="M192.195,475.028h0a2.286,2.286,0,0,1,3.19-.49l.105.076h0a10.549,10.549,0,0,1,2.187,4.9l.475,2.823-5.956,1.4-1.4-5.239a3.06,3.06,0,0,1,1.4-3.472Z" transform="translate(-176.437 -465.933)" fill="#e6e6e6"/>
    <path id="Path_2193" data-name="Path 2193" d="M273.8,583.494a1.236,1.236,0,0,1-.734-.748,1.4,1.4,0,0,1,.056-1.092l-1.718-2.288,1.023-1.475,2.385,3.268a1.365,1.365,0,0,1,.447,1.656A1.162,1.162,0,0,1,273.8,583.494Z" transform="translate(-248.252 -557.284)" fill="#ffb8b8"/>
    <path id="Path_2194" data-name="Path 2194" d="M226.91,479.854s-.38-2.758.887-2.62,3.168,7.721,3.168,7.721l3.422,6.2-1.647.965-4.055-5.515Z" transform="translate(-208.617 -468.691)" fill="#e6e6e6"/>
    <path id="Path_2195" data-name="Path 2195" d="M195.893,413.145h-6.034a.491.491,0,0,1-.468-.509v-2.83a3.5,3.5,0,1,1,6.971,0h0v2.83A.491.491,0,0,1,195.893,413.145Z" transform="translate(-175.28 -406.013)" fill="#2f2e41"/>
    <ellipse id="Ellipse_430" data-name="Ellipse 430" cx="2.555" cy="2.78" rx="2.555" ry="2.78" transform="translate(15.757 1.505)" fill="#ffb8b8"/>
    <path id="Path_2196" data-name="Path 2196" d="M217.665,417.568h-3.216l-.033-.576-.165.576h-.5l-.065-1.142-.327,1.142h-.958v-.057a2.755,2.755,0,0,1,2.4-3h.453a2.755,2.755,0,0,1,2.4,3Z" transform="translate(-195.759 -413.492)" fill="#2f2e41"/>
    <path id="Path_2197" data-name="Path 2197" d="M200.3,421.014a.711.711,0,0,1-.117-.01l-3.828-.642v-4.338a1.608,1.608,0,0,1,1.536-1.671h2.678l-.1.116c-1.451,1.608-.358,4.215.423,5.626a.6.6,0,0,1-.052.659.672.672,0,0,1-.535.26Z" transform="translate(-181.476 -413.353)" fill="#2f2e41"/>
  </g>
</svg>
