<svg id="Group_18" data-name="Group 18" xmlns="http://www.w3.org/2000/svg" width="116.137" height="98.353" viewBox="0 0 116.137 98.353">
  <path id="Path_171" data-name="Path 171" d="M791.536,623.228a12.193,12.193,0,0,0-5.03,6.124,21.249,21.249,0,0,0-.8,9.392,12.193,12.193,0,0,0,5.03-6.124A21.249,21.249,0,0,0,791.536,623.228Z" transform="translate(-704.165 -541.934)" fill="#3f3d56"/>
  <path id="Path_172" data-name="Path 172" d="M796.776,656.882s-1.12,4.984-4.029,7.494a7.74,7.74,0,0,1-6.5,1.594s1.12-4.984,4.029-7.494A7.74,7.74,0,0,1,796.776,656.882Z" transform="translate(-704.812 -569.2)" fill="#3445c6"/>
  <rect id="Rectangle_49" data-name="Rectangle 49" width="116.137" height="0.372" transform="translate(0 97.981)" fill="#2f2e41"/>
  <path id="Path_173" data-name="Path 173" d="M488.758,551.026a10.667,10.667,0,0,1-4.634-2.685l.153-.3a10.426,10.426,0,0,0,4.536,2.622c2.454.632,6.126.322,9.683-4.745,6.923-9.861,13.531-10.854,13.6-10.863l.024.37c-.065.009-6.58.988-13.438,10.756-2.8,3.99-5.676,5.094-8,5.094A7.656,7.656,0,0,1,488.758,551.026Z" transform="translate(-441.853 -470.151)" fill="#2f2e41"/>
  <ellipse id="Ellipse_21" data-name="Ellipse 21" cx="1.555" cy="2.231" rx="1.555" ry="2.231" transform="translate(65.217 68.612)" fill="#2f2e41"/>
  <ellipse id="Ellipse_22" data-name="Ellipse 22" cx="1.555" cy="2.231" rx="1.555" ry="2.231" transform="translate(54.2 79.021)" fill="#2f2e41"/>
  <path id="Path_174" data-name="Path 174" d="M431.55,574.379a39.8,39.8,0,0,0-6.774-2.015l.1-1.981c.778-11.153-4.407-27.882-4.407-27.882a104.718,104.718,0,0,1,2.783,25.842,8.541,8.541,0,0,0-4.6-4.745,24.119,24.119,0,0,1,4.3,8.384,91.15,91.15,0,0,0-13.224-1.527l1.149-3.789-2.2,3.16s-.907-9.48-2.852-9.852l1.426,9.294s-1.685-1.859-2.074-1.673l.959,2.75a140.73,140.73,0,0,0-23.041,1.664l1.085-3.578-2.2,3.16s-.907-9.48-2.852-9.852l1.426,9.294s-1.685-1.859-2.074-1.673l1.12,3.213q-4.364.744-9.092,1.806Z" transform="translate(-342.956 -476.212)" fill="#3f3d56"/>
  <path id="Path_175" data-name="Path 175" d="M534.5,226.183c-1.413,2.184,2.281,7.484,2.281,7.484s-7.48,1.809-6.886,1.7.286-9.133.286-9.133S535.911,224,534.5,226.183Z" transform="translate(-481.66 -217.913)" fill="#a0616a"/>
  <path id="Path_176" data-name="Path 176" d="M504.672,347.858l-6.5,4.761-3.529,2.9s-4.161,7.515-4.937,11.969,3.361,12.686,3.829,13.536a11.152,11.152,0,0,1,.647,1.38c.162.345,1.559-.1,3.085-.57s-.2-3.711-.2-3.711-1.948-7.137-2.093-7.3-.6-1.384-.265-1.924a5.494,5.494,0,0,0,.706-1.654,6.7,6.7,0,0,1,.543-1.476s5.88-6.847,7.716-9.179,6.718-.866,6.718-.866-2.3,12.677-2.881,13.533a3.649,3.649,0,0,0-.378,3.068c.261,1.451,3.666.073,3.666.073l1.257-4.918a106.8,106.8,0,0,0,3.15-12.951c.554-3.288-.5-5.248-1.7-6.386a4.091,4.091,0,0,0-3.892-1.111l-6.008,1.511,4.167-2.574Z" transform="translate(-446.628 -316.216)" fill="#2f2e41"/>
  <path id="Path_177" data-name="Path 177" d="M355,244.763l-7.758-3.44s-3.134-5.793-1.658-6.816,3.325,5.008,3.325,5.008l5.4.5Z" transform="translate(-320.923 -225.374)" fill="#a0616a"/>
  <path id="Path_178" data-name="Path 178" d="M671.33,199.252l6.9-6.147s2.008-6.743.4-7.2-2.332,6.053-2.332,6.053l-5.138,2.448Z" transform="translate(-604.643 -185.887)" fill="#a0616a"/>
  <path id="Path_179" data-name="Path 179" d="M440.15,220.4l.131,7.285-11.625,2.979c1.71,5.246,1.276,11.217,5.58,13.834l-14.507,10.176c.646-8-2.05-14.026-4.571-21.517-3.07-1.6-6.636-.426-10.413,1.923l-.679-7.559,16.057-1.654,2.638,1.446,2.828-1.706C429.745,223.837,435.713,220.47,440.15,220.4Z" transform="translate(-372.172 -213.985)" fill="#3445c6"/>
  <path id="Path_180" data-name="Path 180" d="M621.983,484.126c-.353.44-.681,4.062-.693,5.376a1.8,1.8,0,0,0,1.853,1.719c.659.066.58.642,1.016,1.124s1.866.405,3.745-.5-1.264-3.89-1.538-4.027a30.852,30.852,0,0,1-1.426-4.235S622.336,483.686,621.983,484.126Z" transform="translate(-561.239 -428.244)" fill="#2f2e41"/>
  <path id="Path_181" data-name="Path 181" d="M513,530.729c.419.3,1.376,3.682,1.62,4.948a2.264,2.264,0,0,1-1.489,2.337c-.626.3-.448.832-.784,1.457s-1.734,1.07-3.712.873.536-4.222.776-4.454a34.917,34.917,0,0,0,.631-4.615S512.584,530.431,513,530.729Z" transform="translate(-462.534 -466.577)" fill="#2f2e41"/>
  <ellipse id="Ellipse_23" data-name="Ellipse 23" cx="3.11" cy="4.46" rx="3.11" ry="4.46" transform="translate(47.372 2.125)" fill="#a0616a"/>
  <path id="Path_182" data-name="Path 182" d="M517.628,192.421a5.94,5.94,0,0,1-.108-3.456,3.243,3.243,0,0,1,2.446-2.491,4.064,4.064,0,0,1,4.8,3.546c-.089,1.048-.518,3.582-.518,3.582s.191-2.4-.63-2.484-4.005-.442-4.812.77a3.478,3.478,0,0,0-.481,2.571Z" transform="translate(-470.741 -186.283)" fill="#2f2e41"/>
</svg>
