<svg width="94" height="137" viewBox="0 0 94 137" fill="none" xmlns="http://www.w3.org/2000/svg">
<g filter="url(#filter0_d)">
<path d="M58.0029 45.3043L52.9252 42.3749C50.7282 41.1231 47.8698 41.2495 44.7442 43.0541C37.8125 47.056 32.1934 57.7926 32.1934 67.0347C32.1934 71.9068 33.7554 75.3901 36.2477 77.0096L36.2473 77.0104L41.8385 80.2409C44.0104 81.3857 58.0029 45.3043 58.0029 45.3043Z" fill="url(#paint0_linear)"/>
<path d="M62.3887 55.4815C62.3887 46.2392 56.7696 41.9912 49.8379 45.9933C42.9063 49.9952 37.2871 60.7319 37.2871 69.9739C37.2871 79.216 42.9063 83.4641 49.8379 79.4621C56.7694 75.46 62.3887 64.7235 62.3887 55.4815Z" fill="url(#paint1_linear)"/>
<path d="M62.3898 55.4822C62.3898 52.57 61.8315 50.1542 60.8505 48.3357L43.8125 80.8896C45.6013 81.165 47.6549 80.7238 49.839 79.4628C50.7566 78.933 51.6508 78.2842 52.5125 77.5375L62.1036 59.212C62.2905 57.9552 62.3898 56.7056 62.3898 55.4822Z" fill="url(#paint2_linear)"/>
<path d="M49.8379 45.9936C49.2837 46.3137 48.738 46.6772 48.2026 47.0791L37.3931 67.7327C37.3235 68.4866 37.2871 69.2352 37.2871 69.9744C37.2871 74.8308 38.8391 78.307 41.3173 79.9332L59.052 46.0474C56.7594 44.0668 53.4801 43.8908 49.8379 45.9936Z" fill="url(#paint3_linear)"/>
<path d="M59.8245 56.9627C59.8245 49.6092 55.3536 46.2294 49.8384 49.4135C44.3233 52.5976 39.8525 61.14 39.8525 68.4935C39.8525 75.847 44.3235 79.2269 49.8384 76.0428C55.3536 72.8586 59.8245 64.3162 59.8245 56.9627Z" fill="url(#paint4_linear)"/>
<path d="M55.3206 48.4335C56.883 49.8814 57.8321 52.4245 57.8321 55.8117C57.8321 63.1652 53.3612 71.7076 47.8462 74.8917C45.8211 76.061 43.9372 76.344 42.3633 75.8714C44.1928 77.5668 46.8631 77.7598 49.8378 76.0425C55.3529 72.8584 59.8238 64.3159 59.8238 56.9624C59.8237 52.3092 58.033 49.248 55.3206 48.4335Z" fill="url(#paint5_linear)"/>
<path d="M53.7644 62.3728C53.7644 61.7509 53.6939 61.2188 53.564 60.7727L54.717 60.5675L52.5729 59.3236C52.0311 58.9834 51.334 58.9314 50.5427 59.1577L49.9181 59.3361L53.1001 53.7251V50.3412L43.3969 56.2778C43.3634 56.5827 43.2559 56.7181 43.1059 56.7843V60.4843L47.7518 57.802L45.1562 62.6319V65.7546L47.7136 64.278C48.7865 63.6587 49.3333 63.8897 49.3333 64.9568C49.3333 66.0238 48.7865 66.8602 47.7136 67.4797C46.4437 68.2129 45.2532 68.0415 44.1597 66.9811L42.3652 72.5978C43.7513 73.2551 45.9557 72.9451 48.0839 71.7163C51.5392 69.7216 53.7644 65.9384 53.7644 62.3728Z" fill="url(#paint6_linear)"/>
<path d="M55.7636 63.5164C55.7636 67.082 53.5384 70.8652 50.0829 72.8602C47.9547 74.089 45.7501 74.3991 44.3643 73.7417L46.1587 68.125C47.2522 69.1853 48.4427 69.3568 49.7127 68.6236C50.7856 68.0043 51.3323 67.1677 51.3323 66.1007C51.3323 65.0336 50.7856 64.8026 49.7127 65.4219L47.1553 66.8985V63.7758L49.7508 58.9459L45.1049 61.6282V57.2552L55.0991 51.4849V54.8688L51.9171 60.4797L52.5417 60.3013C54.4157 59.7658 55.7636 60.7837 55.7636 63.5164Z" fill="url(#paint7_linear)"/>
<path d="M43.1035 60.4847L45.1032 61.6286V57.2555L43.3946 56.2781C43.2962 56.4457 43.1985 56.6139 43.1035 56.7845V60.4847Z" fill="#8B451C"/>
<path d="M45.1543 62.6326L47.154 63.7766V66.8993L45.1543 65.7554V62.6326Z" fill="#8B451C"/>
<path d="M44.1576 66.9817L46.1573 68.1257L44.363 73.7424L42.3633 72.5984L44.1576 66.9817Z" fill="#8B451C"/>
<path d="M43.7065 55.7647C43.6015 55.9342 43.498 56.1052 43.3965 56.2782L45.1051 57.2556L55.0993 51.4854L53.0996 50.3416L43.7065 55.7647Z" fill="#DEA861"/>
<path d="M54.5168 60.4343L51.285 66.6092C51.1923 67.1217 50.9552 67.5734 50.575 67.9657L47.4648 73.9081C48.308 73.7176 49.201 73.3692 50.0815 72.8608C53.5369 70.8657 55.7621 67.0826 55.7621 63.5169C55.7622 61.9001 55.2902 60.8839 54.5168 60.4343Z" fill="url(#paint8_linear)"/>
<path d="M46.1578 68.1262L44.3633 73.743C44.4145 73.7673 44.4693 73.7876 44.5228 73.8093L47.1332 68.8216C46.8001 68.6639 46.4748 68.4336 46.1578 68.1262Z" fill="url(#paint9_linear)"/>
<path d="M45.1045 57.2562V61.6291L49.7503 58.9469L47.1548 63.7769V66.8995L48.566 66.0847L55.0987 53.6027V51.486L45.1045 57.2562Z" fill="url(#paint10_linear)"/>
<path d="M56.3657 33.2786L36.3613 44.8282V48.6759L39.658 50.5764L59.6625 39.0269V35.1792L56.3657 33.2786Z" fill="#FCF3B3"/>
<path d="M36.3604 44.8281V48.6757L39.6571 50.5762V46.7285L36.3604 44.8281Z" fill="#FFA538"/>
<path d="M39.6572 50.5763V46.7286L59.6616 35.1791V39.0268L39.6572 50.5763Z" fill="#F7E041"/>
<path d="M59.6618 39.0265V35.1787L57.4025 36.4833L54.5166 41.997L59.6618 39.0265Z" fill="url(#paint11_linear)"/>
<path d="M53.2375 38.8879L39.6572 46.7285V50.5762L50.3518 44.4017L53.2375 38.8879Z" fill="url(#paint12_linear)"/>
<path d="M33.2838 23.6309L31.5194 22.2892L30 21.7273L38.3042 43.7085L41.588 45.612L35.4757 27.4311L33.2838 23.6309Z" fill="url(#paint13_linear)"/>
<path d="M49.5971 4.50439L48.7677 4.29919L46.3896 13.6152L48.665 19.5726L52.0515 6.20266L49.5971 4.50439Z" fill="url(#paint14_linear)"/>
<path d="M60.7043 4L58.4509 4.05652L61.7473 5.95969L54.1984 6.1488L50.902 4.24564L48.7669 4.29915L52.0506 6.20262L41.6982 45.5481L55.6839 37.4734L63.9881 5.90346L60.7043 4Z" fill="url(#paint15_linear)"/>
<path d="M57.1031 4.98657L54.2212 6.16229L44.2402 44.0801L53.0972 38.9665L61.7701 5.97303L57.1031 4.98657Z" fill="url(#paint16_linear)"/>
<path d="M45.2211 10.1455L41.9373 8.24207L39.7365 10.7282L43.0248 12.6267L35.4757 21.1543L32.1876 19.2558L30 21.7269L33.2838 23.6305L41.588 45.6116L55.5735 37.537L45.2211 10.1455Z" fill="url(#paint17_linear)"/>
<path d="M53.0056 39.0202L43.0247 12.6274L39.2144 14.0537L35.4756 21.1549L44.1485 44.1338L53.0056 39.0202Z" fill="url(#paint18_linear)"/>
<path d="M35.4756 21.1545L43.0247 12.6269L39.7364 10.7284L32.1875 19.256L35.4756 21.1545Z" fill="url(#paint19_linear)"/>
<path d="M50.9014 4.24545L54.2211 6.16214L61.77 5.97288L58.4503 4.05634L50.9014 4.24545Z" fill="url(#paint20_linear)"/>
<path d="M35.4757 21.1547L32.1876 19.2562L30 21.7275L33.2838 23.6309L35.4757 21.1547Z" fill="#79D3FE"/>
<path d="M43.0256 12.6267L45.2219 10.1455L41.9381 8.24207L39.7373 10.7282L43.0256 12.6267Z" fill="#79D3FE"/>
<path d="M54.2214 6.1626L50.9017 4.24591L48.7666 4.29943L52.0504 6.20289L54.2214 6.1626Z" fill="#79D3FE"/>
<path d="M60.7046 4L63.9884 5.90346L61.7709 5.97307L58.4512 4.05652L60.7046 4Z" fill="#79D3FE"/>
</g>
<defs>
<filter id="filter0_d" x="0" y="0" width="93.9884" height="136.968" filterUnits="userSpaceOnUse" color-interpolation-filters="sRGB">
<feFlood flood-opacity="0" result="BackgroundImageFix"/>
<feColorMatrix in="SourceAlpha" type="matrix" values="0 0 0 0 0 0 0 0 0 0 0 0 0 0 0 0 0 0 127 0" result="hardAlpha"/>
<feOffset dy="26"/>
<feGaussianBlur stdDeviation="15"/>
<feComposite in2="hardAlpha" operator="out"/>
<feColorMatrix type="matrix" values="0 0 0 0 0 0 0 0 0 0 0 0 0 0 0 0 0 0 0.2 0"/>
<feBlend mode="normal" in2="BackgroundImageFix" result="effect1_dropShadow"/>
<feBlend mode="normal" in="SourceGraphic" in2="effect1_dropShadow" result="shape"/>
</filter>
<linearGradient id="paint0_linear" x1="38.3526" y1="68.0948" x2="46.4247" y2="54.1138" gradientUnits="userSpaceOnUse">
<stop stop-color="#8B451C"/>
<stop offset="1" stop-color="#BA5C25"/>
</linearGradient>
<linearGradient id="paint1_linear" x1="49.8379" y1="74.0358" x2="49.8379" y2="22.2019" gradientUnits="userSpaceOnUse">
<stop stop-color="#E37A34"/>
<stop offset="1" stop-color="#FFA538"/>
</linearGradient>
<linearGradient id="paint2_linear" x1="66.7867" y1="72.9584" x2="52.7419" y2="64.8495" gradientUnits="userSpaceOnUse">
<stop stop-color="white"/>
<stop offset="1" stop-color="white" stop-opacity="0"/>
</linearGradient>
<linearGradient id="paint3_linear" x1="63.7172" y1="70.7354" x2="40.4063" y2="57.2767" gradientUnits="userSpaceOnUse">
<stop stop-color="white"/>
<stop offset="1" stop-color="white" stop-opacity="0"/>
</linearGradient>
<linearGradient id="paint4_linear" x1="49.8386" y1="57.0198" x2="49.8386" y2="23.2438" gradientUnits="userSpaceOnUse">
<stop stop-color="#E37A34"/>
<stop offset="1" stop-color="#FFA538"/>
</linearGradient>
<linearGradient id="paint5_linear" x1="46.456" y1="74.9932" x2="58.47" y2="54.1845" gradientUnits="userSpaceOnUse">
<stop stop-color="#8B451C"/>
<stop offset="1" stop-color="#BA5C25"/>
</linearGradient>
<linearGradient id="paint6_linear" x1="42.3652" y1="61.6383" x2="54.717" y2="61.6383" gradientUnits="userSpaceOnUse">
<stop stop-color="#8B451C"/>
<stop offset="1" stop-color="#BA5C25"/>
</linearGradient>
<linearGradient id="paint7_linear" x1="50.0638" y1="87.3319" x2="50.0638" y2="56.7282" gradientUnits="userSpaceOnUse">
<stop stop-color="#E37A34"/>
<stop offset="1" stop-color="#FFA538"/>
</linearGradient>
<linearGradient id="paint8_linear" x1="58.9609" y1="71.7727" x2="51.5108" y2="67.4715" gradientUnits="userSpaceOnUse">
<stop stop-color="white"/>
<stop offset="1" stop-color="white" stop-opacity="0"/>
</linearGradient>
<linearGradient id="paint9_linear" x1="47.698" y1="72.3419" x2="44.5223" y2="70.5083" gradientUnits="userSpaceOnUse">
<stop stop-color="white"/>
<stop offset="1" stop-color="white" stop-opacity="0"/>
</linearGradient>
<linearGradient id="paint10_linear" x1="63.4398" y1="66.3018" x2="46.9281" y2="56.7687" gradientUnits="userSpaceOnUse">
<stop stop-color="white"/>
<stop offset="1" stop-color="white" stop-opacity="0"/>
</linearGradient>
<linearGradient id="paint11_linear" x1="61.2207" y1="40.9731" x2="55.0769" y2="37.4261" gradientUnits="userSpaceOnUse">
<stop stop-color="white"/>
<stop offset="1" stop-color="white" stop-opacity="0"/>
</linearGradient>
<linearGradient id="paint12_linear" x1="58.8617" y1="51.8995" x2="40.8211" y2="41.4837" gradientUnits="userSpaceOnUse">
<stop stop-color="white"/>
<stop offset="1" stop-color="white" stop-opacity="0"/>
</linearGradient>
<linearGradient id="paint13_linear" x1="39.9286" y1="44.3998" x2="31.504" y2="21.1784" gradientUnits="userSpaceOnUse">
<stop stop-color="#0072BC"/>
<stop offset="0.1963" stop-color="#0B79C4"/>
<stop offset="0.5425" stop-color="#298DD8"/>
<stop offset="0.9953" stop-color="#58ACF9"/>
<stop offset="1" stop-color="#59ACF9"/>
</linearGradient>
<linearGradient id="paint14_linear" x1="49.2309" y1="9.86572" x2="50.6951" y2="3.69502" gradientUnits="userSpaceOnUse">
<stop stop-color="#0072BC"/>
<stop offset="0.1963" stop-color="#0B79C4"/>
<stop offset="0.5425" stop-color="#298DD8"/>
<stop offset="0.9953" stop-color="#58ACF9"/>
<stop offset="1" stop-color="#59ACF9"/>
</linearGradient>
<linearGradient id="paint15_linear" x1="48.2132" y1="35.8709" x2="53.1246" y2="17.5284" gradientUnits="userSpaceOnUse">
<stop stop-color="#2F97F7"/>
<stop offset="0.0598" stop-color="#3499F7"/>
<stop offset="0.3797" stop-color="#48A4F8"/>
<stop offset="0.6956" stop-color="#55AAF9"/>
<stop offset="1" stop-color="#59ACF9"/>
</linearGradient>
<linearGradient id="paint16_linear" x1="47.8871" y1="12.9569" x2="59.2534" y2="39.7613" gradientUnits="userSpaceOnUse">
<stop stop-color="#0072BC"/>
<stop offset="0.2671" stop-color="#0079C7"/>
<stop offset="0.7364" stop-color="#018BE5"/>
<stop offset="1" stop-color="#0197F8"/>
</linearGradient>
<linearGradient id="paint17_linear" x1="47.455" y1="36.3824" x2="35.9932" y2="12.5769" gradientUnits="userSpaceOnUse">
<stop stop-color="#2F97F7"/>
<stop offset="0.0598" stop-color="#3499F7"/>
<stop offset="0.3797" stop-color="#48A4F8"/>
<stop offset="0.6956" stop-color="#55AAF9"/>
<stop offset="1" stop-color="#59ACF9"/>
</linearGradient>
<linearGradient id="paint18_linear" x1="39.1812" y1="17.9919" x2="50.037" y2="43.5923" gradientUnits="userSpaceOnUse">
<stop stop-color="#0072BC"/>
<stop offset="0.2671" stop-color="#0079C7"/>
<stop offset="0.7364" stop-color="#018BE5"/>
<stop offset="1" stop-color="#0197F8"/>
</linearGradient>
<linearGradient id="paint19_linear" x1="32.1875" y1="15.9415" x2="43.0247" y2="15.9415" gradientUnits="userSpaceOnUse">
<stop stop-color="#2F97F7"/>
<stop offset="0.0598" stop-color="#3499F7"/>
<stop offset="0.3797" stop-color="#48A4F8"/>
<stop offset="0.6956" stop-color="#55AAF9"/>
<stop offset="1" stop-color="#59ACF9"/>
</linearGradient>
<linearGradient id="paint20_linear" x1="50.9014" y1="5.10924" x2="61.77" y2="5.10924" gradientUnits="userSpaceOnUse">
<stop stop-color="#2F97F7"/>
<stop offset="0.0598" stop-color="#3499F7"/>
<stop offset="0.3797" stop-color="#48A4F8"/>
<stop offset="0.6956" stop-color="#55AAF9"/>
<stop offset="1" stop-color="#59ACF9"/>
</linearGradient>
</defs>
</svg>
