<svg width="94" height="137" viewBox="0 0 94 137" fill="none" xmlns="http://www.w3.org/2000/svg">
<g filter="url(#filter0_d)">
<path d="M57.0449 45.214L52.0882 42.3544C49.9435 41.1324 47.1531 41.2558 44.1022 43.0174C37.3358 46.9239 31.8506 57.4045 31.8506 66.4264C31.8506 71.1824 33.3754 74.5826 35.8083 76.1635L35.808 76.1642L41.2659 79.3178C43.386 80.4352 57.0449 45.214 57.0449 45.214Z" fill="url(#paint0_linear)"/>
<path d="M61.3274 55.1488C61.3274 46.127 55.842 41.9803 49.0758 45.8868C42.3094 49.7934 36.8242 60.2739 36.8242 69.2958C36.8242 78.3176 42.3094 82.4644 49.0758 78.5577C55.8422 74.6512 61.3274 64.1707 61.3274 55.1488Z" fill="url(#paint1_linear)"/>
<path d="M61.3268 55.1491C61.3268 52.3063 60.7818 49.9481 59.824 48.173L43.1924 79.9508C44.9385 80.2197 46.9432 79.789 49.0752 78.5581C49.971 78.041 50.8438 77.4076 51.6849 76.6787L61.0474 58.7901C61.2298 57.5632 61.3268 56.3433 61.3268 55.1491Z" fill="url(#paint2_linear)"/>
<path d="M49.0758 45.8871C48.5347 46.1995 48.0019 46.5543 47.4795 46.9467L36.9277 67.1079C36.8597 67.8438 36.8242 68.5746 36.8242 69.2961C36.8242 74.0367 38.3392 77.43 40.7583 79.0175L58.0704 45.9396C55.8324 44.0063 52.6311 43.8344 49.0758 45.8871Z" fill="url(#paint3_linear)"/>
<path d="M58.8239 56.5945C58.8239 49.4163 54.4596 46.117 49.0759 49.2252C43.6923 52.3334 39.3281 60.6722 39.3281 67.8504C39.3281 75.0285 43.6925 78.3278 49.0759 75.2196C54.4597 72.1114 58.8239 63.7726 58.8239 56.5945Z" fill="url(#paint4_linear)"/>
<path d="M54.4278 48.269C55.9529 49.6823 56.8793 52.1648 56.8793 55.4713C56.8793 62.6494 52.515 70.9882 47.1315 74.0964C45.1547 75.2378 43.3157 75.5141 41.7793 75.0527C43.565 76.7077 46.1718 76.8961 49.0756 75.2197C54.4592 72.1115 58.8236 63.7728 58.8236 56.5946C58.8234 52.0523 57.0754 49.0643 54.4278 48.269Z" fill="url(#paint5_linear)"/>
<path d="M50.1479 50.6093L46.76 52.5654L42.8232 58.6338V61.2174L44.7763 62.3339L45.3475 62.004V72.72L47.3006 73.8363L52.1009 71.0649V51.7257L50.1479 50.6093Z" fill="url(#paint6_linear)"/>
<path d="M48.7111 53.6814L44.7744 59.7501V62.3336L47.2987 60.8762V73.8361L52.099 71.0647V51.7255L48.7111 53.6814Z" fill="url(#paint7_linear)"/>
<path d="M52.0991 62.9322L47.2988 72.104V73.8364L52.0991 71.0649V62.9322Z" fill="url(#paint8_linear)"/>
<path d="M52.099 57.3465V51.7255L48.7111 53.6814L44.7744 59.75V62.3336L47.2987 60.8762V66.5184L52.099 57.3465Z" fill="url(#paint9_linear)"/>
<path d="M42.8213 61.2174L44.7743 62.3338V59.7502L42.8213 58.6338V61.2174Z" fill="url(#paint10_linear)"/>
<path d="M42.8213 58.6338L44.7743 59.7502L48.711 53.6816L46.758 52.5653L42.8213 58.6338Z" fill="url(#paint11_linear)"/>
<path d="M46.7578 52.5652L50.1457 50.6091L52.0987 51.7256L48.7108 53.6815L46.7578 52.5652Z" fill="url(#paint12_linear)"/>
<path d="M55.7365 33.4756L36.209 44.7498V48.5058L39.4272 50.3611L58.9547 39.0868V35.3309L55.7365 33.4756Z" fill="#FCF3B3"/>
<path d="M36.209 44.7496V48.5056L39.4272 50.3609V46.6048L36.209 44.7496Z" fill="#FFA538"/>
<path d="M39.4268 50.3611V46.605L58.9542 35.3309V39.0868L39.4268 50.3611Z" fill="#F7E041"/>
<path d="M58.9541 39.0868V35.3309L56.7486 36.6042L53.9316 41.9865L58.9541 39.0868Z" fill="url(#paint13_linear)"/>
<path d="M52.6832 38.9515L39.4268 46.6051V50.3612L49.8662 44.3338L52.6832 38.9515Z" fill="url(#paint14_linear)"/>
<path d="M33.2055 24.0572L31.4832 22.7475L30 22.199L38.1062 43.6561L41.3117 45.5142L35.3453 27.7668L33.2055 24.0572Z" fill="url(#paint15_linear)"/>
<path d="M49.1288 5.38646L48.3194 5.18616L45.998 14.2801L48.2192 20.0954L51.5249 7.04439L49.1288 5.38646Z" fill="url(#paint16_linear)"/>
<path d="M59.9717 4.89447L57.7722 4.94965L60.9898 6.80743L53.6209 6.99204L50.4031 5.13425L48.319 5.18649L51.5245 7.04457L41.4189 45.4519L55.071 37.5698L63.1772 6.75255L59.9717 4.89447Z" fill="url(#paint17_linear)"/>
<path d="M55.9494 5.85748L53.6443 7.00517L43.9014 44.0189L52.5473 39.0272L61.0133 6.82042L55.9494 5.85748Z" fill="url(#paint18_linear)"/>
<path d="M44.8582 10.8937L41.6529 9.03564L39.5044 11.4625L42.7143 13.3157L35.3453 21.64H35.3452H35.3453L32.1354 19.7868L30 22.1989L33.2055 24.0572L41.3117 45.5142L54.9638 37.6321L44.8582 10.8937Z" fill="url(#paint19_linear)"/>
<path d="M52.4568 39.0792L42.7138 13.3157L38.0572 15.0027L35.3447 21.6399H35.3449L43.8109 44.0709L52.4568 39.0792Z" fill="url(#paint20_linear)"/>
<path d="M35.3455 21.6401L42.7146 13.3158L39.5047 11.4626L32.1357 19.7868L35.3455 21.6401Z" fill="#FF7A85"/>
<path d="M50.4043 5.1345L53.6449 7.00549L61.0138 6.82074L57.7734 4.94989L50.4043 5.1345Z" fill="#FF7A85"/>
<path d="M35.3453 21.6397L32.1354 19.7864L30 22.1988L33.2055 24.0569L35.3453 21.6397Z" fill="#FCF3B3"/>
<path d="M42.7146 13.3157L44.8587 10.8937L41.6532 9.03564L39.5049 11.4625L42.7146 13.3157Z" fill="#FCF3B3"/>
<path d="M53.644 7.00521L50.4034 5.13422L48.3193 5.18646L51.5248 7.04469L53.644 7.00521Z" fill="#FCF3B3"/>
<path d="M59.973 4.89447L63.1785 6.75255L61.0139 6.8205L57.7734 4.94965L59.973 4.89447Z" fill="#FCF3B3"/>
</g>
<defs>
<filter id="filter0_d" x="0" y="0.89447" width="93.1785" height="135.134" filterUnits="userSpaceOnUse" color-interpolation-filters="sRGB">
<feFlood flood-opacity="0" result="BackgroundImageFix"/>
<feColorMatrix in="SourceAlpha" type="matrix" values="0 0 0 0 0 0 0 0 0 0 0 0 0 0 0 0 0 0 127 0" result="hardAlpha"/>
<feOffset dy="26"/>
<feGaussianBlur stdDeviation="15"/>
<feComposite in2="hardAlpha" operator="out"/>
<feColorMatrix type="matrix" values="0 0 0 0 0 0 0 0 0 0 0 0 0 0 0 0 0 0 0.2 0"/>
<feBlend mode="normal" in2="BackgroundImageFix" result="effect1_dropShadow"/>
<feBlend mode="normal" in="SourceGraphic" in2="effect1_dropShadow" result="shape"/>
</filter>
<linearGradient id="paint0_linear" x1="37.8633" y1="67.4611" x2="45.7428" y2="53.8134" gradientUnits="userSpaceOnUse">
<stop stop-color="#E37A34"/>
<stop offset="1" stop-color="#FFC538"/>
</linearGradient>
<linearGradient id="paint1_linear" x1="49.0758" y1="73.2608" x2="49.0758" y2="22.6626" gradientUnits="userSpaceOnUse">
<stop stop-color="#F7E041"/>
<stop offset="1" stop-color="#FCF3B3"/>
</linearGradient>
<linearGradient id="paint2_linear" x1="63.2763" y1="70.856" x2="49.5662" y2="62.9406" gradientUnits="userSpaceOnUse">
<stop stop-color="white"/>
<stop offset="1" stop-color="white" stop-opacity="0"/>
</linearGradient>
<linearGradient id="paint3_linear" x1="57.5298" y1="67.0976" x2="34.7745" y2="53.9598" gradientUnits="userSpaceOnUse">
<stop stop-color="white"/>
<stop offset="1" stop-color="white" stop-opacity="0"/>
</linearGradient>
<linearGradient id="paint4_linear" x1="49.0761" y1="67.6561" x2="49.0761" y2="34.6853" gradientUnits="userSpaceOnUse">
<stop stop-color="#FFC538"/>
<stop offset="1" stop-color="#F7E041"/>
</linearGradient>
<linearGradient id="paint5_linear" x1="45.7746" y1="74.1956" x2="57.502" y2="53.883" gradientUnits="userSpaceOnUse">
<stop stop-color="#E37A34"/>
<stop offset="1" stop-color="#FFC538"/>
</linearGradient>
<linearGradient id="paint6_linear" x1="47.4621" y1="69.6296" x2="47.4621" y2="39.7962" gradientUnits="userSpaceOnUse">
<stop stop-color="#E37A34"/>
<stop offset="1" stop-color="#FFC538"/>
</linearGradient>
<linearGradient id="paint7_linear" x1="48.4367" y1="67.7471" x2="48.4367" y2="33.7676" gradientUnits="userSpaceOnUse">
<stop stop-color="#F7E041"/>
<stop offset="1" stop-color="#FCF3B3"/>
</linearGradient>
<linearGradient id="paint8_linear" x1="54.8132" y1="71.337" x2="47.1376" y2="66.9055" gradientUnits="userSpaceOnUse">
<stop stop-color="white"/>
<stop offset="1" stop-color="white" stop-opacity="0"/>
</linearGradient>
<linearGradient id="paint9_linear" x1="54.6474" y1="61.979" x2="45.4609" y2="56.675" gradientUnits="userSpaceOnUse">
<stop stop-color="white"/>
<stop offset="1" stop-color="white" stop-opacity="0"/>
</linearGradient>
<linearGradient id="paint10_linear" x1="43.7979" y1="61.768" x2="43.7979" y2="57.7884" gradientUnits="userSpaceOnUse">
<stop stop-color="#E37A34"/>
<stop offset="1" stop-color="#FFC538"/>
</linearGradient>
<linearGradient id="paint11_linear" x1="42.4681" y1="61.8701" x2="46.4876" y2="54.9082" gradientUnits="userSpaceOnUse">
<stop stop-color="#E37A34"/>
<stop offset="1" stop-color="#FFC538"/>
</linearGradient>
<linearGradient id="paint12_linear" x1="46.9125" y1="53.5979" x2="51.2818" y2="51.0752" gradientUnits="userSpaceOnUse">
<stop stop-color="#FFC538"/>
<stop offset="1" stop-color="#F7E041"/>
</linearGradient>
<linearGradient id="paint13_linear" x1="60.4757" y1="40.987" x2="54.4784" y2="37.5246" gradientUnits="userSpaceOnUse">
<stop stop-color="white"/>
<stop offset="1" stop-color="white" stop-opacity="0"/>
</linearGradient>
<linearGradient id="paint14_linear" x1="58.1734" y1="51.6528" x2="40.5629" y2="41.4855" gradientUnits="userSpaceOnUse">
<stop stop-color="white"/>
<stop offset="1" stop-color="white" stop-opacity="0"/>
</linearGradient>
<linearGradient id="paint15_linear" x1="39.6919" y1="44.3309" x2="31.4683" y2="21.6632" gradientUnits="userSpaceOnUse">
<stop stop-color="#AB2C37"/>
<stop offset="0.2005" stop-color="#B52F3B"/>
<stop offset="0.5463" stop-color="#D13846"/>
<stop offset="0.9933" stop-color="#FE4757"/>
<stop offset="1" stop-color="#FF4757"/>
</linearGradient>
<linearGradient id="paint16_linear" x1="48.7715" y1="10.62" x2="50.2008" y2="4.59639" gradientUnits="userSpaceOnUse">
<stop stop-color="#AB2C37"/>
<stop offset="0.2005" stop-color="#B52F3B"/>
<stop offset="0.5463" stop-color="#D13846"/>
<stop offset="0.9933" stop-color="#FE4757"/>
<stop offset="1" stop-color="#FF4757"/>
</linearGradient>
<linearGradient id="paint17_linear" x1="47.7784" y1="36.0055" x2="52.5727" y2="18.1003" gradientUnits="userSpaceOnUse">
<stop stop-color="#FFC538"/>
<stop offset="0.3494" stop-color="#FCD03C"/>
<stop offset="1" stop-color="#F7E041"/>
</linearGradient>
<linearGradient id="paint18_linear" x1="47.4075" y1="13.5111" x2="58.5603" y2="39.8117" gradientUnits="userSpaceOnUse">
<stop stop-color="#FF4757"/>
<stop offset="0.3032" stop-color="#FF5261"/>
<stop offset="0.8361" stop-color="#FF707C"/>
<stop offset="1" stop-color="#FF7A85"/>
</linearGradient>
<linearGradient id="paint19_linear" x1="47.039" y1="36.5051" x2="35.8503" y2="13.2672" gradientUnits="userSpaceOnUse">
<stop stop-color="#FFC538"/>
<stop offset="0.6363" stop-color="#FAD53D"/>
<stop offset="1" stop-color="#F7E041"/>
</linearGradient>
<linearGradient id="paint20_linear" x1="38.9297" y1="18.4758" x2="49.5614" y2="43.5476" gradientUnits="userSpaceOnUse">
<stop stop-color="#FF4757"/>
<stop offset="0.3032" stop-color="#FF5261"/>
<stop offset="0.8361" stop-color="#FF707C"/>
<stop offset="1" stop-color="#FF7A85"/>
</linearGradient>
</defs>
</svg>
