<svg width="94" height="137" viewBox="0 0 94 137" fill="none" xmlns="http://www.w3.org/2000/svg">
<g filter="url(#filter0_d)">
<path d="M57.0449 45.214L52.0881 42.3544C49.9435 41.1325 47.1533 41.2559 44.1021 43.0174C37.3358 46.9239 31.8506 57.4046 31.8506 66.4263C31.8506 71.1823 33.3754 74.5825 35.8083 76.1634L35.8078 76.1641L41.2657 79.3176C43.386 80.4351 57.0449 45.214 57.0449 45.214Z" fill="url(#paint0_linear)"/>
<path d="M61.3273 55.1493C61.3273 46.1274 55.8422 41.9807 49.0758 45.8873C42.3094 49.7938 36.8242 60.2745 36.8242 69.2962C36.8242 78.318 42.3094 82.4647 49.0758 78.5581C55.842 74.6515 61.3273 64.171 61.3273 55.1493Z" fill="url(#paint1_linear)"/>
<path d="M61.3268 55.1491C61.3268 52.3064 60.7818 49.9482 59.8241 48.173L43.1924 79.9509C44.9385 80.2197 46.9432 79.789 49.0752 78.5581C49.971 78.041 50.8438 77.4076 51.6849 76.6788L61.0474 58.7902C61.2298 57.5634 61.3268 56.3435 61.3268 55.1491Z" fill="url(#paint2_linear)"/>
<path d="M49.0758 45.8872C48.5347 46.1996 48.0019 46.5544 47.4795 46.9468L36.9277 67.1079C36.8597 67.8438 36.8242 68.5746 36.8242 69.2962C36.8242 74.0368 38.3392 77.4301 40.7583 79.0176L58.0702 45.9396C55.8322 44.0063 52.6311 43.8345 49.0758 45.8872Z" fill="url(#paint3_linear)"/>
<path d="M58.8239 56.5945C58.8239 49.4164 54.4596 46.1171 49.0759 49.2253C43.6923 52.3335 39.3281 60.6723 39.3281 67.8504C39.3281 75.0286 43.6925 78.3278 49.0759 75.2197C54.4596 72.1115 58.8239 63.7727 58.8239 56.5945Z" fill="url(#paint4_linear)"/>
<path d="M54.4277 48.2691C55.9528 49.6824 56.8793 52.1649 56.8793 55.4713C56.8793 62.6495 52.515 70.9882 47.1315 74.0964C45.1547 75.2378 43.3157 75.5141 41.7793 75.0528C43.5652 76.7078 46.1718 76.8962 49.0756 75.2198C54.4592 72.1116 58.8235 63.7728 58.8235 56.5947C58.8234 52.0523 57.0754 49.0642 54.4277 48.2691Z" fill="url(#paint5_linear)"/>
<path d="M52.8014 62.8253L47.7279 65.7545L49.8683 61.6913C51.4341 58.7262 52.6033 55.99 52.6033 53.8496C52.6033 53.5986 52.5869 53.3649 52.5574 53.1453L53.5482 52.4801L51.5231 51.2379L51.522 51.2387C50.6104 50.6379 49.194 50.7971 47.5496 51.7466C45.662 52.8364 43.8783 54.6795 42.1472 57.0807C41.9086 57.54 41.6833 58.009 41.4707 58.4849L43.0507 61.6636C44.3984 59.4322 45.7856 57.7063 46.836 57.0998C47.4504 56.7451 47.7873 56.8941 47.7873 57.5283C47.7873 58.1625 47.3117 59.3619 46.7369 60.4865L41.8814 69.9753L41.9013 73.8218L52.8014 67.5287V62.8253Z" fill="url(#paint6_linear)"/>
<path d="M52.8011 62.8257L54.707 63.9828L49.6335 66.9121L47.7275 65.755L52.8011 62.8257Z" fill="#A996EB"/>
<path d="M49.694 58.6861C49.694 58.0519 49.3571 57.903 48.7426 58.2577C47.6922 58.8641 46.3049 60.5899 44.9574 62.8214L43.2529 59.3926C45.2349 56.425 47.2761 54.163 49.4561 52.9044C52.3298 51.2453 54.5099 51.9949 54.5099 55.0073C54.5099 57.1477 53.3406 59.8839 51.7748 62.8488L49.6344 66.9121L54.708 63.9829V68.6865L43.8078 74.9796L43.788 71.1332L48.6436 61.6444C49.2184 60.5199 49.694 59.3204 49.694 58.6861Z" fill="url(#paint7_linear)"/>
<path d="M54.7071 63.9826L50.182 66.5952L46.6543 73.3355L54.7071 68.6862V63.9826Z" fill="url(#paint8_linear)"/>
<path d="M49.4561 52.9041C47.2762 54.1628 45.2349 56.4247 43.2529 59.3923L44.9574 62.8211C46.3051 60.5897 47.6922 58.8639 48.7426 58.2574C49.3571 57.9027 49.694 58.0516 49.694 58.6859C49.694 59.3201 49.2184 60.5194 48.6436 61.6441L43.7881 71.1329L43.7988 73.2082L54.2011 53.3328C53.5032 51.7808 51.6894 51.6147 49.4561 52.9041Z" fill="url(#paint9_linear)"/>
<path d="M41.9008 73.8226L42.0587 73.9185L43.8066 74.9796L43.7868 71.1331L41.8809 69.976" fill="#43386B"/>
<path d="M43.0507 61.6642L44.9566 62.8213L43.2522 59.3925L41.5313 58.3478C41.5106 58.3934 41.4911 58.4398 41.4707 58.4857L43.0507 61.6642Z" fill="#43386B"/>
<path d="M55.7355 33.4753L36.208 44.7495V48.5055L39.4261 50.3606L58.9536 39.0865V35.3306L55.7355 33.4753Z" fill="#FCF3B3"/>
<path d="M36.208 44.7498V48.5057L39.4261 50.3609V46.605L36.208 44.7498Z" fill="#FFA538"/>
<path d="M39.4258 50.3608V46.6047L58.9532 35.3306V39.0866L39.4258 50.3608Z" fill="#F7E041"/>
<path d="M58.9531 39.0866V35.3306L56.7477 36.6039L53.9307 41.9862L58.9531 39.0866Z" fill="url(#paint10_linear)"/>
<path d="M52.6822 38.9512L39.4258 46.6048V50.3609L49.8653 44.3335L52.6822 38.9512Z" fill="url(#paint11_linear)"/>
<path d="M33.2055 24.0573L31.4831 22.7476L30 22.199L38.1062 43.6562L41.3117 45.5143L35.3452 27.7668L33.2055 24.0573Z" fill="url(#paint12_linear)"/>
<path d="M49.129 5.38659L48.3194 5.18628L45.998 14.2802L48.2192 20.0955L51.5249 7.04436L49.129 5.38659Z" fill="url(#paint13_linear)"/>
<path d="M59.9719 4.89453L57.7722 4.94971L60.99 6.80749L53.6211 6.9921L50.4032 5.13431L48.319 5.18655L51.5245 7.04463L41.4189 45.452L55.0712 37.5699L63.1774 6.75261L59.9719 4.89453Z" fill="url(#paint14_linear)"/>
<path d="M55.9494 5.85754L53.6443 7.00523L43.9014 44.0189L52.5471 39.0273L61.0133 6.82048L55.9494 5.85754Z" fill="url(#paint15_linear)"/>
<path d="M44.8582 10.8938L41.6527 9.03571L39.5044 11.4626L42.7142 13.3158L35.3452 21.64L32.1354 19.7868L30 22.199L33.2055 24.0572L41.3117 45.5142L54.9638 37.6321L44.8582 10.8938Z" fill="url(#paint16_linear)"/>
<path d="M52.4568 39.0792L42.7138 13.3157L37.5597 16.2201L35.3447 21.64L43.8109 44.0709L52.4568 39.0792Z" fill="url(#paint17_linear)"/>
<path d="M35.3455 21.6401L42.7146 13.3159L39.5047 11.4626L32.1357 19.7869L35.3455 21.6401Z" fill="#9BF0DF"/>
<path d="M50.4043 5.13462L53.6449 7.00561L61.0138 6.82086L57.7732 4.95001L50.4043 5.13462Z" fill="#9BF0DF"/>
<path d="M35.3452 21.6402L32.1354 19.7869L30 22.1993L33.2055 24.0573L35.3452 21.6402Z" fill="#C3F6EC"/>
<path d="M42.7148 13.3158L44.8587 10.8938L41.6532 9.03571L39.5049 11.4626L42.7148 13.3158Z" fill="#C3F6EC"/>
<path d="M53.6441 7.00527L50.4035 5.13428L48.3193 5.18652L51.5248 7.0446L53.6441 7.00527Z" fill="#C3F6EC"/>
<path d="M59.9731 4.89453L63.1786 6.75261L61.014 6.82055L57.7734 4.94971L59.9731 4.89453Z" fill="#C3F6EC"/>
</g>
<defs>
<filter id="filter0_d" x="0" y="0.894531" width="93.1786" height="135.134" filterUnits="userSpaceOnUse" color-interpolation-filters="sRGB">
<feFlood flood-opacity="0" result="BackgroundImageFix"/>
<feColorMatrix in="SourceAlpha" type="matrix" values="0 0 0 0 0 0 0 0 0 0 0 0 0 0 0 0 0 0 127 0" result="hardAlpha"/>
<feOffset dy="26"/>
<feGaussianBlur stdDeviation="15"/>
<feComposite in2="hardAlpha" operator="out"/>
<feColorMatrix type="matrix" values="0 0 0 0 0 0 0 0 0 0 0 0 0 0 0 0 0 0 0.2 0"/>
<feBlend mode="normal" in2="BackgroundImageFix" result="effect1_dropShadow"/>
<feBlend mode="normal" in="SourceGraphic" in2="effect1_dropShadow" result="shape"/>
</filter>
<linearGradient id="paint0_linear" x1="37.8633" y1="67.4611" x2="45.7428" y2="53.8134" gradientUnits="userSpaceOnUse">
<stop stop-color="#7662BD"/>
<stop offset="1" stop-color="#D7D1EB"/>
</linearGradient>
<linearGradient id="paint1_linear" x1="49.0758" y1="73.2612" x2="49.0758" y2="22.6631" gradientUnits="userSpaceOnUse">
<stop stop-color="#D7D1EB"/>
<stop offset="1" stop-color="#E9E5F6"/>
</linearGradient>
<linearGradient id="paint2_linear" x1="63.2761" y1="70.8562" x2="49.5661" y2="62.9408" gradientUnits="userSpaceOnUse">
<stop stop-color="white"/>
<stop offset="1" stop-color="white" stop-opacity="0"/>
</linearGradient>
<linearGradient id="paint3_linear" x1="57.5296" y1="67.0976" x2="34.7745" y2="53.9599" gradientUnits="userSpaceOnUse">
<stop stop-color="white"/>
<stop offset="1" stop-color="white" stop-opacity="0"/>
</linearGradient>
<linearGradient id="paint4_linear" x1="49.0761" y1="77.9283" x2="49.0761" y2="44.9575" gradientUnits="userSpaceOnUse">
<stop stop-color="#A996EB"/>
<stop offset="1" stop-color="#E9E5F6"/>
</linearGradient>
<linearGradient id="paint5_linear" x1="45.7744" y1="74.1955" x2="57.502" y2="53.883" gradientUnits="userSpaceOnUse">
<stop stop-color="#7662BD"/>
<stop offset="1" stop-color="#D7D1EB"/>
</linearGradient>
<linearGradient id="paint6_linear" x1="45.7636" y1="62.1851" x2="54.7213" y2="57.0135" gradientUnits="userSpaceOnUse">
<stop stop-color="#7662BD"/>
<stop offset="1" stop-color="#D7D1EB"/>
</linearGradient>
<linearGradient id="paint7_linear" x1="48.9805" y1="76.6668" x2="48.9805" y2="48.3169" gradientUnits="userSpaceOnUse">
<stop stop-color="#D7D1EB"/>
<stop offset="1" stop-color="#E9E5F6"/>
</linearGradient>
<linearGradient id="paint8_linear" x1="57.9655" y1="72.8649" x2="48.518" y2="67.4104" gradientUnits="userSpaceOnUse">
<stop stop-color="white"/>
<stop offset="1" stop-color="white" stop-opacity="0"/>
</linearGradient>
<linearGradient id="paint9_linear" x1="54.8686" y1="66.4109" x2="38.4268" y2="56.9183" gradientUnits="userSpaceOnUse">
<stop stop-color="white"/>
<stop offset="1" stop-color="white" stop-opacity="0"/>
</linearGradient>
<linearGradient id="paint10_linear" x1="60.4749" y1="40.9868" x2="54.4776" y2="37.5243" gradientUnits="userSpaceOnUse">
<stop stop-color="white"/>
<stop offset="1" stop-color="white" stop-opacity="0"/>
</linearGradient>
<linearGradient id="paint11_linear" x1="58.1724" y1="51.6525" x2="40.5619" y2="41.4852" gradientUnits="userSpaceOnUse">
<stop stop-color="white"/>
<stop offset="1" stop-color="white" stop-opacity="0"/>
</linearGradient>
<linearGradient id="paint12_linear" x1="39.6919" y1="44.3309" x2="31.4682" y2="21.6633" gradientUnits="userSpaceOnUse">
<stop stop-color="#2F878A"/>
<stop offset="0.2073" stop-color="#2A928F"/>
<stop offset="0.5729" stop-color="#1BB09C"/>
<stop offset="1" stop-color="#06DAAE"/>
</linearGradient>
<linearGradient id="paint13_linear" x1="48.7715" y1="10.6201" x2="50.2008" y2="4.59651" gradientUnits="userSpaceOnUse">
<stop stop-color="#2F878A"/>
<stop offset="0.2073" stop-color="#2A928F"/>
<stop offset="0.5729" stop-color="#1BB09C"/>
<stop offset="1" stop-color="#06DAAE"/>
</linearGradient>
<linearGradient id="paint14_linear" x1="47.7786" y1="36.0056" x2="52.5729" y2="18.1004" gradientUnits="userSpaceOnUse">
<stop stop-color="#9BF0DF"/>
<stop offset="0.0917" stop-color="#9EF1E0"/>
<stop offset="0.5538" stop-color="#ABF2E4"/>
<stop offset="1" stop-color="#AFF3E5"/>
</linearGradient>
<linearGradient id="paint15_linear" x1="47.4075" y1="13.5112" x2="58.5603" y2="39.8118" gradientUnits="userSpaceOnUse">
<stop stop-color="#06DAAE"/>
<stop offset="0.1313" stop-color="#11DCB2"/>
<stop offset="0.3631" stop-color="#2FE0BB"/>
<stop offset="0.6679" stop-color="#5FE7CB"/>
<stop offset="1" stop-color="#9BF0DF"/>
</linearGradient>
<linearGradient id="paint16_linear" x1="47.0388" y1="36.5051" x2="35.8503" y2="13.2672" gradientUnits="userSpaceOnUse">
<stop stop-color="#9BF0DF"/>
<stop offset="0.0917" stop-color="#9EF1E0"/>
<stop offset="0.5538" stop-color="#ABF2E4"/>
<stop offset="1" stop-color="#AFF3E5"/>
</linearGradient>
<linearGradient id="paint17_linear" x1="39.0204" y1="18.6898" x2="49.555" y2="43.5328" gradientUnits="userSpaceOnUse">
<stop stop-color="#06DAAE"/>
<stop offset="0.1313" stop-color="#11DCB2"/>
<stop offset="0.3631" stop-color="#2FE0BB"/>
<stop offset="0.6679" stop-color="#5FE7CB"/>
<stop offset="1" stop-color="#9BF0DF"/>
</linearGradient>
</defs>
</svg>
