<svg width="21" height="21" viewBox="0 0 21 21" fill="none" xmlns="http://www.w3.org/2000/svg">
<path d="M13.9851 1.72736H6.74633C3.60203 1.72736 1.72754 3.60184 1.72754 6.74615V13.9763C1.72754 17.1293 3.60203 19.0037 6.74633 19.0037H13.9765C17.1208 19.0037 18.9953 17.1293 18.9953 13.985V6.74615C19.0039 3.60184 17.1294 1.72736 13.9851 1.72736ZM14.4948 8.37877L9.59693 13.2766C9.476 13.3976 9.31187 13.4667 9.13911 13.4667C8.96635 13.4667 8.80222 13.3976 8.68129 13.2766L6.23668 10.832C5.98617 10.5815 5.98617 10.1669 6.23668 9.91636C6.48718 9.66586 6.90182 9.66586 7.15233 9.91636L9.13911 11.9031L13.5791 7.46312C13.8296 7.21261 14.2443 7.21261 14.4948 7.46312C14.7453 7.71362 14.7453 8.11962 14.4948 8.37877Z" fill="#AFAFAF"/>
</svg>
