<svg id="Group_5" data-name="Group 5" xmlns="http://www.w3.org/2000/svg" viewBox="0 0 212.398 184.34">
  <ellipse id="Ellipse_9" data-name="Ellipse 9" cx="13.459" cy="15.311" rx="13.459" ry="15.311" transform="translate(16.881 78.228)" fill="#ff6584"/>
  <path id="Path_20" data-name="Path 20" d="M363.573,424.66h-.014a1.925,1.925,0,0,1-1.788-2.033V303.252a1.925,1.925,0,0,1,1.788-2.033h88.324a1.925,1.925,0,0,1,1.788,2.033v92.82a1.927,1.927,0,0,1-1.774,2.033Z" transform="translate(-305.671 -244.641)" fill="#f2f2f2"/>
  <path id="Path_21" data-name="Path 21" d="M526.779,137.9H485.772V110.871a2.038,2.038,0,0,1,1.893-2.153h37.222a2.038,2.038,0,0,1,1.893,2.153Zm-40.587-.478h40.166V110.871a1.585,1.585,0,0,0-1.472-1.675H487.664a1.585,1.585,0,0,0-1.472,1.675Z" transform="translate(-403.594 -98.192)" fill="#3f3d56"/>
  <path id="Path_22" data-name="Path 22" d="M439.954,87h17.665a1.809,1.809,0,0,1,1.682,1.914v28.707h-21.03V88.914A1.809,1.809,0,0,1,439.954,87Z" transform="translate(-346.105 -66.187)" fill="#e6e6e6"/>
  <path id="Path_23" data-name="Path 23" d="M525.394,75.723h-8.622V65.914a1.132,1.132,0,0,1,1.052-1.2h6.519a1.132,1.132,0,0,1,1.051,1.2Zm-8.2-.478h7.781v-9.33a.679.679,0,0,0-.631-.718h-6.519a.679.679,0,0,0-.631.718Z" transform="translate(-428.075 -64.718)" fill="#3f3d56"/>
  <path id="Path_24" data-name="Path 24" d="M839.079,493.056c-.084,0-.165,0-.249,0a20,20,0,0,1-14.068-6.255q-.214-.222-.425-.449l-.065-.071V440.43l.02-.048c.139-.336.28-.667.422-1,4.374-10.1,9.476-15.665,14.365-15.665,7.051,0,12.52,11,15.152,17.562,3.66,9.12,6.216,20.422,6.216,27.483,0,13.312-9.422,24.143-21.124,24.291C839.244,493.056,839.16,493.056,839.079,493.056Zm-14.386-6.983q.175.188.352.371a19.6,19.6,0,0,0,13.793,6.131c.085,0,.166,0,.247,0s.155,0,.231,0c11.422-.144,20.711-10.827,20.711-23.813,0-7-2.541-18.219-6.178-27.284-2.59-6.454-7.953-17.282-14.769-17.282-4.721,0-9.688,5.468-13.987,15.4-.133.312-.267.626-.4.943Z" transform="translate(-670.909 -337.835)" fill="#3f3d56"/>
  <path id="Path_25" data-name="Path 25" d="M893.768,654.374a.26.26,0,0,1-.242-.275V597.912a.244.244,0,1,1,.484,0V654.1a.26.26,0,0,1-.242.275Z" transform="translate(-725.6 -470.148)" fill="#ccc"/>
  <path id="Path_26" data-name="Path 26" d="M296.768,654.374a.26.26,0,0,1-.242-.275V597.912a.244.244,0,1,1,.484,0V654.1a.26.26,0,0,1-.242.275Z" transform="translate(-254.146 -470.148)" fill="#ccc"/>
  <path id="Path_27" data-name="Path 27" d="M848.073,590.152a.23.23,0,0,1-.183-.095l-12.169-15.964a.3.3,0,0,1,.024-.388.222.222,0,0,1,.341.028L848.256,589.7a.306.306,0,0,1,.037.295A.243.243,0,0,1,848.073,590.152Z" transform="translate(-679.905 -451.89)" fill="#ccc"/>
  <path id="Path_28" data-name="Path 28" d="M893.768,654.415a.244.244,0,0,1-.224-.17.3.3,0,0,1,.052-.3l6.914-7.866a.222.222,0,0,1,.342,0,.3.3,0,0,1,0,.389l-6.914,7.866a.227.227,0,0,1-.171.081Z" transform="translate(-725.6 -506.94)" fill="#ccc"/>
  <path id="Path_29" data-name="Path 29" d="M933.205,801.806H915.119v-.239c0-5.682,4.049-10.287,9.043-10.287s9.043,4.606,9.043,10.287Zm-17.663-.479h17.24c-.114-5.323-3.94-9.57-8.62-9.57S915.656,796,915.542,801.327Z" transform="translate(-742.652 -617.465)" fill="#3f3d56"/>
  <path id="Path_30" data-name="Path 30" d="M946.467,809.875a.257.257,0,0,0-.239.272v2.885l-2.47-2.412a.219.219,0,0,0-.337.029.3.3,0,0,0,.026.383l2.781,2.716v1.7a.241.241,0,1,0,.477,0v-5.3A.257.257,0,0,0,946.467,809.875Z" transform="translate(-764.957 -631.612)" fill="#3f3d56"/>
  <path id="Path_31" data-name="Path 31" d="M212.205,801.806H194.119v-.239c0-5.682,4.049-10.287,9.043-10.287s9.043,4.606,9.043,10.287Zm-17.663-.479h17.24c-.114-5.323-3.94-9.57-8.62-9.57s-8.506,4.247-8.62,9.57Z" transform="translate(-173.275 -617.465)" fill="#3f3d56"/>
  <path id="Path_32" data-name="Path 32" d="M225.467,809.875a.257.257,0,0,0-.239.272v2.885l-2.47-2.412a.219.219,0,0,0-.337.029.3.3,0,0,0,.026.383l2.781,2.716v1.7a.241.241,0,1,0,.477,0v-5.3A.257.257,0,0,0,225.467,809.875Z" transform="translate(-195.58 -631.612)" fill="#3f3d56"/>
  <path id="Path_33" data-name="Path 33" d="M218.432,493.056c-.084,0-.165,0-.249,0-11.7-.15-21.117-10.98-21.121-24.291,0-7.061,2.556-18.362,6.217-27.483,2.632-6.559,8.1-17.562,15.154-17.562,2.9,0,5.83,1.883,8.694,5.6.142.183.284.372.425.565l.048.066v60.761l-.119.065c-.142.078-.285.151-.429.222a19.016,19.016,0,0,1-8.375,2.058C218.6,493.056,218.514,493.056,218.432,493.056Zm0-68.859c-6.817,0-12.181,10.828-14.771,17.282-3.638,9.064-6.179,20.284-6.179,27.284,0,12.984,9.29,23.666,20.708,23.813.085,0,.164,0,.247,0s.155,0,.231,0a18.646,18.646,0,0,0,8.214-2.018c.1-.049.2-.1.3-.15V430.12q-.183-.25-.368-.488C224.029,426.025,221.21,424.2,218.432,424.2Z" transform="translate(-175.599 -337.835)" fill="#3f3d56"/>
  <path id="Path_34" data-name="Path 34" d="M252.073,590.152a.23.23,0,0,1-.183-.095l-12.169-15.964a.3.3,0,0,1,.024-.388.222.222,0,0,1,.341.028L252.256,589.7a.306.306,0,0,1,.037.295.242.242,0,0,1-.22.161Z" transform="translate(-209.241 -451.89)" fill="#ccc"/>
  <path id="Path_35" data-name="Path 35" d="M297.768,654.415a.244.244,0,0,1-.224-.17.3.3,0,0,1,.052-.3l6.914-7.866a.222.222,0,0,1,.342,0,.3.3,0,0,1,0,.389l-6.914,7.866A.227.227,0,0,1,297.768,654.415Z" transform="translate(-254.936 -506.94)" fill="#ccc"/>
  <path id="Path_36" data-name="Path 36" d="M350.526,231.111l.156.349a1.178,1.178,0,0,1,.105.488v9.45h7.36v-9.45a1.178,1.178,0,0,1,.105-.488l.156-.349Zm7.2.837v8.971h-6.519v-8.971a1.7,1.7,0,0,0-.038-.359h6.595A1.7,1.7,0,0,0,357.726,231.948Zm2.052-.837.156.349a1.176,1.176,0,0,1,.105.488v9.45h7.36v-9.45a1.177,1.177,0,0,1,.105-.488l.156-.349Zm7.2.837v8.971H360.46v-8.971a1.7,1.7,0,0,0-.038-.359h6.595a1.7,1.7,0,0,0-.038.359Zm2.052-.837.156.349a1.177,1.177,0,0,1,.105.488v9.45h7.36v-9.45a1.177,1.177,0,0,1,.105-.488l.156-.349Zm7.2.837v8.971h-6.519v-8.971a1.7,1.7,0,0,0-.038-.359h6.595A1.7,1.7,0,0,0,376.232,231.948Zm2.052-.837.156.349a1.178,1.178,0,0,1,.105.488v9.45h7.36v-9.45a1.177,1.177,0,0,1,.105-.488l.156-.349Zm7.2.837v8.971h-6.519v-8.971a1.7,1.7,0,0,0-.038-.359h6.595A1.7,1.7,0,0,0,385.485,231.948Zm2.052-.837.156.349a1.177,1.177,0,0,1,.105.488v9.45h7.36v-9.45a1.177,1.177,0,0,1,.105-.488l.156-.349Zm7.2.837v8.971h-6.519v-8.971a1.7,1.7,0,0,0-.038-.359h6.595A1.7,1.7,0,0,0,394.738,231.948Zm2.052-.837.156.349a1.178,1.178,0,0,1,.105.488v9.45h7.36v-9.45a1.178,1.178,0,0,1,.105-.488l.156-.349Zm7.2.837v8.971h-6.519v-8.971a1.7,1.7,0,0,0-.038-.359h6.595A1.7,1.7,0,0,0,403.991,231.948Zm2.052-.837.156.349a1.177,1.177,0,0,1,.105.488v9.45h7.36v-9.45a1.177,1.177,0,0,1,.105-.488l.156-.349Zm7.2.837v8.971h-6.519v-8.971a1.7,1.7,0,0,0-.038-.359h6.595a1.7,1.7,0,0,0-.038.359Zm2.052-.837.156.349a1.178,1.178,0,0,1,.105.488v9.45h7.36v-9.45a1.177,1.177,0,0,1,.105-.488l.156-.349Zm7.2.837v8.971h-6.519v-8.971a1.7,1.7,0,0,0-.038-.359h6.595a1.7,1.7,0,0,0-.038.359Zm2.052-.837.156.349a1.177,1.177,0,0,1,.105.488v9.45h7.36v-9.45a1.177,1.177,0,0,1,.105-.488l.156-.349Zm7.2.837v8.971h-6.519v-8.971a1.7,1.7,0,0,0-.038-.359h6.595A1.7,1.7,0,0,0,431.75,231.948Zm-7.2-.837.156.349a1.177,1.177,0,0,1,.105.488v9.45h7.36v-9.45a1.177,1.177,0,0,1,.105-.488l.156-.349Zm7.2.837v8.971h-6.519v-8.971a1.7,1.7,0,0,0-.038-.359h6.595A1.7,1.7,0,0,0,431.75,231.948Zm-16.454-.837.156.349a1.178,1.178,0,0,1,.105.488v9.45h7.36v-9.45a1.177,1.177,0,0,1,.105-.488l.156-.349Zm7.2.837v8.971h-6.519v-8.971a1.7,1.7,0,0,0-.038-.359h6.595a1.7,1.7,0,0,0-.038.359Zm-16.453-.837.156.349a1.177,1.177,0,0,1,.105.488v9.45h7.36v-9.45a1.177,1.177,0,0,1,.105-.488l.156-.349Zm7.2.837v8.971h-6.519v-8.971a1.7,1.7,0,0,0-.038-.359h6.595a1.7,1.7,0,0,0-.038.359Zm-16.454-.837.156.349a1.178,1.178,0,0,1,.105.488v9.45h7.36v-9.45a1.178,1.178,0,0,1,.105-.488l.156-.349Zm7.2.837v8.971h-6.519v-8.971a1.7,1.7,0,0,0-.038-.359h6.595A1.7,1.7,0,0,0,403.991,231.948Zm-16.454-.837.156.349a1.177,1.177,0,0,1,.105.488v9.45h7.36v-9.45a1.177,1.177,0,0,1,.105-.488l.156-.349Zm7.2.837v8.971h-6.519v-8.971a1.7,1.7,0,0,0-.038-.359h6.595A1.7,1.7,0,0,0,394.738,231.948Zm-16.454-.837.156.349a1.178,1.178,0,0,1,.105.488v9.45h7.36v-9.45a1.177,1.177,0,0,1,.105-.488l.156-.349Zm7.2.837v8.971h-6.519v-8.971a1.7,1.7,0,0,0-.038-.359h6.595A1.7,1.7,0,0,0,385.485,231.948Zm-16.454-.837.156.349a1.177,1.177,0,0,1,.105.488v9.45h7.36v-9.45a1.177,1.177,0,0,1,.105-.488l.156-.349Zm7.2.837v8.971h-6.519v-8.971a1.7,1.7,0,0,0-.038-.359h6.595A1.7,1.7,0,0,0,376.232,231.948Zm-16.454-.837.156.349a1.176,1.176,0,0,1,.105.488v9.45h7.36v-9.45a1.177,1.177,0,0,1,.105-.488l.156-.349Zm7.2.837v8.971H360.46v-8.971a1.7,1.7,0,0,0-.038-.359h6.595a1.7,1.7,0,0,0-.038.359Zm-16.454-.837.156.349a1.178,1.178,0,0,1,.105.488v9.45h7.36v-9.45a1.178,1.178,0,0,1,.105-.488l.156-.349Zm7.2.837v8.971h-6.519v-8.971a1.7,1.7,0,0,0-.038-.359h6.595A1.7,1.7,0,0,0,357.726,231.948Zm66.823-.837.156.349a1.177,1.177,0,0,1,.105.488v9.45h7.36v-9.45a1.177,1.177,0,0,1,.105-.488l.156-.349Zm7.2.837v8.971h-6.519v-8.971a1.7,1.7,0,0,0-.038-.359h6.595A1.7,1.7,0,0,0,431.75,231.948Zm-16.454-.837.156.349a1.178,1.178,0,0,1,.105.488v9.45h7.36v-9.45a1.177,1.177,0,0,1,.105-.488l.156-.349Zm7.2.837v8.971h-6.519v-8.971a1.7,1.7,0,0,0-.038-.359h6.595a1.7,1.7,0,0,0-.038.359Zm-16.453-.837.156.349a1.177,1.177,0,0,1,.105.488v9.45h7.36v-9.45a1.177,1.177,0,0,1,.105-.488l.156-.349Zm7.2.837v8.971h-6.519v-8.971a1.7,1.7,0,0,0-.038-.359h6.595a1.7,1.7,0,0,0-.038.359Zm-16.454-.837.156.349a1.178,1.178,0,0,1,.105.488v9.45h7.36v-9.45a1.178,1.178,0,0,1,.105-.488l.156-.349Zm7.2.837v8.971h-6.519v-8.971a1.7,1.7,0,0,0-.038-.359h6.595A1.7,1.7,0,0,0,403.991,231.948Zm-16.454-.837.156.349a1.177,1.177,0,0,1,.105.488v9.45h7.36v-9.45a1.177,1.177,0,0,1,.105-.488l.156-.349Zm7.2.837v8.971h-6.519v-8.971a1.7,1.7,0,0,0-.038-.359h6.595A1.7,1.7,0,0,0,394.738,231.948Zm-16.454-.837.156.349a1.178,1.178,0,0,1,.105.488v9.45h7.36v-9.45a1.177,1.177,0,0,1,.105-.488l.156-.349Zm7.2.837v8.971h-6.519v-8.971a1.7,1.7,0,0,0-.038-.359h6.595A1.7,1.7,0,0,0,385.485,231.948Zm-16.454-.837.156.349a1.177,1.177,0,0,1,.105.488v9.45h7.36v-9.45a1.177,1.177,0,0,1,.105-.488l.156-.349Zm7.2.837v8.971h-6.519v-8.971a1.7,1.7,0,0,0-.038-.359h6.595A1.7,1.7,0,0,0,376.232,231.948Zm-16.454-.837.156.349a1.176,1.176,0,0,1,.105.488v9.45h7.36v-9.45a1.177,1.177,0,0,1,.105-.488l.156-.349Zm7.2.837v8.971H360.46v-8.971a1.7,1.7,0,0,0-.038-.359h6.595a1.7,1.7,0,0,0-.038.359Zm-16.454-.837.156.349a1.178,1.178,0,0,1,.105.488v9.45h7.36v-9.45a1.178,1.178,0,0,1,.105-.488l.156-.349Zm7.2.837v8.971h-6.519v-8.971a1.7,1.7,0,0,0-.038-.359h6.595A1.7,1.7,0,0,0,357.726,231.948Zm66.823-.837.156.349a1.177,1.177,0,0,1,.105.488v9.45h7.36v-9.45a1.177,1.177,0,0,1,.105-.488l.156-.349Zm7.2.837v8.971h-6.519v-8.971a1.7,1.7,0,0,0-.038-.359h6.595A1.7,1.7,0,0,0,431.75,231.948Zm-16.454-.837.156.349a1.178,1.178,0,0,1,.105.488v9.45h7.36v-9.45a1.177,1.177,0,0,1,.105-.488l.156-.349Zm7.2.837v8.971h-6.519v-8.971a1.7,1.7,0,0,0-.038-.359h6.595a1.7,1.7,0,0,0-.038.359Zm-16.453-.837.156.349a1.177,1.177,0,0,1,.105.488v9.45h7.36v-9.45a1.177,1.177,0,0,1,.105-.488l.156-.349Zm7.2.837v8.971h-6.519v-8.971a1.7,1.7,0,0,0-.038-.359h6.595a1.7,1.7,0,0,0-.038.359Zm-16.454-.837.156.349a1.178,1.178,0,0,1,.105.488v9.45h7.36v-9.45a1.178,1.178,0,0,1,.105-.488l.156-.349Zm7.2.837v8.971h-6.519v-8.971a1.7,1.7,0,0,0-.038-.359h6.595A1.7,1.7,0,0,0,403.991,231.948Zm-16.454-.837.156.349a1.177,1.177,0,0,1,.105.488v9.45h7.36v-9.45a1.177,1.177,0,0,1,.105-.488l.156-.349Zm7.2.837v8.971h-6.519v-8.971a1.7,1.7,0,0,0-.038-.359h6.595A1.7,1.7,0,0,0,394.738,231.948Zm-16.454-.837.156.349a1.178,1.178,0,0,1,.105.488v9.45h7.36v-9.45a1.177,1.177,0,0,1,.105-.488l.156-.349Zm7.2.837v8.971h-6.519v-8.971a1.7,1.7,0,0,0-.038-.359h6.595A1.7,1.7,0,0,0,385.485,231.948Zm-16.454-.837.156.349a1.177,1.177,0,0,1,.105.488v9.45h7.36v-9.45a1.177,1.177,0,0,1,.105-.488l.156-.349Zm7.2.837v8.971h-6.519v-8.971a1.7,1.7,0,0,0-.038-.359h6.595A1.7,1.7,0,0,0,376.232,231.948Zm-16.454-.837.156.349a1.176,1.176,0,0,1,.105.488v9.45h7.36v-9.45a1.177,1.177,0,0,1,.105-.488l.156-.349Zm7.2.837v8.971H360.46v-8.971a1.7,1.7,0,0,0-.038-.359h6.595a1.7,1.7,0,0,0-.038.359Zm-16.454-.837.156.349a1.178,1.178,0,0,1,.105.488v9.45h7.36v-9.45a1.178,1.178,0,0,1,.105-.488l.156-.349Zm7.2.837v8.971h-6.519v-8.971a1.7,1.7,0,0,0-.038-.359h6.595A1.7,1.7,0,0,0,357.726,231.948Zm66.823-.837.156.349a1.177,1.177,0,0,1,.105.488v9.45h7.36v-9.45a1.177,1.177,0,0,1,.105-.488l.156-.349Zm7.2.837v8.971h-6.519v-8.971a1.7,1.7,0,0,0-.038-.359h6.595A1.7,1.7,0,0,0,431.75,231.948Zm-16.454-.837.156.349a1.178,1.178,0,0,1,.105.488v9.45h7.36v-9.45a1.177,1.177,0,0,1,.105-.488l.156-.349Zm7.2.837v8.971h-6.519v-8.971a1.7,1.7,0,0,0-.038-.359h6.595a1.7,1.7,0,0,0-.038.359Zm-16.453-.837.156.349a1.177,1.177,0,0,1,.105.488v9.45h7.36v-9.45a1.177,1.177,0,0,1,.105-.488l.156-.349Zm7.2.837v8.971h-6.519v-8.971a1.7,1.7,0,0,0-.038-.359h6.595a1.7,1.7,0,0,0-.038.359Zm-16.454-.837.156.349a1.178,1.178,0,0,1,.105.488v9.45h7.36v-9.45a1.178,1.178,0,0,1,.105-.488l.156-.349Zm7.2.837v8.971h-6.519v-8.971a1.7,1.7,0,0,0-.038-.359h6.595A1.7,1.7,0,0,0,403.991,231.948Zm-16.454-.837.156.349a1.177,1.177,0,0,1,.105.488v9.45h7.36v-9.45a1.177,1.177,0,0,1,.105-.488l.156-.349Zm7.2.837v8.971h-6.519v-8.971a1.7,1.7,0,0,0-.038-.359h6.595A1.7,1.7,0,0,0,394.738,231.948Zm-16.454-.837.156.349a1.178,1.178,0,0,1,.105.488v9.45h7.36v-9.45a1.177,1.177,0,0,1,.105-.488l.156-.349Zm7.2.837v8.971h-6.519v-8.971a1.7,1.7,0,0,0-.038-.359h6.595A1.7,1.7,0,0,0,385.485,231.948Zm-16.454-.837.156.349a1.177,1.177,0,0,1,.105.488v9.45h7.36v-9.45a1.177,1.177,0,0,1,.105-.488l.156-.349Zm7.2.837v8.971h-6.519v-8.971a1.7,1.7,0,0,0-.038-.359h6.595A1.7,1.7,0,0,0,376.232,231.948Zm-16.454-.837.156.349a1.176,1.176,0,0,1,.105.488v9.45h7.36v-9.45a1.177,1.177,0,0,1,.105-.488l.156-.349Zm7.2.837v8.971H360.46v-8.971a1.7,1.7,0,0,0-.038-.359h6.595a1.7,1.7,0,0,0-.038.359Zm-16.454-.837.156.349a1.178,1.178,0,0,1,.105.488v9.45h7.36v-9.45a1.178,1.178,0,0,1,.105-.488l.156-.349Zm7.2.837v8.971h-6.519v-8.971a1.7,1.7,0,0,0-.038-.359h6.595A1.7,1.7,0,0,0,357.726,231.948Zm66.823-.837.156.349a1.177,1.177,0,0,1,.105.488v9.45h7.36v-9.45a1.177,1.177,0,0,1,.105-.488l.156-.349Zm7.2.837v8.971h-6.519v-8.971a1.7,1.7,0,0,0-.038-.359h6.595A1.7,1.7,0,0,0,431.75,231.948Zm-16.3-.488a1.178,1.178,0,0,1,.105.488v9.45h7.36v-9.45a1.177,1.177,0,0,1,.105-.488l.156-.349H415.3Zm7.083.129a1.7,1.7,0,0,0-.038.359v8.971h-6.519v-8.971a1.7,1.7,0,0,0-.038-.359ZM406.2,231.46a1.177,1.177,0,0,1,.105.488v9.45h7.36v-9.45a1.177,1.177,0,0,1,.105-.488l.156-.349h-7.882Zm7.083.129a1.7,1.7,0,0,0-.038.359v8.971h-6.519v-8.971a1.7,1.7,0,0,0-.038-.359Zm-16.336-.129a1.178,1.178,0,0,1,.105.488v9.45h7.36v-9.45a1.178,1.178,0,0,1,.105-.488l.156-.349h-7.882Zm7.083.129a1.7,1.7,0,0,0-.038.359v8.971h-6.519v-8.971a1.7,1.7,0,0,0-.038-.359Zm-16.336-.129a1.177,1.177,0,0,1,.105.488v9.45h7.36v-9.45a1.177,1.177,0,0,1,.105-.488l.156-.349h-7.882Zm7.083.129a1.7,1.7,0,0,0-.038.359v8.971h-6.519v-8.971a1.7,1.7,0,0,0-.038-.359Zm-16.336-.129a1.178,1.178,0,0,1,.105.488v9.45h7.36v-9.45a1.177,1.177,0,0,1,.105-.488l.156-.349h-7.882Zm7.083.129a1.7,1.7,0,0,0-.038.359v8.971h-6.519v-8.971a1.7,1.7,0,0,0-.038-.359Zm-16.336-.129a1.177,1.177,0,0,1,.105.488v9.45h7.36v-9.45a1.177,1.177,0,0,1,.105-.488l.156-.349h-7.882Zm7.083.129a1.7,1.7,0,0,0-.038.359v8.971h-6.519v-8.971a1.7,1.7,0,0,0-.038-.359Zm-16.336-.129a1.176,1.176,0,0,1,.105.488v9.45h7.36v-9.45a1.177,1.177,0,0,1,.105-.488l.156-.349h-7.882Zm7.083.129a1.7,1.7,0,0,0-.038.359v8.971H360.46v-8.971a1.7,1.7,0,0,0-.038-.359Zm-16.336-.129a1.178,1.178,0,0,1,.105.488v9.45h7.36v-9.45a1.178,1.178,0,0,1,.105-.488l.156-.349h-7.882Zm7.083.129a1.7,1.7,0,0,0-.038.359v8.971h-6.519v-8.971a1.7,1.7,0,0,0-.038-.359Zm66.941-.129a1.177,1.177,0,0,1,.105.488v9.45h7.36v-9.45a1.177,1.177,0,0,1,.105-.488l.156-.349h-7.882Zm7.083.129a1.7,1.7,0,0,0-.038.359v8.971h-6.519v-8.971a1.7,1.7,0,0,0-.038-.359Zm-16.336-.129a1.178,1.178,0,0,1,.105.488v9.45h7.36v-9.45a1.177,1.177,0,0,1,.105-.488l.156-.349H415.3Zm7.083.129a1.7,1.7,0,0,0-.038.359v8.971h-6.519v-8.971a1.7,1.7,0,0,0-.038-.359ZM406.2,231.46a1.177,1.177,0,0,1,.105.488v9.45h7.36v-9.45a1.177,1.177,0,0,1,.105-.488l.156-.349h-7.882Zm7.083.129a1.7,1.7,0,0,0-.038.359v8.971h-6.519v-8.971a1.7,1.7,0,0,0-.038-.359Zm-16.336-.129a1.178,1.178,0,0,1,.105.488v9.45h7.36v-9.45a1.178,1.178,0,0,1,.105-.488l.156-.349h-7.882Zm7.083.129a1.7,1.7,0,0,0-.038.359v8.971h-6.519v-8.971a1.7,1.7,0,0,0-.038-.359Zm-16.336-.129a1.177,1.177,0,0,1,.105.488v9.45h7.36v-9.45a1.177,1.177,0,0,1,.105-.488l.156-.349h-7.882Zm7.083.129a1.7,1.7,0,0,0-.038.359v8.971h-6.519v-8.971a1.7,1.7,0,0,0-.038-.359Zm-16.336-.129a1.178,1.178,0,0,1,.105.488v9.45h7.36v-9.45a1.177,1.177,0,0,1,.105-.488l.156-.349h-7.882Zm7.083.129a1.7,1.7,0,0,0-.038.359v8.971h-6.519v-8.971a1.7,1.7,0,0,0-.038-.359Zm-16.336-.129a1.177,1.177,0,0,1,.105.488v9.45h7.36v-9.45a1.177,1.177,0,0,1,.105-.488l.156-.349h-7.882Zm7.083.129a1.7,1.7,0,0,0-.038.359v8.971h-6.519v-8.971a1.7,1.7,0,0,0-.038-.359Zm-16.336-.129a1.176,1.176,0,0,1,.105.488v9.45h7.36v-9.45a1.177,1.177,0,0,1,.105-.488l.156-.349h-7.882Zm7.083.129a1.7,1.7,0,0,0-.038.359v8.971H360.46v-8.971a1.7,1.7,0,0,0-.038-.359Zm-16.336-.129a1.178,1.178,0,0,1,.105.488v9.45h7.36v-9.45a1.178,1.178,0,0,1,.105-.488l.156-.349h-7.882Zm7.083.129a1.7,1.7,0,0,0-.038.359v8.971h-6.519v-8.971a1.7,1.7,0,0,0-.038-.359Zm82.818,11.244h-2.507a2.385,2.385,0,0,0-2.225-1.914h-1.367v-8.971a1.676,1.676,0,0,0-.095-.562,1.523,1.523,0,0,0,.576-1.613,1.3,1.3,0,0,0-1.217-1.055H349.209a1.3,1.3,0,0,0-1.217,1.055,1.523,1.523,0,0,0,.576,1.613,1.678,1.678,0,0,0-.095.562v8.971h-1.367a2.385,2.385,0,0,0-2.225,1.914h-2.717a2.039,2.039,0,0,0-1.893,2.153V371.3a2.04,2.04,0,0,0,1.893,2.153h98.418a2.039,2.039,0,0,0,1.893-2.153V244.986a2.039,2.039,0,0,0-1.893-2.153ZM442.054,371.3a1.681,1.681,0,0,1-.961,1.569,1.263,1.263,0,0,1-.511.105H342.164a1.263,1.263,0,0,1-.511-.105,1.681,1.681,0,0,1-.961-1.569V244.986a1.585,1.585,0,0,1,1.472-1.675h3.053l.034-.191a1.978,1.978,0,0,1,1.855-1.722h1.788v-9.45a1.189,1.189,0,0,1,.135-.553l.13-.246-.238-.1a.978.978,0,0,1-.54-1.064.877.877,0,0,1,.828-.788h84.539a.877.877,0,0,1,.828.788.978.978,0,0,1-.54,1.064l-.238.1.13.246a1.187,1.187,0,0,1,.135.553v9.45h1.788a1.978,1.978,0,0,1,1.855,1.722l.034.191h2.843a1.585,1.585,0,0,1,1.472,1.675ZM350.526,231.111l.156.349a1.178,1.178,0,0,1,.105.488v9.45h7.36v-9.45a1.178,1.178,0,0,1,.105-.488l.156-.349Zm7.2.837v8.971h-6.519v-8.971a1.7,1.7,0,0,0-.038-.359h6.595A1.7,1.7,0,0,0,357.726,231.948Zm2.052-.837.156.349a1.176,1.176,0,0,1,.105.488v9.45h7.36v-9.45a1.177,1.177,0,0,1,.105-.488l.156-.349Zm7.2.837v8.971H360.46v-8.971a1.7,1.7,0,0,0-.038-.359h6.595a1.7,1.7,0,0,0-.038.359Zm2.052-.837.156.349a1.177,1.177,0,0,1,.105.488v9.45h7.36v-9.45a1.177,1.177,0,0,1,.105-.488l.156-.349Zm7.2.837v8.971h-6.519v-8.971a1.7,1.7,0,0,0-.038-.359h6.595A1.7,1.7,0,0,0,376.232,231.948Zm2.052-.837.156.349a1.178,1.178,0,0,1,.105.488v9.45h7.36v-9.45a1.177,1.177,0,0,1,.105-.488l.156-.349Zm7.2.837v8.971h-6.519v-8.971a1.7,1.7,0,0,0-.038-.359h6.595A1.7,1.7,0,0,0,385.485,231.948Zm2.052-.837.156.349a1.177,1.177,0,0,1,.105.488v9.45h7.36v-9.45a1.177,1.177,0,0,1,.105-.488l.156-.349Zm7.2.837v8.971h-6.519v-8.971a1.7,1.7,0,0,0-.038-.359h6.595A1.7,1.7,0,0,0,394.738,231.948Zm2.052-.837.156.349a1.178,1.178,0,0,1,.105.488v9.45h7.36v-9.45a1.178,1.178,0,0,1,.105-.488l.156-.349Zm7.2.837v8.971h-6.519v-8.971a1.7,1.7,0,0,0-.038-.359h6.595A1.7,1.7,0,0,0,403.991,231.948Zm2.052-.837.156.349a1.177,1.177,0,0,1,.105.488v9.45h7.36v-9.45a1.177,1.177,0,0,1,.105-.488l.156-.349Zm7.2.837v8.971h-6.519v-8.971a1.7,1.7,0,0,0-.038-.359h6.595a1.7,1.7,0,0,0-.038.359Zm2.052-.837.156.349a1.178,1.178,0,0,1,.105.488v9.45h7.36v-9.45a1.177,1.177,0,0,1,.105-.488l.156-.349Zm7.2.837v8.971h-6.519v-8.971a1.7,1.7,0,0,0-.038-.359h6.595a1.7,1.7,0,0,0-.038.359Zm2.052-.837.156.349a1.177,1.177,0,0,1,.105.488v9.45h7.36v-9.45a1.177,1.177,0,0,1,.105-.488l.156-.349Zm7.2.837v8.971h-6.519v-8.971a1.7,1.7,0,0,0-.038-.359h6.595A1.7,1.7,0,0,0,431.75,231.948Zm-81.224-.837.156.349a1.178,1.178,0,0,1,.105.488v9.45h7.36v-9.45a1.178,1.178,0,0,1,.105-.488l.156-.349Zm7.2.837v8.971h-6.519v-8.971a1.7,1.7,0,0,0-.038-.359h6.595A1.7,1.7,0,0,0,357.726,231.948Zm2.052-.837.156.349a1.176,1.176,0,0,1,.105.488v9.45h7.36v-9.45a1.177,1.177,0,0,1,.105-.488l.156-.349Zm7.2.837v8.971H360.46v-8.971a1.7,1.7,0,0,0-.038-.359h6.595a1.7,1.7,0,0,0-.038.359Zm2.052-.837.156.349a1.177,1.177,0,0,1,.105.488v9.45h7.36v-9.45a1.177,1.177,0,0,1,.105-.488l.156-.349Zm7.2.837v8.971h-6.519v-8.971a1.7,1.7,0,0,0-.038-.359h6.595A1.7,1.7,0,0,0,376.232,231.948Zm2.052-.837.156.349a1.178,1.178,0,0,1,.105.488v9.45h7.36v-9.45a1.177,1.177,0,0,1,.105-.488l.156-.349Zm7.2.837v8.971h-6.519v-8.971a1.7,1.7,0,0,0-.038-.359h6.595A1.7,1.7,0,0,0,385.485,231.948Zm2.052-.837.156.349a1.177,1.177,0,0,1,.105.488v9.45h7.36v-9.45a1.177,1.177,0,0,1,.105-.488l.156-.349Zm7.2.837v8.971h-6.519v-8.971a1.7,1.7,0,0,0-.038-.359h6.595A1.7,1.7,0,0,0,394.738,231.948Zm2.052-.837.156.349a1.178,1.178,0,0,1,.105.488v9.45h7.36v-9.45a1.178,1.178,0,0,1,.105-.488l.156-.349Zm7.2.837v8.971h-6.519v-8.971a1.7,1.7,0,0,0-.038-.359h6.595A1.7,1.7,0,0,0,403.991,231.948Zm2.052-.837.156.349a1.177,1.177,0,0,1,.105.488v9.45h7.36v-9.45a1.177,1.177,0,0,1,.105-.488l.156-.349Zm7.2.837v8.971h-6.519v-8.971a1.7,1.7,0,0,0-.038-.359h6.595a1.7,1.7,0,0,0-.038.359Zm2.052-.837.156.349a1.178,1.178,0,0,1,.105.488v9.45h7.36v-9.45a1.177,1.177,0,0,1,.105-.488l.156-.349Zm7.2.837v8.971h-6.519v-8.971a1.7,1.7,0,0,0-.038-.359h6.595a1.7,1.7,0,0,0-.038.359Zm2.052-.837.156.349a1.177,1.177,0,0,1,.105.488v9.45h7.36v-9.45a1.177,1.177,0,0,1,.105-.488l.156-.349Zm7.2.837v8.971h-6.519v-8.971a1.7,1.7,0,0,0-.038-.359h6.595A1.7,1.7,0,0,0,431.75,231.948Zm-81.224-.837.156.349a1.178,1.178,0,0,1,.105.488v9.45h7.36v-9.45a1.178,1.178,0,0,1,.105-.488l.156-.349Zm7.2.837v8.971h-6.519v-8.971a1.7,1.7,0,0,0-.038-.359h6.595A1.7,1.7,0,0,0,357.726,231.948Zm2.052-.837.156.349a1.176,1.176,0,0,1,.105.488v9.45h7.36v-9.45a1.177,1.177,0,0,1,.105-.488l.156-.349Zm7.2.837v8.971H360.46v-8.971a1.7,1.7,0,0,0-.038-.359h6.595a1.7,1.7,0,0,0-.038.359Zm2.052-.837.156.349a1.177,1.177,0,0,1,.105.488v9.45h7.36v-9.45a1.177,1.177,0,0,1,.105-.488l.156-.349Zm7.2.837v8.971h-6.519v-8.971a1.7,1.7,0,0,0-.038-.359h6.595A1.7,1.7,0,0,0,376.232,231.948Zm2.052-.837.156.349a1.178,1.178,0,0,1,.105.488v9.45h7.36v-9.45a1.177,1.177,0,0,1,.105-.488l.156-.349Zm7.2.837v8.971h-6.519v-8.971a1.7,1.7,0,0,0-.038-.359h6.595A1.7,1.7,0,0,0,385.485,231.948Zm2.052-.837.156.349a1.177,1.177,0,0,1,.105.488v9.45h7.36v-9.45a1.177,1.177,0,0,1,.105-.488l.156-.349Zm7.2.837v8.971h-6.519v-8.971a1.7,1.7,0,0,0-.038-.359h6.595A1.7,1.7,0,0,0,394.738,231.948Zm2.052-.837.156.349a1.178,1.178,0,0,1,.105.488v9.45h7.36v-9.45a1.178,1.178,0,0,1,.105-.488l.156-.349Zm7.2.837v8.971h-6.519v-8.971a1.7,1.7,0,0,0-.038-.359h6.595A1.7,1.7,0,0,0,403.991,231.948Zm2.052-.837.156.349a1.177,1.177,0,0,1,.105.488v9.45h7.36v-9.45a1.177,1.177,0,0,1,.105-.488l.156-.349Zm7.2.837v8.971h-6.519v-8.971a1.7,1.7,0,0,0-.038-.359h6.595a1.7,1.7,0,0,0-.038.359Zm2.052-.837.156.349a1.178,1.178,0,0,1,.105.488v9.45h7.36v-9.45a1.177,1.177,0,0,1,.105-.488l.156-.349Zm7.2.837v8.971h-6.519v-8.971a1.7,1.7,0,0,0-.038-.359h6.595a1.7,1.7,0,0,0-.038.359Zm2.052-.837.156.349a1.177,1.177,0,0,1,.105.488v9.45h7.36v-9.45a1.177,1.177,0,0,1,.105-.488l.156-.349Zm7.2.837v8.971h-6.519v-8.971a1.7,1.7,0,0,0-.038-.359h6.595A1.7,1.7,0,0,0,431.75,231.948Zm-81.224-.837.156.349a1.178,1.178,0,0,1,.105.488v9.45h7.36v-9.45a1.178,1.178,0,0,1,.105-.488l.156-.349Zm7.2.837v8.971h-6.519v-8.971a1.7,1.7,0,0,0-.038-.359h6.595A1.7,1.7,0,0,0,357.726,231.948Zm2.052-.837.156.349a1.176,1.176,0,0,1,.105.488v9.45h7.36v-9.45a1.177,1.177,0,0,1,.105-.488l.156-.349Zm7.2.837v8.971H360.46v-8.971a1.7,1.7,0,0,0-.038-.359h6.595a1.7,1.7,0,0,0-.038.359Zm2.052-.837.156.349a1.177,1.177,0,0,1,.105.488v9.45h7.36v-9.45a1.177,1.177,0,0,1,.105-.488l.156-.349Zm7.2.837v8.971h-6.519v-8.971a1.7,1.7,0,0,0-.038-.359h6.595A1.7,1.7,0,0,0,376.232,231.948Zm2.052-.837.156.349a1.178,1.178,0,0,1,.105.488v9.45h7.36v-9.45a1.177,1.177,0,0,1,.105-.488l.156-.349Zm7.2.837v8.971h-6.519v-8.971a1.7,1.7,0,0,0-.038-.359h6.595A1.7,1.7,0,0,0,385.485,231.948Zm2.052-.837.156.349a1.177,1.177,0,0,1,.105.488v9.45h7.36v-9.45a1.177,1.177,0,0,1,.105-.488l.156-.349Zm7.2.837v8.971h-6.519v-8.971a1.7,1.7,0,0,0-.038-.359h6.595A1.7,1.7,0,0,0,394.738,231.948Zm2.052-.837.156.349a1.178,1.178,0,0,1,.105.488v9.45h7.36v-9.45a1.178,1.178,0,0,1,.105-.488l.156-.349Zm7.2.837v8.971h-6.519v-8.971a1.7,1.7,0,0,0-.038-.359h6.595A1.7,1.7,0,0,0,403.991,231.948Zm2.052-.837.156.349a1.177,1.177,0,0,1,.105.488v9.45h7.36v-9.45a1.177,1.177,0,0,1,.105-.488l.156-.349Zm7.2.837v8.971h-6.519v-8.971a1.7,1.7,0,0,0-.038-.359h6.595a1.7,1.7,0,0,0-.038.359Zm2.052-.837.156.349a1.178,1.178,0,0,1,.105.488v9.45h7.36v-9.45a1.177,1.177,0,0,1,.105-.488l.156-.349Zm7.2.837v8.971h-6.519v-8.971a1.7,1.7,0,0,0-.038-.359h6.595a1.7,1.7,0,0,0-.038.359Zm2.052-.837.156.349a1.177,1.177,0,0,1,.105.488v9.45h7.36v-9.45a1.177,1.177,0,0,1,.105-.488l.156-.349Zm7.2.837v8.971h-6.519v-8.971a1.7,1.7,0,0,0-.038-.359h6.595A1.7,1.7,0,0,0,431.75,231.948Z" transform="translate(-288.692 -189.485)" fill="#3f3d56"/>
  <path id="Path_37" data-name="Path 37" d="M445.062,374.919H429.554a1.326,1.326,0,0,1-1.232-1.4v-9.4a1.326,1.326,0,0,1,1.232-1.4h15.508a1.326,1.326,0,0,1,1.232,1.4v9.4A1.326,1.326,0,0,1,445.062,374.919Z" transform="translate(-358.226 -291.428)" fill="#3445c6"/>
  <path id="Path_38" data-name="Path 38" d="M557.282,374.919H541.774a1.326,1.326,0,0,1-1.232-1.4v-9.4a1.326,1.326,0,0,1,1.232-1.4h15.508a1.326,1.326,0,0,1,1.232,1.4v9.4A1.326,1.326,0,0,1,557.282,374.919Z" transform="translate(-446.847 -291.428)" fill="#3445c6"/>
  <path id="Path_39" data-name="Path 39" d="M669.5,374.919H653.993a1.326,1.326,0,0,1-1.232-1.4v-9.4a1.326,1.326,0,0,1,1.232-1.4H669.5a1.326,1.326,0,0,1,1.232,1.4v9.4a1.326,1.326,0,0,1-1.232,1.4Z" transform="translate(-535.467 -291.428)" fill="#3445c6"/>
  <path id="Path_40" data-name="Path 40" d="M445.062,505.919H429.554a1.326,1.326,0,0,1-1.232-1.4v-9.4a1.327,1.327,0,0,1,1.232-1.4h15.508a1.326,1.326,0,0,1,1.232,1.4v9.4A1.326,1.326,0,0,1,445.062,505.919Z" transform="translate(-358.226 -391.089)" fill="#3445c6"/>
  <path id="Path_41" data-name="Path 41" d="M557.282,505.919H541.774a1.326,1.326,0,0,1-1.232-1.4v-9.4a1.326,1.326,0,0,1,1.232-1.4h15.508a1.326,1.326,0,0,1,1.232,1.4v9.4A1.326,1.326,0,0,1,557.282,505.919Z" transform="translate(-446.847 -391.089)" fill="#3445c6"/>
  <path id="Path_42" data-name="Path 42" d="M669.5,505.919H653.993a1.326,1.326,0,0,1-1.232-1.4v-9.4a1.326,1.326,0,0,1,1.232-1.4H669.5a1.326,1.326,0,0,1,1.232,1.4v9.4a1.326,1.326,0,0,1-1.232,1.4Z" transform="translate(-535.467 -391.089)" fill="#3445c6"/>
  <path id="Path_43" data-name="Path 43" d="M445.062,636.919H429.554a1.326,1.326,0,0,1-1.232-1.4v-9.4a1.326,1.326,0,0,1,1.232-1.4h15.508a1.326,1.326,0,0,1,1.232,1.4v9.4A1.326,1.326,0,0,1,445.062,636.919Z" transform="translate(-358.226 -490.751)" fill="#3445c6"/>
  <path id="Path_44" data-name="Path 44" d="M557.282,636.919H541.774a1.326,1.326,0,0,1-1.232-1.4v-9.4a1.326,1.326,0,0,1,1.232-1.4h15.508a1.327,1.327,0,0,1,1.232,1.4v9.4A1.326,1.326,0,0,1,557.282,636.919Z" transform="translate(-446.847 -490.751)" fill="#3445c6"/>
  <path id="Path_45" data-name="Path 45" d="M669.5,636.919H653.993a1.326,1.326,0,0,1-1.232-1.4v-9.4a1.326,1.326,0,0,1,1.232-1.4H669.5a1.326,1.326,0,0,1,1.232,1.4v9.4a1.326,1.326,0,0,1-1.232,1.4Z" transform="translate(-535.467 -490.751)" fill="#3445c6"/>
  <path id="Path_46" data-name="Path 46" d="M422.374,372.29H404.409a1.763,1.763,0,0,1-1.637-1.863V359.54a1.763,1.763,0,0,1,1.637-1.863h17.965a1.763,1.763,0,0,1,1.637,1.863v10.887A1.763,1.763,0,0,1,422.374,372.29Zm-17.965-14.134a1.31,1.31,0,0,0-1.217,1.384v10.887a1.31,1.31,0,0,0,1.217,1.384h17.965a1.31,1.31,0,0,0,1.217-1.384V359.54a1.31,1.31,0,0,0-1.217-1.384Z" transform="translate(-338.049 -287.594)" fill="#3f3d56"/>
  <path id="Path_47" data-name="Path 47" d="M552.374,372.29H534.409a1.763,1.763,0,0,1-1.637-1.863V359.541a1.763,1.763,0,0,1,1.637-1.863h17.965a1.763,1.763,0,0,1,1.637,1.863v10.887A1.763,1.763,0,0,1,552.374,372.29Zm-17.965-14.134a1.31,1.31,0,0,0-1.217,1.384v10.887a1.31,1.31,0,0,0,1.217,1.384h17.965a1.31,1.31,0,0,0,1.217-1.384V359.541a1.31,1.31,0,0,0-1.217-1.384Z" transform="translate(-440.71 -287.594)" fill="#3f3d56"/>
  <path id="Path_48" data-name="Path 48" d="M682.374,372.29H664.409a1.763,1.763,0,0,1-1.637-1.863V359.541a1.763,1.763,0,0,1,1.637-1.863h17.965a1.763,1.763,0,0,1,1.638,1.863v10.887A1.763,1.763,0,0,1,682.374,372.29Zm-17.965-14.134a1.31,1.31,0,0,0-1.217,1.384v10.887a1.31,1.31,0,0,0,1.217,1.384h17.965a1.31,1.31,0,0,0,1.217-1.384V359.541a1.31,1.31,0,0,0-1.217-1.384Z" transform="translate(-543.372 -287.594)" fill="#3f3d56"/>
  <path id="Path_49" data-name="Path 49" d="M422.374,503.29H404.409a1.763,1.763,0,0,1-1.637-1.863V490.541a1.763,1.763,0,0,1,1.637-1.863h17.965a1.763,1.763,0,0,1,1.637,1.863v10.887A1.763,1.763,0,0,1,422.374,503.29Zm-17.965-14.134a1.31,1.31,0,0,0-1.217,1.384v10.887a1.31,1.31,0,0,0,1.217,1.384h17.965a1.31,1.31,0,0,0,1.217-1.384V490.541a1.31,1.31,0,0,0-1.217-1.384Z" transform="translate(-338.049 -387.255)" fill="#3f3d56"/>
  <path id="Path_50" data-name="Path 50" d="M552.374,503.29H534.409a1.763,1.763,0,0,1-1.637-1.863V490.541a1.763,1.763,0,0,1,1.637-1.863h17.965a1.763,1.763,0,0,1,1.637,1.863v10.887A1.763,1.763,0,0,1,552.374,503.29Zm-17.965-14.134a1.31,1.31,0,0,0-1.217,1.384v10.887a1.31,1.31,0,0,0,1.217,1.384h17.965a1.31,1.31,0,0,0,1.217-1.384V490.541a1.31,1.31,0,0,0-1.217-1.384Z" transform="translate(-440.71 -387.255)" fill="#3f3d56"/>
  <path id="Path_51" data-name="Path 51" d="M682.374,503.29H664.409a1.763,1.763,0,0,1-1.637-1.863V490.541a1.763,1.763,0,0,1,1.637-1.863h17.965a1.763,1.763,0,0,1,1.638,1.863v10.887A1.763,1.763,0,0,1,682.374,503.29Zm-17.965-14.134a1.31,1.31,0,0,0-1.217,1.384v10.887a1.31,1.31,0,0,0,1.217,1.384h17.965a1.31,1.31,0,0,0,1.217-1.384V490.541a1.31,1.31,0,0,0-1.217-1.384Z" transform="translate(-543.372 -387.255)" fill="#3f3d56"/>
  <path id="Path_52" data-name="Path 52" d="M422.374,634.29H404.409a1.763,1.763,0,0,1-1.637-1.863V621.541a1.763,1.763,0,0,1,1.637-1.863h17.965a1.763,1.763,0,0,1,1.637,1.863v10.887A1.763,1.763,0,0,1,422.374,634.29Zm-17.965-14.134a1.31,1.31,0,0,0-1.217,1.384v10.887a1.31,1.31,0,0,0,1.217,1.384h17.965a1.31,1.31,0,0,0,1.217-1.384V621.541a1.31,1.31,0,0,0-1.217-1.384Z" transform="translate(-338.049 -486.916)" fill="#3f3d56"/>
  <path id="Path_53" data-name="Path 53" d="M552.374,634.29H534.409a1.763,1.763,0,0,1-1.637-1.863V621.541a1.763,1.763,0,0,1,1.637-1.863h17.965a1.763,1.763,0,0,1,1.637,1.863v10.887A1.763,1.763,0,0,1,552.374,634.29Zm-17.965-14.134a1.31,1.31,0,0,0-1.217,1.384v10.887a1.31,1.31,0,0,0,1.217,1.384h17.965a1.31,1.31,0,0,0,1.217-1.384V621.541a1.31,1.31,0,0,0-1.217-1.384Z" transform="translate(-440.71 -486.916)" fill="#3f3d56"/>
  <path id="Path_54" data-name="Path 54" d="M682.374,634.29H664.409a1.763,1.763,0,0,1-1.637-1.863V621.541a1.763,1.763,0,0,1,1.637-1.863h17.965a1.763,1.763,0,0,1,1.638,1.863v10.887A1.763,1.763,0,0,1,682.374,634.29Zm-17.965-14.134a1.31,1.31,0,0,0-1.217,1.384v10.887a1.31,1.31,0,0,0,1.217,1.384h17.965a1.31,1.31,0,0,0,1.217-1.384V621.541a1.31,1.31,0,0,0-1.217-1.384Z" transform="translate(-543.372 -486.916)" fill="#3f3d56"/>
  <path id="Path_55" data-name="Path 55" d="M307.188,833.7H95.21a.241.241,0,0,1,0-.478H307.188a.241.241,0,0,1,0,.478Z" transform="translate(-95 -649.371)" fill="#3f3d56"/>
  <path id="Path_56" data-name="Path 56" d="M593.892,731.8a1.954,1.954,0,0,0-1.788-2.084h-8.832v24.76h10.62Z" transform="translate(-480.59 -570.632)" fill="#3f3d56"/>
  <path id="Path_57" data-name="Path 57" d="M542.812,753.859H531.772V731.491a2.151,2.151,0,0,1,2-2.273h9.043Zm-10.62-.478h10.2V729.7h-8.622a1.7,1.7,0,0,0-1.577,1.794Z" transform="translate(-439.921 -570.251)" fill="#3f3d56"/>
  <ellipse id="Ellipse_10" data-name="Ellipse 10" cx="0.631" cy="0.718" rx="0.631" ry="0.718" transform="translate(92.587 171.527)" fill="#3f3d56"/>
</svg>
