<svg id="_11116" data-name="11116" xmlns="http://www.w3.org/2000/svg" viewBox="0 0 810.237 522.231">
  <path id="Fill-1" d="M0,522.231H810.237V0H0Z" fill="#fff" fill-rule="evenodd"/>
  <path id="Fill-2" d="M264.752,649.6s-77.1-71.347,1.1-174.639c69.873-92.293,17.7-136.388,89.418-181.36,72.492-45.457,134.171-17.771,203.56,17.37,33.355,16.892,72.819,6.226,116.31-4.44,46.986-11.523,98.673-23.046,152.438.18,103.535,44.725,88.648,113.089,63.039,183.378C869,549.42,934.738,592.3,898.88,649.7c0,0-636.331-2.233-634.128-.1" transform="translate(-168.473 -199.389)" fill="#ebf3fa" fill-rule="evenodd"/>
  <path id="Fill-3" d="M1840.031,585.653h-2.172c5.045-12.954,18.047-37.629,44.755-41.132a5.845,5.845,0,0,1,.616-.027,8.955,8.955,0,0,1,8.821,6.757c2.342,7.556-11.759,7.577-20.483,10.594-7.219,2.5-22.4,11.712-31.537,23.808" transform="translate(-1341.493 -402.318)" fill="#dfebfa" fill-rule="evenodd"/>
  <path id="Fill-4" d="M1883.738,641.553H1873.41c9.069-10.193,23.267-21.4,41.849-21.4q2.038,0,4.143.184a8.848,8.848,0,0,1,7.635,8.606c.349,5.206-5.547,5.64-12.242,5.64-.667,0-1.345,0-2.026-.009s-1.358-.009-2.036-.009a55.409,55.409,0,0,0-6.115.259c-4.615.526-12.656,2.821-20.88,6.733" transform="translate(-1367.441 -458.218)" fill="#dfebfa" fill-rule="evenodd"/>
  <path id="Fill-5" d="M2238.04,1275.7s10.914-44.251,47.377-49.032a9.009,9.009,0,0,1,9.437,6.729c2.344,7.557-11.757,7.578-20.48,10.593s-29.077,15.845-36.334,31.71" transform="translate(-1633.593 -906.344)" fill="#cddff9" fill-rule="evenodd"/>
  <path id="Fill-6" d="M2241.22,1180.987s-5.985-45.121,26.371-62.067a9.19,9.19,0,0,1,11.289,3.068c4.956,6.264-8.227,11.108-15.281,16.912s-21.4,24.764-22.379,42.087" transform="translate(-1635.595 -826.149)" fill="#dfebfd" fill-rule="evenodd"/>
  <path id="Fill-7" d="M2332.112,1357.608C2328,1340.724,2298.579,1345,2298.579,1345s-20.877,28.634-26.676,29.143,12.9-27.848,12.9-27.848c-11.154-1.41-40.136,10.907-40.136,10.907s.616,34.219-5.137,33.334,1.059-30.326,1.059-30.326c-10.941,2.783-21.474,14.656-21.474,14.656-13.325,19.458,13.237,34.979,13.237,34.979s-.051,11.865-8.105,25.213a39.949,39.949,0,0,0-3.687,6.664l2.952.1c.267-.757.559-1.488.878-2.188l.008-.013.013-.029c.216-.434.53-1.052.918-1.8l0,0v0c.961-1.676,1.615-2.917,2.034-3.812l0-.01c2.89-5.264,7.024-12.11,9.674-13.489a5.472,5.472,0,0,1-.586-1.326q.28.634.586,1.326c4.689,10.622,29.9,13.189,44.074,10.86s8.173-6.366.808-12.836-23.305-5.345-27.912-7.938,2.336-4.81,11.7-3.807,13.739,10.217,28.853,12.105,27.626-25.273,27.626-25.273c-10.579,2.8-29.158-3.392-29.757-6.9s27.183-2.256,31.553-3.16,12.24-9.024,8.132-25.91" transform="translate(-1617.045 -993.443)" fill="#dfebfd" fill-rule="evenodd"/>
  <path id="Fill-8" d="M641.176,788.646c4.11-16.885,33.533-12.609,33.533-12.609s20.875,28.634,26.676,29.144-12.9-27.848-12.9-27.848c11.154-1.411,40.135,10.907,40.135,10.907s-.615,34.22,5.137,33.335-1.057-30.327-1.057-30.327c10.938,2.784,21.471,14.656,21.471,14.656,13.328,19.458-13.237,34.98-13.237,34.98s.051,11.865,8.108,25.213a39.954,39.954,0,0,1,3.687,6.664l-2.952.1c-.27-.757-.562-1.488-.88-2.188l-.005-.013-.013-.029c-.219-.433-.529-1.052-.918-1.8l0,0,0,0c-.961-1.676-1.615-2.917-2.031-3.812l0-.008c-2.89-5.267-7.027-12.113-9.675-13.492a5.442,5.442,0,0,0,.586-1.326l-.586,1.326c-4.69,10.622-29.9,13.189-44.075,10.86S684,856,691.365,849.529s23.305-5.348,27.913-7.938-2.336-4.81-11.7-3.807S693.842,848,678.728,849.89,651.1,824.617,651.1,824.617c10.579,2.8,29.156-3.393,29.757-6.9s-27.184-2.255-31.553-3.16-12.241-9.024-8.131-25.909" transform="translate(-467.167 -573.044)" fill="#dfebfd" fill-rule="evenodd"/>
  <path id="Fill-9" d="M1294.71,485.724c8.637-16,37.16-4.367,37.16-4.367s13.42,34.06,19.132,36.017-5.588-31.282-5.588-31.282c11.619,1.354,37.554,20.982,37.554,20.982s-9.728,34.344-3.695,34.883,7.009-30.835,7.009-30.835c10.287,5.529,17.744,20.117,17.744,20.117,8.256,22.932-22.657,31.969-22.657,31.969s-3.106,11.973,1.461,27.433h0a40.924,40.924,0,0,1,1.942,7.635l-3-.638c-.07-.83-.17-1.638-.305-2.423l0-.014-.005-.034c-.1-.491-.254-1.192-.446-2.047v0l0,0c-.524-1.929-.851-3.341-1.034-4.349v-.009c-1.512-6.026-3.859-13.958-6.161-16.006a5.793,5.793,0,0,0,.945-1.193c-.3.38-.616.777-.945,1.193-7.557,9.541-33.652,5.855-47.323-.021s-6.544-8.45,2.6-13.14,24.915.409,30.252-1.059-1.075-5.43-10.779-6.748-16.569,6.883-32.31,5.026-21.12-32.352-21.12-32.352c9.92,5.451,30.295,3.835,31.834.447s-26.8-9.038-30.965-11.037-9.939-12.143-1.3-28.142" transform="translate(-941.763 -352.65)" fill="#dfebfd" fill-rule="evenodd"/>
  <path id="Fill-10" d="M2161.384,682.691V643.308a9,9,0,0,0-9.123-8.82h-25.839l-3.586-13.27a5.119,5.119,0,0,1,3.781-6.245l111.969-28.3a5.441,5.441,0,0,1,1.332-.166,5.285,5.285,0,0,1,5.129,3.823l16.686,61.709a5.12,5.12,0,0,1-3.784,6.246l-96.564,24.4m36.558-27.385a2.433,2.433,0,0,0-.6.074l-29.844,7.542a2.293,2.293,0,0,0-1.694,2.8l.073.277a2.372,2.372,0,0,0,2.3,1.714,2.442,2.442,0,0,0,.6-.074l29.841-7.542a2.3,2.3,0,0,0,1.7-2.8l-.076-.278a2.371,2.371,0,0,0-2.3-1.713m-18.009-26.614a3.056,3.056,0,0,0-.748.1,2.4,2.4,0,0,0-1.877,1.834,5.4,5.4,0,0,0,.138,2.716,5.5,5.5,0,0,0,1.269,2.442,2.458,2.458,0,0,0,1.815.811,3.029,3.029,0,0,0,.74-.1,2.393,2.393,0,0,0,1.866-1.831,5.38,5.38,0,0,0-.13-2.729,5.508,5.508,0,0,0-1.256-2.434,2.461,2.461,0,0,0-1.818-.809m6.128-1.549a3.067,3.067,0,0,0-.748.1,2.4,2.4,0,0,0-1.877,1.834,5.414,5.414,0,0,0,.138,2.716,5.5,5.5,0,0,0,1.267,2.442,2.466,2.466,0,0,0,1.815.811,3.041,3.041,0,0,0,.743-.1,2.4,2.4,0,0,0,1.866-1.831,5.361,5.361,0,0,0-.132-2.729,5.509,5.509,0,0,0-1.253-2.434,2.46,2.46,0,0,0-1.818-.81m9.285-2.347a3.048,3.048,0,0,0-.748.1,2.406,2.406,0,0,0-1.877,1.833,5.411,5.411,0,0,0,.138,2.716,5.493,5.493,0,0,0,1.269,2.442,2.457,2.457,0,0,0,1.815.811,3.023,3.023,0,0,0,.74-.1,2.394,2.394,0,0,0,1.866-1.831,5.381,5.381,0,0,0-.13-2.729,5.537,5.537,0,0,0-1.256-2.435,2.462,2.462,0,0,0-1.818-.809m6.128-1.549a3.051,3.051,0,0,0-.748.1,2.4,2.4,0,0,0-1.877,1.834,5.4,5.4,0,0,0,.138,2.716,5.487,5.487,0,0,0,1.267,2.442,2.465,2.465,0,0,0,1.814.811,3.013,3.013,0,0,0,.74-.1,2.4,2.4,0,0,0,1.869-1.831,5.355,5.355,0,0,0-.132-2.729,5.507,5.507,0,0,0-1.253-2.434,2.46,2.46,0,0,0-1.818-.809m6.128-1.548a3.049,3.049,0,0,0-.748.1,2.4,2.4,0,0,0-1.877,1.834,5.351,5.351,0,0,0,.138,2.716,5.5,5.5,0,0,0,1.267,2.442,2.458,2.458,0,0,0,1.815.811,3.016,3.016,0,0,0,.74-.1,2.39,2.39,0,0,0,1.866-1.831,5.384,5.384,0,0,0-.13-2.729,5.5,5.5,0,0,0-1.253-2.434,2.464,2.464,0,0,0-1.818-.809m6.128-1.549a3.048,3.048,0,0,0-.748.1,2.4,2.4,0,0,0-1.88,1.834,5.407,5.407,0,0,0,.138,2.716,5.5,5.5,0,0,0,1.269,2.442,2.457,2.457,0,0,0,1.815.811,3.018,3.018,0,0,0,.74-.1,2.4,2.4,0,0,0,1.866-1.831,5.389,5.389,0,0,0-.13-2.729,5.486,5.486,0,0,0-1.256-2.434,2.46,2.46,0,0,0-1.815-.809m9.285-2.347a3.037,3.037,0,0,0-.748.1,2.4,2.4,0,0,0-1.879,1.833,5.379,5.379,0,0,0,.14,2.716,5.459,5.459,0,0,0,1.267,2.442,2.456,2.456,0,0,0,1.815.811,3.019,3.019,0,0,0,.74-.1,2.394,2.394,0,0,0,1.866-1.831,5.384,5.384,0,0,0-.129-2.729,5.507,5.507,0,0,0-1.254-2.434,2.463,2.463,0,0,0-1.817-.809m6.128-1.549a3.066,3.066,0,0,0-.751.1,2.4,2.4,0,0,0-1.877,1.834,5.406,5.406,0,0,0,.138,2.716,5.5,5.5,0,0,0,1.27,2.442,2.457,2.457,0,0,0,1.815.811,3.039,3.039,0,0,0,.74-.1,2.4,2.4,0,0,0,1.866-1.831,5.383,5.383,0,0,0-.13-2.729,5.51,5.51,0,0,0-1.256-2.434,2.458,2.458,0,0,0-1.815-.809m-66.075-5.084a2.394,2.394,0,0,0-.594.075l-29.207,7.381a2.293,2.293,0,0,0-1.693,2.8,2.369,2.369,0,0,0,2.3,1.714,2.434,2.434,0,0,0,.6-.074l29.2-7.381a2.3,2.3,0,0,0,1.7-2.8,2.373,2.373,0,0,0-2.3-1.714m72.2,3.536a3.06,3.06,0,0,0-.748.1,2.4,2.4,0,0,0-1.877,1.834,5.413,5.413,0,0,0,.137,2.716,5.5,5.5,0,0,0,1.27,2.442,2.456,2.456,0,0,0,1.815.811,3.044,3.044,0,0,0,.74-.1,2.4,2.4,0,0,0,1.866-1.831,5.357,5.357,0,0,0-.133-2.729,5.51,5.51,0,0,0-1.253-2.435,2.461,2.461,0,0,0-1.818-.809m6.128-1.549a3.046,3.046,0,0,0-.748.1,2.4,2.4,0,0,0-1.877,1.833,5.418,5.418,0,0,0,.138,2.716,5.5,5.5,0,0,0,1.267,2.442,2.466,2.466,0,0,0,1.815.811,3.02,3.02,0,0,0,.74-.1,2.4,2.4,0,0,0,1.869-1.831,5.359,5.359,0,0,0-.132-2.729,5.511,5.511,0,0,0-1.253-2.434,2.46,2.46,0,0,0-1.818-.809m-5.9-16.935a.388.388,0,0,0-.338.189l-.1.166a.366.366,0,0,0,.13.5,7.936,7.936,0,0,1,3.538,4.685,7.669,7.669,0,0,1-.716,5.76.368.368,0,0,0,.143.5l.17.1a.4.4,0,0,0,.54-.145,8.567,8.567,0,0,0,.807-6.45,8.865,8.865,0,0,0-3.968-5.244.4.4,0,0,0-.208-.059m-.924,1.556a.389.389,0,0,0-.338.19.366.366,0,0,0,.124.5,6.306,6.306,0,0,1,2.766,3.7,6.1,6.1,0,0,1-.54,4.536.367.367,0,0,0,.146.5.391.391,0,0,0,.2.054.383.383,0,0,0,.34-.2,6.823,6.823,0,0,0,.6-5.075,7.059,7.059,0,0,0-3.092-4.141.394.394,0,0,0-.208-.06m-.854,1.44a.4.4,0,0,0-.341.19l-.057.1a.37.37,0,0,0,.125.5,4.545,4.545,0,0,1,1.909,2.612,4.393,4.393,0,0,1-.343,3.181.367.367,0,0,0,.146.493l.1.057a.4.4,0,0,0,.2.054.383.383,0,0,0,.343-.2,5.238,5.238,0,0,0,.419-3.8,5.39,5.39,0,0,0-2.29-3.117.38.38,0,0,0-.208-.062m-.978,1.647a.394.394,0,0,0-.338.189l-.1.169a.362.362,0,0,0,.1.483,2.573,2.573,0,0,1,.978,1.408,2.493,2.493,0,0,1-.141,1.69.368.368,0,0,0,.157.468l.173.1a.408.408,0,0,0,.2.053.39.39,0,0,0,.356-.223,3.4,3.4,0,0,0,.2-2.328,3.516,3.516,0,0,0-1.35-1.936.4.4,0,0,0-.232-.074m-52.1,34.5q-1.183,0-1.823-2.375a5.133,5.133,0,0,1-.21-1.734,1.252,1.252,0,0,1,.907-1.3,1.207,1.207,0,0,1,.292-.037,1.43,1.43,0,0,1,1.151.752,5.407,5.407,0,0,1,.68,1.6,5.262,5.262,0,0,1,.221,1.731c-.049.738-.345,1.177-.894,1.315a1.308,1.308,0,0,1-.324.042m6.128-1.549q-1.182,0-1.826-2.375a5.194,5.194,0,0,1-.208-1.734,1.252,1.252,0,0,1,.908-1.3,1.181,1.181,0,0,1,.289-.037,1.433,1.433,0,0,1,1.154.751,5.411,5.411,0,0,1,.68,1.6,5.263,5.263,0,0,1,.221,1.731q-.073,1.108-.894,1.315a1.317,1.317,0,0,1-.324.042m9.285-2.347q-1.183,0-1.823-2.375a5.116,5.116,0,0,1-.211-1.734,1.252,1.252,0,0,1,.907-1.3,1.21,1.21,0,0,1,.292-.037,1.429,1.429,0,0,1,1.151.752,5.4,5.4,0,0,1,.681,1.6,5.262,5.262,0,0,1,.221,1.731q-.073,1.107-.894,1.315a1.309,1.309,0,0,1-.324.042m6.128-1.549q-1.183,0-1.825-2.375a5.174,5.174,0,0,1-.208-1.734,1.252,1.252,0,0,1,.907-1.3,1.184,1.184,0,0,1,.289-.037,1.438,1.438,0,0,1,1.153.752,5.409,5.409,0,0,1,.68,1.6,5.334,5.334,0,0,1,.222,1.731q-.073,1.108-.894,1.315a1.31,1.31,0,0,1-.324.042m6.128-1.549q-1.183,0-1.826-2.375a5.134,5.134,0,0,1-.21-1.734,1.252,1.252,0,0,1,.91-1.3,1.175,1.175,0,0,1,.289-.037,1.438,1.438,0,0,1,1.154.752,5.409,5.409,0,0,1,.68,1.6,5.318,5.318,0,0,1,.219,1.731q-.069,1.108-.891,1.315a1.333,1.333,0,0,1-.324.042m6.125-1.548q-1.183,0-1.823-2.375a5.115,5.115,0,0,1-.211-1.734,1.252,1.252,0,0,1,.91-1.3,1.17,1.17,0,0,1,.289-.037,1.43,1.43,0,0,1,1.15.752,5.4,5.4,0,0,1,.683,1.6,5.319,5.319,0,0,1,.219,1.731c-.046.738-.346,1.177-.891,1.315a1.354,1.354,0,0,1-.327.042m9.285-2.347q-1.178,0-1.823-2.375a5.128,5.128,0,0,1-.211-1.734,1.252,1.252,0,0,1,.91-1.3,1.173,1.173,0,0,1,.289-.037,1.429,1.429,0,0,1,1.15.752,6.311,6.311,0,0,1,.9,3.335q-.069,1.108-.892,1.315a1.332,1.332,0,0,1-.327.042m6.128-1.549q-1.182,0-1.823-2.375a5.115,5.115,0,0,1-.21-1.734,1.251,1.251,0,0,1,.91-1.3,1.165,1.165,0,0,1,.289-.037,1.429,1.429,0,0,1,1.15.752,5.408,5.408,0,0,1,.681,1.6,5.255,5.255,0,0,1,.221,1.731q-.073,1.107-.894,1.315a1.315,1.315,0,0,1-.324.042m6.128-1.548q-1.183,0-1.826-2.375a5.187,5.187,0,0,1-.208-1.734,1.252,1.252,0,0,1,.908-1.3,1.189,1.189,0,0,1,.289-.037,1.434,1.434,0,0,1,1.153.752,5.412,5.412,0,0,1,.681,1.6,5.258,5.258,0,0,1,.221,1.731q-.073,1.108-.894,1.315a1.31,1.31,0,0,1-.324.042m6.128-1.549q-1.183,0-1.826-2.375a5.267,5.267,0,0,1-.21-1.734,1.257,1.257,0,0,1,.91-1.3,1.175,1.175,0,0,1,.289-.037,1.437,1.437,0,0,1,1.154.752,5.4,5.4,0,0,1,.68,1.6,5.328,5.328,0,0,1,.221,1.731q-.073,1.108-.894,1.315a1.313,1.313,0,0,1-.324.042" transform="translate(-1549.377 -433.362)" fill="#cadef7" fill-rule="evenodd"/>
  <path id="Fill-11" d="M2284.574,862.39a2.372,2.372,0,0,1-2.3-1.714l-.073-.277a2.293,2.293,0,0,1,1.693-2.8l29.844-7.542a2.428,2.428,0,0,1,.6-.074,2.371,2.371,0,0,1,2.3,1.713l.076.278a2.3,2.3,0,0,1-1.7,2.8l-29.841,7.542a2.452,2.452,0,0,1-.6.074" transform="translate(-1665.769 -628.039)" fill="#dce9fb" fill-rule="evenodd"/>
  <path id="Fill-12" d="M2327.9,755.96a2.457,2.457,0,0,1-1.815-.81,5.5,5.5,0,0,1-1.27-2.442,5.411,5.411,0,0,1-.138-2.716,2.406,2.406,0,0,1,1.877-1.834,3.061,3.061,0,0,1,.748-.1,2.46,2.46,0,0,1,1.818.809,5.507,5.507,0,0,1,1.256,2.434,5.381,5.381,0,0,1,.13,2.729,2.394,2.394,0,0,1-1.866,1.831,3.032,3.032,0,0,1-.74.1m-.727-6.672a1.206,1.206,0,0,0-.292.037,1.252,1.252,0,0,0-.908,1.3,5.123,5.123,0,0,0,.211,1.734q.64,2.375,1.823,2.375a1.316,1.316,0,0,0,.324-.042q.822-.208.894-1.315a5.27,5.27,0,0,0-.222-1.731,5.406,5.406,0,0,0-.681-1.6,1.429,1.429,0,0,0-1.15-.752" transform="translate(-1696.745 -552.729)" fill="#dce9fb" fill-rule="evenodd"/>
  <path id="Fill-13" d="M2350.585,750.029a2.466,2.466,0,0,1-1.815-.811,5.493,5.493,0,0,1-1.267-2.442,5.408,5.408,0,0,1-.138-2.716,2.4,2.4,0,0,1,1.877-1.834,3.064,3.064,0,0,1,.748-.1,2.459,2.459,0,0,1,1.817.809,5.5,5.5,0,0,1,1.253,2.434,5.352,5.352,0,0,1,.132,2.729,2.4,2.4,0,0,1-1.866,1.831,3.043,3.043,0,0,1-.743.1m-.726-6.672a1.194,1.194,0,0,0-.289.037,1.252,1.252,0,0,0-.907,1.3,5.188,5.188,0,0,0,.208,1.734q.644,2.375,1.826,2.375a1.315,1.315,0,0,0,.324-.042q.823-.208.894-1.315a5.262,5.262,0,0,0-.221-1.731,5.416,5.416,0,0,0-.681-1.6,1.433,1.433,0,0,0-1.153-.752" transform="translate(-1713.307 -548.347)" fill="#dce9fb" fill-rule="evenodd"/>
  <path id="Fill-14" d="M2384.969,741.042a2.456,2.456,0,0,1-1.815-.811,5.5,5.5,0,0,1-1.27-2.442,5.412,5.412,0,0,1-.138-2.716,2.406,2.406,0,0,1,1.877-1.833,3.053,3.053,0,0,1,.748-.1,2.461,2.461,0,0,1,1.818.809,5.54,5.54,0,0,1,1.256,2.435,5.388,5.388,0,0,1,.13,2.729,2.4,2.4,0,0,1-1.866,1.831,3.021,3.021,0,0,1-.74.1m-.727-6.672a1.217,1.217,0,0,0-.292.037,1.252,1.252,0,0,0-.907,1.3,5.116,5.116,0,0,0,.211,1.734q.64,2.375,1.823,2.375a1.31,1.31,0,0,0,.324-.042q.823-.208.894-1.315a5.248,5.248,0,0,0-.221-1.731,5.408,5.408,0,0,0-.68-1.6,1.43,1.43,0,0,0-1.151-.752" transform="translate(-1738.402 -541.706)" fill="#dce9fb" fill-rule="evenodd"/>
  <path id="Fill-15" d="M2407.656,735.111a2.465,2.465,0,0,1-1.815-.811,5.491,5.491,0,0,1-1.267-2.442,5.406,5.406,0,0,1-.138-2.716,2.4,2.4,0,0,1,1.877-1.834,3.045,3.045,0,0,1,.748-.1,2.461,2.461,0,0,1,1.818.809,5.51,5.51,0,0,1,1.253,2.434,5.357,5.357,0,0,1,.132,2.729,2.4,2.4,0,0,1-1.869,1.831,3.02,3.02,0,0,1-.74.1m-.727-6.672a1.187,1.187,0,0,0-.289.037,1.252,1.252,0,0,0-.907,1.3,5.179,5.179,0,0,0,.208,1.734q.644,2.376,1.826,2.375a1.309,1.309,0,0,0,.324-.042q.823-.207.894-1.315a5.333,5.333,0,0,0-.221-1.731,5.408,5.408,0,0,0-.681-1.6,1.437,1.437,0,0,0-1.153-.752" transform="translate(-1754.964 -537.324)" fill="#dce9fb" fill-rule="evenodd"/>
  <path id="Fill-16" d="M2430.341,729.181a2.458,2.458,0,0,1-1.815-.81,5.5,5.5,0,0,1-1.267-2.442,5.351,5.351,0,0,1-.138-2.716,2.4,2.4,0,0,1,1.877-1.834,3.048,3.048,0,0,1,.748-.1,2.463,2.463,0,0,1,1.818.809,5.5,5.5,0,0,1,1.253,2.434,5.382,5.382,0,0,1,.13,2.729,2.39,2.39,0,0,1-1.866,1.831,3.017,3.017,0,0,1-.74.1m-.727-6.672a1.175,1.175,0,0,0-.289.037,1.252,1.252,0,0,0-.91,1.3,5.128,5.128,0,0,0,.211,1.734q.644,2.375,1.826,2.375a1.337,1.337,0,0,0,.324-.042q.822-.208.891-1.315a5.338,5.338,0,0,0-.219-1.731,5.412,5.412,0,0,0-.681-1.6,1.437,1.437,0,0,0-1.154-.752" transform="translate(-1771.521 -532.942)" fill="#dce9fb" fill-rule="evenodd"/>
  <path id="Fill-17" d="M2453.028,723.25a2.457,2.457,0,0,1-1.815-.811,5.5,5.5,0,0,1-1.27-2.442,5.407,5.407,0,0,1-.138-2.716,2.4,2.4,0,0,1,1.88-1.834,3.044,3.044,0,0,1,.748-.1,2.459,2.459,0,0,1,1.815.809,5.481,5.481,0,0,1,1.256,2.434,5.38,5.38,0,0,1,.129,2.729,2.393,2.393,0,0,1-1.866,1.831,3.013,3.013,0,0,1-.74.1m-.727-6.672a1.171,1.171,0,0,0-.289.037,1.251,1.251,0,0,0-.91,1.3,5.128,5.128,0,0,0,.211,1.734q.64,2.376,1.823,2.375a1.348,1.348,0,0,0,.326-.042c.546-.138.845-.577.891-1.315a5.325,5.325,0,0,0-.219-1.731,5.411,5.411,0,0,0-.683-1.6,1.43,1.43,0,0,0-1.151-.752" transform="translate(-1788.08 -528.56)" fill="#dce9fb" fill-rule="evenodd"/>
  <path id="Fill-18" d="M2487.409,714.263a2.456,2.456,0,0,1-1.815-.811,5.466,5.466,0,0,1-1.267-2.442,5.379,5.379,0,0,1-.14-2.716,2.4,2.4,0,0,1,1.88-1.833,3.034,3.034,0,0,1,.748-.1,2.464,2.464,0,0,1,1.818.809,5.507,5.507,0,0,1,1.253,2.434,5.387,5.387,0,0,1,.13,2.729,2.4,2.4,0,0,1-1.866,1.831,3.019,3.019,0,0,1-.74.1m-.727-6.672a1.167,1.167,0,0,0-.289.037,1.252,1.252,0,0,0-.91,1.3,5.122,5.122,0,0,0,.211,1.734q.644,2.376,1.823,2.375a1.338,1.338,0,0,0,.327-.042q.823-.208.891-1.315a6.314,6.314,0,0,0-.9-3.335,1.429,1.429,0,0,0-1.15-.752" transform="translate(-1813.176 -521.92)" fill="#dce9fb" fill-rule="evenodd"/>
  <path id="Fill-19" d="M2510.1,708.332a2.458,2.458,0,0,1-1.815-.811,5.5,5.5,0,0,1-1.269-2.442,5.4,5.4,0,0,1-.138-2.716,2.4,2.4,0,0,1,1.877-1.834,3.066,3.066,0,0,1,.751-.1,2.458,2.458,0,0,1,1.815.809,5.507,5.507,0,0,1,1.256,2.434,5.381,5.381,0,0,1,.13,2.729,2.4,2.4,0,0,1-1.866,1.831,3.036,3.036,0,0,1-.74.1m-.727-6.672a1.16,1.16,0,0,0-.289.037,1.251,1.251,0,0,0-.91,1.3,5.125,5.125,0,0,0,.21,1.733q.641,2.376,1.823,2.375a1.307,1.307,0,0,0,.324-.042q.823-.207.894-1.315a5.269,5.269,0,0,0-.221-1.731,5.389,5.389,0,0,0-.681-1.6,1.428,1.428,0,0,0-1.15-.752" transform="translate(-1829.737 -517.537)" fill="#dce9fb" fill-rule="evenodd"/>
  <path id="Fill-20" d="M2532.788,702.4a2.455,2.455,0,0,1-1.814-.811,5.493,5.493,0,0,1-1.27-2.442,5.405,5.405,0,0,1-.138-2.716,2.4,2.4,0,0,1,1.877-1.833,3.062,3.062,0,0,1,.748-.1,2.461,2.461,0,0,1,1.818.809,5.512,5.512,0,0,1,1.253,2.435,5.357,5.357,0,0,1,.132,2.729,2.4,2.4,0,0,1-1.866,1.831,3.049,3.049,0,0,1-.74.1m-.729-6.672a1.185,1.185,0,0,0-.289.037,1.252,1.252,0,0,0-.908,1.3,5.175,5.175,0,0,0,.208,1.734q.644,2.375,1.825,2.375a1.313,1.313,0,0,0,.324-.042q.823-.207.894-1.315a5.266,5.266,0,0,0-.221-1.731,5.409,5.409,0,0,0-.681-1.6,1.434,1.434,0,0,0-1.153-.752" transform="translate(-1846.299 -513.156)" fill="#dce9fb" fill-rule="evenodd"/>
  <path id="Fill-21" d="M2555.476,696.471a2.465,2.465,0,0,1-1.814-.811,5.491,5.491,0,0,1-1.267-2.442,5.406,5.406,0,0,1-.138-2.716,2.4,2.4,0,0,1,1.877-1.834,3.045,3.045,0,0,1,.748-.1,2.46,2.46,0,0,1,1.817.809,5.5,5.5,0,0,1,1.253,2.434,5.352,5.352,0,0,1,.133,2.729,2.4,2.4,0,0,1-1.869,1.831,3.015,3.015,0,0,1-.74.1m-.726-6.672a1.171,1.171,0,0,0-.289.037,1.258,1.258,0,0,0-.91,1.3,5.263,5.263,0,0,0,.211,1.734q.644,2.375,1.825,2.375a1.31,1.31,0,0,0,.324-.042q.823-.208.894-1.315a5.335,5.335,0,0,0-.221-1.731,5.413,5.413,0,0,0-.681-1.6,1.437,1.437,0,0,0-1.153-.752" transform="translate(-1862.861 -508.774)" fill="#dce9fb" fill-rule="evenodd"/>
  <path id="Fill-22" d="M2157.748,692.927a2.369,2.369,0,0,1-2.3-1.714,2.293,2.293,0,0,1,1.693-2.8l29.206-7.381a2.4,2.4,0,0,1,.594-.074,2.372,2.372,0,0,1,2.3,1.714,2.3,2.3,0,0,1-1.7,2.8l-29.2,7.381a2.435,2.435,0,0,1-.6.074" transform="translate(-1573.252 -503.15)" fill="#dce9fb" fill-rule="evenodd"/>
  <path id="Fill-23" d="M2529.945,646.055a.41.41,0,0,1-.2-.053l-.173-.1a.367.367,0,0,1-.156-.468,2.492,2.492,0,0,0,.14-1.69,2.573,2.573,0,0,0-.978-1.408.362.362,0,0,1-.1-.483l.1-.169a.4.4,0,0,1,.57-.115,3.516,3.516,0,0,1,1.351,1.936,3.4,3.4,0,0,1-.2,2.328.39.39,0,0,1-.357.223" transform="translate(-1845.551 -473.99)" fill="#dce9fb" fill-rule="evenodd"/>
  <path id="Fill-24" d="M2534.388,642.369a.4.4,0,0,1-.2-.054l-.1-.057a.367.367,0,0,1-.146-.493,4.4,4.4,0,0,0,.343-3.181,4.546,4.546,0,0,0-1.909-2.612.37.37,0,0,1-.125-.5l.057-.1a.4.4,0,0,1,.341-.19.381.381,0,0,1,.208.062,5.39,5.39,0,0,1,2.29,3.117,5.24,5.24,0,0,1-.418,3.8.383.383,0,0,1-.343.2" transform="translate(-1848.309 -469.33)" fill="#dce9fb" fill-rule="evenodd"/>
  <path id="Fill-25" d="M2538.325,639.146a.39.39,0,0,1-.2-.053.368.368,0,0,1-.146-.5,6.1,6.1,0,0,0,.54-4.536,6.305,6.305,0,0,0-2.766-3.7.365.365,0,0,1-.124-.5.394.394,0,0,1,.545-.13,7.062,7.062,0,0,1,3.093,4.141,6.824,6.824,0,0,1-.6,5.075.384.384,0,0,1-.34.2" transform="translate(-1850.772 -465.255)" fill="#dce9fb" fill-rule="evenodd"/>
  <path id="Fill-26" d="M2542.145,635.662a.39.39,0,0,1-.2-.053l-.17-.1a.368.368,0,0,1-.143-.5,7.669,7.669,0,0,0,.716-5.76,7.935,7.935,0,0,0-3.538-4.685.366.366,0,0,1-.13-.5l.1-.166a.388.388,0,0,1,.338-.189.4.4,0,0,1,.208.058,8.864,8.864,0,0,1,3.967,5.244,8.564,8.564,0,0,1-.808,6.45.388.388,0,0,1-.343.2" transform="translate(-1853 -460.851)" fill="#dce9fb" fill-rule="evenodd"/>
  <path id="Fill-27" d="M1258.9,1012.634H907.876a9,9,0,0,1-9.123-8.82V779.074a9,9,0,0,1,9.123-8.82H1258.9a9,9,0,0,1,9.123,8.82v224.739a9,9,0,0,1-9.123,8.82" transform="translate(-656.019 -569.129)" fill="#2b478b" fill-rule="evenodd"/>
  <path id="Fill-28" d="M929.591,1034.131h352.615V802.685H929.591Z" transform="translate(-678.528 -593.091)" fill="#dde7fe" fill-rule="evenodd"/>
  <path id="Fill-29" d="M1186.71,1677.946H742.741a6.453,6.453,0,0,1-6.56-6.342v-2.831a6.453,6.453,0,0,1,6.56-6.342H1186.71a6.452,6.452,0,0,1,6.557,6.342v2.831a6.452,6.452,0,0,1-6.557,6.342" transform="translate(-537.354 -1228.344)" fill="#2b478b" fill-rule="evenodd"/>
  <path id="Fill-30" d="M929.591,1027.982h352.615v-225.3H929.591Z" transform="translate(-678.528 -593.091)" fill="#aec3ff" fill-rule="evenodd"/>
  <path id="Fill-31" d="M494.157,1697.7s0-3.334.52-4.444,2.429-5.624,2.429-5.624h7.459a38.787,38.787,0,0,1,1.475,5.465c.087,1.347,0,4.6,0,4.6H494.157" transform="translate(-360.696 -1246.963)" fill="#233862" fill-rule="evenodd"/>
  <path id="Fill-32" d="M637.3,1697.7s0-3.334-.52-4.444-2.429-5.624-2.429-5.624H626.9a38.8,38.8,0,0,0-1.474,5.465c-.087,1.347,0,4.6,0,4.6H637.3" transform="translate(-456.48 -1246.963)" fill="#233862" fill-rule="evenodd"/>
  <path id="Fill-33" d="M533.084,998.206s-.263,7.426-1.3,10.755l-8.238,5.248,31.009,4.238-7.4-9.332s-2.233-9.959-1.062-13.643-13.011,2.734-13.011,2.734" transform="translate(-382.145 -734.696)" fill="#ffb27d" fill-rule="evenodd"/>
  <path id="Fill-34" d="M558.705,1013.1s2.452,5.392,7.071,5.272,5.67-4.891,5.67-4.891l-12.741-.381" transform="translate(-407.811 -748.564)" fill="#ed985f" fill-rule="evenodd"/>
  <path id="Fill-35" d="M540.125,935.656s-1.492-6.8-2.533-8.862-1.908-11.25,9.628-11.726c0,0,4.424.475,6.852-.871,0,0,0,1.347-.607,1.822a8.16,8.16,0,0,1,7.113,2.3c3.123,3.169-2.081,14.261-1.821,16.876l-18.632.463" transform="translate(-391.988 -675.486)" fill="#2c3a64" fill-rule="evenodd"/>
  <path id="Fill-36" d="M557.233,967.648c-3.347-.052-9.507-4.123-9.507-9.165v-7.866a3.25,3.25,0,0,1,3.123-3.347h12.768a3.25,3.25,0,0,1,3.123,3.347v7.421c0,5.286-5.668,9.672-9.507,9.61" transform="translate(-399.797 -699.923)" fill="#ffb27d" fill-rule="evenodd"/>
  <path id="Fill-37" d="M546.575,949.775s.018-4.726,4.116-5.453,13.271,2.3,14.572-1.143-17.73-3.387-18.688-1.189,0,7.784,0,7.784" transform="translate(-398.646 -694.881)" fill="#2c3a64" fill-rule="evenodd"/>
  <path id="Fill-38" d="M493.538,1283.78s1.3,36.4-.646,57.174.014,49.677.014,49.677a16,16,0,0,0,13.007,0s7.42-40.128,7.373-49.677c-.05-10.171,8.076-55.586,8.076-55.586l-27.823-1.588" transform="translate(-359.141 -948.565)" fill="#2b478b" fill-rule="evenodd"/>
  <path id="Fill-39" d="M591.623,1390.451a15.983,15.983,0,0,1-13.005,0s-7.419-40.126-7.372-49.675c.021-4.3-1.416-14.881-3.083-25.67-2.282-14.764-4.994-29.916-4.994-29.916l28.9-1.65s-2.384,36.467-.432,57.236-.016,49.675-.016,49.675" transform="translate(-411.068 -948.388)" fill="#2b478b" fill-rule="evenodd"/>
  <path id="Fill-40" d="M540.328,1117.365a157.766,157.766,0,0,1-23.562,2.18,124.275,124.275,0,0,1-14.471-1.01c-4.689-.567-8.051-1.17-8.051-1.17s-2.5.2-1.023-11.048c1.122-8.562.77-16.293.52-24.245-.028-.885-.008-1.93.052-3.094.479-9.272,3.549-25.965,5.889-26.864a46.362,46.362,0,0,1,9.625-1.755c0,.11,3.568,4.872,7.8,5.408a14.666,14.666,0,0,0,7.575-5.254,89.226,89.226,0,0,1,11.874,2.091s.442,1.768,2.113,32.449c.664,12.152,5.2,32.352,1.658,32.31" transform="translate(-359.672 -776.094)" fill="#f99746" fill-rule="evenodd"/>
  <path id="Fill-41" d="M584.741,1394.3c.021-4.3-1.416-14.881-3.083-25.67a48.778,48.778,0,0,1,5.946-12.651c5.335,13.667-2.862,38.321-2.862,38.321" transform="translate(-424.564 -1001.912)" fill="#233862" fill-rule="evenodd"/>
  <path id="Fill-42" d="M413.808,1093.055c-.294.222.731,2.543,2.241,5.567,3.107,6.209,8.267,15.382,8.267,15.382a25.718,25.718,0,0,1-1.566,4.188A105.675,105.675,0,0,1,404.9,1102.6c-5.022-5.718-6.053-9-6.053-9,19.329-35.937,32.932-37.264,32.932-37.264l-1.607,23.751s-15.467,12.286-16.362,12.964" transform="translate(-291.126 -780.513)" fill="#f99746" fill-rule="evenodd"/>
  <path id="Fill-43" d="M487.425,1272.07s4.684-3.961,6.592-1.742,2.255,5.7.781,5.465-4.51-1.5-4.944-.87-2.377,1.844-2.967.883.538-3.737.538-3.737" transform="translate(-355.264 -938.127)" fill="#ffb27d" fill-rule="evenodd"/>
  <path id="Fill-44" d="M440.674,1233.652a25.718,25.718,0,0,1-1.566,4.188,105.678,105.678,0,0,1-17.851-15.594,23.614,23.614,0,0,0,11.15-3.977c3.107,6.209,8.267,15.382,8.267,15.382" transform="translate(-307.484 -900.161)" fill="#ffb27d" fill-rule="evenodd"/>
  <path id="Fill-45" d="M682.3,1094.609s-1.03,3.277-6.053,9a105.667,105.667,0,0,1-17.851,15.594,25.7,25.7,0,0,1-1.567-4.188s5.16-9.173,8.267-15.382c1.509-3.024,2.534-5.345,2.241-5.567-.695-.527-10.143-8.027-14.359-11.372l-2-1.593-.966-23.4s12.962.971,32.29,36.909" transform="translate(-474.454 -781.518)" fill="#f99746" fill-rule="evenodd"/>
  <path id="Fill-46" d="M656.675,1272.07s-4.684-3.961-6.592-1.742-2.255,5.7-.781,5.465,4.511-1.5,4.944-.87,2.377,1.844,2.967.883-.538-3.737-.538-3.737" transform="translate(-473.272 -938.127)" fill="#ffb27d" fill-rule="evenodd"/>
  <path id="Fill-47" d="M675.257,1233.652a25.715,25.715,0,0,0,1.566,4.188,105.682,105.682,0,0,0,17.851-15.594,23.614,23.614,0,0,1-11.15-3.977c-3.107,6.209-8.267,15.382-8.267,15.382" transform="translate(-492.884 -900.161)" fill="#ffb27d" fill-rule="evenodd"/>
  <path id="Fill-48" d="M550.867,1043.42a3.133,3.133,0,0,0-1.767,1.951s5.523,5.188,9.136,5.269l-7.369-7.22" transform="translate(-400.8 -770.967)" fill="#2b478b" fill-rule="evenodd"/>
  <path id="Fill-49" d="M582.929,1049.9l7.129-7.481a3.044,3.044,0,0,1,1.451,2.34s-5.514,5.34-8.579,5.141" transform="translate(-425.492 -770.228)" fill="#2b478b" fill-rule="evenodd"/>
  <path id="Fill-50" d="M567.5,1068.856s-5.441,42.9-3.546,48.131a34.446,34.446,0,0,0,3.318,6.648,2.025,2.025,0,0,0,3.338-.008c1.445-2.29,3.333-5.606,3.333-7.29,0-2.726-4.128-47.518-4.128-47.518l-2.315.036" transform="translate(-411.351 -789.734)" fill="#2b478b" fill-rule="evenodd"/>
  <path id="Fill-51" d="M571.7,1060.4a37.582,37.582,0,0,1,5.29-.115.5.5,0,0,1,.425.752c-.561.924-1.706,2.522-2.9,2.522-1.682,0-4.3-3.052-2.812-3.159" transform="translate(-416.975 -783.386)" fill="#2b478b" fill-rule="evenodd"/>
  <path id="Fill-52" d="M573.054,1005.332a3.76,3.76,0,0,0,2.863,1.24,3.471,3.471,0,0,0,2.676-1.24,19.883,19.883,0,0,0-5.539,0" transform="translate(-418.284 -742.673)" fill="#fff" fill-rule="evenodd"/>
  <path id="Fill-53" d="M1237.18,936.91h228.046V702.12H1237.18Z" transform="translate(-903.044 -518.785)" fill="#cfdeff" fill-rule="evenodd"/>
  <path id="Fill-54" d="M1724.678,1442.2h-43.45a.068.068,0,0,1-.068-.065v-2.6a.065.065,0,0,1,.068-.063h43.45a.065.065,0,0,1,.067.063v2.6a.067.067,0,0,1-.067.065" transform="translate(-1227.114 -1063.602)" fill="#2b478b" fill-rule="evenodd"/>
  <path id="Fill-55" d="M1735.478,1418.456h-54.256a.062.062,0,0,1-.062-.063v-2.6a.062.062,0,0,1,.062-.062h54.256a.062.062,0,0,1,.062.063v2.6a.062.062,0,0,1-.062.063" transform="translate(-1227.114 -1046.061)" fill="#2b478b" fill-rule="evenodd"/>
  <path id="Fill-56" d="M1310.42,982.17H1498.9V853.96H1310.42Z" transform="translate(-956.503 -630.978)" fill="#aec3ff" fill-rule="evenodd"/>
  <path id="Fill-57" d="M1474.07,961.7h.3V826.249h-.3Z" transform="translate(-1075.955 -610.502)" fill="#1f1f89" fill-rule="evenodd"/>
  <path id="Fill-58" d="M1911.08,961.7h.3V826.249h-.3Z" transform="translate(-1394.937 -610.502)" fill="#1f1f89" fill-rule="evenodd"/>
  <path id="Fill-59" d="M1548.28,961.7h.3V826.249h-.3Z" transform="translate(-1130.122 -610.502)" fill="#1f1f89" fill-rule="evenodd"/>
  <path id="Fill-60" d="M1310.42,1253.392H1498.9v-.292H1310.42Z" transform="translate(-956.503 -925.896)" fill="#1f1f89" fill-rule="evenodd"/>
  <path id="Fill-61" d="M1310.42,1150.633H1498.9v-.293H1310.42Z" transform="translate(-956.503 -849.968)" fill="#1f1f89" fill-rule="evenodd"/>
  <path id="Fill-62" d="M1310.42,1047.872H1498.9v-.292H1310.42Z" transform="translate(-956.503 -774.04)" fill="#1f1f89" fill-rule="evenodd"/>
  <path id="Fill-63" d="M1310.42,945.112H1498.9v-.293H1310.42Z" transform="translate(-956.503 -698.112)" fill="#1f1f89" fill-rule="evenodd"/>
  <path id="Fill-64" d="M1310.42,791.186H1498.9V765.169H1310.42Z" transform="translate(-956.503 -565.371)" fill="#f78248" fill-rule="evenodd"/>
  <path id="Fill-65" d="M1899.151,1422.172a6.523,6.523,0,0,0-.3,1.219A8.88,8.88,0,0,0,1899.151,1422.172Zm-12.375,6.724a8.169,8.169,0,0,0-.165,4.356C1887.251,1431.322,1887.383,1429.651,1886.776,1428.9Zm7.489,1.5c.2.548.378.655.378.655a10.9,10.9,0,0,0,2.269-3.152c-.6-.021-1.288-.024-2.031-.008A13.139,13.139,0,0,1,1894.265,1430.392Zm-6.952,4.585a1.477,1.477,0,0,0,1.124.7c.964.036,2.128-.9,3.182-2.588a14.686,14.686,0,0,0,1.315-2.716,10.571,10.571,0,0,1-.359-2.368c-1.415.1-2.955.277-4.543.541C1888.858,1430.014,1888.38,1432.5,1887.313,1434.978Zm-11.735-1.911c.67,4.087,2.909,7.089,4.81,7.632a2.283,2.283,0,0,0,2.441-.856,19.713,19.713,0,0,0,3.073-4.8,6.578,6.578,0,0,1-.532-1.52,10.041,10.041,0,0,1,.005-4.465,34.575,34.575,0,0,0-6.017,1.914A20.031,20.031,0,0,0,1875.578,1433.066Zm14.06,12.643a34.365,34.365,0,0,1-11.654,1.666c-4.969-.379-7.765-2.755-7.875-6.695a9.769,9.769,0,0,1,4.116-8.082c-.027-.212-.049-.426-.067-.64-.184-2.2.332-3.666,1.531-4.35,1.942-1.1,4.824.407,4.945.47l-.646,1.008c-.646-.345-2.563-1.1-3.624-.491-.916.525-1.026,1.966-.945,3.139a28.368,28.368,0,0,1,8.834-3.611,51.594,51.594,0,0,1,8.324-1.3,6.678,6.678,0,0,1,.07-.721c.089-.541.294-1.172.878-1.3a1,1,0,0,1,1.029.491,2.609,2.609,0,0,1,.389,1.415c.926-.018,1.785,0,2.547.047l.022-.044a12.193,12.193,0,0,1,.194-4.058c.324-1.35.854-2.031,1.6-2.1a.986.986,0,0,1,1.013.572c.416.914-.365,3.384-1.494,5.755l0,.013c1.059.165,1.777.431,2,.8a.821.821,0,0,1-.256,1.094,1.615,1.615,0,0,1-1.869.366,1.741,1.741,0,0,1-.683-.715,12.187,12.187,0,0,1-2.515,3.421,1.308,1.308,0,0,1-1.807-.039,15.713,15.713,0,0,1-.972,1.836c-1.334,2.141-2.839,3.24-4.348,3.175a2.572,2.572,0,0,1-1.629-.658,21.28,21.28,0,0,1-2.928,4.395,3.6,3.6,0,0,1-3.811,1.235c-2.477-.708-4.716-3.977-5.553-7.852a8.378,8.378,0,0,0-3.073,6.692c.094,3.358,2.352,5.23,6.706,5.562,10.995.836,30.27-8.5,31.732-15.364-1.188,5.585-10.336,11.946-20.183,14.86Z" transform="translate(-1365.029 -1049.625)" fill="#f77d48" fill-rule="evenodd"/>
  <path id="Fill-66" d="M1364.76,806.5h1.685v-9.279h-1.685Z" transform="translate(-996.167 -589.053)" fill="#ebf3fa" fill-rule="evenodd"/>
  <path id="Fill-67" d="M1380.49,797.219h1.564l5.142,6.416v-6.416h1.658V806.5h-1.412l-5.291-6.6v6.6h-1.661v-9.279" transform="translate(-1007.649 -589.053)" fill="#ebf3fa" fill-rule="evenodd"/>
  <path id="Fill-68" d="M1417.55,797.219h1.866l2.892,7.132,2.879-7.132h1.823l-3.989,9.346h-1.48l-3.992-9.346" transform="translate(-1034.7 -589.053)" fill="#ebf3fa" fill-rule="evenodd"/>
  <path id="Fill-69" d="M1463.187,801.408a3.229,3.229,0,0,0-3.263-3.3,3.191,3.191,0,0,0-3.236,3.3,3.228,3.228,0,0,0,3.263,3.3A3.19,3.19,0,0,0,1463.187,801.408Zm-8.267,0a5.023,5.023,0,1,1,5,4.8,4.839,4.839,0,0,1-5-4.8Z" transform="translate(-1061.977 -588.602)" fill="#ebf3fa" fill-rule="evenodd"/>
  <path id="Fill-70" d="M1500,806.5h1.688v-9.279H1500Z" transform="translate(-1094.882 -589.053)" fill="#ebf3fa" fill-rule="evenodd"/>
  <path id="Fill-71" d="M1514.16,801.408a4.778,4.778,0,0,1,4.95-4.8,5.091,5.091,0,0,1,3.757,1.445l-1.083,1.206a3.877,3.877,0,0,0-2.687-1.153,3.3,3.3,0,0,0,0,6.6,3.812,3.812,0,0,0,2.755-1.206l1.086,1.06a5.032,5.032,0,0,1-3.895,1.644,4.753,4.753,0,0,1-4.883-4.8" transform="translate(-1105.217 -588.602)" fill="#ebf3fa" fill-rule="evenodd"/>
  <path id="Fill-72" d="M1553.2,797.219h7.117v1.458h-5.429v2.413h4.813v1.458h-4.813v2.492h5.5V806.5H1553.2v-9.279" transform="translate(-1133.713 -589.053)" fill="#ebf3fa" fill-rule="evenodd"/>
  <path id="Fill-73" d="M902.626,1402.864l-96.332-.58a7.647,7.647,0,0,1-7.727-7.565l.63-97.89a7.654,7.654,0,0,1,7.824-7.471l96.333.58a7.646,7.646,0,0,1,7.727,7.565l-.629,97.89a7.654,7.654,0,0,1-7.824,7.471" transform="translate(-582.89 -952.687)" fill="#f77d48" fill-rule="evenodd"/>
  <path id="Fill-74" d="M919.846,1337.394l-92.292-.554a3.364,3.364,0,0,1-3.4-3.327l.073-11.33a3.365,3.365,0,0,1,3.441-3.285l92.292.554a3.365,3.365,0,0,1,3.4,3.327l-.073,11.33a3.367,3.367,0,0,1-3.441,3.285" transform="translate(-601.569 -974.514)" fill="#aec3ff" fill-rule="evenodd"/>
  <path id="Fill-75" d="M920.107,1515.5l-7.9-.047a3.515,3.515,0,0,1-3.553-3.478l.049-7.638a3.521,3.521,0,0,1,3.6-3.436l7.9.047a3.516,3.516,0,0,1,3.553,3.478l-.049,7.64a3.517,3.517,0,0,1-3.6,3.434" transform="translate(-663.245 -1108.991)" fill="#2b478b" fill-rule="evenodd"/>
  <path id="Fill-76" d="M919.682,1583.889l-7.9-.047a3.516,3.516,0,0,1-3.552-3.478l.049-7.64a3.517,3.517,0,0,1,3.6-3.434l7.9.047a3.517,3.517,0,0,1,3.553,3.478l-.049,7.64a3.517,3.517,0,0,1-3.6,3.434" transform="translate(-662.935 -1159.523)" fill="#2b478b" fill-rule="evenodd"/>
  <path id="Fill-77" d="M919.257,1652.279l-7.9-.05a3.513,3.513,0,0,1-3.553-3.475l.049-7.64a3.518,3.518,0,0,1,3.6-3.434l7.9.047a3.515,3.515,0,0,1,3.553,3.478l-.049,7.638a3.521,3.521,0,0,1-3.6,3.436" transform="translate(-662.624 -1210.056)" fill="#2b478b" fill-rule="evenodd"/>
  <path id="Fill-78" d="M993.754,1515.959l-7.9-.047a3.517,3.517,0,0,1-3.553-3.478l.049-7.64a3.52,3.52,0,0,1,3.6-3.434l7.9.047a3.515,3.515,0,0,1,3.552,3.478l-.049,7.64a3.519,3.519,0,0,1-3.6,3.434" transform="translate(-717.002 -1109.331)" fill="#2b478b" fill-rule="evenodd"/>
  <path id="Fill-79" d="M993.33,1584.348l-7.9-.047a3.517,3.517,0,0,1-3.553-3.478l.049-7.64a3.517,3.517,0,0,1,3.6-3.434l7.9.047a3.517,3.517,0,0,1,3.554,3.478l-.051,7.638a3.518,3.518,0,0,1-3.595,3.436" transform="translate(-716.691 -1159.863)" fill="#2b478b" fill-rule="evenodd"/>
  <path id="Fill-80" d="M992.9,1652.729l-7.9-.047a3.515,3.515,0,0,1-3.553-3.478l.049-7.637a3.522,3.522,0,0,1,3.6-3.436l7.9.05a3.511,3.511,0,0,1,3.552,3.475l-.049,7.64a3.519,3.519,0,0,1-3.6,3.434" transform="translate(-716.381 -1210.388)" fill="#2b478b" fill-rule="evenodd"/>
  <path id="Fill-81" d="M1064.344,1584.789l-7.9-.047a3.519,3.519,0,0,1-3.554-3.478l.049-7.64a3.519,3.519,0,0,1,3.6-3.434l7.9.047a3.515,3.515,0,0,1,3.552,3.478l-.049,7.64a3.519,3.519,0,0,1-3.6,3.434" transform="translate(-768.526 -1160.188)" fill="#2b478b" fill-rule="evenodd"/>
  <path id="Fill-82" d="M1063.924,1653.178l-7.9-.05a3.511,3.511,0,0,1-3.552-3.476l.049-7.64a3.517,3.517,0,0,1,3.6-3.434l7.9.047a3.517,3.517,0,0,1,3.554,3.478l-.049,7.638a3.522,3.522,0,0,1-3.6,3.436" transform="translate(-768.219 -1210.72)" fill="#2b478b" fill-rule="evenodd"/>
  <path id="Fill-83" d="M850.248,1443.569l-7.9-.047a3.515,3.515,0,0,1-3.553-3.478l.029-4.53a3.517,3.517,0,0,1,3.6-3.434l7.9.047a3.516,3.516,0,0,1,3.553,3.478l-.029,4.53a3.517,3.517,0,0,1-3.6,3.434" transform="translate(-612.253 -1058.141)" fill="#f99746" fill-rule="evenodd"/>
  <path id="Fill-84" d="M849.8,1515.271l-7.9-.047a3.517,3.517,0,0,1-3.553-3.478l.029-4.53a3.521,3.521,0,0,1,3.6-3.436l7.9.049a3.513,3.513,0,0,1,3.553,3.476l-.029,4.533a3.519,3.519,0,0,1-3.6,3.434" transform="translate(-611.927 -1111.119)" fill="#f99746" fill-rule="evenodd"/>
  <path id="Fill-85" d="M849.356,1586.979l-7.9-.047a3.515,3.515,0,0,1-3.553-3.478l.029-4.53a3.518,3.518,0,0,1,3.6-3.434l7.9.047a3.517,3.517,0,0,1,3.553,3.478l-.029,4.53a3.518,3.518,0,0,1-3.6,3.434" transform="translate(-611.602 -1164.104)" fill="#f99746" fill-rule="evenodd"/>
  <path id="Fill-86" d="M848.91,1658.681l-7.9-.047a3.516,3.516,0,0,1-3.552-3.478l.029-4.53a3.522,3.522,0,0,1,3.6-3.436l7.9.05a3.512,3.512,0,0,1,3.552,3.475l-.029,4.53a3.52,3.52,0,0,1-3.6,3.437" transform="translate(-611.277 -1217.082)" fill="#f99746" fill-rule="evenodd"/>
  <path id="Fill-87" d="M920.533,1447.118l-7.9-.047a3.517,3.517,0,0,1-3.553-3.478l.049-7.64a3.518,3.518,0,0,1,3.6-3.434l7.9.047a3.515,3.515,0,0,1,3.553,3.478l-.049,7.638a3.521,3.521,0,0,1-3.6,3.436" transform="translate(-663.556 -1058.466)" fill="#f99746" fill-rule="evenodd"/>
  <path id="Fill-88" d="M994.181,1447.569l-7.9-.047a3.515,3.515,0,0,1-3.553-3.478l.049-7.638a3.521,3.521,0,0,1,3.6-3.436l7.9.05a3.517,3.517,0,0,1,3.554,3.475l-.051,7.64a3.514,3.514,0,0,1-3.595,3.434" transform="translate(-717.312 -1058.799)" fill="#f99746" fill-rule="evenodd"/>
  <path id="Fill-89" d="M1065.194,1448.019l-7.9-.05a3.515,3.515,0,0,1-3.554-3.475l.049-7.64a3.518,3.518,0,0,1,3.6-3.434l7.9.047a3.513,3.513,0,0,1,3.552,3.478l-.049,7.638a3.521,3.521,0,0,1-3.6,3.437" transform="translate(-769.147 -1059.131)" fill="#f99746" fill-rule="evenodd"/>
  <path id="Fill-90" d="M1131.514,1517.148l-7.9-.049a3.511,3.511,0,0,1-3.552-3.476l.049-7.64a3.518,3.518,0,0,1,3.6-3.434l7.9.047a3.517,3.517,0,0,1,3.554,3.478l-.049,7.638a3.522,3.522,0,0,1-3.6,3.436" transform="translate(-817.555 -1110.21)" fill="#f99746" fill-rule="evenodd"/>
  <path id="Fill-91" d="M1131.934,1448.759l-7.9-.047a3.519,3.519,0,0,1-3.554-3.478l.052-7.64a3.514,3.514,0,0,1,3.595-3.434l7.9.047a3.515,3.515,0,0,1,3.552,3.478l-.049,7.64a3.517,3.517,0,0,1-3.6,3.434" transform="translate(-817.862 -1059.678)" fill="#f99746" fill-rule="evenodd"/>
  <path id="Fill-92" d="M1130.664,1603.386l-7.9-.047a3.515,3.515,0,0,1-3.552-3.478l.162-25.5a3.522,3.522,0,0,1,3.6-3.436l7.9.05a3.511,3.511,0,0,1,3.552,3.475l-.162,25.5a3.519,3.519,0,0,1-3.6,3.434" transform="translate(-816.934 -1160.735)" fill="#f99746" fill-rule="evenodd"/>
  <path id="Fill-93" d="M944.676,1344.744l.24.235-.021,3.264a.756.756,0,0,1-.606.577l-.355-.932.016-2.449Zm-.717-.935.016-2.449.367-.929a.765.765,0,0,1,.6.588l-.021,3.261-.243.232-.718-.7Z" transform="translate(-688.997 -990.423)" fill="#2b478b" fill-rule="evenodd"/>
  <path id="Fill-94" d="M960.817,1344.847l.24.235-.021,3.264a.763.763,0,0,1-.607.577l-.355-.932.016-2.449Zm-.717-.935.016-2.449.367-.93a.762.762,0,0,1,.6.588l-.021,3.261-.243.232Zm-.225-2.449-2.881-.018-.962-.355a.762.762,0,0,1,.607-.58l3.6.023Zm.314,7.46-3.616-.021a.766.766,0,0,1-.6-.588l.967-.345,2.893.018Zm-4.214-.841.02-3.032.242-.23.719.7-.014,2.214Zm1.006-6.405-.014,2.214-.728.694-.24-.232.019-3.032.962.355Z" transform="translate(-697.785 -990.482)" fill="#2b478b" fill-rule="evenodd"/>
  <path id="Fill-95" d="M988.04,1345.017l.24.235-.022,3.264a.76.76,0,0,1-.606.577l-.356-.932.016-2.449Zm-.716-.935.016-2.449.368-.93a.762.762,0,0,1,.6.588l-.019,3.261-.243.233Zm-.225-2.449-2.881-.018-.962-.355a.762.762,0,0,1,.607-.58l3.6.021Zm.313,7.46-3.616-.023a.758.758,0,0,1-.6-.585l.967-.345,2.893.018Zm-4.214-.841.02-3.031.242-.23.719.7-.014,2.214Zm1.006-6.405-.014,2.214-.728.695-.24-.233.02-3.032.962.355Z" transform="translate(-717.656 -990.607)" fill="#2b478b" fill-rule="evenodd"/>
  <path id="Fill-96" d="M1015.265,1345.187l.238.235-.019,3.261a.767.767,0,0,1-.608.58l-.357-.935.016-2.447Zm-.718-.937.016-2.447.367-.93a.762.762,0,0,1,.6.588l-.022,3.261-.243.232Zm-.224-2.447-2.882-.018-.961-.355a.76.76,0,0,1,.6-.58l3.605.021Zm.313,7.46-3.616-.024a.758.758,0,0,1-.6-.585l.967-.345,2.892.018Zm-4.213-.841.019-3.031.243-.23.718.7-.014,2.214Zm1-6.405-.014,2.214-.729.694-.24-.235.022-3.029.961.355Z" transform="translate(-737.527 -990.733)" fill="#2b478b" fill-rule="evenodd"/>
  <path id="Fill-97" d="M1042.492,1345.357l.24.235-.021,3.261a.763.763,0,0,1-.608.58l-.354-.935.016-2.447Zm-.718-.937.016-2.447.367-.929a.758.758,0,0,1,.6.585l-.022,3.264-.24.232Zm-.224-2.447-2.882-.018-.962-.355a.767.767,0,0,1,.608-.58l3.6.021Zm.313,7.46-3.616-.023a.752.752,0,0,1-.6-.585l.964-.345,2.9.018Zm-4.213-.843.019-3.029.243-.232.718.705-.013,2.214Zm1-6.4-.014,2.214-.726.695-.24-.235.019-3.029.962.355Z" transform="translate(-757.402 -990.859)" fill="#2b478b" fill-rule="evenodd"/>
  <path id="Fill-98" d="M1069.712,1345.527l.24.235-.022,3.261a.76.76,0,0,1-.6.58l-.356-.935.016-2.447Zm-.716-.937.016-2.447.367-.93a.763.763,0,0,1,.6.585l-.022,3.264-.243.232Zm-.227-2.449-2.879-.016-.961-.355a.76.76,0,0,1,.6-.58l3.6.021Zm.316,7.463-3.616-.024a.759.759,0,0,1-.6-.585l.967-.345,2.893.018Zm-4.216-.844.021-3.029.24-.232.721.705-.016,2.214Zm1.007-6.4-.016,2.214-.727.695-.241-.235.022-3.029.961.355Z" transform="translate(-777.271 -990.984)" fill="#2b478b" fill-rule="evenodd"/>
  <path id="Fill-99" d="M1096.935,1345.7l.238.235-.019,3.261a.766.766,0,0,1-.608.58l-.356-.935.016-2.447Zm-.719-.937.016-2.447.367-.93a.759.759,0,0,1,.6.585l-.022,3.264-.243.232Zm-.224-2.449-2.882-.016-.961-.355a.759.759,0,0,1,.6-.58l3.606.021Zm.313,7.46-3.616-.021a.759.759,0,0,1-.6-.585l.967-.345,2.892.018Zm-4.213-.841.019-3.029.243-.232.718.7-.013,2.214Zm1-6.4-.014,2.214-.729.695-.238-.235.019-3.029.962.355Z" transform="translate(-797.139 -991.11)" fill="#2b478b" fill-rule="evenodd"/>
  <path id="Fill-100" d="M1124.162,1345.867l.24.235-.022,3.261a.762.762,0,0,1-.608.579l-.354-.935.016-2.447Zm-.716-.937.014-2.447.367-.93a.759.759,0,0,1,.6.585l-.021,3.264-.24.233Zm-.227-2.449-2.882-.016-.961-.355a.766.766,0,0,1,.608-.58l3.6.021Zm.313,7.46-3.616-.021a.76.76,0,0,1-.6-.585l.967-.345,2.892.018Zm-4.213-.841.019-3.029.243-.232.718.7-.013,2.214Zm1-6.4-.014,2.214-.727.695-.24-.235.019-3.029.961.355Z" transform="translate(-817.015 -991.235)" fill="#2b478b" fill-rule="evenodd"/>
  <path id="Fill-101" d="M1151.382,1346.037l.24.235-.022,3.261a.759.759,0,0,1-.6.58l-.357-.935.016-2.447Zm-.716-.937.016-2.447.367-.93a.759.759,0,0,1,.6.585l-.022,3.264-.243.23Zm-.224-2.449-2.882-.016-.961-.355a.76.76,0,0,1,.6-.58l3.606.021Zm.313,7.46-3.616-.021a.759.759,0,0,1-.6-.588l.967-.342,2.893.016Zm-4.216-.841.022-3.029.243-.232.718.705-.016,2.214Zm1.007-6.4-.014,2.214-.729.695-.24-.235.021-3.029.962.355Z" transform="translate(-836.884 -991.361)" fill="#2b478b" fill-rule="evenodd"/>
  <path id="Fill-102" d="M1327.163,1698.33v3.792a1.255,1.255,0,0,1-.311.815,1.781,1.781,0,0,1-.843.546,1.735,1.735,0,0,1-.329.076,2.132,2.132,0,0,1-.319.024h-74.35a1.734,1.734,0,0,1-1.782-1.243c-.005-.047-.014-.094-.016-.144,0-.024,0-.05,0-.073v-3.792c0-.023,0-.05,0-.073,0-.05.011-.1.016-.144a1.734,1.734,0,0,1,1.782-1.243h74.35a2.133,2.133,0,0,1,.319.023,1.957,1.957,0,0,1,.329.076,1.781,1.781,0,0,1,.843.546,1.255,1.255,0,0,1,.311.815" transform="translate(-911.825 -1253.791)" fill="#ffb93e" fill-rule="evenodd"/>
  <path id="Fill-103" d="M1290.653,1703.581h-39.837a1.593,1.593,0,0,1-1.545-1.081,1.568,1.568,0,0,1-.043-.162c-.005-.047-.014-.094-.016-.144,0-.024,0-.05,0-.073v-3.792c0-.023,0-.05,0-.073,0-.05.011-.1.016-.144a1.568,1.568,0,0,1,.043-.162,1.593,1.593,0,0,1,1.545-1.081h34.943a11.758,11.758,0,0,0,4.894,6.711" transform="translate(-911.825 -1253.791)" fill="#ffa412" fill-rule="evenodd"/>
  <path id="Fill-104" d="M1501.21,1703.581h.845v-6.711h-.845Z" transform="translate(-1095.765 -1253.791)" fill="#ffa412" fill-rule="evenodd"/>
  <path id="Fill-105" d="M1490.62,1703.581h.845v-6.711h-.845Z" transform="translate(-1088.035 -1253.791)" fill="#ffa412" fill-rule="evenodd"/>
  <path id="Fill-106" d="M1477.92,1703.581h.843v-6.711h-.843Z" transform="translate(-1078.765 -1253.791)" fill="#ffa412" fill-rule="evenodd"/>
  <path id="Fill-107" d="M1458.45,1703.581h.845v-6.711h-.845Z" transform="translate(-1064.553 -1253.791)" fill="#ffa412" fill-rule="evenodd"/>
  <path id="Fill-108" d="M1437.86,1703.581h.845v-6.711h-.845Z" transform="translate(-1049.524 -1253.791)" fill="#ffa412" fill-rule="evenodd"/>
  <path id="Fill-109" d="M1406.3,1703.581h.845v-6.711h-.845Z" transform="translate(-1026.488 -1253.791)" fill="#ffa412" fill-rule="evenodd"/>
  <path id="Fill-110" d="M1376.75,1703.581h.845v-6.711h-.845Z" transform="translate(-1004.919 -1253.791)" fill="#ffa412" fill-rule="evenodd"/>
  <path id="Fill-111" d="M1350.37,1703.581h.845v-6.711h-.845Z" transform="translate(-985.664 -1253.791)" fill="#ffa412" fill-rule="evenodd"/>
  <path id="Fill-112" d="M1511.29,1703.581h.845v-6.711h-.845Z" transform="translate(-1103.122 -1253.791)" fill="#ffa412" fill-rule="evenodd"/>
  <path id="Fill-113" d="M1517.95,1703.581h.845v-6.711h-.845Z" transform="translate(-1107.984 -1253.791)" fill="#ffa412" fill-rule="evenodd"/>
  <path id="Fill-114" d="M1524.38,1703.581h.845v-6.711h-.845Z" transform="translate(-1112.677 -1253.791)" fill="#ffa412" fill-rule="evenodd"/>
  <path id="Fill-115" d="M1530.065,1696.893v6.664a2.1,2.1,0,0,1-.319.024h-.527v-6.711h.527a2.1,2.1,0,0,1,.319.023" transform="translate(-1116.21 -1253.791)" fill="#ffa412" fill-rule="evenodd"/>
  <path id="Fill-116" d="M1534.412,1697.8v5.421a1.764,1.764,0,0,1-.843.546v-6.512a1.765,1.765,0,0,1,.843.546" transform="translate(-1119.385 -1254.071)" fill="#ffa412" fill-rule="evenodd"/>
  <path id="Fill-117" d="M1297.738,1672.632v3.786a1.269,1.269,0,0,1-.308.817,1.5,1.5,0,0,1-.167.175,1.912,1.912,0,0,1-.678.371,1.836,1.836,0,0,1-.329.076,2.078,2.078,0,0,1-.316.024h-74.353a1.735,1.735,0,0,1-1.78-1.243c-.005-.047-.013-.094-.016-.141v-3.943c0-.047.011-.094.016-.141a1.735,1.735,0,0,1,1.78-1.243h74.353c.046,0,.1,0,.143.005l.051.005h.008l.067.008.046.005a2.087,2.087,0,0,1,.329.073c.065.021.124.044.181.068h0c.04.018.081.036.116.055l.065.036.062.034a1.434,1.434,0,0,1,.219.157l.062.055.038.034.016.021.019.016a.945.945,0,0,1,.065.073,1.269,1.269,0,0,1,.308.817" transform="translate(-890.35 -1234.802)" fill="#ffb93e" fill-rule="evenodd"/>
  <path id="Fill-118" d="M1261.228,1677.881h-39.834a1.589,1.589,0,0,1-1.545-1.083,1.561,1.561,0,0,1-.043-.159c-.005-.047-.013-.094-.016-.141v-3.943c0-.047.011-.094.016-.141a1.552,1.552,0,0,1,.043-.159,1.589,1.589,0,0,1,1.545-1.083h34.943c.014.055.03.109.049.164a11.715,11.715,0,0,0,4.842,6.546" transform="translate(-890.35 -1234.802)" fill="#ffa412" fill-rule="evenodd"/>
  <path id="Fill-119" d="M1471.77,1677.881h.845v-6.711h-.845Z" transform="translate(-1074.276 -1234.802)" fill="#ffa412" fill-rule="evenodd"/>
  <path id="Fill-120" d="M1461.18,1677.881h.845v-6.711h-.845Z" transform="translate(-1066.546 -1234.802)" fill="#ffa412" fill-rule="evenodd"/>
  <path id="Fill-121" d="M1448.48,1677.881h.845v-6.711h-.845Z" transform="translate(-1057.276 -1234.802)" fill="#ffa412" fill-rule="evenodd"/>
  <path id="Fill-122" d="M1429.01,1677.881h.845v-6.711h-.845Z" transform="translate(-1043.064 -1234.802)" fill="#ffa412" fill-rule="evenodd"/>
  <path id="Fill-123" d="M1408.43,1677.881h.845v-6.711h-.845Z" transform="translate(-1028.043 -1234.802)" fill="#ffa412" fill-rule="evenodd"/>
  <path id="Fill-124" d="M1376.87,1677.881h.845v-6.711h-.845Z" transform="translate(-1005.006 -1234.802)" fill="#ffa412" fill-rule="evenodd"/>
  <path id="Fill-125" d="M1347.32,1677.881h.845v-6.711h-.845Z" transform="translate(-983.437 -1234.802)" fill="#ffa412" fill-rule="evenodd"/>
  <path id="Fill-126" d="M1320.93,1677.881h.845v-6.711h-.845Z" transform="translate(-964.174 -1234.802)" fill="#ffa412" fill-rule="evenodd"/>
  <path id="Fill-127" d="M1481.86,1677.881h.843v-6.711h-.843Z" transform="translate(-1081.641 -1234.802)" fill="#ffa412" fill-rule="evenodd"/>
  <path id="Fill-128" d="M1488.52,1677.881h.843v-6.711h-.843Z" transform="translate(-1086.502 -1234.802)" fill="#ffa412" fill-rule="evenodd"/>
  <path id="Fill-129" d="M1494.95,1677.881h.845v-6.711h-.845Z" transform="translate(-1091.195 -1234.802)" fill="#ffa412" fill-rule="evenodd"/>
  <path id="Fill-130" d="M1500.635,1671.194v6.664a2.144,2.144,0,0,1-.319.024h-.527v-6.711h.527a2.144,2.144,0,0,1,.319.023" transform="translate(-1094.728 -1234.802)" fill="#ffa412" fill-rule="evenodd"/>
  <path id="Fill-131" d="M1504.975,1672.1v5.421a1.788,1.788,0,0,1-.845.546v-6.512a1.789,1.789,0,0,1,.845.546" transform="translate(-1097.896 -1235.082)" fill="#ffa412" fill-rule="evenodd"/>
  <path id="Fill-132" d="M1311.957,1647.57v3.789a1.261,1.261,0,0,1-.308.814,1.777,1.777,0,0,1-.843.546,2.245,2.245,0,0,1-.33.078,2.509,2.509,0,0,1-.316.021h-74.353a2.136,2.136,0,0,1-.829-.165,1.528,1.528,0,0,1-.948-1.06c-.008-.031-.011-.063-.016-.094l0-.065a.747.747,0,0,1,0-.076v-3.789a.75.75,0,0,1,0-.076.821.821,0,0,1,.016-.141,1.733,1.733,0,0,1,1.78-1.243h74.353a2.106,2.106,0,0,1,.316.021,1.943,1.943,0,0,1,.33.075,1.822,1.822,0,0,1,.843.546,1.274,1.274,0,0,1,.308.818" transform="translate(-900.73 -1216.285)" fill="#ffb93e" fill-rule="evenodd"/>
  <path id="Fill-133" d="M1275.448,1652.818h-39.834a1.709,1.709,0,0,1-.737-.165,1.477,1.477,0,0,1-.845-1.06c-.008-.031-.011-.063-.016-.094l0-.065a.747.747,0,0,1,0-.076v-3.789a.75.75,0,0,1,0-.076.821.821,0,0,1,.016-.141,1.609,1.609,0,0,1,.041-.157,1.583,1.583,0,0,1,1.545-1.086h34.943a11.769,11.769,0,0,0,4.648,6.543c.078.055.159.112.243.165" transform="translate(-900.73 -1216.285)" fill="#ffa412" fill-rule="evenodd"/>
  <path id="Fill-134" d="M1486,1652.811h.845V1646.1H1486Z" transform="translate(-1084.663 -1216.277)" fill="#ffa412" fill-rule="evenodd"/>
  <path id="Fill-135" d="M1475.41,1652.811h.845V1646.1h-.845Z" transform="translate(-1076.933 -1216.277)" fill="#ffa412" fill-rule="evenodd"/>
  <path id="Fill-136" d="M1462.71,1652.811h.843V1646.1h-.843Z" transform="translate(-1067.663 -1216.277)" fill="#ffa412" fill-rule="evenodd"/>
  <path id="Fill-137" d="M1443.24,1652.811h.845V1646.1h-.845Z" transform="translate(-1053.451 -1216.277)" fill="#ffa412" fill-rule="evenodd"/>
  <path id="Fill-138" d="M1422.65,1652.811h.845V1646.1h-.845Z" transform="translate(-1038.422 -1216.277)" fill="#ffa412" fill-rule="evenodd"/>
  <path id="Fill-139" d="M1391.09,1652.811h.845V1646.1h-.845Z" transform="translate(-1015.386 -1216.277)" fill="#ffa412" fill-rule="evenodd"/>
  <path id="Fill-140" d="M1361.54,1652.811h.845V1646.1h-.845Z" transform="translate(-993.817 -1216.277)" fill="#ffa412" fill-rule="evenodd"/>
  <path id="Fill-141" d="M1335.16,1652.811h.846V1646.1h-.846Z" transform="translate(-974.561 -1216.277)" fill="#ffa412" fill-rule="evenodd"/>
  <path id="Fill-142" d="M1496.08,1652.811h.845V1646.1h-.845Z" transform="translate(-1092.02 -1216.277)" fill="#ffa412" fill-rule="evenodd"/>
  <path id="Fill-143" d="M1502.74,1652.811h.845V1646.1h-.845Z" transform="translate(-1096.881 -1216.277)" fill="#ffa412" fill-rule="evenodd"/>
  <path id="Fill-144" d="M1509.17,1652.811h.845V1646.1h-.845Z" transform="translate(-1101.575 -1216.277)" fill="#ffa412" fill-rule="evenodd"/>
  <path id="Fill-145" d="M1514.855,1646.123v6.664a2.09,2.09,0,0,1-.319.024h-.527V1646.1h.527a2.09,2.09,0,0,1,.319.024" transform="translate(-1105.108 -1216.277)" fill="#ffa412" fill-rule="evenodd"/>
  <path id="Fill-146" d="M1519.2,1647.026v5.421a1.791,1.791,0,0,1-.843.548v-6.515a1.766,1.766,0,0,1,.843.546" transform="translate(-1108.283 -1216.558)" fill="#ffa412" fill-rule="evenodd"/>
  <path id="Fill-147" d="M1318.557,1621.862v3.789a1.261,1.261,0,0,1-.308.815c-.027.031-.054.06-.081.089a1.731,1.731,0,0,1-.516.363,2.384,2.384,0,0,1-.249.1,1.876,1.876,0,0,1-.329.073c-.049.008-.1.013-.154.018s-.111.008-.162.008h-74.353a1.732,1.732,0,0,1-1.78-1.245.82.82,0,0,1-.016-.141v-3.94a1.637,1.637,0,0,1,1.583-1.376c.07-.005.143-.01.213-.01h74.353c.051,0,.108,0,.162.008a1.388,1.388,0,0,1,.154.016,2.14,2.14,0,0,1,.329.076,1.788,1.788,0,0,1,.845.546,1.268,1.268,0,0,1,.308.817" transform="translate(-905.547 -1197.288)" fill="#ffb93e" fill-rule="evenodd"/>
  <path id="Fill-148" d="M1282.048,1627.113h-39.834a1.592,1.592,0,0,1-1.545-1.084.81.81,0,0,1-.043-.162.82.82,0,0,1-.016-.141v-3.94a1.536,1.536,0,0,1,1.412-1.376c.065-.005.127-.01.192-.01h34.943v.01a11.784,11.784,0,0,0,4.891,6.7" transform="translate(-905.547 -1197.288)" fill="#ffa412" fill-rule="evenodd"/>
  <path id="Fill-149" d="M1492.59,1627.11h.845V1620.4h-.845Z" transform="translate(-1089.473 -1197.288)" fill="#ffa412" fill-rule="evenodd"/>
  <path id="Fill-150" d="M1482,1627.11h.845V1620.4H1482Z" transform="translate(-1081.743 -1197.288)" fill="#ffa412" fill-rule="evenodd"/>
  <path id="Fill-151" d="M1469.3,1627.11h.845V1620.4h-.845Z" transform="translate(-1072.473 -1197.288)" fill="#ffa412" fill-rule="evenodd"/>
  <path id="Fill-152" d="M1449.83,1627.11h.845V1620.4h-.845Z" transform="translate(-1058.262 -1197.288)" fill="#ffa412" fill-rule="evenodd"/>
  <path id="Fill-153" d="M1429.25,1627.11h.845V1620.4h-.845Z" transform="translate(-1043.24 -1197.288)" fill="#ffa412" fill-rule="evenodd"/>
  <path id="Fill-154" d="M1397.69,1627.11h.843V1620.4h-.843Z" transform="translate(-1020.203 -1197.288)" fill="#ffa412" fill-rule="evenodd"/>
  <path id="Fill-155" d="M1368.14,1627.11h.845V1620.4h-.845Z" transform="translate(-998.634 -1197.288)" fill="#ffa412" fill-rule="evenodd"/>
  <path id="Fill-156" d="M1341.75,1627.11h.845V1620.4h-.845Z" transform="translate(-979.372 -1197.288)" fill="#ffa412" fill-rule="evenodd"/>
  <path id="Fill-157" d="M1502.67,1627.11h.845V1620.4h-.845Z" transform="translate(-1096.83 -1197.288)" fill="#ffa412" fill-rule="evenodd"/>
  <path id="Fill-158" d="M1509.33,1627.11h.845V1620.4h-.845Z" transform="translate(-1101.692 -1197.288)" fill="#ffa412" fill-rule="evenodd"/>
  <path id="Fill-159" d="M1515.77,1627.11h.843V1620.4h-.843Z" transform="translate(-1106.392 -1197.288)" fill="#ffa412" fill-rule="evenodd"/>
  <path id="Fill-160" d="M1521.445,1620.423v6.664a2.1,2.1,0,0,1-.316.023h-.53V1620.4h.53a2.08,2.08,0,0,1,.316.024" transform="translate(-1109.918 -1197.288)" fill="#ffa412" fill-rule="evenodd"/>
  <path id="Fill-161" d="M1525.8,1621.326v5.421a1.787,1.787,0,0,1-.845.546v-6.512a1.787,1.787,0,0,1,.845.546" transform="translate(-1113.093 -1197.569)" fill="#ffa412" fill-rule="evenodd"/>
  <path id="Fill-162" d="M1298.31,1596.2v3.789a1.266,1.266,0,0,1-.308.815,1.81,1.81,0,0,1-.845.548,2.257,2.257,0,0,1-.327.073c-.035.005-.07.01-.105.013h-.014l-.057.005-.049.005h-74.445a1.684,1.684,0,0,1-1.8-1.384.715.715,0,0,1,0-.076V1596.2a.761.761,0,0,1,0-.078l.005-.06a1.6,1.6,0,0,1,1.348-1.277l.054-.01a2.147,2.147,0,0,1,.392-.036h74.35c.057,0,.105,0,.159.005l.068.008h.008c.027,0,.054.008.084.01a1.969,1.969,0,0,1,.327.076,1.786,1.786,0,0,1,.845.546,1.273,1.273,0,0,1,.308.817" transform="translate(-890.766 -1178.328)" fill="#ffb93e" fill-rule="evenodd"/>
  <path id="Fill-163" d="M1261.8,1601.451h-39.831a1.552,1.552,0,0,1-1.6-1.384.715.715,0,0,1,0-.076V1596.2a.761.761,0,0,1,0-.078l.005-.06a1.517,1.517,0,0,1,1.245-1.285l.068-.016a1.758,1.758,0,0,1,.286-.023h34.94l.013.05a11.768,11.768,0,0,0,4.862,6.651l.016.011" transform="translate(-890.766 -1178.328)" fill="#ffa412" fill-rule="evenodd"/>
  <path id="Fill-164" d="M1472.35,1601.451h.845v-6.711h-.845Z" transform="translate(-1074.699 -1178.328)" fill="#ffa412" fill-rule="evenodd"/>
  <path id="Fill-165" d="M1461.76,1601.451h.845v-6.711h-.845Z" transform="translate(-1066.969 -1178.328)" fill="#ffa412" fill-rule="evenodd"/>
  <path id="Fill-166" d="M1449.06,1601.451h.845v-6.711h-.845Z" transform="translate(-1057.699 -1178.328)" fill="#ffa412" fill-rule="evenodd"/>
  <path id="Fill-167" d="M1429.59,1601.451h.845v-6.711h-.845Z" transform="translate(-1043.488 -1178.328)" fill="#ffa412" fill-rule="evenodd"/>
  <path id="Fill-168" d="M1409.01,1601.451h.843v-6.711h-.843Z" transform="translate(-1028.466 -1178.328)" fill="#ffa412" fill-rule="evenodd"/>
  <path id="Fill-169" d="M1377.45,1601.451h.845v-6.711h-.845Z" transform="translate(-1005.43 -1178.328)" fill="#ffa412" fill-rule="evenodd"/>
  <path id="Fill-170" d="M1347.9,1601.451h.845v-6.711h-.845Z" transform="translate(-983.86 -1178.328)" fill="#ffa412" fill-rule="evenodd"/>
  <path id="Fill-171" d="M1321.51,1601.451h.845v-6.711h-.845Z" transform="translate(-964.598 -1178.328)" fill="#ffa412" fill-rule="evenodd"/>
  <path id="Fill-172" d="M1482.43,1601.451h.845v-6.711h-.845Z" transform="translate(-1082.057 -1178.328)" fill="#ffa412" fill-rule="evenodd"/>
  <path id="Fill-173" d="M1489.09,1601.451h.845v-6.711h-.845Z" transform="translate(-1086.918 -1178.328)" fill="#ffa412" fill-rule="evenodd"/>
  <path id="Fill-174" d="M1495.53,1601.451h.843v-6.711h-.843Z" transform="translate(-1091.619 -1178.328)" fill="#ffa412" fill-rule="evenodd"/>
  <path id="Fill-175" d="M1501.205,1594.763v6.664a2.081,2.081,0,0,1-.316.024h-.53v-6.711h.53a2.114,2.114,0,0,1,.316.023" transform="translate(-1095.144 -1178.328)" fill="#ffa412" fill-rule="evenodd"/>
  <path id="Fill-176" d="M1505.555,1595.666v5.421a1.786,1.786,0,0,1-.845.546v-6.512a1.786,1.786,0,0,1,.845.546" transform="translate(-1098.319 -1178.609)" fill="#ffa412" fill-rule="evenodd"/>
  <path id="Fill-177" d="M1297.738,1570.682v3.789a1.262,1.262,0,0,1-.308.815,1.731,1.731,0,0,1-.167.175,1.871,1.871,0,0,1-.678.373,2.036,2.036,0,0,1-.254.063h-.008l-.068.01a2.076,2.076,0,0,1-.316.026h-74.353c-.076,0-.154-.005-.232-.013-.03,0-.059-.008-.089-.013a1.647,1.647,0,0,1-1.458-1.235,1.029,1.029,0,0,1-.016-.125v-3.94c0-.047.011-.094.016-.141a1.734,1.734,0,0,1,1.78-1.245h74.353c.046,0,.1,0,.143.005l.019,0,.041,0,.067.008.046.008a1.8,1.8,0,0,1,.329.073,1.616,1.616,0,0,1,.181.068h0a1.831,1.831,0,0,1,.6.4c.021.023.046.049.065.073a1.269,1.269,0,0,1,.308.817" transform="translate(-890.35 -1159.472)" fill="#ffb93e" fill-rule="evenodd"/>
  <path id="Fill-178" d="M1261.228,1575.933h-39.834l-.095,0c-.035,0-.067-.008-.1-.008a1.549,1.549,0,0,1-1.391-1.25,1.029,1.029,0,0,1-.016-.125v-3.94c0-.047.011-.094.016-.141a1.57,1.57,0,0,1,1.588-1.245h34.943c.014.057.03.11.049.167a11.742,11.742,0,0,0,4.769,6.5l.073.05" transform="translate(-890.35 -1159.472)" fill="#ffa412" fill-rule="evenodd"/>
  <path id="Fill-179" d="M1471.77,1575.93h.845v-6.71h-.845Z" transform="translate(-1074.276 -1159.472)" fill="#ffa412" fill-rule="evenodd"/>
  <path id="Fill-180" d="M1461.18,1575.93h.845v-6.71h-.845Z" transform="translate(-1066.546 -1159.472)" fill="#ffa412" fill-rule="evenodd"/>
  <path id="Fill-181" d="M1448.48,1575.93h.845v-6.71h-.845Z" transform="translate(-1057.276 -1159.472)" fill="#ffa412" fill-rule="evenodd"/>
  <path id="Fill-182" d="M1429.01,1575.93h.845v-6.71h-.845Z" transform="translate(-1043.064 -1159.472)" fill="#ffa412" fill-rule="evenodd"/>
  <path id="Fill-183" d="M1408.43,1575.93h.845v-6.71h-.845Z" transform="translate(-1028.043 -1159.472)" fill="#ffa412" fill-rule="evenodd"/>
  <path id="Fill-184" d="M1376.87,1575.93h.845v-6.71h-.845Z" transform="translate(-1005.006 -1159.472)" fill="#ffa412" fill-rule="evenodd"/>
  <path id="Fill-185" d="M1347.32,1575.93h.845v-6.71h-.845Z" transform="translate(-983.437 -1159.472)" fill="#ffa412" fill-rule="evenodd"/>
  <path id="Fill-186" d="M1320.93,1575.93h.845v-6.71h-.845Z" transform="translate(-964.174 -1159.472)" fill="#ffa412" fill-rule="evenodd"/>
  <path id="Fill-187" d="M1481.86,1575.93h.843v-6.71h-.843Z" transform="translate(-1081.641 -1159.472)" fill="#ffa412" fill-rule="evenodd"/>
  <path id="Fill-188" d="M1488.52,1575.93h.843v-6.71h-.843Z" transform="translate(-1086.502 -1159.472)" fill="#ffa412" fill-rule="evenodd"/>
  <path id="Fill-189" d="M1494.95,1575.93h.845v-6.71h-.845Z" transform="translate(-1091.195 -1159.472)" fill="#ffa412" fill-rule="evenodd"/>
  <path id="Fill-190" d="M1500.635,1569.244v6.663a2.144,2.144,0,0,1-.319.024h-.527v-6.71h.527a2.144,2.144,0,0,1,.319.024" transform="translate(-1094.728 -1159.472)" fill="#ffa412" fill-rule="evenodd"/>
  <path id="Fill-191" d="M1504.975,1570.146v5.421a1.813,1.813,0,0,1-.845.549V1569.6a1.809,1.809,0,0,1,.845.546" transform="translate(-1097.896 -1159.752)" fill="#ffa412" fill-rule="evenodd"/>
  <path id="Fill-192" d="M1311.957,1545.612v3.789a1.268,1.268,0,0,1-.308.817,1.78,1.78,0,0,1-.843.546,1.964,1.964,0,0,1-.33.073,2.108,2.108,0,0,1-.316.026h-74.353a2.093,2.093,0,0,1-.829-.167,1.524,1.524,0,0,1-.948-1.06c-.008-.031-.011-.063-.016-.094l0-.065a.726.726,0,0,1,0-.076v-3.789a.749.749,0,0,1,0-.076.852.852,0,0,1,.016-.141,1.735,1.735,0,0,1,1.78-1.245h74.353a2.108,2.108,0,0,1,.316.026,1.964,1.964,0,0,1,.33.073,1.764,1.764,0,0,1,.843.548,1.262,1.262,0,0,1,.308.815" transform="translate(-900.73 -1140.948)" fill="#ffb93e" fill-rule="evenodd"/>
  <path id="Fill-193" d="M1275.448,1550.863h-39.834a1.676,1.676,0,0,1-.737-.167,1.472,1.472,0,0,1-.845-1.06c-.008-.031-.011-.063-.016-.094l0-.065a.726.726,0,0,1,0-.076v-3.789a.749.749,0,0,1,0-.076.852.852,0,0,1,.016-.141,1.439,1.439,0,0,1,.041-.157,1.588,1.588,0,0,1,1.545-1.089h34.943a11.749,11.749,0,0,0,4.648,6.546c.078.057.159.11.243.167" transform="translate(-900.73 -1140.948)" fill="#ffa412" fill-rule="evenodd"/>
  <path id="Fill-194" d="M1486,1550.871h.845v-6.711H1486Z" transform="translate(-1084.663 -1140.956)" fill="#ffa412" fill-rule="evenodd"/>
  <path id="Fill-195" d="M1475.41,1550.871h.845v-6.711h-.845Z" transform="translate(-1076.933 -1140.956)" fill="#ffa412" fill-rule="evenodd"/>
  <path id="Fill-196" d="M1462.71,1550.871h.843v-6.711h-.843Z" transform="translate(-1067.663 -1140.956)" fill="#ffa412" fill-rule="evenodd"/>
  <path id="Fill-197" d="M1443.24,1550.871h.845v-6.711h-.845Z" transform="translate(-1053.451 -1140.956)" fill="#ffa412" fill-rule="evenodd"/>
  <path id="Fill-198" d="M1422.65,1550.871h.845v-6.711h-.845Z" transform="translate(-1038.422 -1140.956)" fill="#ffa412" fill-rule="evenodd"/>
  <path id="Fill-199" d="M1391.09,1550.871h.845v-6.711h-.845Z" transform="translate(-1015.386 -1140.956)" fill="#ffa412" fill-rule="evenodd"/>
  <path id="Fill-200" d="M1361.54,1550.871h.845v-6.711h-.845Z" transform="translate(-993.817 -1140.956)" fill="#ffa412" fill-rule="evenodd"/>
  <path id="Fill-201" d="M1335.16,1550.871h.846v-6.711h-.846Z" transform="translate(-974.561 -1140.956)" fill="#ffa412" fill-rule="evenodd"/>
  <path id="Fill-202" d="M1496.08,1550.871h.845v-6.711h-.845Z" transform="translate(-1092.02 -1140.956)" fill="#ffa412" fill-rule="evenodd"/>
  <path id="Fill-203" d="M1502.74,1550.871h.845v-6.711h-.845Z" transform="translate(-1096.881 -1140.956)" fill="#ffa412" fill-rule="evenodd"/>
  <path id="Fill-204" d="M1509.17,1550.871h.845v-6.711h-.845Z" transform="translate(-1101.575 -1140.956)" fill="#ffa412" fill-rule="evenodd"/>
  <path id="Fill-205" d="M1514.855,1544.183v6.664a2.09,2.09,0,0,1-.319.024h-.527v-6.711h.527a2.106,2.106,0,0,1,.319.023" transform="translate(-1105.108 -1140.956)" fill="#ffa412" fill-rule="evenodd"/>
  <path id="Fill-206" d="M1519.2,1545.078v5.421a1.766,1.766,0,0,1-.843.546v-6.515a1.789,1.789,0,0,1,.843.548" transform="translate(-1108.283 -1141.229)" fill="#ffa412" fill-rule="evenodd"/>
  <path id="Fill-207" d="M1334.457,1519.92v3.789a1.278,1.278,0,0,1-.305.815l0,0c-.027.031-.054.06-.081.089a1.667,1.667,0,0,1-.4.3,1.771,1.771,0,0,1-.238.11l0,0c-.04.016-.081.031-.124.044a1.923,1.923,0,0,1-.332.076,2.077,2.077,0,0,1-.316.021h-74.353a1.73,1.73,0,0,1-1.777-1.24.644.644,0,0,1-.016-.144.709.709,0,0,1,0-.076v-3.789a.72.72,0,0,1,0-.076,1.633,1.633,0,0,1,1.583-1.373,1.871,1.871,0,0,1,.211-.01h74.353a2.489,2.489,0,0,1,.316.021,2.556,2.556,0,0,1,.332.076,1.89,1.89,0,0,1,.762.457c.027.029.054.057.081.089l0,0a1.278,1.278,0,0,1,.305.815" transform="translate(-917.153 -1121.966)" fill="#ffb93e" fill-rule="evenodd"/>
  <path id="Fill-208" d="M1297.948,1525.168h-39.834a1.584,1.584,0,0,1-1.545-1.083,1.144,1.144,0,0,1-.04-.157.644.644,0,0,1-.016-.144.709.709,0,0,1,0-.076v-3.789a.72.72,0,0,1,0-.076,1.529,1.529,0,0,1,1.41-1.373,1.557,1.557,0,0,1,.192-.01h34.943l0,.01a11.741,11.741,0,0,0,4.889,6.7" transform="translate(-917.153 -1121.966)" fill="#ffa412" fill-rule="evenodd"/>
  <path id="Fill-209" d="M1508.5,1525.171h.845v-6.711h-.845Z" transform="translate(-1101.086 -1121.966)" fill="#ffa412" fill-rule="evenodd"/>
  <path id="Fill-210" d="M1497.91,1525.171h.843v-6.711h-.843Z" transform="translate(-1093.356 -1121.966)" fill="#ffa412" fill-rule="evenodd"/>
  <path id="Fill-211" d="M1485.2,1525.171h.845v-6.711h-.845Z" transform="translate(-1084.079 -1121.966)" fill="#ffa412" fill-rule="evenodd"/>
  <path id="Fill-212" d="M1465.74,1525.171h.845v-6.711h-.845Z" transform="translate(-1069.874 -1121.966)" fill="#ffa412" fill-rule="evenodd"/>
  <path id="Fill-213" d="M1445.15,1525.171H1446v-6.711h-.845Z" transform="translate(-1054.845 -1121.966)" fill="#ffa412" fill-rule="evenodd"/>
  <path id="Fill-214" d="M1413.59,1525.171h.845v-6.711h-.845Z" transform="translate(-1031.809 -1121.966)" fill="#ffa412" fill-rule="evenodd"/>
  <path id="Fill-215" d="M1384.04,1525.171h.845v-6.711h-.845Z" transform="translate(-1010.24 -1121.966)" fill="#ffa412" fill-rule="evenodd"/>
  <path id="Fill-216" d="M1357.65,1525.171h.845v-6.711h-.845Z" transform="translate(-990.977 -1121.966)" fill="#ffa412" fill-rule="evenodd"/>
  <path id="Fill-217" d="M1518.58,1525.171h.845v-6.711h-.845Z" transform="translate(-1108.443 -1121.966)" fill="#ffa412" fill-rule="evenodd"/>
  <path id="Fill-218" d="M1525.24,1525.171h.845v-6.711h-.845Z" transform="translate(-1113.305 -1121.966)" fill="#ffa412" fill-rule="evenodd"/>
  <path id="Fill-219" d="M1531.67,1525.171h.845v-6.711h-.845Z" transform="translate(-1117.998 -1121.966)" fill="#ffa412" fill-rule="evenodd"/>
  <path id="Fill-220" d="M1537.355,1518.483v6.664a2.158,2.158,0,0,1-.319.023h-.527v-6.711h.527a2.158,2.158,0,0,1,.319.024" transform="translate(-1121.531 -1121.966)" fill="#ffa412" fill-rule="evenodd"/>
  <path id="Fill-221" d="M1541.7,1519.378v5.421a1.792,1.792,0,0,1-.843.546v-6.515a1.812,1.812,0,0,1,.843.548" transform="translate(-1124.706 -1122.24)" fill="#ffa412" fill-rule="evenodd"/>
  <path id="Fill-222" d="M1298.31,1494.252v3.789a1.262,1.262,0,0,1-.308.815,1.774,1.774,0,0,1-.845.548,2.263,2.263,0,0,1-.327.076c-.035,0-.07.008-.105.013h-.014l-.07.005-.041,0c-.032,0-.059,0-.089,0h-74.35a1.918,1.918,0,0,1-1.531-.7,1.244,1.244,0,0,1-.267-.689.712.712,0,0,1,0-.076v-3.789a.711.711,0,0,1,0-.076,1.566,1.566,0,0,1,1.275-1.321,2.154,2.154,0,0,1,.524-.065h74.35l.095,0,.046.005a1.308,1.308,0,0,1,.178.018,1.962,1.962,0,0,1,.327.073.981.981,0,0,1,.154.057h0a1.734,1.734,0,0,1,.518.316l.008.008.022.018a1.479,1.479,0,0,1,.141.146,1.274,1.274,0,0,1,.308.817" transform="translate(-890.766 -1102.999)" fill="#ffb93e" fill-rule="evenodd"/>
  <path id="Fill-223" d="M1261.8,1499.5h-39.831a1.655,1.655,0,0,1-1.342-.663,1.336,1.336,0,0,1-.262-.723.712.712,0,0,1,0-.076v-3.789a.711.711,0,0,1,0-.076,1.521,1.521,0,0,1,1.28-1.355,1.886,1.886,0,0,1,.324-.031h34.94c.013.052.03.1.046.157a11.755,11.755,0,0,0,4.829,6.546l.016.011" transform="translate(-890.766 -1102.999)" fill="#ffa412" fill-rule="evenodd"/>
  <path id="Fill-224" d="M1472.35,1499.511h.845V1492.8h-.845Z" transform="translate(-1074.699 -1103.006)" fill="#ffa412" fill-rule="evenodd"/>
  <path id="Fill-225" d="M1461.76,1499.511h.845V1492.8h-.845Z" transform="translate(-1066.969 -1103.006)" fill="#ffa412" fill-rule="evenodd"/>
  <path id="Fill-226" d="M1449.06,1499.511h.845V1492.8h-.845Z" transform="translate(-1057.699 -1103.006)" fill="#ffa412" fill-rule="evenodd"/>
  <path id="Fill-227" d="M1429.59,1499.511h.845V1492.8h-.845Z" transform="translate(-1043.488 -1103.006)" fill="#ffa412" fill-rule="evenodd"/>
  <path id="Fill-228" d="M1409.01,1499.511h.843V1492.8h-.843Z" transform="translate(-1028.466 -1103.006)" fill="#ffa412" fill-rule="evenodd"/>
  <path id="Fill-229" d="M1377.45,1499.511h.845V1492.8h-.845Z" transform="translate(-1005.43 -1103.006)" fill="#ffa412" fill-rule="evenodd"/>
  <path id="Fill-230" d="M1347.9,1499.511h.845V1492.8h-.845Z" transform="translate(-983.86 -1103.006)" fill="#ffa412" fill-rule="evenodd"/>
  <path id="Fill-231" d="M1321.51,1499.511h.845V1492.8h-.845Z" transform="translate(-964.598 -1103.006)" fill="#ffa412" fill-rule="evenodd"/>
  <path id="Fill-232" d="M1482.43,1499.511h.845V1492.8h-.845Z" transform="translate(-1082.057 -1103.006)" fill="#ffa412" fill-rule="evenodd"/>
  <path id="Fill-233" d="M1489.09,1499.511h.845V1492.8h-.845Z" transform="translate(-1086.918 -1103.006)" fill="#ffa412" fill-rule="evenodd"/>
  <path id="Fill-234" d="M1495.53,1499.511h.843V1492.8h-.843Z" transform="translate(-1091.619 -1103.006)" fill="#ffa412" fill-rule="evenodd"/>
  <path id="Fill-235" d="M1501.205,1492.823v6.664a2.081,2.081,0,0,1-.316.024h-.53V1492.8h.53a2.114,2.114,0,0,1,.316.023" transform="translate(-1095.144 -1103.006)" fill="#ffa412" fill-rule="evenodd"/>
  <path id="Fill-236" d="M1505.555,1493.718v5.421a1.788,1.788,0,0,1-.845.546v-6.515a1.812,1.812,0,0,1,.845.548" transform="translate(-1098.319 -1103.28)" fill="#ffa412" fill-rule="evenodd"/>
  <path id="Fill-237" d="M1318.55,1469.15v3.791a1.268,1.268,0,0,1-.308.815,1.788,1.788,0,0,1-.845.546,1.963,1.963,0,0,1-.329.076,2.1,2.1,0,0,1-.316.023H1242.4a2.106,2.106,0,0,1-.8-.154,1.511,1.511,0,0,1-.989-1.172l-.005-.06c0-.023,0-.05,0-.073v-3.791c0-.024,0-.05,0-.076a1.638,1.638,0,0,1,1.583-1.374,1.917,1.917,0,0,1,.213-.01h74.353a2.115,2.115,0,0,1,.316.023,1.951,1.951,0,0,1,.329.076,1.787,1.787,0,0,1,.845.546,1.267,1.267,0,0,1,.308.815" transform="translate(-905.54 -1084.453)" fill="#ffb93e" fill-rule="evenodd"/>
  <path id="Fill-238" d="M1282.038,1474.4h-39.831a1.717,1.717,0,0,1-.718-.154,1.476,1.476,0,0,1-.88-1.172l-.005-.06c0-.023,0-.05,0-.073v-3.791c0-.024,0-.05,0-.076a1.532,1.532,0,0,1,1.415-1.374,1.473,1.473,0,0,1,.189-.01h34.94l0,.01a11.769,11.769,0,0,0,4.662,6.546c.073.052.151.1.227.154" transform="translate(-905.54 -1084.453)" fill="#ffa412" fill-rule="evenodd"/>
  <path id="Fill-239" d="M1492.59,1474.4h.845v-6.711h-.845Z" transform="translate(-1089.473 -1084.453)" fill="#ffa412" fill-rule="evenodd"/>
  <path id="Fill-240" d="M1482,1474.4h.845v-6.711H1482Z" transform="translate(-1081.743 -1084.453)" fill="#ffa412" fill-rule="evenodd"/>
  <path id="Fill-241" d="M1469.3,1474.4h.845v-6.711h-.845Z" transform="translate(-1072.473 -1084.453)" fill="#ffa412" fill-rule="evenodd"/>
  <path id="Fill-242" d="M1449.83,1474.4h.845v-6.711h-.845Z" transform="translate(-1058.262 -1084.453)" fill="#ffa412" fill-rule="evenodd"/>
  <path id="Fill-243" d="M1429.25,1474.4h.845v-6.711h-.845Z" transform="translate(-1043.24 -1084.453)" fill="#ffa412" fill-rule="evenodd"/>
  <path id="Fill-244" d="M1397.69,1474.4h.843v-6.711h-.843Z" transform="translate(-1020.203 -1084.453)" fill="#ffa412" fill-rule="evenodd"/>
  <path id="Fill-245" d="M1368.14,1474.4h.845v-6.711h-.845Z" transform="translate(-998.634 -1084.453)" fill="#ffa412" fill-rule="evenodd"/>
  <path id="Fill-246" d="M1341.75,1474.4h.845v-6.711h-.845Z" transform="translate(-979.372 -1084.453)" fill="#ffa412" fill-rule="evenodd"/>
  <path id="Fill-247" d="M1502.67,1474.4h.845v-6.711h-.845Z" transform="translate(-1096.83 -1084.453)" fill="#ffa412" fill-rule="evenodd"/>
  <path id="Fill-248" d="M1509.33,1474.4h.845v-6.711h-.845Z" transform="translate(-1101.692 -1084.453)" fill="#ffa412" fill-rule="evenodd"/>
  <path id="Fill-249" d="M1515.77,1474.4h.843v-6.711h-.843Z" transform="translate(-1106.392 -1084.453)" fill="#ffa412" fill-rule="evenodd"/>
  <path id="Fill-250" d="M1521.445,1467.713v6.664a2.1,2.1,0,0,1-.316.023h-.53v-6.711h.53a2.112,2.112,0,0,1,.316.023" transform="translate(-1109.918 -1084.453)" fill="#ffa412" fill-rule="evenodd"/>
  <path id="Fill-251" d="M1525.8,1468.616v5.421a1.788,1.788,0,0,1-.845.546v-6.512a1.789,1.789,0,0,1,.845.546" transform="translate(-1113.093 -1084.734)" fill="#ffa412" fill-rule="evenodd"/>
  <path id="Fill-252" d="M1327.17,1443.49v3.791a1.255,1.255,0,0,1-.311.815,1.766,1.766,0,0,1-.843.546,1.953,1.953,0,0,1-.33.076c-.035.005-.07.01-.105.013l-.057.005-.059,0c-.032,0-.065,0-.1,0h-74.35a1.688,1.688,0,0,1-1.8-1.387v-3.94a1.688,1.688,0,0,1,1.8-1.384h74.35a2.106,2.106,0,0,1,.319.024,2.2,2.2,0,0,1,.33.073,1.789,1.789,0,0,1,.843.548,1.255,1.255,0,0,1,.311.815" transform="translate(-911.832 -1065.493)" fill="#ffb93e" fill-rule="evenodd"/>
  <path id="Fill-253" d="M1290.658,1448.741h-39.834a1.556,1.556,0,0,1-1.6-1.387v-3.94a1.556,1.556,0,0,1,1.6-1.384h34.943a11.761,11.761,0,0,0,4.875,6.7l.016.01" transform="translate(-911.832 -1065.493)" fill="#ffa412" fill-rule="evenodd"/>
  <path id="Fill-254" d="M1501.21,1448.741h.845v-6.711h-.845Z" transform="translate(-1095.765 -1065.493)" fill="#ffa412" fill-rule="evenodd"/>
  <path id="Fill-255" d="M1490.62,1448.741h.845v-6.711h-.845Z" transform="translate(-1088.035 -1065.493)" fill="#ffa412" fill-rule="evenodd"/>
  <path id="Fill-256" d="M1477.92,1448.741h.845v-6.711h-.845Z" transform="translate(-1078.765 -1065.493)" fill="#ffa412" fill-rule="evenodd"/>
  <path id="Fill-257" d="M1458.45,1448.741h.845v-6.711h-.845Z" transform="translate(-1064.553 -1065.493)" fill="#ffa412" fill-rule="evenodd"/>
  <path id="Fill-258" d="M1437.86,1448.741h.845v-6.711h-.845Z" transform="translate(-1049.524 -1065.493)" fill="#ffa412" fill-rule="evenodd"/>
  <path id="Fill-259" d="M1406.3,1448.741h.845v-6.711h-.845Z" transform="translate(-1026.488 -1065.493)" fill="#ffa412" fill-rule="evenodd"/>
  <path id="Fill-260" d="M1376.75,1448.741h.845v-6.711h-.845Z" transform="translate(-1004.919 -1065.493)" fill="#ffa412" fill-rule="evenodd"/>
  <path id="Fill-261" d="M1350.37,1448.741h.845v-6.711h-.845Z" transform="translate(-985.664 -1065.493)" fill="#ffa412" fill-rule="evenodd"/>
  <path id="Fill-262" d="M1511.29,1448.741h.845v-6.711h-.845Z" transform="translate(-1103.122 -1065.493)" fill="#ffa412" fill-rule="evenodd"/>
  <path id="Fill-263" d="M1517.95,1448.741h.845v-6.711h-.845Z" transform="translate(-1107.984 -1065.493)" fill="#ffa412" fill-rule="evenodd"/>
  <path id="Fill-264" d="M1524.38,1448.741h.845v-6.711h-.845Z" transform="translate(-1112.677 -1065.493)" fill="#ffa412" fill-rule="evenodd"/>
  <path id="Fill-265" d="M1530.065,1442.054v6.664a2.094,2.094,0,0,1-.316.023h-.529v-6.711h.529a2.094,2.094,0,0,1,.316.024" transform="translate(-1116.21 -1065.493)" fill="#ffa412" fill-rule="evenodd"/>
  <path id="Fill-266" d="M1534.412,1442.956v5.421a1.767,1.767,0,0,1-.843.546v-6.512a1.765,1.765,0,0,1,.843.546" transform="translate(-1119.385 -1065.774)" fill="#ffa412" fill-rule="evenodd"/>
  <path id="Fill-267" d="M1400.991,1275.2s-3.905,5.314-7.484,5.39-9.029-2.465-9.029-2.465-3.287-7.081-1.056-9.854a4.924,4.924,0,0,1,4.573.729,6.767,6.767,0,0,1,1.21,1.12,3.868,3.868,0,0,0,1.88,1.232c2.555.749,5.588-1.018,6.722.689a11.731,11.731,0,0,0,1.974,2.261,9.092,9.092,0,0,0,1.21.9" transform="translate(-1009.222 -936.911)" fill="#ffeddc" fill-rule="evenodd"/>
  <path id="Fill-268" d="M1262.06,1349.163s13.8-32.337,38.651-32.953c0,0,22.932,2.462,24.207,32.953H1262.06" transform="translate(-921.204 -972.527)" fill="#ffeddc" fill-rule="evenodd"/>
  <path id="Fill-269" d="M1379.829,1308.145s9.96,2.141,13.031.883c0,0,.465-4.026-3.73-3.462a9.008,9.008,0,0,1-5.839-1.488c-1.556-.765-3.876,2.384-3.462,4.068" transform="translate(-1007.131 -963.475)" fill="#db6a1d" fill-rule="evenodd"/>
  <path id="Fill-270" d="M1405.043,1278.33c-.637.462-2.593-6.51-2.593-6.51a6.774,6.774,0,0,1,1.21,1.12,3.869,3.869,0,0,0,1.88,1.232c.008.2.122,3.708-.5,4.157" transform="translate(-1023.678 -939.728)" fill="#e5c1a1" fill-rule="evenodd"/>
  <path id="Fill-271" d="M1431.394,1285.731c-.14.078-4.745,2.744-5.369,2.744s3.4-5.006,3.4-5.006a11.728,11.728,0,0,0,1.974,2.261" transform="translate(-1040.836 -948.336)" fill="#e5c1a1" fill-rule="evenodd"/>
  <path id="Fill-272" d="M1311.977,1367.135c-.254-.212,9.769-14.27,12.529-14.372s8.964,3.079,13.455,3.491,8.843-.823,9.693,1.744,3.184,11.664,1.75,13.121-31.915.567-37.427-3.984" transform="translate(-957.636 -999.534)" fill="#f9ddbf" fill-rule="evenodd"/>
  <path id="Fill-273" d="M1249.21,1701.28v-2.951c0-.023,0-.05,0-.073,0-.05.011-.1.016-.144a1.568,1.568,0,0,1,.043-.162,1.593,1.593,0,0,1,1.545-1.081h7.946c-.662.389-1.337.76-2.031,1.112-.47.238-.94.462-1.415.679-.451.256-.929.473-1.38.739a19.615,19.615,0,0,1-4.726,1.88" transform="translate(-911.825 -1253.791)" fill="#f09210" fill-rule="evenodd"/>
  <path id="Fill-274" d="M1237.285,1677.881h-15.894a1.589,1.589,0,0,1-1.545-1.083,1.561,1.561,0,0,1-.043-.159c-.005-.047-.013-.094-.016-.141v-.073s0,0,0-.005v-3.865c0-.047.011-.094.016-.141a1.552,1.552,0,0,1,.043-.159,1.589,1.589,0,0,1,1.545-1.083h3.1a1.709,1.709,0,0,0,.737.164h20.221a35.483,35.483,0,0,1-8.167,6.546" transform="translate(-890.347 -1234.802)" fill="#f09210" fill-rule="evenodd"/>
  <path id="Fill-275" d="M1255.835,1652.818h-20.221a1.709,1.709,0,0,1-.737-.165,1.477,1.477,0,0,1-.845-1.06c-.008-.031-.011-.063-.016-.094l0-.065a.65.65,0,0,1,0-.071v-3.794a.75.75,0,0,1,0-.076.821.821,0,0,1,.016-.141,1.609,1.609,0,0,1,.041-.157,1.583,1.583,0,0,1,1.545-1.086h25.045a33.4,33.4,0,0,1-4.672,6.543c-.049.055-.1.112-.151.165" transform="translate(-900.73 -1216.285)" fill="#f09210" fill-rule="evenodd"/>
  <path id="Fill-276" d="M1225.11,1468.889l1.434-8.489c.61.078,1.221.172,1.826.279v8.178h-2.936a1.85,1.85,0,0,0-.324.031" transform="translate(-894.234 -1079.067)" fill="#c8a286" fill-rule="evenodd"/>
  <path id="Fill-277" d="M1238.992,1469.648h-1.812v-8.178q1.568.278,3.1.679l.284.073a1.6,1.6,0,0,0,1.28.872h-2.133a1.475,1.475,0,0,0-.189.01,1.532,1.532,0,0,0-1.415,1.373c0,.026,0,.052,0,.076v3.791c0,.024,0,.05,0,.073l.005.06a1.469,1.469,0,0,0,.88,1.17" transform="translate(-903.044 -1079.857)" fill="#d9af86" fill-rule="evenodd"/>
  <path id="Fill-278" d="M1265.476,1627.143h-23.262a1.592,1.592,0,0,1-1.545-1.084,1.055,1.055,0,0,1-.059-.3v-3.94a1.536,1.536,0,0,1,1.412-1.376h25.9v.943a32.272,32.272,0,0,1-2.45,5.76" transform="translate(-905.547 -1197.318)" fill="#f09210" fill-rule="evenodd"/>
  <path id="Fill-279" d="M1341.75,1621.38v-.94h.281c-.089.316-.181.629-.281.94" transform="translate(-979.372 -1197.318)" fill="#f09210" fill-rule="evenodd"/>
  <path id="Fill-280" d="M1253.426,1601.562h-31.459a1.552,1.552,0,0,1-1.6-1.384.641.641,0,0,1,0-.073v-3.791a.765.765,0,0,1,0-.078l.005-.06a1.517,1.517,0,0,1,1.245-1.285c.035,0,.068.005.1.008l.095,0h25.868v6.661h.845V1594.9h6.02a31.219,31.219,0,0,1-1.115,6.651l0,.01" transform="translate(-890.766 -1178.439)" fill="#f09210" fill-rule="evenodd"/>
  <path id="Fill-281" d="M1321.51,1601.591h.845v-6.661h-.845Z" transform="translate(-964.598 -1178.469)" fill="#f09210" fill-rule="evenodd"/>
  <path id="Fill-282" d="M1254.125,1575.933h-32.734l-.095,0c-.035,0-.067-.008-.1-.008a1.549,1.549,0,0,1-1.391-1.25.961.961,0,0,1-.016-.125v-.071a0,0,0,0,1,0-.005v-3.865c0-.047.011-.094.016-.141a1.57,1.57,0,0,1,1.588-1.245h3.1a1.674,1.674,0,0,0,.737.167H1247.1v6.543h.845v-6.543h5.864a31.077,31.077,0,0,1,.316,6.5l0,.05" transform="translate(-890.347 -1159.472)" fill="#f09210" fill-rule="evenodd"/>
  <path id="Fill-283" d="M1320.93,1576.4h.845v-6.544h-.845Z" transform="translate(-964.174 -1159.945)" fill="#f09210" fill-rule="evenodd"/>
  <path id="Fill-284" d="M1264.194,1550.863h-28.58a1.676,1.676,0,0,1-.737-.167,1.472,1.472,0,0,1-.845-1.06c-.008-.031-.011-.063-.016-.094l0-.065a.652.652,0,0,1,0-.071v-3.794a.749.749,0,0,1,0-.076.852.852,0,0,1,.016-.141,1.439,1.439,0,0,1,.041-.157,1.588,1.588,0,0,1,1.545-1.089h26.749a30.9,30.9,0,0,1,1.8,6.546c.013.057.019.11.03.167Zm-2.865,0h.845v-6.711h-.845Z" transform="translate(-900.73 -1140.948)" fill="#f09210" fill-rule="evenodd"/>
  <path id="Fill-285" d="M1335.16,1550.871h.846v-6.711h-.846Z" transform="translate(-974.561 -1140.956)" fill="#f09210" fill-rule="evenodd"/>
  <path id="Fill-286" d="M1278.786,1525.2h-20.672a1.584,1.584,0,0,1-1.545-1.084,1.134,1.134,0,0,1-.04-.157.643.643,0,0,1-.016-.144.614.614,0,0,1,0-.07v-3.794a.715.715,0,0,1,0-.076,1.529,1.529,0,0,1,1.41-1.373h17.261q.66.94,1.25,1.93a32.621,32.621,0,0,1,2.352,4.768" transform="translate(-917.153 -1121.996)" fill="#f09210" fill-rule="evenodd"/>
  <path id="Fill-287" d="M1249.512,1499.5h-26.83a1.654,1.654,0,0,1-1.342-.663l.005-.034,1.008-5.951.005-.034a1.886,1.886,0,0,1,.324-.031h4.748v0a1.715,1.715,0,0,0,.719.154h15.405a34.145,34.145,0,0,1,4.84,5.04v1.517h.845v-.389c.089.125.181.251.268.379l.005.011" transform="translate(-891.482 -1102.999)" fill="#f09210" fill-rule="evenodd"/>
  <path id="Fill-288" d="M1322.355,1514.207h-.845v-1.514q.437.552.845,1.123v.391" transform="translate(-964.598 -1117.703)" fill="#f09210" fill-rule="evenodd"/>
  <path id="Fill-289" d="M1257.612,1474.4h-15.405a1.717,1.717,0,0,1-.718-.154v0a1.468,1.468,0,0,1-.88-1.17l-.005-.06c0-.023,0-.05,0-.073v-3.791c0-.024,0-.05,0-.076a1.532,1.532,0,0,1,1.415-1.374,1.473,1.473,0,0,1,.189-.01h2.134a1.526,1.526,0,0,0,.192.01h1.361a37.129,37.129,0,0,1,11.541,6.544c.059.05.122.1.178.157" transform="translate(-905.54 -1084.453)" fill="#f09210" fill-rule="evenodd"/>
  <path id="Fill-290" d="M1252.543,1465.233h-1.361a1.524,1.524,0,0,1-.192-.01,1.6,1.6,0,0,1-1.28-.872l.019.008q1.41.38,2.784.864l.027.01h0" transform="translate(-912.19 -1081.985)" fill="#f09210" fill-rule="evenodd"/>
  <path id="Fill-291" d="M1050.273,1498.476c-9.75-17.1-3.314-38.609,14.374-48.035s39.931-3.206,49.684,13.894,3.316,38.609-14.374,48.035-39.931,3.206-49.684-13.894" transform="translate(-763.296 -1068.457)" fill="#e2810e" fill-rule="evenodd"/>
  <path id="Fill-292" d="M1090.986,1517.3c-.448.266-.907.525-1.372.773-.159.083-.316.167-.475.245-.359.185-.718.365-1.083.538-17.415,8.27-38.659,1.924-48.125-14.68a34.634,34.634,0,0,1,10.641-45.755,36.61,36.61,0,0,1,3.73-2.28c.47-.251.942-.491,1.418-.715s.926-.436,1.394-.635a36.746,36.746,0,0,1,4.356-1.564,37.324,37.324,0,0,1,6.62-1.29,37.813,37.813,0,0,1,19.967,3.418,35.912,35.912,0,0,1,15.929,14.682c9.493,16.651,3.643,37.475-13,47.262" transform="translate(-755.745 -1072.669)" fill="#ffb93e" fill-rule="evenodd"/>
  <path id="Fill-293" d="M1082.933,1468.12a32.542,32.542,0,0,0-15.34,3.825,30.84,30.84,0,0,0-15.235,18.429,29.731,29.731,0,0,0,2.706,23.448,31.5,31.5,0,0,0,19.062,14.732,32.654,32.654,0,0,0,24.253-2.616c15.4-8.207,21.018-26.994,12.532-41.878A32.109,32.109,0,0,0,1082.933,1468.12Zm.1,62.519a33.914,33.914,0,0,1-9.153-1.264,32.376,32.376,0,0,1-19.591-15.14,30.548,30.548,0,0,1-2.779-24.1,31.693,31.693,0,0,1,15.656-18.941c15.824-8.434,35.8-2.846,44.517,12.45s2.947,34.608-12.877,43.039a33.47,33.47,0,0,1-15.773,3.953Z" transform="translate(-766.565 -1084.139)" fill="#ffa412" fill-rule="evenodd"/>
  <path id="Fill-294" d="M1146.2,1525.868q-.109-.262-.227-.509a9.28,9.28,0,0,0-2.217-3.063,9.957,9.957,0,0,0-3.492-1.987,17.278,17.278,0,0,0-4.437-.807q-2.447-.145-5.329-.065a26.975,26.975,0,0,1-3.044-.06,7.853,7.853,0,0,1-2.142-.454,3.784,3.784,0,0,1-1.429-.935,4.931,4.931,0,0,1-.908-1.449,5.215,5.215,0,0,1-.413-1.7,3.517,3.517,0,0,1,.259-1.6,3.906,3.906,0,0,1,1.018-1.4,6.051,6.051,0,0,1,1.866-1.1,4.864,4.864,0,0,1,3.995.037,6.606,6.606,0,0,1,3.022,3.656l7.449-2.925a13.331,13.331,0,0,0-2.439-3.909,10.642,10.642,0,0,0-3.3-2.468,11.029,11.029,0,0,0-4-1.018,14.268,14.268,0,0,0-4.5.447l-2.109-5.024-4.124,1.619,2.08,4.953a15.448,15.448,0,0,0-3.787,2.606,11.207,11.207,0,0,0-2.387,3.214,8.7,8.7,0,0,0-.875,3.635,9.418,9.418,0,0,0,.783,3.872,9.254,9.254,0,0,0,5.945,5.567,16.934,16.934,0,0,0,4.44.778q2.455.129,5.342-.005a20.772,20.772,0,0,1,2.906.018,7.81,7.81,0,0,1,2.128.46,4,4,0,0,1,1.491.977,5.313,5.313,0,0,1,1,1.6,4.316,4.316,0,0,1,.356,1.708,3.546,3.546,0,0,1-.4,1.624,4.584,4.584,0,0,1-1.183,1.436,7.075,7.075,0,0,1-2,1.136,8.837,8.837,0,0,1-2.185.551,5.02,5.02,0,0,1-4.221-1.473,7.618,7.618,0,0,1-1.629-2.556l-7.449,2.924a12.373,12.373,0,0,0,2.93,4.405,10.66,10.66,0,0,0,3.859,2.327,12.2,12.2,0,0,0,4.383.611,19.193,19.193,0,0,0,4.518-.721l1.926,4.583,4.1-1.608-1.934-4.606a16.585,16.585,0,0,0,3.824-2.582,10.946,10.946,0,0,0,2.309-2.914c.046-.083.089-.167.13-.253a8.6,8.6,0,0,0,.9-3.616,9.459,9.459,0,0,0-.8-3.943" transform="translate(-813.667 -1107.986)" fill="#ffa412" fill-rule="evenodd"/>
  <path id="Fill-295" d="M1044.548,872.272a1.6,1.6,0,0,0-.289,1.757l0,.009c.448,1.167,1.9,2.464,3.595,3.758.216.166.408.317.575.457.043.037.089.073.13.11l.1.086c1.577,1.386.988,1.71,3.824,4.525,3.235,3.208,5.445,3.251,6.071,2.952.532-.254-.562-1.96-1.774-3.877-.057-.092-.116-.186-.176-.28-.162-.255-.321-.514-.481-.77-1.421-2.307-1.07-3.4-.762-6.848.251-2.8,4.394-15.685,4.394-15.685l-6.161-.983s-1.777,10.247-3.808,11.837c-1.086.848-2.306.866-3.352,1.5-.073.044-.146.089-.216.135a7.991,7.991,0,0,0-1.675,1.32" transform="translate(-762.124 -633.581)" fill="#ffb27d" fill-rule="evenodd"/>
  <path id="Fill-296" d="M1044.548,910a1.6,1.6,0,0,0-.289,1.757l0,.009a12.826,12.826,0,0,0,3.6,3.745c.213.169.4.324.57.469.043.037.089.073.13.11l.1.086c1.577,1.386.988,1.71,3.824,4.525,3.235,3.208,5.445,3.251,6.071,2.952.532-.254-.562-1.96-1.774-3.877a13.706,13.706,0,0,1-5.753-4.038c-1.95-2.372-3.263-5.427-4.591-7.193-.073.044-.146.089-.216.135a7.991,7.991,0,0,0-1.675,1.32" transform="translate(-762.124 -671.311)" fill="#233862" fill-rule="evenodd"/>
  <path id="Fill-297" d="M1215.753,862.3c.392,1.834,3.1,1.509,6.117.774s2.307.119,6.606-.371,5.6-2.051,5.723-2.671c.113-.55-2.015-.729-4.3-.967-.286-.029-.575-.062-.864-.094-2.576-.295-4.475-1.889-6.825-3.193-2.226-1.235-5.569-6.305-5.569-6.305l-5.9.492s3.133,4.528,4.345,6.5a6.7,6.7,0,0,1,.608,3.885,7.059,7.059,0,0,0,.059,1.952" transform="translate(-883.745 -627.659)" fill="#ffb27d" fill-rule="evenodd"/>
  <path id="Fill-298" d="M1235.153,890.212c3.019-.735,2.307.119,6.606-.371s5.6-2.051,5.723-2.67c.113-.55-2.015-.729-4.3-.967l-.022.042a12.4,12.4,0,0,1-6.15,1.895c-2.919.088-6.02-.7-8.035-.654a7.063,7.063,0,0,0,.06,1.952c.392,1.833,3.1,1.509,6.117.774" transform="translate(-897.028 -654.802)" fill="#233862" fill-rule="evenodd"/>
  <path id="Fill-299" d="M1090.426,733.691l-12.48,33.189a12.06,12.06,0,0,1-3.83-.312,16.832,16.832,0,0,1-3.716-1.717s1.855-20.141,5.5-31.72a20.276,20.276,0,0,1,3.163-6.737c5.736-6.65,11.362,7.3,11.362,7.3" transform="translate(-781.308 -535.393)" fill="#ed7d2b" fill-rule="evenodd"/>
  <path id="Fill-300" d="M979.215,665.082c-3.624-1.1-13.925.415-24.269,2.446l-2.193-3.444-22.385-1.537s-7.267,15.879-3.152,25.937c.605,1.478,4.332,2.2,4.333,2.2s13.114.138,17.439.109c11.125-.076,23.491-7.555,25.1-7.877,2.625-.526,3.714,4.552,6.382,9.874s24.9,23.479,24.9,23.479a20.078,20.078,0,0,0,4.794-.509,4.743,4.743,0,0,0,2.052-1.271s-24.823-46.92-33-49.407" transform="translate(-675.873 -489.546)" fill="#f99746" fill-rule="evenodd"/>
  <path id="Fill-301" d="M916.947,421.756a8.15,8.15,0,0,0-4.309-1.045,13.373,13.373,0,0,1-2.138-.121c-8.486-1.044-13.5,10.9-13.775,14.513-.5,6.656-4.137,7.695-9.23,11.9-10.211,8.423-7.128,18.109-1.485,21.678,3.386,2.141,9.311-.064,9.311-.064.085.056,16.182-8.846,24.119-13.142,11.932-1.723,2.325-30.986-2.493-33.714" transform="translate(-642.909 -310.72)" fill="#233862" fill-rule="evenodd"/>
  <path id="Fill-302" d="M969.512,506.579c.035.021-3.91,1.354-6.563.24-2.5-1.046-4.409-4.99-4.372-4.993,1.131-.058,2.367-1.023,3.278-7.307l.483.164,8.123,2.764s-.567,2.518-.931,4.913c-.3,2.012-.463,3.938-.018,4.219" transform="translate(-699.685 -365.392)" fill="#ffb27d" fill-rule="evenodd"/>
  <path id="Fill-303" d="M980.626,497.91s-.346,1.764-.826,4.286c-4.66-.778-6.623-4.621-7.3-7.05l8.123,2.764" transform="translate(-709.85 -365.856)" fill="#ed975d" fill-rule="evenodd"/>
  <path id="Fill-304" d="M979.62,461.977s-11.1-1.363-10.113-8.031.215-11.335,7.342-10.747,8.125,3.322,8.357,5.625-2.674,13.335-5.585,13.152" transform="translate(-707.618 -327.436)" fill="#ffb27d" fill-rule="evenodd"/>
  <path id="Fill-305" d="M976.1,443.487s-7.054,5.961-11.877,6.471-6.662-.976-6.662-.976a18.311,18.311,0,0,0,4.514-6,3.388,3.388,0,0,1,2.784-1.954c3.445-.311,9.977-.487,11.241,2.46" transform="translate(-698.94 -325.747)" fill="#233862" fill-rule="evenodd"/>
  <path id="Fill-306" d="M1009.76,445.322a17.007,17.007,0,0,1,3.149,3.844,12.568,12.568,0,0,1,.416,6.894s3.646-6.979,1.529-10.344c-2.247-3.567-5.094-.395-5.094-.395" transform="translate(-737.045 -328.081)" fill="#233862" fill-rule="evenodd"/>
  <path id="Fill-307" d="M953.631,542.25c-.178,21.7.032,17.163-2.406,19.238-.589.5-2.25.807-4.437.961-6.877.489-18.982-.525-19.451-1.751-1.618-4.243-.507-5.573-1.879-12.077-.143-.692-.319-1.44-.526-2.256-1.137-4.466-2.223-5.98,1.642-13.193,3.5-6.534,7.157-11.843,7.49-11.654,9.411,5.315,10.134.789,10.134.789s9.52,9.359,9.433,19.943" transform="translate(-674.353 -385.338)" fill="#aec3ff" fill-rule="evenodd"/>
  <path id="Fill-308" d="M1085.014,772.232l-7.068,18.795a12.059,12.059,0,0,1-3.83-.312A16.838,16.838,0,0,1,1070.4,789s1.855-20.141,5.5-31.72l9.112,14.954" transform="translate(-781.308 -559.541)" fill="#f99746" fill-rule="evenodd"/>
  <path id="Fill-309" d="M999.134,524.547s9.654,1.515,10.816,5.522,8,27.56,8,27.56-4.9.885-7.179-1.289-8.027-20.261-8.027-20.261l-3.61-11.532" transform="translate(-729.289 -387.58)" fill="#aec3ff" fill-rule="evenodd"/>
  <path id="Fill-310" d="M951.074,613.526c-6.877.489-18.981-.525-19.451-1.751-1.618-4.243-.507-5.573-1.879-12.077L933,590.64s-.475,10.065,2.613,12.691,12.6,5.023,14.11,7.224a7.915,7.915,0,0,1,1.353,2.971" transform="translate(-678.64 -436.415)" fill="#8ea3ed" fill-rule="evenodd"/>
  <path id="Fill-311" d="M979.417,659.277s6.777-1.508,7.876-.933,3.795,2.678,4.135,3.414-2.444-.544-3.346-.772a8.294,8.294,0,0,0-2.882.63,9.893,9.893,0,0,1-5.163.537l-.621-2.877" transform="translate(-714.897 -486.343)" fill="#ffb27d" fill-rule="evenodd"/>
  <path id="Fill-312" d="M902.843,521.514s-9.111.6-12.236,4.882c-4.4,6.02-13.024,31.608-7.949,34.978,5.715,3.8,25.891.826,25.891.826s.65-3.042-.3-4.5-16.159-3.732-16.866-4.406,8.671-13.283,8.656-15.317,2.8-16.458,2.8-16.458" transform="translate(-643.138 -385.338)" fill="#aec3ff" fill-rule="evenodd"/>
  <path id="Fill-313" d="M1009.85,665.7a12.914,12.914,0,0,0,1.9,1.973,1.427,1.427,0,0,0,.767.154l-.969-1.661-1.7-.465" transform="translate(-737.111 -491.877)" fill="#ffb27d" fill-rule="evenodd"/>
  <path id="Fill-314" d="M1008.58,658.714l4.151,1.913a.744.744,0,0,1-.683.261,10.091,10.091,0,0,1-1.8-.464l-1.672-1.71" transform="translate(-736.184 -486.713)" fill="#ffb27d" fill-rule="evenodd"/>
  <path id="Fill-315" d="M1013.62,616.451l32.715-.223L1056,592.5l-32.663.223-9.72,23.727" transform="translate(-739.863 -437.79)" fill="#233862" fill-rule="evenodd"/>
  <path id="Fill-316" d="M1019.392,679.827l-43.2.295.007.922,42.816-.292.375-.925" transform="translate(-712.545 -502.314)" fill="#233862" fill-rule="evenodd"/>
  <path id="Fill-317" d="M1095.272,634.039a1.1,1.1,0,0,0-1.121-1.5,2.218,2.218,0,0,0-1.993,1.519,1.1,1.1,0,0,0,1.121,1.5,2.218,2.218,0,0,0,1.993-1.52" transform="translate(-797.145 -467.374)" fill="#ebf3fa" fill-rule="evenodd"/>
  <path id="Fill-318" d="M2056.193,972.263a9.1,9.1,0,0,0-7.011.349c-11.929.474-12.372,12.294-10.97,16.694,1.966,6.178-4.991,11.05,2.725,13.549,8.953,2.9,16.466-1.679,15.956-.185,28.315,2.157,8.721-27.381-.7-30.406" transform="translate(-1486.996 -718.011)" fill="#2a539b" fill-rule="evenodd"/>
  <path id="Fill-319" d="M2014.089,1124.543a30.206,30.206,0,0,1-3.19,4.663c-2.477,3-15.481-4.12-14.363-4.663s7.454-17.921,10.136-21a11.513,11.513,0,0,1,5.936-3.5l1.48,24.5" transform="translate(-1457.264 -812.802)" fill="#2b478b" fill-rule="evenodd"/>
  <path id="Fill-320" d="M2189.06,1659.789s3.589,3.167,2.89,5.418-3.94,3.75-4.378,6.5-2.188,4.251-3.765,4.251H2176.3s-1.161-1.935,1.642-2.52,3.856-3.815,3.681-6.815a51.108,51.108,0,0,1,.262-7l5.955-1.332,1.224,1.5" transform="translate(-1588.35 -1225.284)" fill="#4075c1" fill-rule="evenodd"/>
  <path id="Fill-321" d="M2056.443,1669.18s1.291,13.416-.286,14.166l-20.167-.039s0-2.251,3.241-2.75,8.929-2.334,9.893-6.418,7.319-4.959,7.319-4.959" transform="translate(-1486.112 -1233.331)" fill="#4075c1" fill-rule="evenodd"/>
  <path id="Fill-322" d="M2070.684,1112.488a75.316,75.316,0,0,1,0,9.011c-.2,3.259-3.611,7.622-4.094,8.7-1.213,2.708-2.582,3.149-2.582,3.149l-10.587,2.509-3.725.88-11.74-3.389s-5.348-14.432-3.2-22.555a61.2,61.2,0,0,1,5.429-13.763s7.978-1.737,22.055-.771l8.445,16.226" transform="translate(-1484.84 -809.795)" fill="#2b478b" fill-rule="evenodd"/>
  <path id="Fill-323" d="M2115.876,1169.206c-.2,3.259-4.618,7.507-5.1,8.588-1.213,2.708-2.582,3.149-2.582,3.149l-10.587,2.509-2.825-3.851s17.142-4.611,13.9-19.221l7.2,8.826" transform="translate(-1529.024 -857.387)" fill="#163560" fill-rule="evenodd"/>
  <path id="Fill-324" d="M2033.993,1247.51s-5.812,17.5-6.187,23.456,11.116,84.625,11.578,87.372c.435,2.585,3.759,4.235,3.759,4.235a5.174,5.174,0,0,0,3.708.277c3.027-.828,3.983-1.815,3.983-1.815s4.527-56.109,1.726-76.149a307.322,307.322,0,0,1-2.836-37.376h-15.732" transform="translate(-1480.132 -921.766)" fill="#ed7d2b" fill-rule="evenodd"/>
  <path id="Fill-325" d="M2080.554,1245.52s8.867,11.5,9.693,19.281,1.3,35.1,3.06,42.679,8.234,22.171,8.234,45.821a4.841,4.841,0,0,1-2.752,2.076,23.3,23.3,0,0,1-2.417.648,3.843,3.843,0,0,1-4.251-1.953c-4.378-8.515-18.314-35.987-19.03-41.69-.505-4.034-4.908-30.744-14.506-46.416-2.3-3.763,1.415-18.724,1.415-18.724l20.553-1.721" transform="translate(-1502.056 -920.295)" fill="#f99746" fill-rule="evenodd"/>
  <path id="Fill-326" d="M2046.418,1237.17s2.333,1.786,6.971,1.875c5.539.11,19.262-1.366,19.262-1.366a10.655,10.655,0,0,1,.586,3.387s-16.764,4.089-26.476.6a5.765,5.765,0,0,1-.343-4.494" transform="translate(-1493.482 -914.126)" fill="#163560" fill-rule="evenodd"/>
  <path id="Fill-327" d="M2061.368,1241.649a1.977,1.977,0,1,0,1.688,1.956A1.84,1.84,0,0,0,2061.368,1241.649Zm0,4.724a2.778,2.778,0,1,1,2.525-2.768,2.66,2.66,0,0,1-2.525,2.768Z" transform="translate(-1502.791 -916.837)" fill="#fff" fill-rule="evenodd"/>
  <path id="Fill-328" d="M2011.439,1201.587l-25.193.227-12.4-28.167,25.193-.227,12.4,28.167" transform="translate(-1440.755 -867.022)" fill="#d35b31" fill-rule="evenodd"/>
  <path id="Fill-329" d="M2065.906,1219.925l-1.845-2.193a6.524,6.524,0,0,0-2.158-1.261c-.907-.183-2.823-1.251-3.006-.95s1.469,2.449,1.469,2.449l.086.01c-1.9,1.384-6.706.162-7.3.726-.719.684.988,2.162,1.9,2.992s3.535,2.214,5.577,1.6c1.493-.449,3.843-.906,3.843-.906l1.426-2.468" transform="translate(-1498.516 -898.09)" fill="#ffb27d" fill-rule="evenodd"/>
  <path id="Fill-330" d="M1980.433,1190.067s1.583-1.739,2.59-.906-.265,4.94-1.224,4.523-1.917-3.107-1.366-3.616" transform="translate(-1445.442 -878.485)" fill="#ffb27d" fill-rule="evenodd"/>
  <path id="Fill-331" d="M2103.664,1097.09s8.4.569,11.622,8.139,9.14,20.022,7.867,25.242c-.508,2.081-6.628,9.288-32.153,4.708a5.678,5.678,0,0,1,1.934-3.789s17.982-5.583,17.952-6.693c-.06-2.1-2.431-3.917-12.475-13.633-2.731-2.64,5.253-13.975,5.253-13.975" transform="translate(-1526.265 -810.623)" fill="#2b478b" fill-rule="evenodd"/>
  <path id="Fill-332" d="M2087.9,1068.331c.245-.321-.07-1.345-.467-3.254a34.592,34.592,0,0,1-.956-7.408l-.529.086-8.94,1.454s.2,2.311.211,4.488v.052c.01,1.891-.53,4.747.129,5.12,3.387,1.919,9.6.7,10.552-.54" transform="translate(-1516.053 -781.496)" fill="#ffb27d" fill-rule="evenodd"/>
  <path id="Fill-333" d="M2077.01,1059.454s.178,3.259.184,5.434c5-.115,7.67-4.81,8.756-6.888l-8.94,1.454" transform="translate(-1516.053 -781.74)" fill="#e8945b" fill-rule="evenodd"/>
  <path id="Fill-334" d="M2058.43,1021.913s11.719-1.614,10.566-8.653-.413-11.988-7.943-11.254-8.542,3.64-8.748,6.079,3.049,14.069,6.125,13.829" transform="translate(-1498.014 -740.313)" fill="#ffb27d" fill-rule="evenodd"/>
  <path id="Fill-335" d="M2064.9,999.16s4.562,7.766,9.674,8.23,7.03-1.136,7.03-1.136a13.748,13.748,0,0,1-5.855-7.243s-9.083-4.152-10.849.149" transform="translate(-1507.214 -736.822)" fill="#2a539b" fill-rule="evenodd"/>
  <path id="Fill-336" d="M2053.816,1003.809a7.237,7.237,0,0,0-2.933,3.047,11.16,11.16,0,0,0-.516,6.705s-3.335-5.241-1.148-8.834c2.317-3.809,4.6-.919,4.6-.919" transform="translate(-1495.226 -740.923)" fill="#2a539b" fill-rule="evenodd"/>
  <path id="Fill-337" d="M914.253,1723.393H225.434a.786.786,0,0,1-.8-.77v-.292a.786.786,0,0,1,.8-.77H914.253a.787.787,0,0,1,.8.77v.292a.787.787,0,0,1-.8.77" transform="translate(-163.968 -1272.034)" fill="#2e3552" fill-rule="evenodd"/>
</svg>
