<svg id="Group_22" data-name="Group 22" xmlns="http://www.w3.org/2000/svg" viewBox="0 0 625.133 462.466">
  <path id="Path_305" data-name="Path 305" d="M826.474,685.736c-8-8.369-12.865-21.589-11.59-34.459s9.171-24.7,19.414-27.435,21.919,4.832,25.03,17.214c1.712-23.871,3.685-48.743,13.941-69.072,9.286-18.407,25.371-31.578,42.8-33.934s35.785,6.543,46.657,23.569,13.534,41.779,5.919,61.326c-5.609,14.4-15.943,25.117-26.77,33.835-34.987,27.935-76.95,39.3-118.167,31.99Z" transform="translate(-347.857 -228.465)" fill="#f2f2f2"/>
  <path id="Path_306" data-name="Path 306" d="M963.866,545.948a324.5,324.5,0,0,0-39.4,48.409A375.436,375.436,0,0,0,880.1,686.116a1.689,1.689,0,1,0,3.17,1.082c17.859-53.977,46.368-101.552,82.921-138.373C967.832,547.171,965.494,544.308,963.866,545.948Z" transform="translate(-366.233 -229.327)" fill="#fff"/>
  <path id="Path_307" data-name="Path 307" d="M366.24,676.287c10.993-11.495,17.67-29.653,15.919-47.33s-12.6-33.928-26.665-37.682-30.105,6.637-34.378,23.644c-2.352-32.787-5.061-66.949-19.148-94.87-12.755-25.282-34.847-43.373-58.79-46.609s-49.151,8.987-64.083,32.373-18.588,57.383-8.13,84.232c7.7,19.778,21.9,34.5,36.769,46.473,47.445,38.2,106.3,54.138,162.3,43.939" transform="translate(-165 -221.29)" fill="#f2f2f2"/>
  <path id="Path_308" data-name="Path 308" d="M216.015,484.289a445.679,445.679,0,0,1,54.109,66.49A507.154,507.154,0,0,1,312.8,628.931q10.186,23.3,18.273,47.88c1.1,3.328-3.269,4.776-4.355,1.486A524.066,524.066,0,0,0,291.5,595.844a475.652,475.652,0,0,0-47.229-72.2,432,432,0,0,0-31.448-35.4c-2.255-2.272.957-6.2,3.193-3.951Z" transform="translate(-178.244 -222.474)" fill="#fff"/>
  <path id="Path_309" data-name="Path 309" d="M686.768,651.419H424.5v-333c0-70.849,46.578-128.488,103.829-128.488h54.61c57.252,0,103.829,57.639,103.829,128.488Z" transform="translate(-238.038 -189.931)" fill="#f2f2f2"/>
  <path id="Path_310" data-name="Path 310" d="M632.159,651.42H424.5v-333c-.057-27.148,6.889-53.609,19.829-75.532.477-.8.953-1.6,1.443-2.384a118.277,118.277,0,0,1,22.1-26.543c.474-.427.95-.846,1.433-1.266a98.509,98.509,0,0,1,22.614-14.635c.475-.223.958-.446,1.442-.66a87.28,87.28,0,0,1,22.353-6.523c.473-.08.958-.142,1.443-.2a85.069,85.069,0,0,1,22.351,0c.484.063.969.125,1.447.206A87.262,87.262,0,0,1,563.3,197.4c.484.214.967.437,1.443.66a98.186,98.186,0,0,1,22.351,14.419c.483.41.966.83,1.442,1.249a114.48,114.48,0,0,1,13.209,13.839,124.318,124.318,0,0,1,9.143,12.938c.489.783.965,1.577,1.441,2.38,12.94,21.923,19.887,48.385,19.83,75.533Z" transform="translate(-238.038 -189.931)" fill="#ccc"/>
  <ellipse id="Ellipse_37" data-name="Ellipse 37" cx="11.497" cy="14.227" rx="11.497" ry="14.227" transform="translate(365.739 284.096)" fill="#6c63ff"/>
  <path id="Path_311" data-name="Path 311" d="M589.507,502.543H580.7l-4.191-42.048h13Z" transform="translate(-162.261 -51.028)" fill="#ffb8b8"/>
  <path id="Path_312" data-name="Path 312" d="M569.392,504.28h16.989v13.237H558.695C558.695,510.206,563.484,504.28,569.392,504.28Z" transform="translate(-157.248 -55.88)" fill="#2f2e41"/>
  <path id="Path_313" data-name="Path 313" d="M650.507,502.543H641.7l-4.191-42.048h13Z" transform="translate(-179.43 -51.028)" fill="#ffb8b8"/>
  <path id="Path_314" data-name="Path 314" d="M630.392,504.28h16.989v13.237H619.695C619.695,510.206,624.484,504.28,630.392,504.28Z" transform="translate(-174.417 -55.88)" fill="#2f2e41"/>
  <path id="Path_315" data-name="Path 315" d="M697.576,514.116a11.482,11.482,0,0,1-1.037-7.98,9.223,9.223,0,0,1,4.278-6.107l29.946-102.138,14.735,9.951-34.192,97.607c1.362,4.565-.251,9.669-3.754,11.881s-7.789.831-9.976-3.213Z" transform="translate(-314.522 -212.975)" fill="#ffb8b8"/>
  <path id="Path_316" data-name="Path 316" d="M809.888,534.923a9.751,9.751,0,0,1-3.76-6.609,11.243,11.243,0,0,1,1.681-7.81l-9.277-108.045,16.769.948,3.855,106.276a11.329,11.329,0,0,1,.836,12.715C817.628,536.285,813.287,537.37,809.888,534.923Z" transform="translate(-343.312 -214.589)" fill="#ffb8b8"/>
  <ellipse id="Ellipse_38" data-name="Ellipse 38" cx="17.648" cy="21.839" rx="17.648" ry="21.839" transform="translate(422.176 122.318)" fill="#ffb8b8"/>
  <path id="Path_317" data-name="Path 317" d="M793.339,507.382H740.133l.064-.512c.1-.766,9.482-76.861,2.559-101.755-1.439-5.067.443-10.66,4.361-12.967h0c9.9-5.767,28.891-12.868,44.923,4.365,4.783,5.226,7.3,12.932,6.8,20.8Z" transform="translate(-326.875 -211.622)" fill="#6c63ff"/>
  <path id="Path_318" data-name="Path 318" d="M744.972,442.165l-23.954-6.014,11.228-32.926c1.388-6.656,6.874-10.658,12.252-8.94s8.613,8.507,7.224,15.162Z" transform="translate(-321.495 -212.531)" fill="#6c63ff"/>
  <path id="Path_319" data-name="Path 319" d="M796.409,453.618l-1.44-40.851c-1.092-7.679,2.46-14.939,7.924-16.125s10.8,4.144,11.9,11.879l5.413,38.171Z" transform="translate(-342.253 -212.819)" fill="#6c63ff"/>
  <path id="Path_320" data-name="Path 320" d="M790.446,517.049c8.561,40.348,9.5,91.648,7.185,147.605l-11.5-1.779L765.3,556.174,753.8,664.655l-12.934-.889C737,605.052,733.24,554.648,739.429,521.5Z" transform="translate(-325.752 -226.179)" fill="#2f2e41"/>
  <path id="Path_321" data-name="Path 321" d="M780.435,364.955c-3.292,4.34-9.407,2.01-9.836-3.919a8.855,8.855,0,0,1,.007-1.383c.221-2.626,1.448-5.011,1.154-7.784a4.68,4.68,0,0,0-.6-1.911c-2.623-4.348-8.782,1.944-11.258-1.991-1.518-2.413.266-6.213-.9-8.91-1.538-3.56-6.092-1.8-8.949-3.753-3.178-2.169-2.988-8.2-.9-11.873a14.4,14.4,0,0,1,11.442-7.208c4.417-.344,8.8,1.134,12.928,3.122,4.686,2.26,9.332,5.383,12.216,10.481,3.507,6.2,3.844,14.536,2.09,21.787C786.764,356.024,783.123,361.411,780.435,364.955Z" transform="translate(-328.982 -203.92)" fill="#2f2e41"/>
  <path id="Path_322" data-name="Path 322" d="M796.849,709.31h-530.5a1.083,1.083,0,0,1,0-2.117h530.5a1.083,1.083,0,0,1,0,2.117Z" transform="translate(-193.286 -247.249)" fill="#3f3d56"/>
  <path id="Path_323" data-name="Path 323" d="M595.581,566.855H502.171c-2.561.017-4.651-2.535-4.671-5.7V303.135c.02-3.17,2.109-5.721,4.671-5.7h93.411c2.561-.017,4.651,2.535,4.671,5.7V561.15C600.232,564.32,598.143,566.872,595.581,566.855Z" transform="translate(-258.584 -201.843)" fill="#fff"/>
  <rect id="Rectangle_94" data-name="Rectangle 94" width="102.752" height="1.778" transform="translate(238.916 179.073)" fill="#ccc"/>
  <rect id="Rectangle_95" data-name="Rectangle 95" width="102.752" height="1.778" transform="translate(239.275 280.539)" fill="#ccc"/>
  <rect id="Rectangle_96" data-name="Rectangle 96" width="1.437" height="270.313" transform="translate(271.25 95.588)" fill="#ccc"/>
  <rect id="Rectangle_97" data-name="Rectangle 97" width="1.437" height="270.313" transform="translate(307.177 95.588)" fill="#ccc"/>
</svg>
