<svg xmlns="http://www.w3.org/2000/svg" xmlns:xlink="http://www.w3.org/1999/xlink" viewBox="0 0 253.39 205.888">
  <defs>
    <linearGradient id="linear-gradient" x1="0.5" y1="1" x2="0.5" gradientUnits="objectBoundingBox">
      <stop offset="0" stop-color="gray" stop-opacity="0.251"/>
      <stop offset="0.54" stop-color="gray" stop-opacity="0.122"/>
      <stop offset="1" stop-color="gray" stop-opacity="0.102"/>
    </linearGradient>
    <linearGradient id="linear-gradient-2" x1="0.001" y1="0.5" x2="1" y2="0.5" xlink:href="#linear-gradient"/>
  </defs>
  <g id="Group_7" data-name="Group 7" transform="translate(0.02 -0.02)">
    <path id="Path_58" data-name="Path 58" d="M264.46,219.549a89.465,89.465,0,0,1-1.521,16.536q-.512,2.731-1.19,5.355-.83,3.234-1.919,6.337-.549,1.564-1.16,3.072a52.883,52.883,0,0,1-2.618,16.607c-3.134,9.4-8.721,16.993-15.743,21.408a26.7,26.7,0,0,1-14.072,4.259H59.175A34.616,34.616,0,0,1,38,285.656q-1.426-1.09-2.78-2.323a47.219,47.219,0,0,1-5.5-5.985,54.091,54.091,0,0,1-6.047-9.9,65.742,65.742,0,0,1-6.151-28.174,83.564,83.564,0,0,1-6.454-32.9c0-15.332,3.778-29.318,9.984-39.906a53.932,53.932,0,0,1,4.24-6.227A44.192,44.192,0,0,1,30.144,155a37.111,37.111,0,0,1,4.3-3.407c.622-.42,1.246-.812,1.88-1.178.557-.327,1.121-.63,1.691-.917q1.026-.517,2.078-.945t2.076-.755a26.521,26.521,0,0,1,3.063-.789c.861-.168,1.721-.284,2.582-.375q1.026-.1,2.07-.114h.376c.766,0,1.527.04,2.283.108.08-.21.166-.423.245-.633.3-.755.613-1.51.927-2.252v-.02c.054-.128.108-.256.163-.38.254-.6.518-1.2.79-1.8.125-.284.247-.551.374-.821.028-.065.056-.128.088-.193q.194-.426.394-.852,1-2.1,2.072-4.131c.062-.116.12-.23.183-.344.112-.21.215-.417.34-.625.3-.548.6-1.1.91-1.641.215-.383.43-.767.663-1.136q.839-1.431,1.721-2.839c.587-.937,1.207-1.88,1.833-2.8.086-.128.172-.253.262-.38l.919-1.32h0c.045-.062.084-.119.127-.176h0c.11-.156.215-.312.333-.466.493-.687,1-1.366,1.506-2.036a94.133,94.133,0,0,1,8.27-9.483c.114-.119.23-.233.344-.346.546-.545,1.1-1.082,1.657-1.61a88.033,88.033,0,0,1,9.554-7.865c.228-.17.46-.332.695-.494a83.449,83.449,0,0,1,9.141-5.554q2.551-1.332,5.193-2.487c1.166-.5,2.336-.982,3.522-1.42q2.749-1.042,5.568-1.88a77.162,77.162,0,0,1,16.832-3.027q2.582-.179,5.221-.179a77.346,77.346,0,0,1,25.17,4.2.87.87,0,0,0,.781.537h.723c.314.111.626.227.94.346q2.631,1,5.187,2.183l.43.2a83.192,83.192,0,0,1,12.243,7.1,88.852,88.852,0,0,1,10.251,8.359q.755.715,1.489,1.445.891-.758,1.811-1.445a31.771,31.771,0,0,1,7.5-4.219,26.272,26.272,0,0,1,16.832-.869c7.153,2,13.629,6.97,18.858,14.037a58.566,58.566,0,0,1,5.662,9.449c.118.244.237.491.351.741a72.049,72.049,0,0,1,3.6,9.48c.037.119.073.236.105.355a81.78,81.78,0,0,1,2.216,9.469c.026.162.056.327.082.491a88.718,88.718,0,0,1,1.058,9.475,2.359,2.359,0,0,0,.017.346q.136,2.473.138,5,0,2.257-.11,4.478c0,.162-.017.332-.028.5-.019.432-.047.852-.075,1.286a48.452,48.452,0,0,1,4.6,5.724q.94,1.354,1.82,2.814a64.153,64.153,0,0,1,4.69,9.475A84.362,84.362,0,0,1,264.46,219.549Z" transform="translate(-11.09 -87.42)" fill="#6c63ff" opacity="0.1"/>
    <path id="Path_59" data-name="Path 59" d="M329.72,661c0,6.454-5.068,12.493-13.913,17.694H148.745c-7.73,0-14.969-3.691-21.173-10.128A13.953,13.953,0,0,1,125.19,661c0-6.86,5.731-13.262,15.64-18.674h0l.28-.148a85.146,85.146,0,0,1,9.339-4.284c.086-.034.174-.065.26-.1h0q4.066-1.576,8.65-2.987c.1-.028.191-.06.288-.082,1.179-.369,2.382-.713,3.61-1.056h0l.473-.131a209.022,209.022,0,0,1,30.118-5.707h.013q2.315-.284,4.679-.508c1.753-.185,3.528-.341,5.322-.486,1.37-.116,2.758-.216,4.15-.307a.032.032,0,0,1,.032,0c6.28-.417,12.768-.636,19.4-.636a272.2,272.2,0,0,1,45.653,3.691.085.085,0,0,1,.039,0c2.113.363,4.186.747,6.209,1.156.579.119,1.155.238,1.721.361q3.423.73,6.669,1.542h0C313.189,639.025,329.72,649.357,329.72,661Z" transform="translate(-100.659 -472.989)" fill="#6c63ff" opacity="0.1"/>
    <path id="Path_60" data-name="Path 60" d="M725.255,210.615s-2.276-1.218-9.517,3.163-8.145,3.827-10.019,3.169-2.919-.829-4.929-4.489c0,0-1.418-10.139-2.8-11.712s-7.2.9-7.2.9-6.99,2.115-8.321-10.221c0,0,.944-9.29-.342-12.141,0,0,2.6,1.476,6.884-.909s7.717,2.57,7.717,2.57a23.891,23.891,0,0,1,.968,5.894c-.108,2.2.572,3.03,2.616,1.965,0,0,1-1.885-.417-5s-2.437-5.437-2.042-7.856a9.37,9.37,0,0,1,5.206-7.456c3.668-1.678,8.648-1.987,11.038-3.313A9.487,9.487,0,0,0,717.08,163s-1.471,1.945,1.994,10.193,1.256,11.826,1.256,11.826-1.844,5.8-9.984,5.329c0,0-7.844.378-3.567,4.767a59.571,59.571,0,0,0,6.833-2.453c4.094-1.718,7.05,5.372,7.783,10.3A13.348,13.348,0,0,0,725.255,210.615Z" transform="translate(-537.784 -141.527)" fill="#3445c6"/>
    <path id="Path_61" data-name="Path 61" d="M811.039,184.957l.043-.017c.314,1.573-3.19,7.9-6.187,12.927l-.034-.037C809.085,190.749,811.282,186.175,811.039,184.957Z" transform="translate(-634.111 -157.237)" fill="#444053"/>
    <path id="Path_62" data-name="Path 62" d="M773.981,230l.019.062c-2.394,4.015-5.4,8.8-7.814,12.359-.23.338-.458.693-.678,1.056l-.069-.074c.215-.363.45-.721.68-1.059C768.527,238.8,771.584,234.018,773.981,230Z" transform="translate(-603.172 -189.503)" fill="#444053"/>
    <path id="Path_63" data-name="Path 63" d="M745.413,276.89l.047.108c-4.384,7.226-4.675,18.455-4.686,18.543l-.925-1.42C739.861,294.031,741,284.167,745.413,276.89Z" transform="translate(-583.087 -223.08)" fill="#444053"/>
    <path id="Path_64" data-name="Path 64" d="M734.465,257.151s-5.163-3.549-9.2-2.271-13.112-4.514-13.112-4.514-3.851-2.064-4.625-4.418c0,0-2.644-3.691-2.8-5.6s-2.724-6.706-4.4-6.891" transform="translate(-552.069 -191.981)" fill="none" stroke="#444053" stroke-miterlimit="10" stroke-width="1"/>
    <path id="Path_65" data-name="Path 65" d="M846.99,316.284s-2.6-2.317-2.3-5.014" transform="translate(-665.353 -247.699)" fill="none" stroke="#444053" stroke-miterlimit="10" stroke-width="1"/>
    <path id="Path_66" data-name="Path 66" d="M822,317.319s-3.724-1.783-4.088-8.779" transform="translate(-644.354 -245.744)" fill="none" stroke="#444053" stroke-miterlimit="10" stroke-width="1"/>
    <path id="Path_67" data-name="Path 67" d="M799.451,318.844s-3.558-3.9-2.377-10.7" transform="translate(-627.811 -245.457)" fill="none" stroke="#444053" stroke-miterlimit="10" stroke-width="1"/>
    <path id="Path_68" data-name="Path 68" d="M771.275,311.836s-2.366-6.559-.26-10.826" transform="translate(-606.862 -240.352)" fill="none" stroke="#444053" stroke-miterlimit="10" stroke-width="1"/>
    <path id="Path_69" data-name="Path 69" d="M851.219,301.67s-2.691,1.136-2.115,3" transform="translate(-668.774 -240.824)" fill="none" stroke="#444053" stroke-miterlimit="10" stroke-width="1"/>
    <path id="Path_70" data-name="Path 70" d="M830.677,279s-3.6,1.508-3.687,8.234" transform="translate(-651.48 -224.591)" fill="none" stroke="#444053" stroke-miterlimit="10" stroke-width="1"/>
    <path id="Path_71" data-name="Path 71" d="M809.634,273.48s-3.281,5.344-3.04,10.2" transform="translate(-635.462 -220.638)" fill="none" stroke="#444053" stroke-miterlimit="10" stroke-width="1"/>
    <path id="Path_72" data-name="Path 72" d="M783.568,280.86s-3.257,4.111-2.842,6.4" transform="translate(-615.141 -225.923)" fill="none" stroke="#444053" stroke-miterlimit="10" stroke-width="1"/>
    <path id="Path_73" data-name="Path 73" d="M772.233,274.232s-3.055.721-3.483-.6" transform="translate(-605.769 -220.746)" fill="none" stroke="#444053" stroke-miterlimit="10" stroke-width="1"/>
    <path id="Path_74" data-name="Path 74" d="M766.49,258.61s1.542,2.7,1.936,2.093" transform="translate(-603.996 -209.99)" fill="none" stroke="#444053" stroke-miterlimit="10" stroke-width="1"/>
    <path id="Path_75" data-name="Path 75" d="M803.154,246.728s-7.7.738-9.444-2.328" transform="translate(-625.36 -199.815)" fill="none" stroke="#444053" stroke-miterlimit="10" stroke-width="1"/>
    <path id="Path_76" data-name="Path 76" d="M759,210.73s3.612,10.236,6.239,11.539" transform="translate(-598.117 -175.705)" fill="none" stroke="#444053" stroke-miterlimit="10" stroke-width="1"/>
    <path id="Path_77" data-name="Path 77" d="M776.58,193.56s2.218,9.415,4.967,12.354" transform="translate(-611.915 -163.41)" fill="none" stroke="#444053" stroke-miterlimit="10" stroke-width="1"/>
    <path id="Path_78" data-name="Path 78" d="M818.481,225.13s-5.856,3.316-9.371-.04" transform="translate(-637.447 -185.988)" fill="none" stroke="#444053" stroke-miterlimit="10" stroke-width="0.75"/>
    <path id="Path_79" data-name="Path 79" d="M800.82,186.49s1.338,6.919,3.141,8.592" transform="translate(-630.94 -158.347)" fill="none" stroke="#444053" stroke-miterlimit="10" stroke-width="0.75"/>
    <path id="Path_80" data-name="Path 80" d="M832.078,197.92s-3.292,1.647-4.518.386" transform="translate(-651.928 -166.532)" fill="none" stroke="#444053" stroke-miterlimit="10" stroke-width="0.75"/>
    <path id="Path_81" data-name="Path 81" d="M748.843,266.57s0,6.033-1.243,6.462" transform="translate(-589.169 -215.69)" fill="none" stroke="#444053" stroke-miterlimit="10" stroke-width="1"/>
    <path id="Path_82" data-name="Path 82" d="M706.09,287.018s4.948.568,7.222-2.808" transform="translate(-556.59 -228.322)" fill="none" stroke="#444053" stroke-miterlimit="10" stroke-width="1"/>
    <path id="Path_83" data-name="Path 83" d="M731.056,241.47s-1.2,6.119-4.5,7.768" transform="translate(-572.656 -197.717)" fill="none" stroke="#444053" stroke-miterlimit="10" stroke-width="1"/>
    <path id="Path_84" data-name="Path 84" d="M692.31,265.142s3.5,1.6,6.508-2.482" transform="translate(-545.774 -212.89)" fill="none" stroke="#444053" stroke-miterlimit="10" stroke-width="1"/>
    <path id="Path_85" data-name="Path 85" d="M720.36,222.94s-.329,5.2-2.47,7.629" transform="translate(-565.851 -184.448)" fill="none" stroke="#444053" stroke-miterlimit="10" stroke-width="1"/>
    <path id="Path_86" data-name="Path 86" d="M692.93,240.424s2.9.026,3.582-1.224" transform="translate(-546.261 -196.091)" fill="none" stroke="#444053" stroke-miterlimit="10" stroke-width="1"/>
    <rect id="Rectangle_12" data-name="Rectangle 12" width="82.653" height="55.065" transform="translate(85.006 64.063)" fill="#33323d"/>
    <rect id="Rectangle_13" data-name="Rectangle 13" width="134.41" height="36.246" transform="translate(59.259 135.857)" fill="#33323d"/>
    <path id="Path_87" data-name="Path 87" d="M371.684,510.35h68.922l13.732,60.991H357.16Z" transform="translate(-280.339 -365.433)" fill="#fff"/>
    <path id="Path_88" data-name="Path 88" d="M257.73,402.33v57.853h25.747V426.728h90.575v33.455H399.8V402.33Z" transform="translate(-202.3 -288.083)" fill="#504f60"/>
    <rect id="Rectangle_14" data-name="Rectangle 14" width="142.068" height="18.819" transform="translate(55.43 114.247)" fill="#33323d" opacity="0.1"/>
    <ellipse id="Ellipse_11" data-name="Ellipse 11" cx="2.113" cy="2.788" rx="2.113" ry="2.788" transform="translate(187.729 120.871)" fill="#8ccf4d" opacity="0.8"/>
    <ellipse id="Ellipse_12" data-name="Ellipse 12" cx="2.113" cy="2.788" rx="2.113" ry="2.788" transform="translate(178.223 120.871)" fill="#fa5959" opacity="0.8"/>
    <rect id="Rectangle_15" data-name="Rectangle 15" width="76.58" height="59.943" transform="translate(88.044 50.817)" fill="#fff"/>
    <path id="Path_89" data-name="Path 89" d="M781.76,564.708c.161,2.32-1.166,4.571-.779,6.843.082.485.241.945.3,1.42a6.685,6.685,0,0,1-1.033,3.756l-5,9.7a6.016,6.016,0,0,1-.714,1.164c-.957,1.136-2.39,1.005-3.644,1.34a5.645,5.645,0,0,0-2.442,1.42.258.258,0,0,0-.032.284,1.963,1.963,0,0,0,1.816,1.136.646.646,0,0,1-.181.727c-.269.244-.645.309-.691.911a1.276,1.276,0,0,0,.09.6,1.492,1.492,0,0,0,.876.8c1.721.7,3.6-.528,4.894-2.2s2.224-3.776,3.5-5.477c.7-.94,1.506-1.746,2.229-2.658a33.577,33.577,0,0,0,3.657-6.246,7.942,7.942,0,0,0,.792-2.127c.133-.755.073-1.553.228-2.3a9.31,9.31,0,0,1,1.2-2.584,10.471,10.471,0,0,0,1.362-5.571c-.118-1.988-1.048-3.944-2.468-4.62a1.715,1.715,0,0,0-1.383-.111,3.627,3.627,0,0,0-1.409,1.479l-.949,1.445a3.737,3.737,0,0,0-.553,1.11,1.435,1.435,0,0,0,.2,1.232" transform="translate(-605.486 -426.402)" fill="#fbbebe"/>
    <path id="Path_90" data-name="Path 90" d="M781.76,564.708c.161,2.32-1.166,4.571-.779,6.843.082.485.241.945.3,1.42a6.685,6.685,0,0,1-1.033,3.756l-5,9.7a6.016,6.016,0,0,1-.714,1.164c-.957,1.136-2.39,1.005-3.644,1.34a5.645,5.645,0,0,0-2.442,1.42.258.258,0,0,0-.032.284,1.963,1.963,0,0,0,1.816,1.136.646.646,0,0,1-.181.727c-.269.244-.645.309-.691.911a1.276,1.276,0,0,0,.09.6,1.492,1.492,0,0,0,.876.8c1.721.7,3.6-.528,4.894-2.2s2.224-3.776,3.5-5.477c.7-.94,1.506-1.746,2.229-2.658a33.577,33.577,0,0,0,3.657-6.246,7.942,7.942,0,0,0,.792-2.127c.133-.755.073-1.553.228-2.3a9.31,9.31,0,0,1,1.2-2.584,10.471,10.471,0,0,0,1.362-5.571c-.118-1.988-1.048-3.944-2.468-4.62a1.715,1.715,0,0,0-1.383-.111,3.627,3.627,0,0,0-1.409,1.479l-.949,1.445a3.737,3.737,0,0,0-.553,1.11,1.435,1.435,0,0,0,.2,1.232" transform="translate(-605.486 -426.402)" opacity="0.05"/>
    <path id="Path_91" data-name="Path 91" d="M832.189,777.992a4.571,4.571,0,0,1-3.722.727c-.215-.031-.445-.051-.577.156-.189.3.034.747.265.991a4.918,4.918,0,0,0,2.558,1.388,13.188,13.188,0,0,0,2.5.219,32.181,32.181,0,0,0,6.833-.332.767.767,0,0,0,.372-.145.97.97,0,0,0,.282-.568,2.666,2.666,0,0,0-.592-2.144,4.928,4.928,0,0,0-1.594-1.136l-1.984-1.019c-.467-.241-1.213-.875-1.721-.826C833.882,775.4,832.976,777.385,832.189,777.992Z" transform="translate(-652.131 -579.978)" fill="#3f3d56"/>
    <path id="Path_92" data-name="Path 92" d="M832.189,777.992a4.571,4.571,0,0,1-3.722.727c-.215-.031-.445-.051-.577.156-.189.3.034.747.265.991a4.918,4.918,0,0,0,2.558,1.388,13.188,13.188,0,0,0,2.5.219,32.181,32.181,0,0,0,6.833-.332.767.767,0,0,0,.372-.145.97.97,0,0,0,.282-.568,2.666,2.666,0,0,0-.592-2.144,4.928,4.928,0,0,0-1.594-1.136l-1.984-1.019c-.467-.241-1.213-.875-1.721-.826C833.882,775.4,832.976,777.385,832.189,777.992Z" transform="translate(-652.131 -579.978)" opacity="0.05"/>
    <path id="Path_93" data-name="Path 93" d="M849.064,624.8a8.314,8.314,0,0,0-1.476,4.92,13.169,13.169,0,0,0,.822,2.717,24.015,24.015,0,0,1,.833,3.816c.31,1.9.62,3.8.809,5.732.215,2.178-.8,8.478-.891,10.673a2.779,2.779,0,0,1-.349,1.482,1.478,1.478,0,0,0-.3.469,1.01,1.01,0,0,0,.064.551,5.427,5.427,0,0,0,2.478,3.01,16.013,16.013,0,0,0,4.782,1.658.707.707,0,0,0,.45-.079,1.1,1.1,0,0,0,.349-.525c.83-2.093.032-9.543.045-11.908,0-1.987.364-3.93.3-5.9-.054-1.581-.374-3.123-.49-4.7a36.309,36.309,0,0,1,.529-7.737c.275-1.956.551-3.915.9-5.852a13.715,13.715,0,0,1,.957-3.407c.389-.815.919-1.494,1.364-2.271a12.718,12.718,0,0,0,1.525-7.49c-.026-.261-2.865.951-3.113,1.093a9.93,9.93,0,0,0-2.773,2.357,33.317,33.317,0,0,0-1.749,2.853q-1.22,1.959-2.407,3.949Q850.374,622.5,849.064,624.8Z" transform="translate(-667.623 -461.554)" fill="#464353"/>
    <path id="Path_94" data-name="Path 94" d="M849.064,624.548a8.317,8.317,0,0,0-1.476,4.923,13.2,13.2,0,0,0,.822,2.714,24.075,24.075,0,0,1,.833,3.816c.31,1.9.62,3.8.809,5.732.215,2.178-.8,8.481-.891,10.676a2.769,2.769,0,0,1-.349,1.479,1.477,1.477,0,0,0-.3.469,1.023,1.023,0,0,0,.064.568,5.42,5.42,0,0,0,2.478,3.007,14.935,14.935,0,0,0,4.782,1.184.707.707,0,0,0,.45-.079,1.1,1.1,0,0,0,.349-.525c.83-2.093.032-9.069.045-11.431,0-1.987.364-3.932.3-5.9-.054-1.581-.374-3.123-.49-4.7a36.271,36.271,0,0,1,.529-7.734c.275-1.959.551-3.918.9-5.855a13.715,13.715,0,0,1,.957-3.407c.389-.812.919-1.493,1.364-2.254a12.745,12.745,0,0,0,1.525-7.49c-.026-.264-2.865.948-3.113,1.093a9.884,9.884,0,0,0-2.773,2.362c-.645.826-1.172,1.928-1.749,2.839q-1.22,1.959-2.407,3.952Q850.374,622.254,849.064,624.548Z" transform="translate(-667.623 -461.395)" opacity="0.05"/>
    <ellipse id="Ellipse_13" data-name="Ellipse 13" cx="4.632" cy="6.113" rx="4.632" ry="6.113" transform="translate(167.625 119.076)" fill="#fbbebe"/>
    <path id="Path_95" data-name="Path 95" d="M815.109,524.443a6.331,6.331,0,0,0,3.844,3.549l-.349,1.667c-.6,2.876-1.291,5.917-2.962,7.91a4.67,4.67,0,0,0-.471-2.859,10.274,10.274,0,0,0-1.573-2.169l-2.665-3.061a1,1,0,0,1-.2-.284,1.185,1.185,0,0,1,0-.67,7.97,7.97,0,0,1,2.1-3.208,9.617,9.617,0,0,0,1.054-1.621C814.43,522.694,814.759,523.7,815.109,524.443Z" transform="translate(-638.683 -399.509)" fill="#fbbebe"/>
    <path id="Path_96" data-name="Path 96" d="M779.238,494.308l-.1-1.136c.731.25,1.424-.568,1.891-1.42s.9-1.851,1.613-2.2c.861-.432,1.781.258,2.607.826a6.972,6.972,0,0,0,2.995,1.292,1.514,1.514,0,0,1,.495.108c.538.253.794,1.136.871,1.951a9.7,9.7,0,0,0,.323,2.388c.2.545.546.951.757,1.488.566,1.448.019,3.424.617,4.844l-1.484-1.8c-.138-.165-.329-.335-.478-.2s-.127.349-.176.539a.714.714,0,0,1-1.056.508,3.377,3.377,0,0,1-.944-1.136,6.222,6.222,0,0,0-2.366-2.357,2.376,2.376,0,0,0-2.493.2c-.693.517-1.2,1.721-2.048,1.763-1.164.057-1.648-2.8-2.188-3.932a1.692,1.692,0,0,0,.305-1.735C778.47,494.251,779.223,494.123,779.238,494.308Z" transform="translate(-613.084 -375.262)" fill="#464353"/>
    <path id="Path_97" data-name="Path 97" d="M858.367,775.707a4.286,4.286,0,0,1-3.33,1.638c-.312,0-.744.08-.747.491a.8.8,0,0,0,.09.341,3.364,3.364,0,0,0,1.721,1.777,4.678,4.678,0,0,0,2.078.176l2.033-.139c.383-.028.768-.054,1.151-.116s.8-.167,1.2-.244a11.908,11.908,0,0,1,2.96-.185.739.739,0,0,0,.729-.261,1.856,1.856,0,0,0,.015-1.11c-.12-.778,0-1.593-.112-2.374a3.917,3.917,0,0,0-2.074-2.916c-.914-.46-2.536-.985-3.4-.221C859.746,773.387,859.186,774.728,858.367,775.707Z" transform="translate(-672.907 -577.741)" fill="#3f3d56"/>
    <path id="Path_98" data-name="Path 98" d="M867.658,608.893c.181,1.136,1,1.987,1.031,3.123a5.785,5.785,0,0,1-.837,2.484,19.477,19.477,0,0,0-.861,2.555,45,45,0,0,1-2.513,6.573,6.314,6.314,0,0,0-.9,3.254,5.937,5.937,0,0,0,.43,1.556l1.431,3.751a12.954,12.954,0,0,1,.732,2.371c.123.713.135,1.451.215,2.178.226,2.3,1.043,4.617.561,6.845-.043.193-.194.426-.308.284a8.812,8.812,0,0,1,.815,3.66,6.614,6.614,0,0,0,.015,2.061,2.74,2.74,0,0,1,.215.812c0,.187-.067.366-.082.568a1.183,1.183,0,0,0,.714,1.136c.385.162.8.156,1.188.31.747.284,1.276,1.136,1.915,1.726a3.415,3.415,0,0,0,2.2.945.441.441,0,0,0,.323-.085.8.8,0,0,0,.181-.52,3.373,3.373,0,0,0-.787-2.5,1.083,1.083,0,0,1-.29-.4,1.261,1.261,0,0,1-.028-.451,44.443,44.443,0,0,0-.084-6.2,12.336,12.336,0,0,1-.075-1.97,10.035,10.035,0,0,0,.121-1.641,10.9,10.9,0,0,0-.381-1.57,14.789,14.789,0,0,1-.183-2.924,33.044,33.044,0,0,0-.628-5.031,4.446,4.446,0,0,0-.594-1.817c-.3-.409-.777-.8-.665-1.349a1.664,1.664,0,0,1,.271-.537,2.673,2.673,0,0,0,.342-1.644.526.526,0,0,0,.645-.4,12.723,12.723,0,0,0,5.034-7.555,3,3,0,0,1,.215-.673,2.381,2.381,0,0,1,.921-.789,8.538,8.538,0,0,0,2.422-3.257,8.629,8.629,0,0,0,.934-2.365,10.157,10.157,0,0,0,.129-1.7l.058-2.959a2.081,2.081,0,0,0-.043-.568,1.452,1.452,0,0,0-.241-.468,4.162,4.162,0,0,0-2.366-1.7,15.018,15.018,0,0,0-1.852-.185,18.067,18.067,0,0,0-3.58-.505c-1.885.182-3.56,1.905-4.449,4.106C868.654,608.209,868.327,608.893,867.658,608.893Z" transform="translate(-680.185 -456.813)" fill="#464353"/>
    <path id="Path_99" data-name="Path 99" d="M826.414,538.656a4.216,4.216,0,0,1-.136,1.346c-.146.414-.516.735-.837.568.1-.284-.161-.622-.4-.585a.844.844,0,0,0-.529.593,2.837,2.837,0,0,0-.153,1.366,7.083,7.083,0,0,1,.262,1.7c-.054.483-.323.965-.179,1.42a2.272,2.272,0,0,0,.344.545,1.906,1.906,0,0,1-.123,2.115l3.61.094a4.216,4.216,0,0,0,.447,2.32c1.757,3.939,4.81,6.566,8.25,7.1a1,1,0,0,0-.346.672,1.17,1.17,0,0,0,.173.779.824.824,0,0,0,1.157.085,9.137,9.137,0,0,0,.994-.98,2.519,2.519,0,0,1,2.039-.727c.452.057.891.25,1.345.284,1.338.094,2.487-1.175,3.767-1.7.938-.38,2-.38,2.8-1.153a1.662,1.662,0,0,0,.518-1.42,2.569,2.569,0,0,0-.389-.835,16.062,16.062,0,0,1-1.043-2.581,15.892,15.892,0,0,0-2.61-4.611,25.468,25.468,0,0,0-2.582-2.592,4.539,4.539,0,0,0-.7-.568,6.465,6.465,0,0,1-.959-.514,6.189,6.189,0,0,1-.994-1.476c-.716-1.1-1.816-1.61-2.7-2.476-.592-.568-1.112-1.346-1.82-1.627-.342-.136-.708-.148-1.052-.284-.779-.312-1.347-1.227-2.113-1.6a6.934,6.934,0,0,0-1.915-.321,3.855,3.855,0,0,1-1.964-.985,2.313,2.313,0,0,0-.645-.488c-.966-.389-1.046,1.988-1.136,2.814A33.086,33.086,0,0,0,826.414,538.656Z" transform="translate(-649.397 -405.814)" fill="#3445c6"/>
    <path id="Path_100" data-name="Path 100" d="M789.6,573.5c.161,2.32-1.166,4.568-.779,6.843.082.486.241.945.3,1.42a6.652,6.652,0,0,1-1.033,3.754l-5,9.682a6.02,6.02,0,0,1-.714,1.164c-.957,1.136-2.39,1.005-3.644,1.34a5.658,5.658,0,0,0-2.442,1.42.258.258,0,0,0-.032.284,1.957,1.957,0,0,0,1.816,1.136.645.645,0,0,1-.181.727c-.269.247-.645.312-.69.914a1.273,1.273,0,0,0,.09.6,1.5,1.5,0,0,0,.876.8c1.721.7,3.6-.528,4.894-2.2s2.224-3.776,3.5-5.477c.7-.94,1.506-1.746,2.227-2.658a34.055,34.055,0,0,0,3.657-6.246,7.979,7.979,0,0,0,.792-2.127c.133-.755.073-1.553.228-2.3a9.274,9.274,0,0,1,1.2-2.584,10.471,10.471,0,0,0,1.362-5.571c-.118-1.987-1.048-3.944-2.468-4.62a1.7,1.7,0,0,0-1.383-.111,3.64,3.64,0,0,0-1.409,1.479l-.949,1.445a3.68,3.68,0,0,0-.551,1.11,1.428,1.428,0,0,0,.194,1.229" transform="translate(-611.64 -432.679)" fill="#fbbebe"/>
    <path id="Path_101" data-name="Path 101" d="M838.343,549.58a2.326,2.326,0,0,0-1.846.755,3.784,3.784,0,0,0-.465.96,11.888,11.888,0,0,0-.921,3.827,23.565,23.565,0,0,0,.333,3.2,15.364,15.364,0,0,1-.215,2.686,12.307,12.307,0,0,0,2.631-1.334,8.222,8.222,0,0,1,1.538-1.056c.785-.344,2.1.247,2.844.733.041-.693-.351-1.894-.31-2.587a3.781,3.781,0,0,1,.116-.852,5.7,5.7,0,0,1,.394-.826,4.269,4.269,0,0,0-.23-3.975,3.725,3.725,0,0,0-2.685-1.5,8.851,8.851,0,0,0-1.876-.088" transform="translate(-657.853 -418.292)" fill="#3445c6"/>
    <path id="Path_102" data-name="Path 102" d="M271.165,366.507l-4.242-8.12a9.869,9.869,0,0,0-.357-2.479,2.844,2.844,0,0,1-.06-1.513s.3-.568.041-.627-.041-1.332-.041-1.332l-.019-2.036a9.393,9.393,0,0,0,.041-2.428.98.98,0,0,1,.019-.838s.237-1.122,0-1.42a11.155,11.155,0,0,1-.12-3.421,6.546,6.546,0,0,0-.415-2.374c0-.207-1.566-2.246-1.566-2.43a3.7,3.7,0,0,0-1.588-1.136c-.6-.2-.891-.366-.871-.471s-.932-.52-.932-.52a1.649,1.649,0,0,1-1.151-.628c-.318-.548-1.291-.707-1.314-.713l-.019-.108a.761.761,0,0,0-.017-.119q.118-.248.215-.511l.056-.159a1.418,1.418,0,0,0,.975-.4,1.979,1.979,0,0,0,.475-1.252,3.482,3.482,0,0,0-.232-1.391,2.88,2.88,0,0,1-.34-1.468c.039-.219.138-.412.189-.627a2.124,2.124,0,0,0-.142-1.238c-.151-.378-.359-.713-.527-1.079a5.191,5.191,0,0,1-.419-1.527,2.988,2.988,0,0,0-.153-.832,1.433,1.433,0,0,0-.349-.463,2.926,2.926,0,0,0-2.132-.852,7.944,7.944,0,0,1-1.613.128,4.7,4.7,0,0,1-.942-.324,1.908,1.908,0,0,0-2.011.136,7.536,7.536,0,0,0-1.2,2.271,17.03,17.03,0,0,0-1.119,1.988v-.04a2.893,2.893,0,0,0-.148.525,4.9,4.9,0,0,0,.088,1.732,1.345,1.345,0,0,0,.321.772c.2.168.465.128.693.182l-.026.148c-.481,3.043.885,6.065,3.143,6.951,0,.054,0,.105,0,.159q0,.225-.021.449h0s-1.994-.542-2.53-.176-1.586.653-1.745.852-.555.054-.912,1.281-.4,2.479-.861,3.055a2.511,2.511,0,0,0-.714,1.383c-.022.417.06.522-.118.653a1.211,1.211,0,0,0-.357.889.876.876,0,0,1-.215.781.994.994,0,0,0-.278.784s-.12.568-.4.707-.456.991-.456.991l-.9,1.363-1.781-2.6a.633.633,0,0,0-1.061-.071L240.128,348a1.719,1.719,0,0,0-.876.687,3.276,3.276,0,0,0-.454.892l-.478.568a2.038,2.038,0,0,0-.125,1.775l1.142,1.667v.014a1.8,1.8,0,0,0-1.1.593c-1.7,1.988-1.721,3.813-1.467,4.648a34.611,34.611,0,0,0,2.418,4.046,11.009,11.009,0,0,0,3.07,3.3h0l-.013.02a1.923,1.923,0,0,0-.105.162l-.03.051-.028.051-.032.062a.55.55,0,0,0-.024.051l-.034.074a.518.518,0,0,0-.022.051c-.015.034-.028.068-.041.1q-.007.017-.013.034c-.017.045-.034.091-.049.142l-.017.051c-.011.034-.019.068-.03.105s-.012.045-.017.068l-.026.1a.7.7,0,0,0-.017.074.781.781,0,0,1-.024.114c-.006.04-.011.045-.015.071s-.022.122-.03.187a.183.183,0,0,1-.011.074.878.878,0,0,0-.017.133.479.479,0,0,0,0,.1l-.013.128v.1a.7.7,0,0,1-.011.148.252.252,0,0,0,0,.091v.253a19,19,0,0,0,.1,3.5,1.4,1.4,0,0,0,1.052,1.042,1,1,0,0,0,.338-.023c1.033-.236,3.442-.784,4.3-.568a5.664,5.664,0,0,0,2.138-.23l.179-.045.123.52.392-.142.333.253.215.162a1.44,1.44,0,0,0,1.979,1.153l.376.284,3.827.131a7.062,7.062,0,0,0,1.355.852.833.833,0,0,0,.191.057,6.456,6.456,0,0,0,1.076.026,5.125,5.125,0,0,0,.518-.026s-.039-1.371-.095-2.907a23.853,23.853,0,0,0,3.545-.383c2.044-.471,2.9-2.924,3.21-4.236a16.067,16.067,0,0,1,.2,1.627q.125.722.318,1.42a5.353,5.353,0,0,0,.43,1.045c1.506-.679.594-1.7.277-2.141s.215-.809.215-.809.417-.366.376-.7-.06-.7,1.291-.679S271.165,366.507,271.165,366.507Zm-20.937-16.669a17.323,17.323,0,0,0,.374,2.181,3.727,3.727,0,0,1,.045.852c-.8-.085-1.631-.131-1.631-.131a.316.316,0,0,1,.043.133l-.127-.037-.181-.057,1.471-2.956Zm-2.917,6.121,1.383.284.116.023a7.807,7.807,0,0,0-.071.852c0,.028.03.06.075.1a2.951,2.951,0,0,0-.026.434,3.4,3.4,0,0,0,1.409.713c-.011.054-.019.105-.03.15h0c-.656-.454-1.687-.667-1.8-1.005s-3.629-1.956-3.629-1.956l-.349-.23.923.23.254-.034A10.807,10.807,0,0,0,247.311,355.959Z" transform="translate(-188.14 -255.082)" fill="url(#linear-gradient)"/>
    <path id="Path_103" data-name="Path 103" d="M284.985,459.079s-.549,4.384-3.339,5.031-12.105.52-12.105.52a10.231,10.231,0,0,1-7.252-6.951c-1.925-5.937-3.165-8.3-1.506-8.4s10.554,3.975,11.064,4.02S285.478,444.27,284.985,459.079Z" transform="translate(-206.474 -346.519)" fill="#65617d"/>
    <path id="Path_104" data-name="Path 104" d="M284.985,459.079s-.549,4.384-3.339,5.031-12.105.52-12.105.52a10.231,10.231,0,0,1-7.252-6.951c-1.925-5.937-3.165-8.3-1.506-8.4s10.554,3.975,11.064,4.02S285.478,444.27,284.985,459.079Z" transform="translate(-206.474 -346.519)" opacity="0.05"/>
    <path id="Path_105" data-name="Path 105" d="M259.637,484.23a1.379,1.379,0,0,0,1.041,1.036,1.086,1.086,0,0,0,.338-.026c1.022-.233,3.418-.778,4.264-.568a5.665,5.665,0,0,0,2.117-.227c.445-.111.772-.216.772-.216s-.787-3.45-.884-3.552-3.539-2.839-3.539-2.839l-2.724-.258h0a1.423,1.423,0,0,0-.925.716,4.728,4.728,0,0,0-.551,2.447A18.806,18.806,0,0,0,259.637,484.23Z" transform="translate(-206.104 -366.789)" fill="#3f3d56"/>
    <path id="Path_106" data-name="Path 106" d="M259.664,484.273a1.378,1.378,0,0,0,1.041,1.036q-.4-.682-.74-1.42l.015-2.516a5.285,5.285,0,0,1,1.076-3.734h0s-1.435.128-1.476,3.163A20.1,20.1,0,0,0,259.664,484.273Z" transform="translate(-206.131 -366.831)" opacity="0.05"/>
    <path id="Path_107" data-name="Path 107" d="M309.149,461.763l2.536-2.621,3.989-5.187-1.076-.065a1.684,1.684,0,0,0-.63,1.085c-.019.633-1.076.045-1.629.406s-3.242,4.912-3.713,4.881-.845-.315-1.043.128l-.013.028Z" transform="translate(-243.804 -349.825)" opacity="0.1"/>
    <path id="Path_108" data-name="Path 108" d="M262.11,478.287c.09.057.183.114.275.165a17.931,17.931,0,0,1,4.481,3.788,19.207,19.207,0,0,0,2.549,2.186c.445-.111.772-.216.772-.216s-.787-3.45-.884-3.552-3.539-2.839-3.539-2.839l-2.724-.258h0A1.428,1.428,0,0,0,262.11,478.287Z" transform="translate(-208.123 -366.774)" opacity="0.1"/>
    <path id="Path_109" data-name="Path 109" d="M236.839,440.706a34.765,34.765,0,0,0,2.4,4.02,10.451,10.451,0,0,0,3.283,3.407A17.473,17.473,0,0,1,247,451.921a21.184,21.184,0,0,0,2.73,2.325l.243.187.536.412.284.213s.658-.7,1.314-1.4,1.291-1.388,1.291-1.42a5.66,5.66,0,0,0,.215-1.011c-.06-.051-.166-.386-.415-.8a3.113,3.113,0,0,0-1-1.09,3.518,3.518,0,0,1-1.291-1.786s-.086-.082-.215-.193a2.409,2.409,0,0,0-.882-.52c-.43-.071-1.239-1.238-1.239-1.238a2.977,2.977,0,0,1-.766-1.062,31.756,31.756,0,0,0-3.537-3.589l7.388,6.263,1.768,1.5,2.536-2.618,3.989-5.187-1.317-.079a53.755,53.755,0,0,0-5.809-.153,2.581,2.581,0,0,1-1.076.094,2.991,2.991,0,0,1-1.631-.395c-.65-.451-1.672-.664-1.79-1s-3.595-1.942-3.595-1.942-4.733-3.319-6.426-1.349S236.583,439.872,236.839,440.706Z" transform="translate(-188.197 -336.627)" fill="#65617d"/>
    <path id="Path_110" data-name="Path 110" d="M308.24,367.507l.609,2.672.787,6.016,2.889.258.826-1.817.835-1.828s.521-2.43.895-4.781c.329-2.081.546-4.1.187-4.321-.321-.193-.529-.894-.667-1.65-.017-.091-.032-.187-.045-.284-.1-.638-.161-1.284-.194-1.934,0,0-6.052-.415-5.206,2.879a6.79,6.79,0,0,1,.228,1.752,3.016,3.016,0,0,1-.022.446A4.117,4.117,0,0,1,308.24,367.507Z" transform="translate(-244.329 -282.465)" fill="#ee8e9e"/>
    <path id="Path_111" data-name="Path 111" d="M302.4,379.905l.215,4.543.49,3.864.551,1.792.493,9.79s4.733.724,5.89-.014a.53.53,0,0,0,.215-.213c1.392-2.774.936-10.809.936-10.809l.529-5.187-.353-2.692-.861-.119-.658-.094s-.148.241-.364.616c-.583,1.014-1.654,3.012-1.581,3.844.1,1.136-.118,2.308-.454,2.49s-.609.494-.667.182a1.811,1.811,0,0,1-.06-.829,8.671,8.671,0,0,0-.256-1.792,9.408,9.408,0,0,1-.491-2.254,3.411,3.411,0,0,0-.215-1.635c-.157-.182-.374-.363-.2-1.193a5.08,5.08,0,0,0-.774-2.445Z" transform="translate(-239.746 -295.303)" fill="#e3e8f4"/>
    <path id="Path_112" data-name="Path 112" d="M331.458,383.885l.2,7.754,1.134.832a.554.554,0,0,0,.215-.216c1.392-2.774.936-10.809.936-10.809l.531-5.187-.355-2.692-.861-.119c.331-2.081.546-4.1.187-4.321-.32-.193-.529-.894-.665-1.647h0l-.613,5.485s.052.494.069,1.005a3.726,3.726,0,0,1-.049.965,4.23,4.23,0,0,0-.039,1.3,13.442,13.442,0,0,0-.617,3.824C331.413,382.017,331.458,383.885,331.458,383.885Z" transform="translate(-262.546 -287.949)" opacity="0.1"/>
    <path id="Path_113" data-name="Path 113" d="M333.2,367s.992.162,1.306.707a1.63,1.63,0,0,0,1.14.625s.942.415.923.517.275.261.861.469A3.874,3.874,0,0,1,339,370.453c0,.176,1.551,2.2,1.551,2.411a6.52,6.52,0,0,1,.413,2.359,11.068,11.068,0,0,0,.118,3.407c.237.284,0,1.4,0,1.4a.977.977,0,0,0-.019.832,9.359,9.359,0,0,1-.041,2.411l.021,2.024s-.215,1.269.039,1.323-.039.622-.039.622a2.85,2.85,0,0,0,.058,1.5,9.914,9.914,0,0,1,.353,2.462l4.206,8.066s.06,1.479-1.276,1.454-1.319.338-1.278.673-.374.7-.374.7-.529.363-.215.8,1.218,1.454-.275,2.127a5.3,5.3,0,0,1-.43-1.036q-.19-.686-.314-1.4a7.638,7.638,0,0,0-.413-2.232c-.275-.258-.237-1.5-.237-1.5s.394-1.011-.157-1.42-8.528-6.246-8.528-6.246l-.194-7.757s-.138-5.733.688-7.652a4.23,4.23,0,0,1,.039-1.3,8.845,8.845,0,0,0-.019-1.97Z" transform="translate(-262.947 -287.605)" fill="#3f3d56"/>
    <path id="Path_114" data-name="Path 114" d="M287.616,377.245s-1.975-.537-2.506-.173-1.57.647-1.721.852-.549.054-.9,1.272-.392,2.465-.845,3.035a2.518,2.518,0,0,0-.706,1.374c-.019.415.058.52-.118.647a1.2,1.2,0,0,0-.355.883c.075.207,4.088,4.773,4.088,4.773a16,16,0,0,0,.374,2.178c.176.44-.2,6.51-.589,6.925s2.644.38,2.644.38.138-3.975.256-4.191-.08-4.461-.08-4.461a33.336,33.336,0,0,1,.237-4.591A27.142,27.142,0,0,0,287.6,382a10.751,10.751,0,0,1,.5-2.359C288.381,379.192,287.616,377.245,287.616,377.245Z" transform="translate(-222.515 -294.727)" opacity="0.1"/>
    <path id="Path_115" data-name="Path 115" d="M287.343,376.972s-1.975-.537-2.506-.176-1.573.65-1.721.852-.551.051-.9,1.272-.394,2.462-.845,3.032a2.539,2.539,0,0,0-.708,1.374c-.019.415.06.52-.118.65a1.176,1.176,0,0,0-.353.88c.077.207,4.087,4.773,4.087,4.773a15.669,15.669,0,0,0,.374,2.178c.179.44-.2,6.51-.592,6.925s2.655.378,2.655.378.138-3.975.254-4.188-.077-4.463-.077-4.463a33.3,33.3,0,0,1,.237-4.588,27.476,27.476,0,0,0,.226-4.151,10.75,10.75,0,0,1,.5-2.359C288.128,378.914,287.343,376.972,287.343,376.972Z" transform="translate(-222.301 -294.531)" fill="#3f3d56"/>
    <path id="Path_116" data-name="Path 116" d="M312.244,362.7a6.792,6.792,0,0,1,.228,1.752c1.986.768,4.113-.344,5.163-2.7-.1-.638-.161-1.284-.194-1.934C317.442,359.817,311.4,359.4,312.244,362.7Z" transform="translate(-247.409 -282.45)" opacity="0.1"/>
    <path id="Path_117" data-name="Path 117" d="M298.65,340.581c0,3.161,1.872,5.771,4.264,5.938s4.464-2.166,4.716-5.309-1.405-6-3.771-6.494-4.611,1.538-5.111,4.63A7.693,7.693,0,0,0,298.65,340.581Z" transform="translate(-236.803 -264.434)" fill="#ee8e9e"/>
    <path id="Path_118" data-name="Path 118" d="M270.833,404l-1.076.44a.869.869,0,0,1-.215.778.975.975,0,0,0-.273.778s-.118.568-.394.7-.452.985-.452.985l-.9,1.374s-.336.363-.275.545-.355.233-.355.233l.215,4.617,1.867.468,1.16-.156.942-.466.826-.65.372-1.269,1.652-3.322Z" transform="translate(-211.875 -314.1)" fill="#3f3d56"/>
    <path id="Path_119" data-name="Path 119" d="M250.559,418.663s-2.4-4.563-4.186-2.1.727,6.459,1.317,6.329,3.4-.338,3.4-.338Z" transform="translate(-195.275 -322.573)" fill="#ee8e9e"/>
    <path id="Path_153" data-name="Path 153" d="M.315,0,12.986,1.543a.511.511,0,0,1,.4.458l1.176,11.384c.024.229-.115.4-.31.372L1.576,12.219a.511.511,0,0,1-.4-.458L0,.376C-.019.147.12-.02.315,0Z" transform="translate(50.065 86.839) rotate(27.04)" fill="#3f3d56"/>
    <path id="Path_154" data-name="Path 154" d="M0,0,11.245,1.366l1.029,9.966L1.029,9.966Z" transform="translate(50.55 88.422) rotate(27.04)" fill="#3445c6"/>
    <ellipse id="Ellipse_14" data-name="Ellipse 14" cx="0.172" cy="0.227" rx="0.172" ry="0.227" transform="translate(48.21 92.62)" fill="#e6e8ec"/>
    <ellipse id="Ellipse_15" data-name="Ellipse 15" cx="0.286" cy="0.378" rx="0.286" ry="0.378" transform="translate(58.265 99.346)" fill="#e6e8ec"/>
    <path id="Path_120" data-name="Path 120" d="M260.93,425.124c-.022,3.424,5.344,4.151,5.344,4.151l1.37.284.615.128.256-3.345s-.282-.057-.633-.165c-.521-.159-1.194-.434-1.334-.823C266.323,424.71,260.945,421.7,260.93,425.124Z" transform="translate(-207.197 -328.075)" fill="#ee8e9e"/>
    <path id="Path_121" data-name="Path 121" d="M299.11,339.358a.485.485,0,0,1,.329.193c.151.213.159.591.357.721a.322.322,0,0,0,.234.034c.523-.1.824-.875,1.327-1.09a1.038,1.038,0,0,1,.878.1.7.7,0,0,1,.293.247c.168.284.049.71.127,1.056a1.025,1.025,0,0,0,.921.735,1.389,1.389,0,0,1,1.054.474,1.575,1.575,0,0,1,.187,1.005,1.028,1.028,0,0,0,0,.372.4.4,0,0,0,.747.023c.1-.224.069-.409.3-.471a.771.771,0,0,1,.48.111,2.78,2.78,0,0,0,1.246.253,7.513,7.513,0,0,0-.589-6.279,3.941,3.941,0,0,0-4.543-2.017,5.47,5.47,0,0,0-3.344,4.533Z" transform="translate(-237.164 -264.446)" opacity="0.1"/>
    <path id="Path_122" data-name="Path 122" d="M300.8,335.057a1.034,1.034,0,0,1,0-.372,1.564,1.564,0,0,0-.187-1,1.388,1.388,0,0,0-1.054-.477,1.027,1.027,0,0,1-.921-.735c-.077-.346.041-.769-.127-1.053a.657.657,0,0,0-.293-.247,1.04,1.04,0,0,0-.878-.1c-.5.216-.8.994-1.327,1.09a.309.309,0,0,1-.234-.034c-.2-.131-.215-.508-.357-.721-.239-.332-.693-.116-.983-.363a1.336,1.336,0,0,1-.318-.769,4.882,4.882,0,0,1-.086-1.721,9.015,9.015,0,0,1,1.239-2.45,7.419,7.419,0,0,1,1.192-2.246,1.874,1.874,0,0,1,1.994-.136,4.578,4.578,0,0,0,.934.324,8,8,0,0,0,1.6-.128,2.88,2.88,0,0,1,2.113.852,1.41,1.41,0,0,1,.344.46,3.027,3.027,0,0,1,.155.826,5.118,5.118,0,0,0,.415,1.516c.164.366.372.7.521,1.073a2.131,2.131,0,0,1,.142,1.229c-.052.213-.151.406-.189.625a2.91,2.91,0,0,0,.338,1.457,3.474,3.474,0,0,1,.23,1.383,1.971,1.971,0,0,1-.471,1.244,1.43,1.43,0,0,1-1,.4,2.8,2.8,0,0,1-1.269-.253.791.791,0,0,0-.48-.111c-.23.062-.2.247-.3.471A.4.4,0,0,1,300.8,335.057Z" transform="translate(-233.15 -256.454)" fill="#3f3d56"/>
    <path id="Path_123" data-name="Path 123" d="M307.908,462.275l2.536-2.618,3.989-5.187-1.317-.08a1.288,1.288,0,0,0-.278.71c-.019.633-1.076.043-1.629.406s-3.242,4.912-3.713,4.881-.845-.315-1.043.125l-.013.028a.55.55,0,0,1-.3.236Z" transform="translate(-242.681 -350.183)" opacity="0.1"/>
    <path id="Path_124" data-name="Path 124" d="M290.61,457.6l1.274,5.369.2.852.607-.219,1.338-.486,5.955-2.158a4.242,4.242,0,0,0,2.151-.755,5.237,5.237,0,0,1,3.7-1.065c.787.1,1.663-.352,2.39-2.124,0,0,1.65-6.431-2.515-8.274s-4.365.98-4.365.98l-.058.045a1.684,1.684,0,0,0-.63,1.085c-.019.633-1.076.045-1.629.406s-3.242,4.912-3.713,4.881-.845-.315-1.043.128l-.013.028c-.146.264-.583.326-.873.335a1.96,1.96,0,0,1-.271,0l-.039.014-.3.119Z" transform="translate(-230.492 -345.694)" fill="#65617d"/>
    <path id="Path_125" data-name="Path 125" d="M292.14,436.282l.615.128.256-3.345s-.282-.057-.632-.165A22.459,22.459,0,0,1,292.14,436.282Z" transform="translate(-231.693 -334.794)" opacity="0.1"/>
    <path id="Path_126" data-name="Path 126" d="M308.54,389.548s1.826-.7,1.375,6.147a22.364,22.364,0,0,1-3.831,11.178s-3.892,2.254-5.641,1.891a23.394,23.394,0,0,0-3.025-.44,3.642,3.642,0,0,0-1.771-.622,6.766,6.766,0,0,1-3.085-1.116c-.041-.264.512-4.072.275-4.355a13.971,13.971,0,0,1,3.027.409c.275.261.669.077.964,0a2.662,2.662,0,0,1,2.986-.2s.609.077.845-.131a.66.66,0,0,1,.615-.051,1.577,1.577,0,0,0,.43-.284c.058-.1.531,0,.531,0a.168.168,0,0,0,.179,0,.276.276,0,0,0,.116-.18,1.84,1.84,0,0,1,.275-.568s.529-3.941,1.532-5.42a1.013,1.013,0,0,0,.215-.752C304.472,394.63,306.182,388.716,308.54,389.548Z" transform="translate(-232.023 -303.694)" opacity="0.1"/>
    <path id="Path_127" data-name="Path 127" d="M308.318,387.693s1.829-.7,1.377,6.147a22.347,22.347,0,0,1-3.831,11.178s-3.892,2.257-5.641,1.894a24.526,24.526,0,0,0-3.027-.449,3.628,3.628,0,0,0-1.768-.622,6.777,6.777,0,0,1-3.085-1.116c-.039-.264.51-4.072.275-4.358a13.99,13.99,0,0,1,3.027.412c.275.261.667.074.962,0a2.674,2.674,0,0,1,2.988-.2s.609.079.843-.128a.671.671,0,0,1,.615-.054,1.668,1.668,0,0,0,.43-.284c.058-.105.529,0,.529,0a.168.168,0,0,0,.179,0,.276.276,0,0,0,.116-.18,1.84,1.84,0,0,1,.275-.568s.531-3.941,1.534-5.42a1.012,1.012,0,0,0,.215-.752C304.252,392.778,305.961,386.872,308.318,387.693Z" transform="translate(-231.851 -302.367)" fill="#3f3d56"/>
    <path id="Path_128" data-name="Path 128" d="M300.64,478.219l2.594,4.145.017-.023a4.94,4.94,0,0,0,.215-1.014,4.561,4.561,0,0,0-1.413-1.894,3.129,3.129,0,0,1-1.112-1.334Z" transform="translate(-238.364 -367.161)" opacity="0.1"/>
    <path id="Path_129" data-name="Path 129" d="M300.571,492.259l.284.213s.658-.7,1.314-1.4,1.291-1.388,1.291-1.42a5.654,5.654,0,0,0,.215-1.011c-.06-.051-.166-.386-.415-.8-1.76-.65-.645.963-.491,1.036,0,0-2.141-.65-2.259,2.43A5,5,0,0,0,300.571,492.259Z" transform="translate(-238.261 -374.026)" opacity="0.1"/>
    <path id="Path_130" data-name="Path 130" d="M303.419,493.526l.374.284,3.793.128a7,7,0,0,0,1.342.852,1,1,0,0,0,.189.054,6.365,6.365,0,0,0,1.058.026,5.033,5.033,0,0,0,.514-.026s-.179-6.312-.314-6.976c-.065-.318-.383-.25-.7-.091a4.454,4.454,0,0,0-.68.454,9.536,9.536,0,0,0-1.865.389c-.256.182-.983-.105-1.435,0s-1.259-.7-1.259-.7c-2.2-.96-.962.829-.8.909,0,0-2.151-.65-2.261,2.43S303.419,493.526,303.419,493.526Z" transform="translate(-238.938 -373.989)" fill="#3f3d56"/>
    <path id="Path_131" data-name="Path 131" d="M336.373,491.121a9.9,9.9,0,0,0,1.274,3.785,5.039,5.039,0,0,0,.514-.026s-.179-6.312-.314-6.976c-.065-.318-.383-.25-.7-.091A9.026,9.026,0,0,0,336.373,491.121Z" transform="translate(-266.409 -374.021)" fill="#565387"/>
    <path id="Path_132" data-name="Path 132" d="M336.373,491.121a9.9,9.9,0,0,0,1.274,3.785,5.039,5.039,0,0,0,.514-.026s-.179-6.312-.314-6.976c-.065-.318-.383-.25-.7-.091A9.026,9.026,0,0,0,336.373,491.121Z" transform="translate(-266.409 -374.021)" opacity="0.1"/>
    <path id="Path_133" data-name="Path 133" d="M333.127,491.294a18.847,18.847,0,0,0,.676,3.532,1,1,0,0,0,.189.054,6.362,6.362,0,0,0,1.058.026,5.038,5.038,0,0,0,.514-.026s-.179-6.312-.314-6.976c-.065-.318-.383-.25-.7-.091a4.447,4.447,0,0,0-.68.454A4.145,4.145,0,0,0,333.127,491.294Z" transform="translate(-263.812 -374.021)" opacity="0.05"/>
    <path id="Path_134" data-name="Path 134" d="M272.54,455.34a8.4,8.4,0,0,1,3.481,3.674Z" transform="translate(-216.31 -350.863)" opacity="0.1"/>
    <g id="Group_6" data-name="Group 6" transform="translate(60.84 71.572)" opacity="0.1">
      <path id="Path_135" data-name="Path 135" d="M343.417,345.72a.107.107,0,0,1-.011.057,1.876,1.876,0,0,1-.067.216A2.423,2.423,0,0,1,343.417,345.72Z" transform="translate(-332.718 -343.94)"/>
      <path id="Path_136" data-name="Path 136" d="M294.008,339.972a2.7,2.7,0,0,1,.146-.522.8.8,0,0,1-.03.133,4.934,4.934,0,0,0,.088,1.721,1.348,1.348,0,0,0,.316.769c.293.247.746.031.985.363.151.213.159.591.357.721a.309.309,0,0,0,.234.034c.523-.1.824-.875,1.327-1.09a1.03,1.03,0,0,1,.878.1.657.657,0,0,1,.293.247c.168.284.049.707.127,1.053a1.025,1.025,0,0,0,.921.735,1.381,1.381,0,0,1,1.054.477,1.564,1.564,0,0,1,.187,1,1.031,1.031,0,0,0,0,.372.4.4,0,0,0,.746.023c.1-.224.069-.409.3-.471a.79.79,0,0,1,.48.111,2.8,2.8,0,0,0,1.269.253,1.43,1.43,0,0,0,1-.4,1.46,1.46,0,0,0,.305-.491,1.752,1.752,0,0,1-.43.88,1.43,1.43,0,0,1-1,.4,2.8,2.8,0,0,1-1.269-.253.791.791,0,0,0-.48-.111c-.23.062-.2.247-.3.471a.4.4,0,0,1-.749-.023,1.081,1.081,0,0,1,0-.372,1.564,1.564,0,0,0-.187-1,1.388,1.388,0,0,0-1.054-.477,1.027,1.027,0,0,1-.921-.735c-.077-.346.041-.769-.127-1.053a.658.658,0,0,0-.29-.247,1.045,1.045,0,0,0-.88-.1c-.5.216-.8.994-1.327,1.09a.309.309,0,0,1-.234-.034c-.2-.131-.215-.508-.357-.721-.239-.332-.691-.116-.983-.363a1.336,1.336,0,0,1-.318-.769A4.884,4.884,0,0,1,294.008,339.972Z" transform="translate(-293.966 -339.45)"/>
    </g>
    <path id="Path_137" data-name="Path 137" d="M339.381,411.285c-.361.642-.772,1.235-1.091,1.911a4.533,4.533,0,0,0-.478,2.271,6.623,6.623,0,0,0,.688-1.624,24.275,24.275,0,0,1,1.323-2.621c.084-.168.626-1.136.353-1.175C339.949,410,339.5,411.066,339.381,411.285Z" transform="translate(-267.536 -318.429)" opacity="0.1"/>
    <path id="Path_138" data-name="Path 138" d="M345.11,592.83c.26,1.1.523,2.206.848,3.277a31.449,31.449,0,0,0,2.2,5.284q.846,1.631,1.816,3.14a11.214,11.214,0,0,1,2,4.131,27.68,27.68,0,0,1,.179,2.839,4.012,4.012,0,0,0,.886,2.521,2.737,2.737,0,0,0,1.456.633c.366.077.822.1,1.011-.315a1.535,1.535,0,0,0,.1-.551l.088-1.388c.017-.3.1-.684.327-.7s.342.386.536.568c.258.239.645,0,.787-.361a2.28,2.28,0,0,0,.022-1.221A5.739,5.739,0,0,0,355.107,607a6.094,6.094,0,0,1-1.1-.752,4.986,4.986,0,0,1-.861-1.437,101.576,101.576,0,0,1-5.413-13.421,12.5,12.5,0,0,1-.557-2.646,22.9,22.9,0,0,1,.086-2.794,20.816,20.816,0,0,0-.349-4.977,4.793,4.793,0,0,0-.359-1.21,1.736,1.736,0,0,0-2.8-.534,4.241,4.241,0,0,0-1.114,2.689,9.782,9.782,0,0,0,.557,2.8Q344.153,588.776,345.11,592.83Z" transform="translate(-271.329 -439.222)" fill="#a1616a"/>
    <path id="Path_139" data-name="Path 139" d="M345.11,592.83c.26,1.1.523,2.206.848,3.277a31.449,31.449,0,0,0,2.2,5.284q.846,1.631,1.816,3.14a11.214,11.214,0,0,1,2,4.131,27.68,27.68,0,0,1,.179,2.839,4.012,4.012,0,0,0,.886,2.521,2.737,2.737,0,0,0,1.456.633c.366.077.822.1,1.011-.315a1.535,1.535,0,0,0,.1-.551l.088-1.388c.017-.3.1-.684.327-.7s.342.386.536.568c.258.239.645,0,.787-.361a2.28,2.28,0,0,0,.022-1.221A5.739,5.739,0,0,0,355.107,607a6.094,6.094,0,0,1-1.1-.752,4.986,4.986,0,0,1-.861-1.437,101.576,101.576,0,0,1-5.413-13.421,12.5,12.5,0,0,1-.557-2.646,22.9,22.9,0,0,1,.086-2.794,20.816,20.816,0,0,0-.349-4.977,4.793,4.793,0,0,0-.359-1.21,1.736,1.736,0,0,0-2.8-.534,4.241,4.241,0,0,0-1.114,2.689,9.782,9.782,0,0,0,.557,2.8Q344.153,588.776,345.11,592.83Z" transform="translate(-271.329 -439.222)" opacity="0.05"/>
    <path id="Path_140" data-name="Path 140" d="M294.27,771.246a2.225,2.225,0,0,0,1.213.193c.03-.443.482-.542.818-.52a.755.755,0,0,1,.467.142c.084.071.148.173.23.247a.814.814,0,0,0,.475.162l1.747.193a4.039,4.039,0,0,0,2.319-.2.829.829,0,0,0,.372-.329,1.111,1.111,0,0,0-.273-1.184c-.273-.273-.626-.395-.9-.673-.607-.611-.691-1.752-1.011-2.666a8.307,8.307,0,0,0-.837-1.6,5.709,5.709,0,0,0-.824-1.116,3.546,3.546,0,0,0-2.33-.75c-.581-.068-1.127-.114-1.545.568-.516.852-.31,2.555-.277,3.549A33.568,33.568,0,0,0,294.27,771.246Z" transform="translate(-233.031 -571.25)" fill="#514e7f"/>
    <path id="Path_141" data-name="Path 141" d="M294.27,771.246a2.225,2.225,0,0,0,1.213.193c.03-.443.482-.542.818-.52a.755.755,0,0,1,.467.142c.084.071.148.173.23.247a.814.814,0,0,0,.475.162l1.747.193a4.039,4.039,0,0,0,2.319-.2.829.829,0,0,0,.372-.329,1.111,1.111,0,0,0-.273-1.184c-.273-.273-.626-.395-.9-.673-.607-.611-.691-1.752-1.011-2.666a8.307,8.307,0,0,0-.837-1.6,5.709,5.709,0,0,0-.824-1.116,3.546,3.546,0,0,0-2.33-.75c-.581-.068-1.127-.114-1.545.568-.516.852-.31,2.555-.277,3.549A33.568,33.568,0,0,0,294.27,771.246Z" transform="translate(-233.031 -571.25)" opacity="0.05"/>
    <path id="Path_142" data-name="Path 142" d="M284.185,629.125c-.534.227-.766,1.1-.667,1.834a7.9,7.9,0,0,0,.7,2.007c.779,1.837,1.114,3.938,1.768,5.855.488,1.42,1.149,2.754,1.631,4.191a9.229,9.229,0,0,1,.488,4.583c-.142.741-.417,1.42-.6,2.149a15.365,15.365,0,0,0-.353,2.428,60.782,60.782,0,0,0-.127,8.421,3.216,3.216,0,0,0,.159.994c.11.284.3.568.215.852-.037.116-.116.2-.155.315a.954.954,0,0,0,.316.883.609.609,0,0,1-.342.349,1.248,1.248,0,0,1,.344,1.19c-.181.037-.191.4-.077.6s.295.312.376.531a.836.836,0,0,1-.31.931,1.141,1.141,0,0,1-.843.085,7.373,7.373,0,0,1-1.409-.409,1.326,1.326,0,0,1-.822-1.391,27.233,27.233,0,0,1-.1-3.484c.075-5.633,0-11.272-.185-16.9a24.379,24.379,0,0,0-1.256-6.562q-.551-1.6-1.224-3.123a16.36,16.36,0,0,1-1.588-7.51c.024-.284.1-.622.314-.667a.36.36,0,0,1,.243.054,10.526,10.526,0,0,1,1.28.931A4.027,4.027,0,0,0,284.185,629.125Z" transform="translate(-222.241 -473.976)" fill="#464353"/>
    <path id="Path_143" data-name="Path 143" d="M284.185,629.125c-.534.227-.766,1.1-.667,1.834a7.9,7.9,0,0,0,.7,2.007c.779,1.837,1.114,3.938,1.768,5.855.488,1.42,1.149,2.754,1.631,4.191a9.229,9.229,0,0,1,.488,4.583c-.142.741-.417,1.42-.6,2.149a15.365,15.365,0,0,0-.353,2.428,60.782,60.782,0,0,0-.127,8.421,3.216,3.216,0,0,0,.159.994c.11.284.3.568.215.852-.037.116-.116.2-.155.315a.954.954,0,0,0,.316.883.609.609,0,0,1-.342.349,1.248,1.248,0,0,1,.344,1.19c-.181.037-.191.4-.077.6s.295.312.376.531a.836.836,0,0,1-.31.931,1.141,1.141,0,0,1-.843.085,7.373,7.373,0,0,1-1.409-.409,1.326,1.326,0,0,1-.822-1.391,27.233,27.233,0,0,1-.1-3.484c.075-5.633,0-11.272-.185-16.9a24.379,24.379,0,0,0-1.256-6.562q-.551-1.6-1.224-3.123a16.36,16.36,0,0,1-1.588-7.51c.024-.284.1-.622.314-.667a.36.36,0,0,1,.243.054,10.526,10.526,0,0,1,1.28.931A4.027,4.027,0,0,0,284.185,629.125Z" transform="translate(-222.241 -473.976)" opacity="0.05"/>
    <path id="Path_144" data-name="Path 144" d="M249.526,608.716a1.562,1.562,0,0,0-.929-.386,1.746,1.746,0,0,0-1.009.676,11.894,11.894,0,0,0-1.007,1.164,8.8,8.8,0,0,0-1.2,7.007,15.463,15.463,0,0,0,1.467,3.438l1.162,2.2c1.773,3.359,3.545,6.718,5.4,10a.383.383,0,0,0,.2.361c.067.023.151.02.191.094a.34.34,0,0,1,.024.15,2.8,2.8,0,0,1-.1.71.436.436,0,0,0-.021.244c.06.185.314.08.4.253a.382.382,0,0,1-.084.358.51.51,0,0,0-.146.338c.013.133.189.284.183.449a.5.5,0,0,1-.11.247.79.79,0,0,0,.058.806c.123,1.6-.538,3.123-.669,4.719-.215,2.521.656,4.983.762,7.513a2.5,2.5,0,0,0,.12.829c.179.437.645.7.622,1.2a6.031,6.031,0,0,1-.131.6,5.988,5.988,0,0,0,.071.852c0,.284-.187.633-.389.52q.228,1.005.407,2.027l4.066.443a6.262,6.262,0,0,0-.037-1.448c-.084-.52-.26-1-.353-1.516a2.293,2.293,0,0,1,.159-1.519.5.5,0,0,1-.447-.485,3.1,3.1,0,0,1,.011-.835c.108-1.4-.338-2.78-.325-4.185a26.387,26.387,0,0,1,.456-3.259c.318-2.328-.013-4.852.772-6.979.475-1.281,1.134-2.7.6-3.941-.262-.613-.727-1.034-1.03-1.613a7.85,7.85,0,0,1-.551-1.758,69.949,69.949,0,0,0-2.528-7.359,9.327,9.327,0,0,1-.544-1.934,13.345,13.345,0,0,1-.069-1.786c0-1.071-.05-2.142-.148-3.205a3.8,3.8,0,0,0-.295-1.326,2.613,2.613,0,0,0-.645-.764A39.846,39.846,0,0,0,249.526,608.716Z" transform="translate(-194.795 -460.415)" fill="#464353"/>
    <path id="Path_145" data-name="Path 145" d="M286.676,778.17a2.26,2.26,0,0,0,1.215.19c.03-.443.48-.542.815-.52a.755.755,0,0,1,.467.142c.084.071.148.176.232.247a.8.8,0,0,0,.475.162l1.745.193a4.022,4.022,0,0,0,2.321-.2.808.808,0,0,0,.37-.329,1.107,1.107,0,0,0-.273-1.181c-.273-.273-.626-.4-.9-.676-.609-.61-.691-1.749-1.013-2.663a8.125,8.125,0,0,0-.835-1.6,5.694,5.694,0,0,0-.826-1.113,3.527,3.527,0,0,0-2.328-.752c-.583-.068-1.129-.111-1.545.568-.516.852-.31,2.555-.28,3.552a33.634,33.634,0,0,0,.357,3.981Z" transform="translate(-227.073 -576.206)" fill="#514e7f"/>
    <ellipse id="Ellipse_16" data-name="Ellipse 16" cx="4.027" cy="5.315" rx="4.027" ry="5.315" transform="translate(73.598 128.378)" fill="#a1616a"/>
    <path id="Path_146" data-name="Path 146" d="M325.906,561.258a3.159,3.159,0,0,1-2.162.806,11.233,11.233,0,0,0-4.653,1.777,1.754,1.754,0,0,0-.538.488,2.333,2.333,0,0,0-.273.761,6.487,6.487,0,0,0-.153,1.848,6.577,6.577,0,0,0,.389,1.738,9.063,9.063,0,0,0,2.5,3.756,1.688,1.688,0,0,0,.633.4c.529.145,1.041-.258,1.564-.44a1.968,1.968,0,0,1,1.444.06c.43.193.9.545,1.327.31a1.735,1.735,0,0,0,.6-.9q.617-1.539,1.1-3.163.173-.633.4-1.238c.467-1.173,1.274-2.078,1.676-3.3a.932.932,0,0,0,.039-.619.7.7,0,0,0-.3-.3,7.768,7.768,0,0,1-1.609-1.667c-.265-.335-.751-1.241-1.132-1.32C326.325,560.162,326.2,560.929,325.906,561.258Z" transform="translate(-252.08 -425.987)" fill="#a1616a"/>
    <path id="Path_147" data-name="Path 147" d="M283.3,581.27a1.905,1.905,0,0,1-1.523.023,14.356,14.356,0,0,1-3.829-1.468,2.264,2.264,0,0,1-.94-.954,3.9,3.9,0,0,1-.262-1.19l-.215-1.987a15.258,15.258,0,0,1,.069-2.027.732.732,0,0,0-.088-.44.31.31,0,0,0-.265-.111c-.6.014-.97.852-1.394,1.42a2.669,2.669,0,0,1-.861.761c-.387.21-.861.358-1.022.869-.065.213-.056.454-.125.667-.271.852-1.426.568-1.721,1.42a2.883,2.883,0,0,1-.215.724c-.138.187-.4.185-.609.23-.841.182-1.248,1.462-1.966,2.067-.6.511-1.383.5-2.035.9a7.245,7.245,0,0,1-1.065.713,3.833,3.833,0,0,1-1.226.082.275.275,0,0,0-.243.105.547.547,0,0,0-.041.352c.405,3.416,2.147,6.3,4.58,7.575a1.417,1.417,0,0,1,.392.25c.366.361.43,1.136.845,1.391a.715.715,0,0,0,.88-.25,9.932,9.932,0,0,0,.645-.926,2.41,2.41,0,0,1,1.418-.985c.5-.105,1.056-.028,1.461-.434a5.643,5.643,0,0,0,.46-.647,2.869,2.869,0,0,1,1.043-.823,8.533,8.533,0,0,1,3.319-.963,8.893,8.893,0,0,0,3.154-.4,1.851,1.851,0,0,0,.7-.525,3.1,3.1,0,0,0,.469-1.076A10.758,10.758,0,0,0,283.3,581.27Z" transform="translate(-209.381 -435.198)" fill="#3445c6"/>
    <path id="Path_148" data-name="Path 148" d="M322.469,573.956a7.237,7.237,0,0,1,.895,0c.351,0,.7-.114,1.048-.116a2.836,2.836,0,0,1,2.457,2.467.835.835,0,0,1,.015.349c-.024.118-.11.2-.2.182a6.782,6.782,0,0,0-.454-1.2,2.565,2.565,0,0,0-3.012-1.323,6.444,6.444,0,0,0-.678.219l-1.076.392a5.752,5.752,0,0,0-.589.236c-.148.074-.4.344-.549.355-.2,0-.039-.227.049-.38a1.528,1.528,0,0,1,.7-.676A5,5,0,0,1,322.469,573.956Z" transform="translate(-253.739 -435.718)" fill="#6c63ff"/>
    <path id="Path_149" data-name="Path 149" d="M334.227,594.921c.26,1.1.521,2.206.848,3.277a31.275,31.275,0,0,0,2.2,5.284q.846,1.631,1.816,3.14a11.463,11.463,0,0,1,2,4.128,27.79,27.79,0,0,1,.179,2.839,4.029,4.029,0,0,0,.884,2.521,2.8,2.8,0,0,0,1.459.633c.364.077.82.1,1.011-.315a1.6,1.6,0,0,0,.1-.551l.086-1.388c.019-.3.1-.684.327-.7s.344.386.538.568c.258.238.645,0,.787-.361a2.3,2.3,0,0,0,.022-1.221,5.756,5.756,0,0,0-2.252-3.691,6.2,6.2,0,0,1-1.1-.752,4.955,4.955,0,0,1-.861-1.44,100.685,100.685,0,0,1-5.413-13.421,12.583,12.583,0,0,1-.559-2.643,22.888,22.888,0,0,1,.088-2.794,20.817,20.817,0,0,0-.349-4.977,4.718,4.718,0,0,0-.361-1.21,1.734,1.734,0,0,0-2.8-.534A4.242,4.242,0,0,0,331.757,584a9.856,9.856,0,0,0,.557,2.8Q333.267,590.866,334.227,594.921Z" transform="translate(-262.782 -440.717)" fill="#a1616a"/>
    <path id="Path_150" data-name="Path 150" d="M347.3,533.543a1.444,1.444,0,0,0-.611-1.136,8.073,8.073,0,0,1-1.035-.835c-.306-.349-.473-.8-.779-1.153a3.231,3.231,0,0,0-1.162-.764,6.964,6.964,0,0,0-2.78-.656,3.974,3.974,0,0,0-2.657.928,1.873,1.873,0,0,0-.452.568,3.013,3.013,0,0,0-.215.88,21.49,21.49,0,0,1-.695,2.785,7.06,7.06,0,0,1-1.321,2.817c-.753.826-1.9,1.3-2.4,2.3a.924.924,0,0,0-.11.645,1.233,1.233,0,0,0,.51.585,8.259,8.259,0,0,1,2.818,3.56,5.253,5.253,0,0,1-.245,4.443c-.284.488-.676,1.068-.4,1.559.43.747,1.87.318,2.205,1.107a2.1,2.1,0,0,1,.043.815,2.332,2.332,0,0,0,1.338,1.948,5.9,5.9,0,0,0,2.409.522,3.606,3.606,0,0,0,.06-2.059,1.064,1.064,0,0,1-.062-.468,1.128,1.128,0,0,1,.278-.449,4.084,4.084,0,0,0,.166-4.029,25.824,25.824,0,0,1-1.663-3.881,2.519,2.519,0,0,1,.258-2.021,5.522,5.522,0,0,1,.759-.73,3.791,3.791,0,0,0,1.063-1.76c.247-.906.215-1.987.934-2.6.691-.568,1.661-.4,2.425-.792A3.4,3.4,0,0,0,347.3,533.543Z" transform="translate(-263.813 -403.609)" fill="#464353"/>
    <path id="Path_151" data-name="Path 151" d="M561.388,655.983c-3.281-1.792-4.245-3.086-4.245-5.679,0-1.987.663-4.282,3.567-4.282a6.806,6.806,0,0,1,4.535,1.7l.944-3.3a8.293,8.293,0,0,0-4.9-1.743V637.86h-1.908v5.026c-3.47.747-5.479,3.881-5.479,8.012,0,4.33,1.936,6.621,5.791,8.612,2.792,1.5,4.253,3.194,4.253,5.931,0,2.839-1.809,4.878-4.488,4.878a9.642,9.642,0,0,1-5.86-2.141l-.906,3.333a9.162,9.162,0,0,0,5.77,2.192v5.026h3.246v-5.176c3.872-.852,5.957-4.543,5.957-8.461C567.663,660.662,565.273,658.073,561.388,655.983Z" transform="translate(-436.191 -481.561)" fill="url(#linear-gradient-2)"/>
    <path id="Path_152" data-name="Path 152" d="M558.5,674.75v-5.026a9.163,9.163,0,0,1-5.77-2.192l.906-3.333a9.642,9.642,0,0,0,5.86,2.141c2.678,0,4.479-2.039,4.479-4.878,0-2.737-1.469-4.429-4.262-5.923-3.847-1.988-5.791-4.282-5.791-8.612,0-4.131,2.009-7.266,5.479-8.012V633.89h1.908v4.827a8.312,8.312,0,0,1,4.9,1.743l-.944,3.282a6.806,6.806,0,0,0-4.535-1.7c-2.9,0-3.567,2.291-3.567,4.282,0,2.587.964,3.881,4.245,5.679,3.885,2.09,6.275,4.679,6.275,9.108,0,3.932-2.074,7.615-5.957,8.461v5.182Z" transform="translate(-436.222 -478.718)" fill="#3445c6"/>
  </g>
</svg>
