<svg width="35" height="23" viewBox="0 0 35 23" fill="none" xmlns="http://www.w3.org/2000/svg">
<rect y="7.49988" width="32" height="15" rx="5" transform="rotate(-13.5547 0 7.49988)" fill="url(#paint0_linear)"/>
<path d="M8.93052 16.0233C9.03388 16.452 9.38346 16.6732 9.82093 16.5677C10.2584 16.4623 10.4688 16.1061 10.3654 15.6773L9.95408 13.9712L11.5465 13.5873C12.9376 13.2519 13.5292 12.2113 13.2529 11.0651C12.9154 9.66524 11.8007 9.30442 10.5933 9.59552L8.39726 10.125C7.8898 10.2473 7.60584 10.5287 7.75982 11.1674L8.93052 16.0233ZM9.25799 11.0839L10.4479 10.7971C11.1566 10.6262 11.6661 10.7811 11.818 11.4111C11.9487 11.9535 11.6044 12.4069 11.0269 12.5461L9.6883 12.8688L9.25799 11.0839ZM15.0909 14.5381C15.1943 14.9668 15.5439 15.188 15.9813 15.0825C16.4188 14.9771 16.6292 14.6209 16.5258 14.1921L16.0807 12.346L17.4981 12.0043C18.2856 11.8145 18.5944 12.2122 18.8602 13.3146C18.9213 13.5683 19.1661 14.3147 19.9535 14.1249C20.286 14.0447 20.5724 13.735 20.4922 13.4025C20.4205 13.105 20.1626 12.8802 19.9876 12.154C19.8336 11.5153 19.5737 11.0133 18.8134 11.0855L18.8092 11.068C19.4537 10.7459 19.6937 9.97521 19.5292 9.29276C19.333 8.47907 18.6524 7.65258 16.9462 8.06391L14.5577 8.63976C14.0502 8.7621 13.7663 9.04349 13.9202 9.6822L15.0909 14.5381ZM15.4184 9.59874L16.897 9.24226C17.527 9.09038 17.9804 9.16623 18.1428 9.83993C18.3137 10.5486 17.805 10.8194 17.2625 10.9502L15.8276 11.2961L15.4184 9.59874ZM20.6632 10.4173C21.1231 12.3246 22.4049 13.5709 24.6622 13.0267C26.8145 12.5078 27.4609 10.6578 27.0327 8.88168C26.5877 7.03557 25.1366 5.93193 23.0717 6.42974C21.0069 6.92754 20.2182 8.57119 20.6632 10.4173ZM22.0981 10.0714C21.807 8.86395 22.1778 7.8673 23.3502 7.58465C24.5226 7.30199 25.3068 8.02021 25.5979 9.22761C25.8889 10.435 25.6874 11.5575 24.3838 11.8718C23.0364 12.1967 22.3892 11.2788 22.0981 10.0714Z" fill="white"/>
<defs>
<linearGradient id="paint0_linear" x1="1.04143" y1="15.9803" x2="29.0125" y2="10.8943" gradientUnits="userSpaceOnUse">
<stop stop-color="#19D2FE"/>
<stop offset="1" stop-color="#2449CC"/>
</linearGradient>
</defs>
</svg>
