<svg width="17" height="17" viewBox="0 0 17 17" fill="none" xmlns="http://www.w3.org/2000/svg">
<path d="M3.82511 1.48755H13.1751C13.9543 1.48755 14.5918 2.12505 14.5918 2.90422V4.46255C14.5918 5.02922 14.2376 5.73755 13.8834 6.09172L10.8376 8.78338C10.4126 9.13755 10.1293 9.84588 10.1293 10.4125V13.4584C10.1293 13.8834 9.84595 14.45 9.49178 14.6625L8.50011 15.3C7.57928 15.8667 6.30428 15.2292 6.30428 14.0959V10.3417C6.30428 9.84588 6.02095 9.20838 5.73761 8.85422L3.04595 6.02088C2.69178 5.66672 2.40845 5.02922 2.40845 4.60422V2.97505C2.40845 2.12505 3.04595 1.48755 3.82511 1.48755Z" stroke="#292D32" stroke-width="1.5" stroke-miterlimit="10" stroke-linecap="round" stroke-linejoin="round"/>
</svg>
