<svg width="114" height="85" viewBox="0 0 114 85" fill="none" xmlns="http://www.w3.org/2000/svg">
<path d="M20.5 28.0001C8.37402 28.0001 2 39.5836 2 39.5836V85H112V7.50002C98.5 1.69402 104.559 3.75118 92 4.00007C79.4409 4.24897 75.622 35.1617 59.1654 34.8977C44.7775 34.6669 34.8905 28.0001 20.5 28.0001Z" fill="url(#paint0_linear)" fill-opacity="0.43"/>
<path d="M2 39.0001C2 39.0001 8.37402 29 20.5 29C34.8905 29 44.7775 34.0404 59.1654 34.2732C75.622 34.5395 76.5 14.5 90 5.00005C98.8081 -1.19821 109.5 5.00002 112 8.45744" stroke="black" stroke-width="3" stroke-linecap="round"/>
<defs>
<linearGradient id="paint0_linear" x1="57" y1="-8.00025" x2="57" y2="84.9998" gradientUnits="userSpaceOnUse">
<stop stop-color="#2F2F2F"/>
<stop offset="1" stop-color="white" stop-opacity="0"/>
</linearGradient>
</defs>
</svg>
