<svg width="114" height="96" viewBox="0 0 114 96" fill="none" xmlns="http://www.w3.org/2000/svg">
<path d="M18.8898 27.1544C6.76378 27.1544 2 50.5835 2 50.5835V96H112V20.3059C102.906 13.097 104.205 2.75552 91.6457 3.00441C79.0866 3.2533 75.622 46.1617 59.1654 45.8977C44.7775 45.6669 33.2803 27.1544 18.8898 27.1544Z" fill="url(#paint0_linear)" fill-opacity="0.43"/>
<path d="M2 50C2 50 6.76378 26.3658 18.8898 26.3658C33.2803 26.3658 44.7775 45.0404 59.1654 45.2732C75.622 45.5395 79.5 2.22002 90.5 2.00008C98 1.85016 99 6.50007 112 19.4574" stroke="black" stroke-width="3" stroke-linecap="round"/>
<defs>
<linearGradient id="paint0_linear" x1="57" y1="3" x2="57" y2="96" gradientUnits="userSpaceOnUse">
<stop stop-color="#2F2F2F"/>
<stop offset="1" stop-color="white" stop-opacity="0"/>
</linearGradient>
</defs>
</svg>
